<svg xmlns="http://www.w3.org/2000/svg" xmlns:xlink="http://www.w3.org/1999/xlink" version="1.1" x="0px" y="0px" viewBox="0 0 30.668 90" enable-background="new 0 0 30.668 85.001" xml:space="preserve"><path d="M10.756,0.175l18.065,6.648c1.462,0.539,2.21,2.159,1.673,3.62c-0.539,1.462-2.159,2.21-3.62,1.673v-0.001L14.826,7.683  c8.491,14.25,11.575,26.886,11.57,37.581c0.003,12.568-4.23,22.343-8.452,28.924c-4.226,6.592-8.438,10.044-8.598,10.179  c-1.206,0.983-2.982,0.804-3.968-0.401c-0.427-0.523-0.635-1.155-0.635-1.782c0-0.817,0.354-1.629,1.037-2.186h0.001  c0,0,0,0,0.014-0.013c0.311-0.258,4.097-3.509,7.757-9.4c3.661-5.9,7.203-14.389,7.204-25.32  c-0.003-9.633-2.742-21.244-10.843-34.808L5.459,22.262c-0.55,1.456-2.178,2.192-3.635,1.644C0.695,23.478,0,22.404,0,21.265  c0-0.33,0.06-0.666,0.183-0.995L7.146,1.825C7.692,0.376,9.304-0.36,10.756,0.175z"/></svg>