<svg xmlns="http://www.w3.org/2000/svg" xmlns:xlink="http://www.w3.org/1999/xlink" version="1.1" x="0px" y="0px" viewBox="0 0 30.669 90" enable-background="new 0 0 30.669 85" xml:space="preserve"><path d="M19.913,0.174L1.847,6.823c-1.461,0.539-2.21,2.159-1.672,3.62c0.539,1.461,2.159,2.209,3.62,1.673l0-0.001l12.048-4.433  C7.351,21.933,4.267,34.568,4.271,45.263c-0.002,12.568,4.231,22.343,8.453,28.924c4.227,6.592,8.438,10.044,8.598,10.179  c1.206,0.983,2.982,0.804,3.968-0.401c0.427-0.523,0.635-1.155,0.635-1.782c0-0.817-0.354-1.629-1.037-2.186h-0.001  c0,0,0,0-0.014-0.013c-0.311-0.258-4.097-3.509-7.756-9.4c-3.662-5.9-7.205-14.389-7.206-25.32  c0.003-9.633,2.743-21.244,10.844-34.808l4.455,11.806c0.55,1.457,2.178,2.193,3.635,1.643c1.129-0.427,1.824-1.5,1.824-2.64  c0-0.33-0.06-0.667-0.183-0.995L23.523,1.825C22.977,0.375,21.365-0.36,19.913,0.174z"/></svg>