<svg width="93" height="76" viewBox="0 0 93 76" fill="none" xmlns="http://www.w3.org/2000/svg">
<path d="M6.21821 0.604814C5.36974 0.53906 4.51815 0.683772 3.73889 1.02613C2.95963 1.36849 2.27675 1.89792 1.75073 2.56754C0.903136 3.64437 0.516556 5.01361 0.675699 6.37522C0.834841 7.73683 1.52673 8.97977 2.59975 9.83168L43.2821 41.8728C44.1959 42.5957 45.3265 42.9889 46.4912 42.9889C47.6559 42.9889 48.7866 42.5957 49.7003 41.8728L90.3827 9.83168C91.4603 8.98418 92.1581 7.74343 92.323 6.38161C92.4878 5.0198 92.1063 3.64813 91.262 2.56754C90.4154 1.48887 89.1758 0.79042 87.8153 0.625403C86.4548 0.460387 85.0845 0.842287 84.0049 1.68732L46.4862 31.2093L9.01796 1.68736C8.21204 1.05759 7.23781 0.680898 6.21821 0.604814ZM6.21821 32.6459C5.36974 32.5802 4.51815 32.7249 3.73889 33.0673C2.95963 33.4096 2.27675 33.9391 1.75073 34.6087C0.903136 35.6855 0.516556 37.0547 0.675699 38.4164C0.834841 39.778 1.52673 41.0209 2.59975 41.8728L43.2821 73.9544C44.1959 74.6773 45.3265 75.0705 46.4912 75.0705C47.6559 75.0705 48.7866 74.6773 49.7003 73.9544L90.3827 41.8728C91.4603 41.0253 92.1581 39.7846 92.323 38.4227C92.4878 37.0609 92.1063 35.6893 91.262 34.6087C90.4154 33.53 89.1758 32.8316 87.8153 32.6665C86.4548 32.5015 85.0845 32.8834 84.0049 33.7285L46.4862 63.2909L9.01796 33.7285C8.21203 33.0987 7.2378 32.722 6.21821 32.6459Z" fill="#454545"/>
</svg>
