<svg width="69" height="69" viewBox="0 0 69 69" fill="none" xmlns="http://www.w3.org/2000/svg">
<circle cx="34.5" cy="34.5" r="34.5" fill="white"/>
<path d="M53.1466 38.6289H52.3255V31.5517H53.1466C53.8387 31.5517 54.4487 31.6961 54.9765 31.997C55.5161 32.2979 55.9267 32.7192 56.2317 33.2487C56.5367 33.7783 56.6891 34.3922 56.6891 35.0782C56.6891 35.7523 56.5367 36.3541 56.2317 36.8957C55.9267 37.4373 55.5161 37.8586 54.9765 38.1595C54.4487 38.4724 53.8387 38.6289 53.1466 38.6289ZM50.0616 29.3852V40.7834H53.217C54.3079 40.7834 55.2933 40.5306 56.173 40.0371C57.0528 39.5436 57.7449 38.8576 58.2493 37.991C58.7537 37.1244 59 36.1494 59 35.0782C59 34.007 58.7537 33.0321 58.2493 32.1655C57.7449 31.2989 57.0528 30.6128 56.173 30.1194C55.2933 29.6259 54.3079 29.3731 53.217 29.3731H50.0616V29.3852ZM47.2229 34.2477C46.8006 33.9228 46.3196 33.7182 45.7801 33.6339L48.3959 29.3852H41.6276L41.3226 31.4433H44.8651L42.7067 35.3551C43.2346 35.2347 43.7038 35.1745 44.1144 35.1745C44.5718 35.1745 44.9589 35.2588 45.2874 35.4152C45.6158 35.5838 45.8622 35.8004 46.0381 36.0772C46.2141 36.3541 46.2962 36.679 46.2962 37.0401C46.2962 37.4012 46.2141 37.7262 46.0381 38.015C45.8622 38.3039 45.6276 38.5326 45.3226 38.6891C45.0176 38.8576 44.6774 38.9298 44.3021 38.9298C43.8446 38.9298 43.4106 38.8215 42.9883 38.6048C42.566 38.3882 42.2023 38.1113 41.8856 37.7623L41.0176 39.6038C42.0381 40.5426 43.1525 41 44.3724 41C45.1584 41 45.8622 40.8315 46.5073 40.4945C47.1525 40.1575 47.6452 39.6881 48.0205 39.0983C48.3842 38.5085 48.5718 37.8465 48.5718 37.1003C48.5718 36.4985 48.4545 35.9569 48.2199 35.4634C47.9736 34.9819 47.6452 34.5727 47.2229 34.2477ZM37.9677 35.1745H39.8446V33.3811H37.9677V30.8776L35.8094 31.997V33.3811H34.9531L34.6833 35.1745H35.8094V38.2317C35.8094 39.0622 36.0323 39.7242 36.4663 40.2056C36.9003 40.6871 37.5455 40.9278 38.39 40.9278C38.9414 40.9278 39.4223 40.8315 39.8328 40.651V38.7974C39.6921 38.8576 39.5396 38.8937 39.3754 38.9418C39.2111 38.9779 39.0469 39.002 38.9179 39.002C38.6129 39.002 38.3783 38.9178 38.2141 38.7372C38.0499 38.5567 37.9677 38.3039 37.9677 37.9789V35.1745ZM32.5015 33.5617C32.0909 33.3089 31.61 33.1886 31.0469 33.1886C30.6012 33.1886 30.2023 33.2728 29.827 33.4293C29.4633 33.5978 29.1466 33.8265 28.9003 34.1274V29L26.7419 29.2768V40.7954H28.9003V36.6068C28.9003 36.3059 28.9589 36.0411 29.0762 35.8124C29.1935 35.5838 29.3578 35.4032 29.5689 35.2828C29.7801 35.1625 30.0147 35.0903 30.2845 35.0903C30.6716 35.0903 30.9883 35.2227 31.2229 35.4754C31.4575 35.7282 31.5748 36.0772 31.5748 36.5226V40.7954H33.7449V36.2457C33.7449 35.6319 33.6393 35.0903 33.4282 34.6209C33.217 34.1515 32.9003 33.8144 32.5015 33.5617ZM21.4047 40.4824C22.0147 40.8315 22.6833 41 23.434 41C24.1144 41 24.7595 40.8435 25.3812 40.5426L25.1114 38.6409C24.5718 38.9418 24.0557 39.0983 23.5513 39.0983C23.1642 39.0983 22.8123 39.014 22.5073 38.8335C22.2023 38.653 21.9677 38.4122 21.7918 38.0993C21.6276 37.7864 21.5337 37.4493 21.5337 37.0762C21.5337 36.7031 21.6158 36.3661 21.7918 36.0532C21.956 35.7402 22.2023 35.4995 22.4956 35.319C22.8006 35.1384 23.1408 35.0542 23.5396 35.0542C24.0088 35.0542 24.5015 35.1986 25.0176 35.4754L25.3226 33.5737C24.7009 33.2969 24.0674 33.1645 23.4223 33.1645C22.695 33.1645 22.0264 33.333 21.4164 33.682C20.8065 34.0191 20.3255 34.4885 19.9853 35.0903C19.6334 35.6921 19.4575 36.3541 19.4575 37.0762C19.4575 37.7984 19.6334 38.4724 19.9853 39.0622C20.3138 39.664 20.7947 40.1334 21.4047 40.4824ZM13.9443 35.0903C14.2375 34.9218 14.566 34.8255 14.9179 34.8255C15.2463 34.8255 15.5396 34.8977 15.7977 35.0421C16.0557 35.1866 16.2551 35.4032 16.4076 35.668L12.9003 36.8355C12.9355 36.4504 13.0411 36.1013 13.2287 35.7884C13.4164 35.4995 13.651 35.2588 13.9443 35.0903ZM17.6628 38.1354C16.8065 38.9298 15.9267 39.327 15.0235 39.327C14.6364 39.327 14.2845 39.2427 13.9795 39.0863C13.6745 38.9298 13.4282 38.7131 13.2405 38.4243L18.5073 36.679C18.4487 35.9569 18.2493 35.319 17.9091 34.7894C17.5806 34.2598 17.1466 33.8506 16.6188 33.5737C16.0909 33.2969 15.5161 33.1525 14.8827 33.1525C14.1554 33.1525 13.4868 33.321 12.9003 33.67C12.3021 34.0191 11.8446 34.4885 11.5044 35.0903C11.1642 35.6921 11 36.3541 11 37.0762C11 37.7984 11.176 38.4724 11.5279 39.0622C11.8798 39.652 12.3607 40.1334 12.9589 40.4704C13.5689 40.8074 14.2493 40.988 15 40.988C15.5982 40.988 16.173 40.8796 16.7478 40.651C17.3226 40.4343 17.827 40.1214 18.2727 39.7482L17.6628 38.1354Z" fill="#001D3D"/>
</svg>
