<svg width="26" height="27" viewBox="0 0 26 27" fill="none" xmlns="http://www.w3.org/2000/svg">
<g clip-path="url(#clip0_444_4739)">
<path d="M13.0206 6.81008C9.48058 6.81008 6.60058 9.80528 6.60058 13.4869C6.60058 17.1685 9.48058 20.1611 13.0206 20.1611C16.5606 20.1611 19.4381 17.1659 19.4381 13.4869C19.4406 9.80528 16.5606 6.81008 13.0206 6.81008ZM13.0206 17.6157C10.8306 17.6157 9.05058 15.7645 9.05058 13.4869C9.05058 11.2093 10.8306 9.35808 13.0206 9.35808C15.2106 9.35808 16.9906 11.2093 16.9906 13.4869C16.9906 15.7645 15.2106 17.6157 13.0206 17.6157ZM18.2681 0.629883H7.77308C3.85058 0.629883 0.658081 3.95008 0.658081 8.02948V18.9443C0.658081 23.0237 3.85058 26.3439 7.77308 26.3439H18.2681C22.1906 26.3439 25.3831 23.0237 25.3831 18.9443V8.02948C25.3831 3.95008 22.1931 0.629883 18.2681 0.629883ZM22.9356 18.9443C22.9356 21.6197 20.8406 23.7959 18.2681 23.7959H7.77308C5.20058 23.7959 3.10808 21.6197 3.10808 18.9443V8.02948C3.10808 5.35408 5.20058 3.17788 7.77308 3.17788H18.2681C20.8406 3.17788 22.9331 5.35408 22.9331 8.02948V18.9443H22.9356ZM19.5281 4.88088C18.6031 4.88088 17.8481 5.66348 17.8481 6.62808C17.8481 7.59008 18.6006 8.37528 19.5281 8.37528C20.4531 8.37528 21.2081 7.59268 21.2081 6.62808C21.2081 5.66348 20.4531 4.88088 19.5281 4.88088Z" fill="white"/>
</g>
<defs>
<clipPath id="clip0_444_4739">
<rect width="25" height="26" fill="white" transform="translate(0.540527 0.5)"/>
</clipPath>
</defs>
</svg>
