<svg width="27" height="27" viewBox="0 0 27 27" fill="none" xmlns="http://www.w3.org/2000/svg">
<path d="M24.618 0.5H2.46302C1.40161 0.5 0.540527 1.33488 0.540527 2.36584V24.6371C0.540527 25.6681 1.40161 26.5 2.46302 26.5H24.618C25.6794 26.5 26.5405 25.6681 26.5405 24.6371V2.36287C26.5375 1.33488 25.6765 0.5 24.618 0.5ZM8.42185 22.2603H4.49614V10.5245H8.42185V22.2603ZM6.46049 8.92304H6.43358C5.11504 8.92304 4.26592 8.0228 4.26592 6.89378C4.26592 5.741 5.14494 4.86453 6.48441 4.86453C7.82986 4.86453 8.65506 5.741 8.67898 6.89378C8.67898 8.0228 7.82986 8.92304 6.46049 8.92304ZM22.5819 22.2603H18.6532V15.9823C18.6532 14.4047 18.0881 13.3292 16.6679 13.3292C15.5796 13.3292 14.9338 14.0541 14.6498 14.7553C14.5481 15.0078 14.5242 15.3584 14.5242 15.706V22.2662H10.5955C10.5955 22.2662 10.6463 11.6297 10.5955 10.5274H14.5242V12.1883C15.0444 11.389 15.9803 10.2511 18.0612 10.2511C20.6445 10.2511 22.5819 11.9298 22.5819 15.5367V22.2603Z" fill="white"/>
</svg>
