<svg xmlns="http://www.w3.org/2000/svg" viewBox="0 0 30 30" x="0px" y="0px" fill="#454545"><path d="M20.466,15.057c1.365-3.493,.545-7.512-2.144-10.201-2.387-2.388-5.913-3.333-9.195-2.466-.346,.091-.617,.36-.71,.706s.005,.715,.258,.968l4.26,4.26c.165,.165,.213,.44,.125,.656l-1.134,2.635c-.059,.136-.176,.253-.309,.311l-2.625,1.129c-.23,.094-.505,.046-.669-.119l-4.26-4.26c-.253-.253-.621-.353-.968-.258-.345,.093-.615,.364-.706,.71-1.036,3.923,.452,7.968,3.79,10.306,2.588,1.814,5.928,2.187,8.876,1.033l8.055,8.055c.746,.746,1.726,1.119,2.706,1.119s1.959-.373,2.705-1.119c.713-.713,1.113-1.67,1.125-2.716-.012-1.024-.411-1.981-1.125-2.694l-8.055-8.055Zm6.641,12.052c-.711,.712-1.87,.713-2.583,0l-8.536-8.537c-.192-.192-.448-.293-.708-.293-.146,0-.295,.032-.433,.099-2.411,1.159-5.362,.931-7.521-.581-2.113-1.48-3.291-3.823-3.26-6.288l2.842,2.842c.732,.732,1.875,.953,2.86,.547l2.641-1.136c.598-.26,1.09-.752,1.351-1.354l1.141-2.651c.401-.972,.179-2.116-.553-2.848l-2.836-2.836c1.993-.058,3.958,.76,5.395,2.196,2.259,2.26,2.85,5.708,1.468,8.579-.184,.383-.106,.84,.194,1.141l8.536,8.536c.342,.342,.533,.805,.539,1.28-.006,.498-.197,.96-.539,1.302Z"/></svg>