<svg width="24" height="23" viewBox="0 0 24 23" fill="none" xmlns="http://www.w3.org/2000/svg">
<path d="M0.857178 21.7601C1.47699 19.6341 2.09457 17.5081 2.71439 15.3821C2.76344 15.2127 2.81472 15.0433 2.85931 14.874C2.93065 14.6177 3.06443 14.4104 3.26954 14.2388C3.46128 14.0806 3.63073 13.8912 3.80686 13.7151C6.71196 10.8381 9.61705 7.96106 12.5199 5.0818C12.5868 5.01494 12.6448 4.93917 12.6916 4.88123C13.0862 5.27791 13.4563 5.65007 13.8688 6.06458C13.8242 6.09578 13.7373 6.14035 13.6704 6.20721C10.6605 9.20904 7.65283 12.2109 4.64963 15.2194C4.54261 15.3286 4.45343 15.4779 4.41107 15.625C4.04988 16.8173 3.70653 18.0162 3.34981 19.2129C3.30522 19.3622 3.32751 19.4558 3.44122 19.5584C3.62627 19.7255 3.78903 19.9171 3.97631 20.0821C4.04097 20.1378 4.16359 20.1801 4.24163 20.1601C5.44112 19.8169 6.63838 19.467 7.83342 19.106C7.93598 19.0748 8.03185 18.9879 8.11211 18.9054C11.1644 15.8634 14.2121 12.817 17.2599 9.77286C17.3179 9.71492 17.3669 9.65029 17.4004 9.61241C17.8329 10.0447 18.2521 10.4637 18.7114 10.9228C18.6913 10.9362 18.611 10.9696 18.5553 11.0253C15.5499 14.0004 12.54 16.9688 9.55017 19.9595C9.13324 20.3785 8.68065 20.637 8.12103 20.7952C6.13674 21.3568 4.16136 21.9496 2.18153 22.5312C2.04998 22.5691 1.91621 22.6048 1.78467 22.6426H1.6063C1.51043 22.6003 1.41233 22.5624 1.31646 22.5178C1.04892 22.3931 0.957507 22.139 0.857178 21.8916V21.7601ZM6.85242 18.0675C6.79445 17.6975 6.73203 17.3588 6.69189 17.0201C6.67183 16.8596 6.60717 16.795 6.4511 16.766C6.06985 16.6925 5.69306 16.5966 5.34079 16.5186C8.50228 13.3519 11.6638 10.1829 14.8052 7.03399C15.3068 7.53541 15.8308 8.05689 16.3369 8.56054C13.2066 11.6983 10.0474 14.8651 6.85242 18.0675ZM15.9579 1.7858C16.2433 1.50723 16.5286 1.21083 16.8341 0.934496C17.7103 0.145595 18.8518 0.163423 19.7057 0.996895C20.6488 1.91505 21.5786 2.84435 22.4971 3.78702C23.3666 4.6762 23.3533 5.86624 22.486 6.7532C22.2251 7.02062 21.9553 7.28136 21.7056 7.5265C19.7971 5.6211 17.8909 3.71794 15.9579 1.7858ZM13.6325 3.88953C14.065 3.48394 14.5087 3.0672 14.9301 2.67052C16.9277 4.66729 18.9143 6.65514 20.9186 8.6586C20.5017 9.04859 20.0535 9.46978 19.621 9.87538L13.6325 3.88953Z" fill="#001D3D"/>
</svg>
