<svg width="31" height="30" viewBox="0 0 31 30" fill="none" xmlns="http://www.w3.org/2000/svg">
<path d="M18.5 9.57812H3C1.8 9.57812 1.16667 10.9115 1 11.5781V27.0781C1 28.2781 2.33333 28.5781 3 28.5781H7C8.6 23.3781 13 22.7448 15 23.0781V28.5781H18.5C20.5 28.9781 21 27.7448 21 27.0781V11.5781C21 9.97812 19.3333 9.57812 18.5 9.57812Z" stroke="black" stroke-width="1.25" stroke-linecap="round" stroke-linejoin="round"/>
<path d="M5.5 9.07811V7.07811C5.66667 6.41144 6.4 5.07811 8 5.07811C8.35073 5.07811 9.06023 5.07811 10 5.07811M21 24.5781H23.5C25.5 23.7781 25.6667 22.9114 25.5 22.5781C25.5 21.8629 25.5 21.0102 25.5 20.0781M10 5.07811C13.3475 5.07811 19.6165 5.07811 23 5.07811C23.8333 5.07811 25.5 5.57811 25.5 7.57811C25.5 9.23481 25.5 15.5803 25.5 20.0781M10 5.07811V2.57811C10.3333 1.91144 11.3 0.678111 12.5 1.07811L28 1.07812C28.6667 1.07812 30 1.47812 30 3.07812C30 4.67813 30 13.7448 30 18.0781C30 18.5781 29.6 19.6781 28 20.0781H25.5" stroke="black" stroke-width="1.25" stroke-linecap="round" stroke-linejoin="round"/>
</svg>
