<svg width="8" height="6" viewBox="0 0 10 6" fill="none" xmlns="http://www.w3.org/2000/svg">
<path d="M0.240397 1.70347L4.42338 5.7685C4.58337 5.92391 4.79168 6 5 6C5.20832 6 5.4183 5.92229 5.57662 5.7685L9.76127 1.70347C10.0796 1.39427 10.0796 0.892412 9.76127 0.581585L9.4013 0.231906C9.08299 -0.0773019 8.56637 -0.0773019 8.2464 0.231906L5.57662 2.82536C5.41663 2.98078 5.20832 3.05686 5 3.05686C4.79168 3.05686 4.5817 2.97916 4.42338 2.82536L1.75194 0.231905C1.43363 -0.0773022 0.917007 -0.0773022 0.597033 0.231905L0.237064 0.581585C-0.0795756 0.892411 -0.0795756 1.39427 0.240397 1.70347Z" fill="#001D3D"/>
</svg>
