<?xml version="1.0" encoding="UTF-8"?>
<svg xmlns="http://www.w3.org/2000/svg" viewBox="0 0 2000 1498">
  <defs>
    <style>
      .cls-1 {
        stroke-linecap: round;
        stroke-linejoin: round;
      }

      .cls-1, .cls-2, .cls-3, .cls-4 {
        fill: none;
        stroke: #000;
      }

      .cls-2 {
        opacity: .44;
      }

      .cls-2, .cls-3, .cls-4 {
        stroke-miterlimit: 10;
      }

      .cls-4 {
        fill-rule: evenodd;
      }
    </style>
  </defs>
  <g id="E.0.1">
    <polygon class="cls-3" points="1422.79 917.15 1420.56 941.35 1334.34 991.6 1307.79 980.51 1308.8 959.84 1332.36 968.63 1422.79 917.15"/>
  </g>
  <g id="F.0.1">
    <polygon class="cls-4" points="1026.48 780.56 1026.36 796.77 1065.27 809.6 1100.63 797.37 1105.15 796.54 1105.2 794.58 1102.96 794.79 1108.92 788.18 1129.21 784.43 1133.18 779.85 1140.58 778.47 1146.94 772.96 1146.79 765.6 1064.17 793.58 1026.48 780.56"/>
  </g>
  <g id="F.0.2">
    <polygon class="cls-4" points="978.71 764.05 978.76 779.45 1026.36 796.77 1026.48 780.56 978.71 764.05"/>
  </g>
  <g id="C.0.1">
    <polygon class="cls-4" points="882.47 954.09 883.11 975.71 932.22 1003.16 1027.22 957.22 1027.29 948.33 1057.12 934.73 1056.89 924.11 930 979.28 882.47 954.09"/>
  </g>
  <g id="C.0.2">
    <polygon class="cls-4" points="823.72 922.95 824.71 943.99 883.11 975.71 882.47 954.09 823.72 922.95"/>
  </g>
  <g id="D.0.1">
    <polyline class="cls-1" points="1109.06 1077.9 1108.32 1102.85 1142.32 1121.72 1142.63 1095.77"/>
  </g>
  <g id="D.0.2">
    <polygon class="cls-1" points="1026.64 1034 1109.06 1077.9 1108.32 1102.85 1027.32 1057.85 1026.64 1034"/>
  </g>
  <g id="H.0.1">
    <polyline class="cls-4" points="1189.73 731.73 1227.08 742.05 1292.21 719.8 1291.14 729.88 1270.92 737.09 1270.81 741.02 1227.48 756.58 1189.05 746.3 1189.73 731.73"/>
  </g>
  <g id="H.0.2">
    <polyline class="cls-4" points="1142.06 718.56 1141.9 724.04 1148.24 725.69 1147.95 733.71 1189.05 746.3 1189.73 731.73 1142.06 718.56"/>
  </g>
  <g id="G.0.1">
    <polygon class="cls-4" points="1452.21 811.34 1420.2 826.75 1432.21 830.15 1431.02 840.08 1450.55 831.11 1452.21 811.34"/>
  </g>
  <g id="I.0.1">
    <polygon class="cls-4" points="1477.53 749.93 1458.11 759.01 1456.13 776.6 1475.76 768.31 1477.53 749.93"/>
  </g>
  <g id="K.0.1">
    <polygon class="cls-4" points="1526.62 708.13 1483.12 726.09 1480.3 725.12 1478.55 742.27 1481.3 743.39 1524.73 725.37 1526.62 708.13"/>
  </g>
  <g id="B.0.1">
    <polygon class="cls-4" points="918.03 1101.32 918.18 1129.37 754.35 1213.44 751.2 1191.69 733.23 1194.09 918.03 1101.32"/>
  </g>
  <g id="B.0.2">
    <polygon class="cls-4" points="617.09 1097.65 619.59 1124.17 660.79 1159.07 674.52 1145.91 617.09 1097.65"/>
  </g>
  <g id="A.0.1">
    <polygon class="cls-3" points="321.48 1080.4 326.1 1105.82 358.93 1145.95 564.85 1067 562.27 1039.62 353.38 1117.39 321.48 1080.4"/>
  </g>
  <g id="A.0.2">
    <polygon class="cls-3" points="282.75 1035.49 287.71 1061.84 326.1 1105.82 321.48 1080.4 282.75 1035.49"/>
  </g>
  <g id="E.1.3">
    <polygon class="cls-3" points="1425.02 896.49 1422.79 917.15 1332.36 968.63 1308.8 959.84 1309.11 952.02 1288.76 944.36 1289.18 927.57 1334.27 946.5 1425.02 896.49"/>
  </g>
  <g id="Muehle_Wohn_2" data-name="Muehle Wohn 2">
    <polyline class="cls-4" points="1086.35 832.37 1085.94 850.99 1170.88 863.23 1190.93 833.17 1191.3 825.36 1190.1 825.3 1190.1 821.16 1170.34 850.14 1160.27 842.01 1159.85 842.6"/>
  </g>
  <g id="F.1.3">
    <polygon class="cls-4" points="1026.59 764.21 1026.48 780.56 1064.17 793.58 1146.79 765.6 1147.37 749.72 1064.44 776.83 1026.59 764.21"/>
  </g>
  <g id="F.1.4">
    <polygon class="cls-4" points="978.64 748.21 978.71 764.05 1026.48 780.56 1026.59 764.21 978.64 748.21"/>
  </g>
  <g id="C.1.4">
    <polygon class="cls-4" points="822.78 901.98 823.72 922.95 882.47 954.09 881.82 932.22 822.78 901.98"/>
  </g>
  <g id="D.1.3">
    <polygon class="cls-1" points="1109.81 1052.61 1109.06 1077.9 1177.29 1113.39 1178.14 1087.78 1109.81 1052.61"/>
  </g>
  <g id="D.1.4">
    <polygon class="cls-4" points="1026.82 1009.9 1026.64 1034 1109.06 1077.9 1109.81 1052.61 1026.82 1009.9"/>
  </g>
  <g id="H.1.3">
    <polygon class="cls-4" points="1190.42 717.06 1189.73 731.73 1227.08 742.05 1292.21 719.8 1293.24 705.51 1227.92 727.06 1190.42 717.06"/>
  </g>
  <g id="H.1.4">
    <polygon class="cls-4" points="1142.56 704.31 1142.06 718.56 1189.73 731.73 1190.42 717.06 1142.56 704.31"/>
  </g>
  <g id="G.1.3">
    <polygon class="cls-4" points="1414.65 812.37 1413.43 824.62 1420.2 826.75 1452.21 811.34 1454.16 794.05 1414.65 812.37"/>
  </g>
  <g id="I.1.3">
    <polygon class="cls-4" points="1479.31 734.69 1459.87 742.72 1458.11 759.01 1477.53 749.93 1479.31 734.69"/>
  </g>
  <g id="K.1.3">
    <polygon class="cls-4" points="1528.39 694.3 1484.82 711.7 1481.93 710.98 1480.3 725.12 1483.12 726.09 1526.62 708.13 1528.39 694.3"/>
  </g>
  <g id="B.1.3">
    <polygon class="cls-4" points="917.73 1074.92 731.16 1165.63 678.15 1122.95 680.5 1150.3 704.32 1144.02 731.16 1165.63 751.08 1184.71 918.03 1101.32 917.73 1074.92"/>
  </g>
  <g id="B.1.4">
    <polygon class="cls-4" points="614.45 1071.66 617.09 1097.65 680.5 1150.3 678.15 1122.95 614.45 1071.66"/>
  </g>
  <g id="A.1.3">
    <polygon class="cls-3" points="316.79 1054.64 321.48 1080.4 353.38 1117.39 562.27 1039.62 559.38 1014.96 347.43 1091.1 316.79 1054.64"/>
  </g>
  <g id="A.1.4">
    <polygon class="cls-3" points="278.08 1010.95 282.75 1035.49 321.48 1080.4 316.79 1054.64 278.08 1010.95"/>
  </g>
  <g id="A.1.5">
    <polygon class="cls-4" points="881.82 932.22 882.47 954.09 930 979.28 1056.89 924.11 1056.89 903.56 929.6 956.69 881.82 932.22"/>
  </g>
  <g id="E.2.6">
    <polygon class="cls-3" points="1427.29 875.62 1336.2 924.12 1274.04 901.27 1272.67 921.52 1334.27 946.5 1425.02 896.49 1427.29 875.62"/>
  </g>
  <g id="E.2.7">
    <polygon class="cls-3" points="1197.12 873 1196.2 892.28 1272.67 921.52 1274.04 901.27 1197.12 873"/>
  </g>
  <g id="Muehle_Wohn_3" data-name="Muehle Wohn 3">
    <path class="cls-3" d="M1094.43,804.23l6.19-6.86,4.52-.83.05-1.96h0l-2.25.41v-.21s5.96-6.6,5.96-6.6l20.3-3.76h0l3.97-4.58,7.4-1.38h0l8.53-7.01,1.59,1.8.9-.92,1.22-1.24,1.14-1.16,1.06-1.08,1.44-1.48,1.31-1.35.79-.81.73-.76.51-.52,2.69-2.73h0s15.29,20.82,15.29,20.82l10.66,4.66v.2s-2.28,3.08-2.28,3.08l-.14,2.16.04.1,7.03,6.78-.02.41-5.35,7.31-.13-.11,7.95,6.38-.02.39-25.15,36.77-10.07-8.14-.42.59-73.5-10.23.11-4.86-16.34,8.45v-.41s17.27-19.29,17.27-19.29l.04-1.85s-2.36.21-2.36.21l6.46-7.15,4.45-.8.71-.8.05-1.83-2.3.21Z"/>
  </g>
  <g id="F.2.6">
    <polygon class="cls-3" points="1026.71 747.73 1026.59 764.21 1064.44 776.83 1147.37 749.72 1147.95 733.71 1064.72 759.95 1026.71 747.73"/>
  </g>
  <g id="F.2.7">
    <polygon class="cls-3" points="978.56 732.26 978.64 748.21 1026.59 764.21 1026.71 747.73 978.56 732.26"/>
  </g>
  <g id="C.2.6">
    <polygon class="cls-4" points="881.17 910.1 881.82 932.22 929.6 956.69 1056.89 903.56 1056.44 882.11 929.2 933.84 881.17 910.1"/>
  </g>
  <g id="C.2.7">
    <polygon class="cls-4" points="821.84 880.78 822.78 901.98 881.82 932.22 881.17 910.1 821.84 880.78"/>
  </g>
  <g id="D.2.6">
    <polygon class="cls-4" points="1110.57 1026.99 1109.81 1052.61 1178.14 1087.78 1179.42 1061.18 1207.05 1045.33 1216.81 1051.78 1237.37 1046.03 1245.9 1033.14 1261.23 1028.61 1263.32 1034.01 1271.86 1031.4 1270.99 1020.6 1281.09 1011.02 1289.63 1011.54 1298.16 1004.22 1306.52 1009.97 1307.39 987.33 1179.42 1061.18 1110.57 1026.99"/>
  </g>
  <g id="D.2.7">
    <polygon class="cls-4" points="1027.01 985.49 1026.82 1009.9 1109.81 1052.61 1110.57 1026.99 1027.01 985.49"/>
  </g>
  <g id="H.2.6">
    <polygon class="cls-3" points="1191.11 702.29 1190.42 717.06 1227.92 727.06 1293.24 705.51 1294.26 691.12 1228.76 711.96 1191.11 702.29"/>
  </g>
  <g id="H.2.7">
    <polygon class="cls-4" points="1143.06 689.95 1142.56 704.31 1190.42 717.06 1191.11 702.29 1143.06 689.95"/>
  </g>
  <g id="G.2.6">
    <polygon class="cls-4" points="1456.13 776.6 1454.16 794.05 1414.65 812.37 1415.64 803.24 1404.23 799.97 1456.13 776.6"/>
  </g>
  <g id="G.2.7">
    <polygon class="cls-4" points="1268.4 774.84 1267.4 791.79 1292.2 781.89 1268.4 774.84"/>
  </g>
  <g id="I.2.6">
    <polygon class="cls-4" points="1481.11 719.34 1479.31 734.69 1459.87 742.72 1460.4 738.73 1444.86 735.02 1445.03 733.96 1481.11 719.34"/>
  </g>
  <g id="K.2.6">
    <polygon class="cls-4" points="1530.17 680.38 1486.53 697.2 1483.68 696.08 1481.93 710.98 1484.82 711.7 1528.39 694.3 1530.17 680.38"/>
  </g>
  <g id="B.2.6">
    <polygon class="cls-4" points="675.76 1095.19 678.15 1122.95 731.16 1165.63 917.73 1074.92 917.43 1048.22 729.07 1136.74 675.76 1095.19"/>
  </g>
  <g id="B.2.7">
    <polygon class="cls-4" points="611.77 1045.31 614.45 1071.66 678.15 1122.95 675.76 1095.19 611.77 1045.31"/>
  </g>
  <g id="A.2.6">
    <polygon class="cls-3" points="556.46 989.98 559.38 1014.96 347.43 1091.1 316.79 1054.64 312.04 1028.52 343.95 1063.53 556.46 989.98"/>
  </g>
  <g id="A.2.7">
    <polygon class="cls-3" points="273.36 986.08 278.08 1010.95 316.79 1054.64 312.04 1028.52 273.36 986.08"/>
  </g>
  <g id="E.3.9">
    <polygon class="cls-3" points="1275.58 879.35 1274.04 901.27 1336.2 924.12 1427.29 875.62 1429.57 854.52 1338.16 901.48 1275.58 879.35"/>
  </g>
  <g id="E.3.10">
    <polygon class="cls-3" points="1198.17 851.99 1197.12 873 1274.04 901.27 1275.58 879.35 1198.17 851.99"/>
  </g>
  <g id="F.3.10">
    <polygon class="cls-3" points="1009.62 734.07 1009.59 742.23 978.56 732.26 978.55 729.98 978.52 724.26 1011.61 715.21 1011.63 710.92 1072.39 694.47 1099.58 701.89 1077.31 708.16 1071.31 706.47 1032.78 717.21 1032.64 733.43 1032.3 733.32 1019.25 737.1 1009.62 734.07"/>
  </g>
  <g id="F.3.9">
    <polygon class="cls-3" points="1032.64 733.43 1019.25 737.1 1019.25 737.1 1009.62 734.07 1009.6 739.9 1009.59 742.23 1064.72 759.95 1147.95 733.71 1148.04 731.42 1148.24 725.69 1136.68 722.45 1136.68 722.45 1137.02 712.11 1099.58 701.89 1077.31 708.16 1092.18 712.35 1067.14 719.54 1059.66 717.36 1063.64 716.23 1050.24 712.34 1032.78 717.21 1032.64 733.43 1032.64 733.43"/>
  </g>
  <g id="C.3.10">
    <polygon class="cls-3" points="868.07 850.75 961.18 819.87 995.37 833.08 959.76 845.63 952.21 842.5 894.27 862.54 894.83 884.21 894.41 884.01 868.88 893.19 859.5 888.64 859.78 896.46 859.88 899.58 821.84 880.78 821.71 877.75 821.37 870.14 868.19 854.44 868.07 850.75"/>
  </g>
  <g id="C.3.9">
    <polygon class="cls-3" points="1056.42 872.81 1056.44 882.11 1056.44 882.11 929.2 933.84 859.88 899.58 859.78 896.46 859.5 888.64 868.88 893.19 894.41 884.01 894.41 884.01 894.27 862.54 920.67 853.41 937.49 860.69 931.49 862.82 940.92 866.94 978.58 853.42 959.76 845.63 995.37 833.08 1043.48 851.53 1043.3 866.36 1043.3 866.36 1056.42 872.81"/>
  </g>
  <g id="D.3.9">
    <polygon class="cls-4" points="1111.34 1001.01 1110.57 1026.99 1179.42 1061.18 1307.39 987.33 1308.58 963.35 1180.71 1034.19 1111.34 1001.01"/>
  </g>
  <g id="D.3.10">
    <polygon class="cls-4" points="1027.19 960.76 1027.01 985.49 1110.57 1026.99 1111.34 1001.01 1027.19 960.76"/>
  </g>
  <g id="H.3.9">
    <polyline class="cls-4" points="1191.8 687.41 1191.11 702.29 1228.76 711.96 1294.26 691.12 1295.3 676.62 1229.61 696.74 1191.8 687.41"/>
  </g>
  <g id="H.3.10">
    <polygon class="cls-4" points="1143.56 675.5 1143.06 689.95 1191.11 702.29 1191.8 687.41 1143.56 675.5"/>
  </g>
  <g id="G.3.9">
    <polygon class="cls-1" points="1334.93 775.51 1334.3 780.44 1404.23 799.97 1456.13 776.6 1458.11 759.01 1386.9 789.99 1334.93 775.51"/>
  </g>
  <g id="G.3.10">
    <polygon class="cls-4" points="1269.57 757.31 1268.4 774.84 1292.2 781.89 1312.28 774.14 1334.3 780.44 1334.93 775.51 1269.57 757.31"/>
  </g>
  <g id="I.3.9">
    <polygon class="cls-4" points="1482.93 703.87 1446.78 717.83 1445.03 733.96 1481.11 719.34 1482.93 703.87"/>
  </g>
  <g id="I.3.10">
    <polygon class="cls-4" points="1319.27 702.57 1318.7 711.63 1333.89 706.14 1319.27 702.57"/>
  </g>
  <g id="K.3.9">
    <polyline class="cls-4" points="1485.31 682.06 1488.25 682.61 1531.97 666.37 1530.17 680.38 1486.53 697.2 1483.68 696.08 1485.31 682.06"/>
  </g>
  <g id="B.3.9">
    <polygon class="cls-4" points="673.34 1067.01 675.76 1095.19 729.07 1136.74 917.43 1048.22 916.67 1021.82 726.94 1107.38 673.34 1067.01"/>
  </g>
  <g id="B.3.10">
    <polygon class="cls-4" points="609.05 1018.59 611.77 1045.31 675.76 1095.19 673.34 1067.01 609.05 1018.59"/>
  </g>
  <g id="A.3.10">
    <polygon class="cls-3" points="350.54 966.29 445.37 937.59 450.95 942.03 504.51 925.67 478.48 906.7 332.67 949.35 333.66 955.07 270.99 973.58 273.36 986.08 298.07 1013.2 295.69 1000.28 302.69 1007.85 354.57 991.52 350.54 966.29"/>
  </g>
  <g id="A.3.9">
    <polygon class="cls-3" points="354.57 991.52 302.69 1007.85 295.69 1000.28 297.39 1009.52 298.07 1013.2 343.95 1063.53 556.46 989.98 556.04 986.4 554.98 977.41 543.33 968.73 541.39 952.54 504.51 925.67 450.95 942.03 464.9 953.17 402.68 972.64 395.99 966.69 405.9 963.62 393.93 953.15 350.54 966.29 354.57 991.52 354.57 991.52"/>
  </g>
  <g id="E.4.12">
    <polygon class="cls-3" points="1276.79 857.38 1275.58 879.35 1338.16 901.48 1429.57 854.52 1431.88 833.2 1340.14 878.57 1276.79 857.38"/>
  </g>
  <g id="E.4.13">
    <polygon class="cls-3" points="1199.24 830.75 1198.17 851.99 1275.58 879.35 1276.79 857.38 1199.24 830.75"/>
  </g>
  <g id="D.4.13">
    <polygon class="cls-2" points="1173.45 882.51 1221.03 902.19 1187.82 917.69 1177.27 913.47 1118.15 940.65 1116.77 965.75 1090.84 978.14 1081.24 973.63 1081.24 973.63 1080.96 986.48 1080.96 986.48 1027.19 960.76 1027.29 948.33 1173.45 882.51"/>
  </g>
  <g id="D.4.12">
    <polygon class="cls-3" points="1116.85 965.73 1118.15 940.65 1145.2 928.22 1168.91 938.13 1162.8 941.03 1176.18 946.67 1214.22 928.23 1187.82 917.69 1221.03 902.19 1289.18 927.57 1288.76 944.36 1309.11 952.02 1308.58 963.35 1308.58 963.35 1180.71 1034.19 1080.96 986.48 1081.04 982.82 1081.24 973.63 1090.84 978.14 1116.85 965.73"/>
  </g>
  <g id="H.4.13">
    <polygon class="cls-3" points="1175.01 675.81 1184.96 678.22 1193.11 676.1 1193.8 661.43 1224.44 653.15 1230.39 654.45 1248.17 649.6 1221.24 643.84 1172.67 656.58 1172.5 660.65 1143.82 668.26 1143.64 673.44 1143.56 675.5 1174.7 683.19 1174.79 681.08 1175.01 675.81"/>
  </g>
  <g id="H.4.12">
    <polygon class="cls-3" points="1295.82 669.37 1284.45 666.87 1284.45 666.87 1285.09 657.5 1248.17 649.6 1230.39 654.45 1245.12 657.69 1225.25 663.22 1217.83 661.55 1220.98 660.68 1207.67 657.68 1193.8 661.43 1193.11 676.1 1193.11 676.1 1184.96 678.22 1175.01 675.81 1174.79 681.08 1174.7 683.19 1229.61 696.74 1295.3 676.62 1295.45 674.55 1295.82 669.37"/>
  </g>
  <g id="G.4.12">
    <polygon class="cls-4" points="1336.45 757.19 1334.93 775.51 1386.9 789.99 1458.11 759.01 1460.12 741.27 1388.71 771.15 1336.45 757.19"/>
  </g>
  <g id="G.4.13">
    <polygon class="cls-4" points="1270.75 739.62 1269.57 757.31 1334.93 775.51 1336.45 757.19 1270.75 739.62"/>
  </g>
  <g id="I.4.12">
    <polygon class="cls-4" points="1484.76 688.28 1482.93 703.87 1446.78 717.83 1446.8 717.24 1378.53 701.47 1378.53 700.18 1424.92 710.77 1484.76 688.28"/>
  </g>
  <g id="I.4.13">
    <polygon class="cls-4" points="1320.48 687.03 1319.27 702.57 1334.83 706.38 1360.25 697.49 1378.53 701.47 1378.53 700.18 1320.48 687.03"/>
  </g>
  <g id="K.4.12">
    <polygon class="cls-4" points="1533.77 652.26 1483.03 670.39 1473.04 668.41 1471.98 677.69 1485.67 680.47 1485.31 682.06 1488.25 682.61 1531.97 666.37 1533.77 652.26"/>
  </g>
  <g id="K.4.13">
    <polyline class="cls-4" points="1386.22 651.25 1385.68 655.9 1394.02 653.22 1386.22 651.25"/>
  </g>
  <g id="B.4.13">
    <polygon class="cls-3" points="607.68 1005.13 670.86 981.82 670.58 978.62 801.09 930.69 839.88 951.93 792.5 970.35 783.95 965.33 699.36 997.81 701.5 1025.3 701.03 1024.97 657.82 1042.23 648.76 1035.53 649.68 1045.49 650.04 1049.46 609.05 1018.59 608.66 1014.75 607.68 1005.13"/>
  </g>
  <g id="B.4.12">
    <path class="cls-3" d="M895.21,982.22l.46,17.42,20.84,10.56h0l.15,11.62-189.74,85.56-76.9-57.92-.36-3.97-.91-9.96,9.06,6.71,43.2-17.26h0l-1.67-27.17,38.79-14.89,18.87,11.87-8.82,3.48,10.63,6.77,55.09-22.11-21.43-12.58,47.38-18.42,55.33,30.29Z"/>
  </g>
  <g id="E.5.16">
    <polygon class="cls-3" points="1249.2 847.71 1249.39 844.58 1275.99 833.54 1277.5 811.83 1321.02 793.83 1330.64 796.64 1355.35 786.27 1312.28 774.14 1243.46 801.24 1242.91 810.27 1242.91 810.27 1199.39 827.71 1199.24 830.75 1249.2 847.71"/>
  </g>
  <g id="E.5.15">
    <polygon class="cls-2" points="1249.39 844.58 1249.2 847.71 1340.14 878.57 1431.88 833.2 1432.21 830.15 1413.43 824.62 1415.64 803.24 1355.35 786.27 1330.64 796.64 1354.62 803.64 1326.67 815.78 1314.5 812.08 1318.98 810.17 1297.33 803.63 1277.5 811.83 1275.99 833.54 1275.99 833.54 1275.99 833.54 1275.44 833.36 1249.39 844.58 1275.99 833.54 1275.99 833.54 1249.39 844.58"/>
  </g>
  <g id="G.5.16">
    <polygon class="cls-3" points="1313.03 750.93 1313.23 748.34 1333.28 740.88 1333.86 740.98 1335.22 722.99 1369.06 710.9 1377.13 712.8 1396.55 705.78 1360.25 697.49 1306.52 715.9 1305.84 724.87 1270.92 737.09 1270.75 739.62 1313.03 750.93"/>
  </g>
  <g id="G.5.15">
    <polygon class="cls-3" points="1333.75 740.99 1335.22 722.99 1350.58 717.5 1368.72 721.88 1365.25 723.15 1375.41 725.62 1397.18 717.51 1377.13 712.8 1396.55 705.78 1446.8 717.24 1444.86 735.02 1460.4 738.73 1460.12 741.27 1388.71 771.15 1313.03 750.93 1313.23 748.34 1333.28 740.88 1333.75 740.99"/>
  </g>
  <g id="I.5.16">
    <polygon class="cls-3" points="1375.45 687.77 1376.89 671.98 1405.22 662.79 1412.38 664.23 1428.75 658.87 1396.48 652.5 1351.36 666.6 1351.09 669.78 1321.08 679.25 1320.65 684.81 1320.48 687.03 1358.15 695.6 1358.35 693.33 1358.84 687.65 1368.67 689.84 1375.04 687.68 1375.45 687.77"/>
  </g>
  <g id="I.5.15">
    <polygon class="cls-3" points="1485.67 680.47 1485.02 686.05 1484.76 688.28 1424.92 710.77 1358.15 695.6 1358.35 693.33 1358.84 687.65 1368.67 689.84 1375.04 687.68 1376.89 671.98 1389.72 667.82 1405.8 671.14 1402.89 672.11 1411.87 673.98 1430.13 667.82 1412.38 664.23 1428.75 658.87 1473.13 667.62 1471.98 677.69 1485.67 680.47"/>
  </g>
  <g id="K.5.16">
    <polygon class="cls-3" points="1431.61 652.86 1436 651.64 1436 651.64 1437.5 637.37 1461.56 629.9 1468.2 631.08 1482.16 626.7 1452.19 621.49 1413.77 633 1413.46 636.16 1413.46 636.16 1386.87 644.2 1386.22 651.25 1394.02 653.22 1396.48 652.5 1421.36 657.41 1422.01 651 1431.61 652.86"/>
  </g>
  <g id="K.5.15">
    <polygon class="cls-3" points="1422.01 651 1431.61 652.86 1436 651.64 1436 651.64 1437.5 637.37 1448.38 633.99 1463.28 636.69 1460.82 637.47 1469.12 638.98 1484.63 633.99 1468.2 631.08 1482.16 626.7 1523.19 633.83 1522.05 642.94 1534.67 645.2 1534.03 650.24 1533.77 652.26 1483.03 670.39 1473.04 668.41 1473.13 667.62 1421.36 657.41 1421.49 656.13 1422.01 651"/>
  </g>
</svg>