<?xml version="1.0" encoding="UTF-8"?>
<svg xmlns="http://www.w3.org/2000/svg" viewBox="0 0 2000 1498">
  <defs>
    <style>
      .cls-1 {
        fill-rule: evenodd;
      }

      .cls-1, .cls-2, .cls-3 {
        stroke-miterlimit: 10;
      }

      .cls-1, .cls-2, .cls-3, .cls-4 {
        fill: none;
        stroke: #000;
      }

      .cls-1, .cls-2, .cls-5, .cls-4 {
        opacity: .52;
      }

      .cls-4 {
        stroke-linecap: round;
        stroke-linejoin: round;
      }
    </style>
  </defs>
  <g id="E.0.2">
    <polygon class="cls-1" points="1001.2 972.29 1000.24 997.2 1006.86 1006.58 1015.88 1001.06 1001.2 972.29"/>
  </g>
  <g id="F.0.1">
    <polygon class="cls-1" points="1196.61 813.83 1142.44 818.85 1146.19 825.83 1143.97 829.74 1144.14 837.74 1195.88 833.82 1196.56 813.23 1196.61 813.83"/>
  </g>
  <g id="F.0.2">
    <polygon class="cls-1" points="1034.4 781.42 1034.38 801.83 1055.31 826.85 1061.78 824.64 1062.27 815.73 1034.4 781.42"/>
  </g>
  <g id="D.0.1">
    <polygon class="cls-1" points="680.02 1152.69 900.75 1121.11 900.76 1147.55 682.43 1177.67 680.02 1152.69"/>
  </g>
  <g id="H.0.2">
    <polygon class="cls-1" points="1273.31 764.88 1271.89 782.93 1294.4 799.55 1304.07 798.4 1304.68 787.92 1273.31 764.88"/>
  </g>
  <g id="G0.1">
    <polygon class="cls-1" points="1290.94 921.12 1289.42 941.39 1319.48 973.78 1330.7 973.97 1342.53 948.93 1404.97 941.28 1421.41 954.63 1431.47 938.19 1456.23 951.34 1469.16 950.11 1471.32 933.18 1322.55 951.38 1290.94 921.12"/>
  </g>
  <g id="G.0.2">
    <polygon class="cls-1" points="1252.69 884.49 1251.6 906.66 1289.42 941.39 1290.94 921.12 1252.69 884.49"/>
  </g>
  <g id="I.0.1">
    <polygon class="cls-1" points="1535.94 881.1 1501.02 884.95 1479.01 870.03 1476.19 894.59 1496.23 905.27 1516.84 903.58 1535.94 881.1"/>
  </g>
  <g id="B.0.1">
    <polygon class="cls-4" points="506.29 1032.01 510.15 1055.18 501.38 1094.51 417.95 1105.79 397.91 1081.24 497.62 1068.96 506.29 1032.01"/>
  </g>
  <g id="B.0.2">
    <polygon class="cls-4" points="516.87 975.3 520.42 996.05 512.66 1031.88 506.29 1032.01 516.87 975.3"/>
  </g>
  <g id="A.0.1">
    <polyline class="cls-4" points="168.24 960.22 172.66 982.74 275.78 973.42 289.63 947.99 168.24 960.22"/>
  </g>
  <g id="A.0.2">
    <polygon class="cls-4" points="386.82 874.73 374.41 901.39 390.05 899.59 386.82 874.73"/>
  </g>
  <g id="E.1.4">
    <polygon class="cls-1" points="1001.2 950.15 1001.2 972.29 1015.88 1001.06 1027.66 998.42 1001.2 950.15"/>
  </g>
  <g id="Muehle_Wohn_2" data-name="Muehle Wohn 2">
    <polygon class="cls-1" points="988.69 865.42 988.52 887.55 1001.5 895.29 1001.02 878.36 1013.97 877.15 988.69 865.42"/>
  </g>
  <g id="F.1.3">
    <polygon class="cls-1" points="1197.47 796.46 1196.61 813.83 1142.44 818.85 1128.83 794.85 1120.49 808.81 1095.23 820.09 1092.74 817.6 1069.97 824.07 1054.28 805.89 1054.51 788.76 1070.68 807.98 1123.66 803.27 1128.49 794.99 1133.5 802.64 1197.47 796.46"/>
  </g>
  <g id="F.1.4">
    <polygon class="cls-1" points="1034.49 765.75 1034.4 781.42 1054.28 805.89 1054.51 788.76 1034.49 765.75"/>
  </g>
  <g id="C.1.3">
    <polygon class="cls-1" points="675.61 946.03 675.45 952.41 721.45 947.89 721.08 942.85 850.04 928.91 850.81 927.09 675.61 946.03"/>
  </g>
  <g id="D.1.3">
    <polygon class="cls-1" points="677.64 1125.66 680.02 1152.69 900.75 1121.11 900.04 1094.87 677.64 1125.66"/>
  </g>
  <g id="H.1.3">
    <polygon class="cls-1" points="1303.99 787.41 1305.23 771 1323.42 783.99 1408.06 776.22 1415.9 780.97 1427.23 779.76 1426.17 787.44 1408.06 776.22 1305.04 785.56 1304.68 787.92 1303.99 787.41"/>
  </g>
  <g id="H.1.4">
    <polygon class="cls-1" points="1274.38 749.15 1273.31 764.88 1303.99 787.41 1305.23 771 1274.38 749.15"/>
  </g>
  <g id="G.1.3">
    <polygon class="cls-1" points="1292.48 900.64 1290.94 921.12 1322.55 951.38 1471.32 933.18 1473.86 912.36 1324.34 930.05 1292.48 900.64"/>
  </g>
  <g id="G.1.4">
    <polygon class="cls-1" points="1253.94 865.05 1252.69 884.49 1290.94 921.12 1292.48 900.64 1253.94 865.05"/>
  </g>
  <g id="I.1.3">
    <polygon class="cls-1" points="1537.24 863.27 1527.51 882.23 1501.02 884.95 1479.01 870.03 1481.24 850.95 1503.48 865.68 1537.24 863.27"/>
  </g>
  <g id="B.1.3">
    <polygon class="cls-4" points="502.93 1006.44 506.09 1030.5 497.62 1068.96 383.38 1082.74 365.34 1059.19 495.18 1043.98 502.93 1006.44"/>
  </g>
  <g id="B.1.5">
    <polygon class="cls-4" points="514.02 952.76 502.93 1006.44 506.09 1030.5 516.87 975.3 514.02 952.76"/>
  </g>
  <g id="A.1.3">
    <polygon class="cls-4" points="163.44 938.1 168.24 960.22 289.63 947.99 303.15 924.67 163.44 938.1"/>
  </g>
  <g id="A.1.5">
    <polygon class="cls-4" points="365.39 893.31 367.11 902.53 373.74 901.78 386.82 874.73 383.74 855.08 365.39 893.31"/>
  </g>
  <g id="E.2.6">
    <polygon class="cls-1" points="1120.35 1005.29 1112.81 1035.09 1096.07 1036.56 1074.37 1011.18 1050.3 1014.19 1045.12 1005.66 1033.35 1006.21 1027.66 998.42 1027.83 974.64 1050.3 1014.19 1120.35 1005.29"/>
  </g>
  <g id="E.2.7">
    <polygon class="cls-1" points="1001.2 927.75 1001.2 950.15 1027.66 998.42 1027.83 974.64 1001.2 927.75"/>
  </g>
  <g id="Muehle_Wohn_3" data-name="Muehle Wohn 3">
    <g class="cls-5">
      <path class="cls-3" d="M1059.52,827.06l-24.14,7.34-21.31,6.53-5.65.03-17.71,5.62v.22s3,0,3,0v6.33s-23.26,12.07-23.26,12.07v.43s18.24-5.92,18.24-5.92l.02,5.7,25.28,11.73,38.66-3.55.18-13.75,93.81-9.24-5.27-7.92-.65-1.37,2.26-1-4.54-3.8-13.8-28.97v-.03s-.01,0-.01,0l-29.76,12.31h0l-2.12-2.24-33.23,9.46Z"/>
    </g>
  </g>
  <g id="F.2.6">
    <polygon class="cls-1" points="1054.74 771.49 1054.51 788.76 1070.68 807.98 1123.66 803.27 1128.49 794.99 1133.5 802.64 1197.47 796.46 1198.33 778.95 1070.99 790.1 1054.74 771.49"/>
  </g>
  <g id="F.2.7">
    <polygon class="cls-1" points="1034.68 748.51 1034.49 765.75 1054.51 788.76 1054.74 771.49 1034.68 748.51"/>
  </g>
  <g id="C.2.6">
    <polygon class="cls-1" points="673.72 923.58 675.61 946.03 850.81 927.09 849.96 905.2 673.72 923.58"/>
  </g>
  <g id="D.2.6">
    <polygon class="cls-1" points="675.22 1098.22 677.64 1125.66 900.04 1094.87 899.31 1068.24 675.22 1098.22"/>
  </g>
  <g id="H.2.6">
    <polygon class="cls-1" points="1306.48 754.45 1305.23 771 1323.42 783.99 1408.06 776.22 1415.9 780.97 1427.23 779.76 1428.89 762.83 1331.53 771.53 1306.48 754.45"/>
  </g>
  <g id="H.2.7">
    <polygon class="cls-1" points="1275.45 733.29 1274.38 749.15 1305.23 771 1306.48 754.45 1275.45 733.29"/>
  </g>
  <g id="G.2.6">
    <polygon class="cls-1" points="1294.03 879.94 1292.48 900.64 1324.34 930.05 1473.86 912.36 1476.42 891.31 1326.14 908.49 1294.03 879.94"/>
  </g>
  <g id="G.2.7">
    <polygon class="cls-1" points="1255.2 845.42 1253.94 865.05 1292.48 900.64 1294.03 879.94 1255.2 845.42"/>
  </g>
  <g id="I.2.6">
    <polygon class="cls-1" points="1580.9 838.39 1505.97 846.22 1471.32 824.53 1470.02 837.68 1471.86 838.87 1482.01 845.44 1481.24 850.95 1503.48 865.68 1566.29 861.06 1580.9 838.39"/>
  </g>
  <g id="B.2.6">
    <polygon class="cls-4" points="499.73 982.08 502.93 1006.44 495.18 1043.98 365.34 1059.19 338.32 1035.76 307.6 1064.38 267.43 1053.35 266.1 1044.89 491.76 1018.56 499.73 982.08"/>
  </g>
  <g id="B.2.8">
    <polygon class="cls-4" points="511.13 929.95 499.73 982.08 502.93 1006.44 514.02 952.76 511.13 929.95"/>
  </g>
  <g id="A.2.6">
    <polygon class="cls-4" points="158.58 915.73 163.44 938.1 302.52 924.88 308.67 914.44 351.06 910.33 354.31 903.69 367.11 902.53 361.97 872.29 349.18 897.67 158.58 915.73"/>
  </g>
  <g id="A.2.8">
    <polygon class="cls-4" points="361.97 872.29 365.39 893.31 383.74 855.08 380.64 835.24 361.97 872.29"/>
  </g>
  <g id="E.3.9">
    <polygon class="cls-1" points="1028 950.55 1027.83 974.64 1050.3 1014.19 1120.35 1005.29 1134.7 978.44 1200.37 980.65 1209.01 991.68 1236.42 989.29 1238.88 965.75 1050.63 988.93 1028 950.55"/>
  </g>
  <g id="E.3.10">
    <polygon class="cls-1" points="1001.2 905.08 1001.2 927.75 1027.83 974.64 1028 950.55 1001.2 905.08"/>
  </g>
  <g id="F.3.10">
    <g class="cls-5">
      <polygon class="cls-3" points="1034.74 740.23 1034.7 746.15 1034.68 748.51 1047.54 763.24 1047.57 760.81 1047.64 754.72 1052.69 760.39 1079.7 758.18 1079.85 758.34 1080.19 741.25 1136.21 736.83 1139.23 739.49 1172.67 736.83 1158.25 724.98 1070.74 731.73 1070.65 737.42 1034.74 740.23"/>
    </g>
  </g>
  <g id="F.3.9">
    <g class="cls-5">
      <path class="cls-3" d="M1079.7,758.18l-27.01,2.21-5.05-5.67-.07,6.09-.03,2.43,23.45,26.86,127.34-11.16.12-2.51.31-6.28-6.36-5.36.54-11.3-20.27-16.67-33.44,2.66,7.53,6.65-37.34,3.02-3.53-3.4,5.83-.47-6.36-6.03-25.16,1.99-.33,17.09-.15-.16Z"/>
    </g>
  </g>
  <g id="C.3.10">
    <polygon class="cls-2" points="830.01 825.75 712.08 836.38 712.51 842.24 670.03 846.11 670.98 869.17 671.62 876.75 715.43 872.52 715.46 872.78 713.92 851.55 790.1 844.48 791.22 848.74 836.58 844.49 830.01 825.75"/>
  </g>
  <g id="C.3.9">
    <g class="cls-5">
      <polygon class="cls-3" points="673.1 912.27 672.76 912.3 673.1 912.27 673.1 912.27"/>
      <polygon class="cls-3" points="715.43 872.52 671.62 876.75 670.98 869.17 672.76 912.3 673.1 912.27 673.1 912.27 672.76 912.3 673.44 920.37 673.72 923.58 849.96 905.2 849.84 902.07 849.54 894.21 846.54 885.46 846.54 885.46 845.98 871.33 836.58 844.49 791.22 848.74 794.04 859.42 742.94 864.29 742 858.8 749.97 858.05 748.18 848.37 713.92 851.55 715.46 872.78 715.43 872.52"/>
    </g>
  </g>
  <g id="D.3.9">
    <polygon class="cls-1" points="672.77 1070.36 675.22 1098.22 899.31 1068.24 898.58 1041.23 672.77 1070.36"/>
  </g>
  <g id="H.3.9">
    <polygon class="cls-1" points="1307.75 737.77 1306.48 754.45 1331.53 771.53 1428.89 762.83 1430.19 750.08 1448.08 748.63 1449.02 744.39 1332.94 754.28 1307.75 737.77"/>
  </g>
  <g id="H.3.10">
    <polygon class="cls-1" points="1276.53 717.32 1275.45 733.29 1306.48 754.45 1307.75 737.77 1276.53 717.32"/>
  </g>
  <g id="G.3.9">
    <polygon class="cls-1" points="1295.6 859.02 1294.03 879.94 1326.14 908.49 1476.42 891.31 1479.01 870.03 1327.97 886.68 1295.6 859.02"/>
  </g>
  <g id="G.3.10">
    <polygon class="cls-1" points="1256.48 825.59 1255.2 845.42 1294.03 879.94 1295.6 859.02 1256.48 825.59"/>
  </g>
  <g id="I.3.9">
    <polygon class="cls-1" points="1585.58 818.35 1575.78 838.9 1505.97 846.22 1471.32 824.53 1472.57 816.18 1470.38 814.6 1471.96 804.45 1508.49 826.57 1585.58 818.35"/>
  </g>
  <g id="I.3.10">
    <polygon class="cls-1" points="1471.96 804.45 1427.29 777.4 1426.17 787.44 1470.38 814.6 1471.96 804.45"/>
  </g>
  <g id="K.3.9">
    <polygon class="cls-1" points="1798.45 779.82 1682.21 791.3 1641.45 772.16 1639.74 782.3 1642.97 784.14 1641.41 793.88 1678.31 811.13 1794.15 799.44 1798.45 779.82"/>
  </g>
  <g id="K.3.10">
    <polygon class="cls-1" points="1641.45 772.16 1631.95 767.63 1630.22 778 1639.74 782.3 1641.45 772.16"/>
  </g>
  <g id="B.3.9">
    <polygon class="cls-4" points="260.9 1018.35 266.1 1044.89 491.76 1018.56 499.73 982.08 496.49 957.4 488.28 992.78 260.9 1018.35"/>
  </g>
  <g id="B.3.11">
    <polygon class="cls-4" points="496.49 957.4 499.73 982.08 511.13 929.95 508.2 906.87 496.09 957.44 496.49 957.4"/>
  </g>
  <g id="A.3.10">
    <polygon class="cls-2" points="380.19 832.4 379.08 825.28 374.37 825.68 374.37 825.68 373.35 819.25 246.69 829.7 241.26 836.8 209.49 839.45 190.9 862.11 192.45 869.67 217.84 867.43 228.96 852.89 235.24 844.68 235.3 844.6 317.27 837.66 314.68 841.84 363.52 837.67 367.37 861.57 377.01 842.43 380.64 835.24 380.19 832.4"/>
  </g>
  <g id="A.3.9">
    <polygon class="cls-3" points="353.58 888.94 349.18 897.67 158.58 915.73 157.89 912.52 156.14 904.48 190.9 862.11 192.45 869.67 217.84 867.43 217.84 867.43 235.3 844.6 272.17 841.48 265.5 850.99 256.92 851.73 253.06 857.12 308.17 852.33 314.68 841.84 363.52 837.67 367.37 861.57 353.58 888.94"/>
  </g>
  <g id="E.4.12">
    <polygon class="cls-1" points="1028.18 926.16 1028 950.55 1050.63 988.93 1238.88 965.75 1240.43 940.88 1050.96 963.34 1028.18 926.16"/>
  </g>
  <g id="E.4.13">
    <polygon class="cls-1" points="1001.21 882.15 1001.2 905.08 1028 950.55 1028.18 926.16 1001.21 882.15"/>
  </g>
  <g id="D.4.13">
    <polygon class="cls-2" points="721.08 942.85 721.45 947.89 668.27 953.7 669.39 988.72 670.19 998.02 725.58 991.56 725.62 991.95 723.74 965.89 819.66 955.11 821.37 961.59 878.29 955.13 868.27 926.9 721.08 942.85"/>
  </g>
  <g id="D.4.12">
    <polygon class="cls-2" points="898.47 1037.36 898.21 1027.63 893.46 1013.93 893.46 1013.93 892.96 996.47 878.29 955.13 821.37 961.59 825.71 977.98 760.99 985.52 759.57 977.04 769.66 975.88 766.96 961.04 723.74 965.89 725.62 991.95 725.58 991.56 670.19 998.02 669.39 988.72 671.53 1056.33 672.42 1066.37 672.77 1070.36 898.58 1041.23 898.47 1037.36"/>
  </g>
  <g id="H.4.13">
    <polygon class="cls-2" points="1326.38 725.89 1327.7 709.38 1379 705.45 1383.33 707.82 1413.96 705.46 1393.76 694.91 1313.46 700.92 1313.02 706.58 1277.07 709.31 1276.68 715.03 1276.53 717.32 1296.56 730.44 1296.73 728.09 1297.16 722.2 1305.41 727.72 1305.27 727.41 1326.15 725.75 1326.38 725.89"/>
  </g>
  <g id="H.4.12">
    <g class="cls-5">
      <polygon class="cls-3" points="1449.96 735.91 1449.29 741.97 1449.02 744.39 1332.94 754.28 1296.56 730.44 1296.73 728.09 1297.16 722.2 1305.27 727.41 1326.38 725.89 1327.7 709.38 1350.73 707.62 1360.1 712.98 1354.76 713.39 1359.98 716.4 1394.12 713.73 1383.33 707.82 1413.96 705.46 1442.28 720.25 1441.1 731.16 1449.96 735.91"/>
    </g>
  </g>
  <g id="G.4.12">
    <polygon class="cls-1" points="1297.18 837.87 1295.6 859.02 1327.97 886.68 1479.01 870.03 1481.63 848.53 1329.81 864.63 1297.18 837.87"/>
  </g>
  <g id="G.4.13">
    <polygon class="cls-1" points="1257.77 805.56 1256.48 825.59 1295.6 859.02 1296.85 837.03 1257.77 805.56"/>
  </g>
  <g id="I.4.12">
    <polygon class="cls-1" points="1474.22 785.34 1471.96 804.45 1508.49 826.57 1638.04 813.48 1641.41 793.88 1511.03 806.72 1474.22 785.34"/>
  </g>
  <g id="I.4.13">
    <polygon class="cls-1" points="1429.22 759.21 1427.29 777.4 1471.96 804.45 1474.22 785.34 1429.22 759.21"/>
  </g>
  <g id="K.4.12">
    <polygon class="cls-1" points="1644.3 754.28 1641.45 772.16 1682.21 791.3 1798.45 779.82 1802.05 761.69 1685.36 772.78 1644.3 754.28"/>
  </g>
  <g id="K.4.13">
    <polygon class="cls-1" points="1593.76 731.51 1591.65 746.54 1632.18 765.49 1631.95 767.63 1641.45 772.16 1644.3 754.28 1593.76 731.51"/>
  </g>
  <g id="B.4.13">
    <g class="cls-5">
      <polygon class="cls-3" points="506.73 895.27 507.78 903.56 508.2 906.87 505.95 916.57 499.91 942.63 496.27 914.59 438.89 920.31 440.84 914.57 344.3 924.12 331.4 950.44 293.02 954.39 291.38 945.51 308.67 914.44 351.06 910.33 354.31 903.69 502.5 889.5 503.28 895.6 506.73 895.27"/>
    </g>
  </g>
  <g id="B.4.12">
    <g class="cls-5">
      <path class="cls-3" d="M331.4,950.44l-38.38,3.95-1.64-8.88-33.1,59.48,1.87,9.56.75,3.81,227.38-25.56,2.84-12.25,8.79-37.91-3.65-28.04-57.37,5.72-4.92,14.49-65.18,6.65,3.28-7.48,10.15-1.02,5.55-13.13-43.48,4.3-12.91,26.32Z"/>
    </g>
  </g>
  <g id="E.5.16">
    <g class="cls-5">
      <polygon class="cls-3" points="1001.21 882.15 1018.36 910.13 1018.37 906.71 1023.44 906.17 1065.4 901.65 1065.4 901.65 1066.01 877.91 1147.57 869.48 1152.06 874.55 1200.51 869.5 1178.73 847.27 1052.82 859.85 1052.63 873.6 1001.02 878.36 1001.21 882.15"/>
    </g>
  </g>
  <g id="E.5.15">
    <g class="cls-5">
      <polygon class="cls-3" points="1018.37 906.71 1065.4 901.65 1065.4 901.65 1066.01 877.91 1102.73 874.12 1112 885.7 1103.45 886.61 1108.62 893.2 1163.39 887.34 1152.06 874.55 1200.51 869.5 1232.06 901.7 1230.58 926.58 1240.65 937.31 1240.43 940.88 1050.96 963.34 1018.36 910.13 1018.37 906.71"/>
    </g>
  </g>
  <g id="G.5.16">
    <g class="cls-5">
      <polygon class="cls-3" points="1257.96 802.69 1304.07 798.4 1304.07 798.4 1305.04 785.56 1408.06 776.22 1434.62 792.67 1395.19 796.39 1389.51 792.66 1323.24 798.86 1321.56 819.73 1321.26 819.5 1283.14 823.22 1282.93 826.19 1257.77 805.56 1257.96 802.69"/>
    </g>
  </g>
  <g id="G.5.15">
    <g class="cls-5">
      <polygon class="cls-3" points="1321.26 819.5 1283.14 823.22 1282.93 826.19 1329.81 864.63 1481.63 848.53 1482.01 845.44 1470.02 837.68 1472.57 816.18 1434.62 792.67 1395.19 796.39 1409.43 805.75 1365.15 810.02 1358.32 805.21 1365.23 804.55 1353.04 796.07 1323.24 798.86 1321.26 819.5 1321.26 819.5"/>
    </g>
  </g>
  <g id="I.5.16">
    <polygon class="cls-2" points="1563.04 733.17 1473.48 740.77 1472.82 746.42 1472.82 746.42 1430.19 750.08 1429.5 756.6 1429.22 759.21 1458.01 775.93 1458.32 773.24 1459.09 766.51 1459.09 766.51 1469.2 772.25 1491.28 770.24 1491.61 770.43 1493.91 751.55 1551.28 746.53 1557.47 749.55 1591.65 746.54 1563.04 733.17"/>
  </g>
  <g id="I.5.15">
    <polygon class="cls-2" points="1630.22 778 1632.18 765.49 1591.65 746.54 1557.47 749.55 1572.93 757.1 1534.7 760.54 1527.17 756.67 1533.14 756.14 1519.69 749.29 1493.91 751.55 1491.61 770.43 1491.28 770.24 1469.2 772.25 1469.2 772.25 1459.09 766.51 1458.32 773.24 1458.01 775.93 1511.03 806.72 1641.41 793.88 1641.86 791.1 1642.97 784.14 1630.22 778"/>
  </g>
  <g id="K.5.16">
    <g class="cls-5">
      <polygon class="cls-3" points="1639.27 742.47 1656.18 740.98 1656.54 741.14 1659.4 723.47 1711.03 719.1 1717.79 721.73 1748.57 719.11 1717.47 707.42 1636.66 714.07 1635.81 719.55 1595.01 722.96 1593.76 731.51 1626.15 746.11 1626.54 743.59 1627.51 737.29 1639.27 742.47"/>
    </g>
  </g>
  <g id="K.5.15">
    <polygon class="cls-2" points="1803.86 752.59 1802.57 759.09 1802.05 761.69 1685.36 772.78 1626.15 746.11 1626.54 743.59 1627.51 737.29 1639.27 742.47 1656.18 740.98 1656.54 741.14 1659.4 723.47 1682.59 721.5 1697.41 727.47 1692.05 727.93 1700.35 731.29 1734.68 728.3 1717.79 721.73 1748.57 719.11 1792.4 735.58 1790.11 747.27 1803.86 752.59"/>
  </g>
</svg>