<?xml version="1.0" encoding="UTF-8"?>
<svg xmlns="http://www.w3.org/2000/svg" viewBox="0 0 2000 1498">
  <defs>
    <style>
      .cls-1 {
        fill-rule: evenodd;
      }

      .cls-1, .cls-2, .cls-3 {
        fill: none;
        stroke: #000;
        stroke-miterlimit: 10;
      }

      .cls-1, .cls-2, .cls-4 {
        opacity: .55;
      }
    </style>
  </defs>
  <g id="Muehle_Wohn_1" data-name="Muehle Wohn 1">
    <polygon class="cls-2" points="928.67 878.23 888.69 881.91 889.11 896.29 928.93 892.54 928.67 878.23"/>
  </g>
  <g id="F.0.1">
    <polygon class="cls-1" points="952.27 828.46 954.39 831.13 954.71 834.67 951.66 837.08 951.34 844.79 1011.73 849.28 1021.46 832.42 952.27 828.46"/>
  </g>
  <g id="F.0.2">
    <polygon class="cls-1" points="1099.34 788.38 1084.98 820.05 1089.31 820.53 1099.43 798.37 1099.34 788.38"/>
  </g>
  <g id="C.0.1">
    <polygon class="cls-1" points="529.37 880.61 606.01 886.93 633.46 863.96 635.33 885.09 609.95 908.37 531.99 901.83 529.37 880.61"/>
  </g>
  <g id="C.0.2">
    <polygon class="cls-1" points="674.02 830.01 650.5 849.77 652.07 871.48 675.36 850.29 674.02 830.01"/>
  </g>
  <g id="D.0.2">
    <polygon class="cls-2" points="536.91 941.21 540.33 965.95 506.89 994.52 502.67 969.85 536.91 941.21"/>
  </g>
  <g id="H.0.1">
    <polygon class="cls-1" points="1228.84 853.8 1227.51 875.41 1287.7 880.62 1288.9 859.26 1228.84 853.8"/>
  </g>
  <g id="G.0.1">
    <polygon class="cls-1" points="1046.61 992.34 1047.64 1019.27 1073.33 1022.15 1089.16 997.48 1046.61 992.34"/>
  </g>
  <g id="B.0.1">
    <polygon class="cls-1" points="129.79 901.54 134.43 923.23 262.95 937.78 260.57 924.04 305.39 896.86 304.05 889.68 261.42 914.95 129.79 901.54"/>
  </g>
  <g id="B.0.2">
    <polygon class="cls-1" points="366.73 852.53 332.1 873.17 333.18 879.94 367.53 859.88 366.73 852.53"/>
  </g>
  <g id="A.0.2">
    <polygon class="cls-1" points="400.92 765.38 404.36 782.1 374.63 797.93 371.35 780.37 400.92 765.38"/>
  </g>
  <g id="E.1.5">
    <polygon class="cls-1" points="839.27 929.91 840.05 959.97 828.33 943.94 839.27 929.91"/>
  </g>
  <g id="Muehle_Wohn_2" data-name="Muehle Wohn 2">
      <polygon class="cls-3" points="928.67 878.23 888.69 881.91 880.37 882.67 880.5 886.58 880.54 887.96 837.7 889.77 837.19 880.24 893.01 876.15 893.01 870.03 932.15 868.32 929.76 851.95 929.7 851.58 930.1 851.72 931.17 852.05 932.26 852.35 933.35 852.63 934.45 852.89 935.55 853.12 936.64 853.32 937.72 853.49 938.68 853.62 939.21 853.68 940.18 853.77 945.14 862.28 945.14 863.24 945.36 864.2 945.36 877.04 928.67 878.23"/>
  </g>
  <g id="F.1.3">
    <polygon class="cls-1" points="1079.97 818.38 1086.93 799.54 1086.53 816.71 1084.98 820.05 1061.05 818.21 1054.87 830.61 1023.83 827.82 1021.46 832.42 952.27 828.46 947.33 821.35 946.54 810.67 1079.97 818.38"/>
  </g>
  <g id="F.1.5">
    <polygon class="cls-1" points="1086.93 799.54 1086.53 816.71 1099.34 788.38 1099.77 772.01 1086.93 799.54"/>
  </g>
  <g id="C.1.3">
    <polygon class="cls-1" points="631.62 845.17 606.68 866.72 469.35 855.97 469.52 857.37 513.83 861.78 514.35 865.82 527.59 867.2 529.37 880.61 607.73 886.9 633.46 863.96 631.62 845.17"/>
  </g>
  <g id="C.1.5">
    <polygon class="cls-1" points="631.62 845.17 633.46 863.96 674.02 830.01 672.49 812.17 631.62 845.17"/>
  </g>
  <g id="D.1.5">
    <polygon class="cls-1" points="534.29 920.36 536.91 941.21 502.67 969.85 499.84 947.43 534.29 920.36"/>
  </g>
  <g id="H.1.3">
    <polygon class="cls-1" points="1229.95 835.78 1228.84 853.8 1288.9 859.26 1290.16 842.01 1229.95 835.78"/>
  </g>
  <g id="G.1.3">
    <polygon class="cls-1" points="1089.16 997.48 1106.43 977.33 1029.96 968.9 1030.78 975.27 1050.31 979.59 1059.35 993.78 1089.16 997.48"/>
  </g>
  <g id="K.1.4">
    <polygon class="cls-1" points="1544.37 890.07 1542.44 910.84 1547.31 920.38 1555.79 917.41 1544.37 890.07"/>
  </g>
  <g id="B.1.3">
    <polygon class="cls-1" points="124.11 879.3 129.79 901.54 261.42 914.95 304.05 889.68 300.38 870.07 257.36 894.65 124.11 879.3"/>
  </g>
  <g id="B.1.5">
    <polygon class="cls-1" points="300.38 870.07 304.05 889.68 366.73 852.53 363.6 833.94 300.38 870.07"/>
  </g>
  <g id="A.1.3">
    <polygon class="cls-1" points="201.91 781.05 204.39 790.98 247.5 772.04 340.91 780.67 341.72 785.38 349.35 786.16 347.65 774.67 336.99 780.17 247.43 771.29 221.76 783.07 201.91 781.05"/>
  </g>
  <g id="A.1.5">
    <polygon class="cls-1" points="347.65 774.67 349.35 786.16 355.64 786.67 356.1 788.47 400.92 765.38 398.43 749.37 347.65 774.67"/>
  </g>
  <g id="E.2.8">
    <polygon class="cls-1" points="838.35 908.7 839.27 929.91 828.33 943.94 821.23 947.02 814.47 938.96 838.35 908.7"/>
  </g>
  <g id="Muehle_Wohn_3" data-name="Muehle Wohn 3">
      <polygon class="cls-3" points="924.46 810.61 924.44 810.61 924.46 810.76 924.46 810.61"/>
    <polyline class="cls-2" points="883.31 816.59 924.66 815.91 929.07 847.55 931.15 860.82 931.06 861.16 931.15 861.18 932.15 868.32 928.07 868.32 928.07 868.32 893.01 870.03 893.01 870.03 893.01 876.15 837.19 880.24 836.35 862.42 828.51 861.65 827.93 848.89 773.84 843.83 773.15 838.07 771.03 838.25 771.01 837.85 771.77 829.02 773.02 828.62 788.24 819.16 883.31 816.59"/>
  </g>
  <g id="F.2.6">
    <polygon class="cls-1" points="946.14 791.5 946.54 810.67 1079.97 818.38 1086.93 799.54 1087.34 782.21 1080.17 799.21 946.14 791.5"/>
  </g>
  <g id="F.2.8">
    <polygon class="cls-1" points="1086.93 799.54 1087.34 782.21 1100.21 755.49 1099.77 772.01 1086.93 799.54"/>
  </g>
  <g id="C.2.6">
    <polygon class="cls-1" points="466.35 834.36 469.35 855.97 606.68 866.72 631.62 845.17 629.77 826.2 603.8 847.33 466.35 834.36"/>
  </g>
  <g id="C.2.8">
    <polygon class="cls-1" points="629.77 826.2 631.62 845.17 672.49 812.17 670.94 794.16 629.77 826.2"/>
  </g>
  <g id="D.2.6">
    <polygon class="cls-1" points="470.69 946.44 428.5 979.1 464.85 977.68 473.92 968.85 470.69 946.44"/>
  </g>
  <g id="D.2.8">
    <polygon class="cls-1" points="470.69 946.44 473.92 968.85 534.29 920.36 531.63 899.26 470.69 946.44"/>
  </g>
  <g id="H.2.6">
    <polygon class="cls-1" points="1231.07 817.58 1231.04 818.03 1229.95 835.78 1290.16 842.01 1291.42 822.5 1231.07 817.58"/>
  </g>
  <g id="G.2.6">
    <polygon class="cls-1" points="986.88 942.08 1126.58 957.18 1106.43 977.33 986.99 963.97 986.88 942.08"/>
  </g>
  <g id="I.2.6">
    <polygon class="cls-1" points="1284.01 926.43 1326.83 930.64 1282.86 953.74 1284.01 926.43"/>
  </g>
  <g id="K.2.6">
    <polygon class="cls-1" points="1679.79 944.33 1669.62 957.05 1592.67 952.38 1585.04 937.97 1679.79 944.33"/>
  </g>
  <g id="K.2.7">
    <polygon class="cls-1" points="1546.61 870.82 1544.37 890.07 1558.97 925.25 1561.4 907.11 1546.61 870.82"/>
  </g>
  <g id="B.2.6">
    <polygon class="cls-1" points="119.57 861.48 124.11 879.3 257.36 894.65 300.38 870.07 296.67 850.25 253.26 874.13 119.57 861.48"/>
  </g>
  <g id="B.2.8">
    <polygon class="cls-1" points="296.67 850.25 300.38 870.07 363.6 833.94 360.44 815.16 296.67 850.25"/>
  </g>
  <g id="A.2.6">
    <polygon class="cls-1" points="198.33 763.93 201.91 781.05 221.76 783.07 247.43 771.29 336.99 780.17 347.65 774.67 344.77 757.74 310.55 774.15 198.33 763.93"/>
  </g>
  <g id="A.2.8">
    <polygon class="cls-1" points="344.77 757.74 347.65 774.67 398.43 749.37 395.91 733.22 344.77 757.74"/>
  </g>
  <g id="E.3.9">
    <polygon class="cls-1" points="758.07 964.96 683.7 956.43 684.24 973.48 690.59 975.48 723.42 970.95 731.95 990.35 749.54 991.26 758.07 964.96"/>
  </g>
  <g id="E.3.11">
    <polygon class="cls-1" points="837.43 887.24 838.35 908.7 814.48 938.29 799.32 934.2 837.43 887.24"/>
  </g>
  <g id="F.3.10">
    <polygon class="cls-2" points="1100.21 755.49 1091.03 774.54 1091.51 754.82 1055.7 752.07 1057.4 749.14 999.31 744.71 998.84 745.37 988.01 760.59 967.12 758.94 967.12 758.94 982.7 738.67 1002.78 739.83 1002.78 739.83 1006.46 734.65 1098.19 741.49 1098.05 747.02 1100.43 747.2 1100.28 753.12 1100.21 755.49"/>
  </g>
  <g id="F.3.9">
      <polygon class="cls-3" points="1082.94 793.67 1080.17 799.21 946.14 791.5 946.26 786.46 946.26 786.46 967.12 758.94 967.12 758.94 988.01 760.59 999.31 744.71 1025.11 746.68 1020.88 753.17 1014.85 752.7 1012.43 756.34 1051.46 759.38 1055.7 752.07 1091.51 754.82 1091.03 774.54 1082.94 793.67"/>
  </g>
  <g id="C.3.10">
    <polygon class="cls-2" points="641.63 816.97 670.94 794.16 670.72 791.58 670.17 785.12 661.49 784.36 661.06 779.4 567.16 771.24 560.53 775.5 545.47 774.18 517.11 791.98 517.94 798.52 523.82 799.06 548.45 783.25 607.9 788.56 602.9 792.07 639.6 795.38 641.63 816.97"/>
  </g>
  <g id="C.3.9">
      <path class="cls-3" d="M612.45,840.51l-8.65,6.81-137.45-12.96-.39-2.75-.97-6.9,52.12-32.73.83,6.54,5.88.54,24.63-15.82,26.39,2.36-11.66,7.78-6.16-.56-6.61,4.37,39.96,3.67,12.52-8.79,36.7,3.3,2.03,21.59-29.18,23.54Z"/>
  </g>
  <g id="D.3.9">
    <polygon class="cls-1" points="262.9 935.62 271.48 954.94 311.22 971.75 428.5 979.1 470.69 946.44 467.41 923.75 424.79 955.5 262.9 935.62"/>
  </g>
  <g id="D.3.11">
    <polygon class="cls-1" points="467.41 923.75 470.69 946.44 531.63 899.26 528.94 877.93 467.41 923.75"/>
  </g>
  <g id="H.3.9">
    <polygon class="cls-1" points="1232.21 799.2 1231.07 817.58 1291.42 822.5 1292.43 809.97 1334.32 813.45 1334.85 807.49 1232.21 799.2"/>
  </g>
  <g id="G.3.9">
    <polygon class="cls-1" points="986.81 919.93 986.88 942.08 1120.41 956.36 1121.44 933.75 986.81 919.93"/>
  </g>
  <g id="G:3.11">
    <polygon class="cls-1" points="1170.16 908.82 1170.57 924.29 1181.47 885.02 1181.01 865.81 1170.16 908.82"/>
  </g>
  <g id="I.3.9">
    <polygon class="cls-1" points="1285.68 904.92 1284.01 926.43 1335.28 931.43 1368.02 912.95 1415.29 917.7 1449.49 947.93 1461.5 940.28 1463.92 922.41 1285.68 904.92"/>
  </g>
  <g id="K.3.9">
    <polygon class="cls-1" points="1563.9 886.61 1561.4 907.11 1574.23 929.07 1585.04 937.97 1679.79 944.33 1737.66 926.95 1576.33 915.78 1563.9 886.61"/>
  </g>
  <g id="K.3.10">
    <polygon class="cls-1" points="1548.88 851.37 1546.61 870.82 1561.3 906.39 1563.9 886.61 1548.88 851.37"/>
  </g>
  <g id="B.3.9">
    <polygon class="cls-1" points="115.56 842.28 119.57 861.48 253.26 874.13 296.67 850.25 292.92 830.21 249.11 853.38 115.56 842.28"/>
  </g>
  <g id="B.3.11">
    <polygon class="cls-1" points="292.92 830.21 296.67 850.25 360.44 815.16 357.24 796.19 292.92 830.21"/>
  </g>
  <g id="A.3.10">
    <polygon class="cls-2" points="395.55 730.91 394.65 725.12 383.68 724.24 383.68 724.24 382.89 719.24 304.19 712.96 294.42 717.04 294.42 717.04 289.82 716.67 256.7 730.4 257.12 732.58 282.06 722.19 331.73 726.25 325.65 728.94 356.23 731.45 359.42 750.71 385.87 738.03 395.91 733.22 395.55 730.91"/>
  </g>
  <g id="A.3.9">
      <path class="cls-3" d="M196.54,755.35l60.16-24.95.42,2.18,24.94-10.39,22.07,1.81-13.9,5.94-5.14-.43-7.84,3.33,33.25,2.79,15.16-6.69,30.57,2.52,3.2,19.26-37.17,17.83-11.7,5.61-112.22-10.22-.51-2.45-1.28-6.14Z"/>
  </g>
  <g id="E.4.12">
    <polygon class="cls-1" points="596.62 922.9 597.54 944.83 772.04 966.77 799.32 934.2 798.07 911.09 771.41 942.7 596.62 922.9"/>
  </g>
  <g id="E.4.14">
    <polygon class="cls-1" points="798.07 911.09 799.32 934.2 837.43 887.24 836.49 865.54 798.07 911.09"/>
  </g>
  <g id="D.4.13">
      <polygon class="cls-3" points="380.77 851.83 397.45 853.58 402.88 850.25 513.83 861.78 514.35 865.82 527.59 867.2 528.55 874.87 528.94 877.93 517.06 886.77 485.31 910.42 481.72 884.62 438.04 879.87 445.55 874.83 375.15 867.25 345.75 885.29 340.38 884.69 339.01 876.92 380.77 851.83"/>
  </g>
  <g id="D.4.12">
      <polygon class="cls-3" points="345.75 885.29 375.15 867.25 406.36 870.61 388.9 881.76 381.59 880.95 371.63 887.24 419.16 892.54 438.04 879.87 481.72 884.62 485.31 910.42 439.49 944.55 424.79 955.5 262.9 935.62 262.23 932.32 260.57 924.04 339.01 876.92 340.38 884.69 345.75 885.29"/>
  </g>
  <g id="H.4.13">
    <polygon class="cls-2" points="1274.5 752.3 1338.23 757.03 1338.3 760.15 1377.64 763.09 1376.17 748.87 1275.72 741.59 1275.05 747.44 1241.23 744.96 1238.24 760.87 1237.85 767.14 1272.5 769.8 1274.5 752.3"/>
  </g>
  <g id="H.4.12">
      <polygon class="cls-3" points="1379.15 801.79 1378.48 808.51 1378.21 811.2 1232.21 799.2 1232.37 796.57 1232.78 789.98 1237.85 767.14 1237.85 767.14 1272.5 769.8 1274.5 752.3 1302.8 754.4 1302.43 761.32 1295.81 760.83 1295.55 764.71 1338.47 767.97 1338.3 760.15 1377.64 763.09 1379.72 783.2 1378.51 795.3 1379.15 801.79"/>
  </g>
  <g id="G.4.12">
    <polygon class="cls-1" points="986.75 897.51 986.81 919.93 1164.78 938.59 1170.57 924.29 1171.2 886.73 1163.72 915.51 986.75 897.51"/>
  </g>
  <g id="G.4.14">
    <polygon class="cls-1" points="1171.2 886.73 1171 905.34 1181.01 865.81 1182.03 845 1171.2 886.73"/>
  </g>
  <g id="I.4.12">
    <polygon class="cls-1" points="1287.38 883.17 1285.68 904.92 1463.92 922.41 1466.74 900.15 1287.38 883.17"/>
  </g>
  <g id="K.4.12">
    <polygon class="cls-1" points="1566.42 865.88 1563.9 886.61 1576.33 915.78 1760.34 928.43 1765.25 905.65 1579.05 894.18 1566.42 865.88"/>
  </g>
  <g id="K.4.13">
    <polygon class="cls-1" points="1551.17 831.71 1548.88 851.37 1563.9 886.61 1566.42 865.88 1551.17 831.71"/>
  </g>
  <g id="B.4.13">
      <polygon class="cls-3" points="356.78 793.48 355.64 786.67 341.72 785.38 340.91 780.67 247.43 771.29 219.47 784.74 278.55 790.36 270.85 794.09 307.36 797.59 311.5 820.38 344.72 802.81 357.24 796.19 356.78 793.48"/>
  </g>
  <g id="B.4.12">
      <polygon class="cls-3" points="113.08 831.92 113.94 836 115.56 842.28 249.11 853.38 264.16 845.42 311.5 820.38 307.36 797.59 270.85 794.09 251.55 803.42 211.85 799.53 221.87 794.89 227.99 795.48 245.69 787.23 219.47 784.74 160.07 811.63 113.08 831.92"/>
  </g>
  <g id="E.5.16">
      <polygon class="cls-3" points="836.49 865.54 809.25 897.83 807.91 871.54 760.98 866.83 765.83 861.83 690.26 854.31 668.29 874 650.67 872.18 684.99 840.75 705.93 842.83 709.07 837.45 827.93 848.89 828.51 861.65 829.86 861.79 836.35 862.42 836.49 865.54"/>
  </g>
  <g id="E.5.15">
      <polygon class="cls-3" points="771.41 942.7 596.62 922.9 596.25 919.54 650.67 872.18 668.29 874 690.26 854.31 723.76 857.65 712.14 868.7 704.28 867.91 697.62 874.15 748.77 879.41 760.98 866.83 807.91 871.54 809.25 897.83 771.41 942.7"/>
  </g>
  <g id="G.5.16">
      <polygon class="cls-3" points="1174.34 874.62 1182.03 845 1182.17 842.02 1181.12 828.72 1181.12 828.72 1061.05 818.21 1054.87 830.61 1023.83 827.82 1010.91 850.98 1043.21 854.01 1053.33 833.7 1129.74 840.6 1128.12 845.17 1175.53 849.48 1174.34 874.62"/>
  </g>
  <g id="G.5.15">
      <polygon class="cls-3" points="1166.3 905.59 1163.72 915.51 986.75 897.51 986.74 894.29 1010.91 850.98 1043.21 854.01 1043.21 854.01 1053.33 833.7 1087.22 836.76 1082.82 846.89 1074.86 846.16 1072.3 851.87 1124.03 856.67 1128.12 845.17 1175.53 849.48 1174.34 874.62 1166.3 905.59"/>
  </g>
  <g id="I.5.16">
    <polygon class="cls-2" points="1456.34 817.47 1334.85 807.49 1334.32 813.45 1292.43 809.97 1291.95 817.09 1291.9 817.87 1292.43 809.97 1291.88 817.08 1291.66 819.92 1290.16 842.01 1290.39 839.08 1290.96 831.72 1290.47 839.08 1333.18 842.83 1333.18 843.08 1335.04 822.19 1412.41 828.73 1413.08 833.06 1461.07 837.14 1456.34 817.47"/>
  </g>
  <g id="I.5.15">
      <polygon class="cls-3" points="1333.18 842.83 1335.04 822.19 1369.36 825.09 1370.1 834.68 1362.04 833.99 1362.38 839.4 1414.77 843.94 1413.08 833.06 1461.07 837.14 1467.84 865.36 1466.03 879.75 1466.03 879.75 1466.03 879.75 1467.15 896.96 1466.74 900.15 1287.38 883.17 1290.16 842.01 1290.39 839.08 1333.18 842.83"/>
  </g>
  <g id="K.5.16">
      <path class="cls-3" d="M1552.31,821.84l-.82,7.06-.33,2.82,9.74,21.82.35-2.91.87-7.31,3.45,7.54,39.94,2.2.13.24,2.73-20.74,80.06,4.16,2.97,4.25,49.67,2.61-15.16-19.24-125.56-6.25-.79,6.16-47.25-2.4Z"/>
  </g>
  <g id="K.5.15">
      <polygon class="cls-3" points="1767.22 894.52 1760.33 885.5 1760.33 885.5 1762.83 871.19 1741.08 843.58 1691.41 840.97 1698.87 851.64 1644.59 848.71 1641.38 843.39 1649.72 843.83 1643.89 834.4 1608.38 832.56 1605.52 853.05 1605.52 853.05 1565.58 850.85 1562.13 843.31 1561.25 850.61 1560.9 853.53 1579.05 894.18 1765.25 905.65 1765.81 902.47 1767.22 894.52"/>
  </g>
</svg>