<?xml version="1.0" encoding="UTF-8"?>
<svg xmlns="http://www.w3.org/2000/svg" viewBox="0 0 2000 1498">
  <defs>
    <style>
      .cls-1 {
        stroke-linecap: round;
        stroke-linejoin: round;
        stroke-width: .37px;
      }

      .cls-1, .cls-2, .cls-3 {
        fill: none;
        stroke: #000;
      }

      .cls-2, .cls-3 {
        stroke-miterlimit: 10;
      }

      .cls-3 {
        fill-rule: evenodd;
      }
    </style>
  </defs>
  <g id="E.0.1">
    <polygon class="cls-3" points="673.24 924.71 681.47 946.49 653.88 958.11 632.46 943.47 637.66 935.72 627.7 918.48 651.51 933.29 673.24 924.71"/>
  </g>
  <g id="E.0.2">
    <polygon class="cls-3" points="780.18 882.75 781.91 904.02 758.44 915.15 753.11 908.01 754.93 903.17 740.4 898.45 780.18 882.75"/>
  </g>
  <g id="F.0.1">
    <polygon class="cls-3" points="1012.11 802.38 1012.17 819.42 1109.28 858.34 1142.3 844.3 1142.3 824.58 1109.8 839.49 1012.11 802.38"/>
  </g>
  <g id="F.0.2">
    <polygon class="cls-3" points="1142.3 824.58 1165.21 835.29 1191.97 823.57 1191.97 801.79 1142.3 824.58"/>
  </g>
  <g id="C.0.1">
    <polyline class="cls-3" points="622.78 758.72 624.96 780.72 627.2 781.62 653.14 773.42 622.78 758.72"/>
  </g>
  <g id="C.0.2">
    <polygon class="cls-3" points="746.02 771.29 746.02 783.75 759.16 789.43 792.74 778.81 791.58 758.21 746.02 771.29"/>
  </g>
  <g id="D.0.2">
    <polygon class="cls-3" points="544.51 834.22 546.57 849.35 566.32 843.36 564.39 828.04 544.51 834.22"/>
  </g>
  <g id="H.0.1">
    <polyline class="cls-3" points="1392.03 921.6 1390.4 942.97 1373.76 953.62 1376.22 931.55 1392.03 921.6"/>
  </g>
  <g id="H.0.2">
    <polygon class="cls-3" points="1437.79 890.35 1435.5 913.47 1408.44 931.55 1409.27 909.44 1437.79 890.35"/>
  </g>
  <g id="G.0.2">
    <polygon class="cls-3" points="1079.29 941.67 1079.29 964.93 1070.83 969.38 1053.34 969.38 1036.44 964.93 1079.29 941.67"/>
  </g>
  <g id="I.0.1">
    <polygon class="cls-3" points="1309.86 1047.44 1270.83 1076.12 1299 1074.77 1308.63 1069.49 1309.86 1047.44"/>
  </g>
  <g id="I.0.2">
    <polygon class="cls-3" points="1368.05 1004.69 1366.18 1029.59 1308.63 1069.49 1309.86 1047.44 1368.05 1004.69"/>
  </g>
  <g id="K.0.2">
    <polyline class="cls-2" points="1687.92 1101.83 1682.85 1128.87 1662.71 1153.89 1646.37 1151.76 1687.92 1101.83"/>
  </g>
  <g id="B.0.1">
    <polygon class="cls-3" points="418.72 730.17 421.52 748.47 426.1 750.71 445.8 745.38 418.72 730.17"/>
  </g>
  <g id="B.0.2">
    <polygon class="cls-3" points="577.65 728.75 547.23 736.87 570.13 748.45 579.98 746.18 577.65 728.75"/>
  </g>
  <g id="A.0.1">
    <polygon class="cls-3" points="627.29 680.76 629.03 694.71 596.33 703.97 574.22 694.71 572.97 681.02 592.42 689.28 627.29 680.76"/>
  </g>
  <g id="A.0.2">
    <polygon class="cls-3" points="681.38 667.55 683.28 683.56 652.28 691.12 650.68 674.96 681.38 667.55"/>
  </g>
  <g id="E.1.3">
    <polygon class="cls-3" points="701.06 893.71 702.74 913.17 651.51 933.29 627.7 918.48 637.78 915.03 627.7 899.83 649.97 913.17 701.06 893.71"/>
  </g>
  <g id="E.1.5">
    <polygon class="cls-3" points="701.06 893.71 702.74 913.17 780.18 882.75 779 864.02 701.06 893.71"/>
  </g>
  <g id="Muehle_Wohn_2" data-name="Muehle Wohn 2">
    <polygon class="cls-2" points="800.69 818.69 800.69 836.23 884.33 845.99 922.89 831.09 886.1 825.84 886.57 823.93 884.67 823.66 882.12 830.38 800.69 818.69"/>
  </g>
  <g id="F.1.3">
    <polygon class="cls-3" points="1012.17 785.81 1012.11 802.38 1109.8 839.49 1142.3 824.58 1143 807.45 1110.35 822 1012.17 785.81"/>
  </g>
  <g id="F.1.5">
    <polygon class="cls-3" points="1143 807.45 1142.3 824.58 1191.97 801.79 1192.88 785.23 1143 807.45"/>
  </g>
  <g id="C.1.3">
    <polygon class="cls-3" points="621.12 743.01 622.78 758.72 653.71 773.53 695.47 760.87 729.62 776.23 728.65 761.61 710.42 767.58 695.47 760.87 673.02 767.81 621.12 743.01"/>
  </g>
  <g id="C.1.5">
    <polygon class="cls-3" points="728.65 761.61 729.62 776.23 791.58 758.21 790.67 742.52 728.65 761.61"/>
  </g>
  <g id="D.1.3">
    <polygon class="cls-3" points="456.5 834.22 445.5 842.48 408.83 818.27 405.91 801 456.5 834.22"/>
  </g>
  <g id="D.1.5">
    <polygon class="cls-3" points="523.36 822.71 536.26 836.46 564.39 828.04 562.29 810.63 523.36 822.71"/>
  </g>
  <g id="H.1.3">
    <polygon class="cls-2" points="1394.35 901.64 1378.4 912.03 1376.22 931.55 1392.11 920.92 1394.35 901.64"/>
  </g>
  <g id="H.1.5">
    <polygon class="cls-2" points="1394.35 901.64 1392.11 920.92 1437.79 890.35 1440.18 871.78 1394.35 901.64"/>
  </g>
  <g id="G.1.5">
    <polygon class="cls-3" points="1079.77 921.74 1079.29 941.67 1036.44 964.93 1010.79 957.02 1079.77 921.74"/>
  </g>
  <g id="I.1.3">
    <polygon class="cls-3" points="1125.51 984.6 1124.7 1005.79 1270.83 1076.12 1309.86 1047.44 1311.96 1025.37 1272.74 1053.45 1125.51 984.6"/>
  </g>
  <g id="I.1.5">
    <polygon class="cls-3" points="1311.96 1025.37 1309.86 1047.44 1368.05 1004.69 1370.41 983.53 1311.96 1025.37"/>
  </g>
  <g id="K.1.5">
    <polygon class="cls-3" points="1647.51 1132.18 1646.37 1151.76 1688.29 1100.48 1692.87 1078.78 1647.51 1132.18"/>
  </g>
  <g id="B.1.3">
    <polygon class="cls-3" points="416.65 715.56 418.72 730.17 446.34 745.65 464.17 740.73 416.65 715.56"/>
  </g>
  <g id="B.1.5">
    <polygon class="cls-3" points="525.93 726.62 547.23 736.87 577.65 728.75 575.9 713.76 525.93 726.62"/>
  </g>
  <g id="A.1.3">
    <polygon class="cls-3" points="540.23 654.61 541.92 663.44 557.83 669.88 557.93 670.65 572.45 676.73 572.97 681.02 592.42 689.28 627.29 680.76 625.9 667.11 590.87 675.39 540.23 654.61"/>
  </g>
  <g id="A.1.5">
    <polyline class="cls-3" points="625.9 667.11 627.29 680.76 681.38 667.55 680.22 654.27 625.9 667.11"/>
  </g>
  <g id="E.2.6">
    <polygon class="cls-3" points="699.35 874.03 647.41 893.19 566.83 845.83 569.18 864.79 649.97 913.17 701.06 893.71 699.35 874.03"/>
  </g>
  <g id="E.2.8">
    <polygon class="cls-3" points="699.35 874.03 701.06 893.71 779 864.02 777.8 845.09 699.35 874.03"/>
  </g>
  <g id="Muehle_Wohn_3" data-name="Muehle Wohn 3">
    <g>
      <polygon class="cls-2" points="898.23 776.19 897.94 776.15 897.9 776.15 898.23 776.19"/>
      <path class="cls-2" d="M922.98,831.21l.02-.08h-.03s-.09-.05-.09-.05l.08-.3.21-.21,3.7-11.9-.1-.13.1.13,6.76-28.85.9-1.45,1.15-1.86.14-.22-1-1.98h-.01s-32.61-4.36-32.61-4.36l-1.82-2.54-78.15-10.15-15.81,14.06h0l-3.06,2.39-14.05,32.95.02.38,92.8,13.32,2.55-6.72,1.91.27h0s-.49,1.49-.49,1.49v.42s.43.06.43.06v.17s36.47,5.14,36.47,5.14Z"/>
    </g>
  </g>
  <g id="F.2.6">
    <polygon class="cls-3" points="1012.23 769.08 1012.17 785.81 1110.35 822 1143 807.45 1143.71 790.16 1110.91 804.33 1012.23 769.08"/>
  </g>
  <g id="F.2.8">
    <polygon class="cls-3" points="1143.71 790.16 1143 807.45 1192.88 785.23 1193.79 768.52 1143.71 790.16"/>
  </g>
  <g id="C.2.6">
    <polygon class="cls-3" points="619.45 727.17 621.12 743.01 673.58 767.47 695.47 760.87 710.42 767.58 728.65 761.61 727.41 745.26 686.76 757.37 619.45 727.17"/>
  </g>
  <g id="C.2.8">
    <polygon class="cls-3" points="727.41 745.26 728.65 761.61 790.67 742.52 789.75 726.69 727.41 745.26"/>
  </g>
  <g id="D.2.6">
    <polygon class="cls-3" points="463.47 821.69 463.08 838.7 405.91 801 402.97 783.56 463.47 821.69"/>
  </g>
  <g id="D.2.8">
    <polygon class="cls-3" points="515.17 806.33 517.66 824.39 562.29 810.63 561.71 804.52 595.04 794 593.83 782.95 515.17 806.33"/>
  </g>
  <g id="H.2.6">
    <polyline class="cls-2" points="1396.61 882.13 1394.35 901.64 1378.4 912.03 1378.93 907.34 1368.53 903.59 1368.88 900.32 1396.61 882.13"/>
  </g>
  <g id="H.2.8">
    <polygon class="cls-2" points="1396.61 882.13 1394.35 901.64 1440.18 871.78 1442.58 853.01 1396.61 882.13"/>
  </g>
  <g id="G.2.6">
    <polygon class="cls-3" points="1010.79 957.02 1010.87 936.02 969.21 956.69 998.51 963.3 1010.79 957.02"/>
  </g>
  <g id="G.2.8">
    <polygon class="cls-3" points="1010.87 936.02 1010.79 957.02 1079.77 921.74 1080.26 901.58 1010.87 936.02"/>
  </g>
  <g id="I.2.6">
    <polyline class="cls-2" points="1126.33 963.15 1125.51 984.6 1272.74 1053.45 1311.96 1025.37 1314.1 1003 1274.68 1030.47 1126.33 963.15"/>
  </g>
  <g id="I.2.8">
    <polygon class="cls-3" points="1314.1 1003 1311.96 1025.37 1370.41 983.53 1372.81 962.1 1314.1 1003"/>
  </g>
  <g id="K.2.6">
    <polygon class="cls-3" points="1647.51 1132.18 1621.66 1143.23 1540.92 1108.33 1539.56 1110.74 1530.57 1105.46 1522.77 1113.49 1513.59 1112.34 1509.69 1122.21 1418.51 1080.14 1421.55 1056.73 1621.66 1143.23 1652.5 1107.7 1647.51 1132.18"/>
  </g>
  <g id="K.2.8">
    <polygon class="cls-3" points="1652.5 1107.7 1647.51 1132.18 1692.87 1078.78 1697.88 1055.4 1652.5 1107.7"/>
  </g>
  <g id="B.2.6">
    <polygon class="cls-3" points="414.44 699.92 416.65 715.56 464.17 740.73 509.3 729.14 507.3 715.17 463.87 725.93 414.44 699.92"/>
  </g>
  <g id="B.2.8">
    <polygon class="cls-3" points="507.3 715.17 509.3 729.14 523.76 725.62 525.93 726.62 575.9 713.76 574.13 698.63 507.3 715.17"/>
  </g>
  <g id="A.2.6">
    <polygon class="cls-3" points="538.55 641.22 540.23 654.61 590.87 675.39 625.9 667.11 624.49 653.36 589.3 661.39 538.55 641.22"/>
  </g>
  <g id="A.2.8">
    <polygon class="cls-3" points="624.49 653.36 625.9 667.11 680.22 654.27 679.06 640.89 624.49 653.36"/>
  </g>
  <g id="E.3.9">
    <polygon class="cls-3" points="699.35 874.03 697.63 854.12 645.32 872.79 564.45 826.67 566.83 845.83 647.41 893.19 699.35 874.03"/>
  </g>
  <g id="E.3.11">
    <polygon class="cls-3" points="697.63 854.12 699.35 874.03 777.8 845.09 776.59 825.94 697.63 854.12"/>
  </g>
  <g id="F.3.10">
    <path class="cls-2" d="M1090.5,738.21l45.38,14.47-5.79,2.31,28.72,9.24-.88,19.77,25.93-11.2,9.93-4.29.13-2.39.33-5.99-9.58-2.99.2-3.76-73.83-22.87-5.31,1.99h0l-15.23,5.71Z"/>
  </g>
  <g id="F.3.9">
    <polygon class="cls-2" points="1122.06 799.51 1110.91 804.33 1012.23 769.08 1012.24 766.69 1012.24 766.69 1065.94 746.59 1065.94 746.59 1067.11 746.98 1090.5 738.21 1110.44 744.57 1097.47 749.57 1092.84 748.07 1085.59 750.85 1115.73 760.74 1130.09 755 1158.82 764.24 1157.93 784.01 1122.06 799.51"/>
  </g>
  <g id="C.3.10">
    <polygon class="cls-2" points="699.26 698.95 683.41 703.16 683.31 702.07 719.93 692.36 721.62 693.01 724.25 692.3 776.23 712 776.34 713.82 789.28 718.75 789.61 724.42 789.75 726.69 777.36 730.38 745.08 740 743.75 721.3 723.81 713.38 730.95 711.4 699.26 698.95"/>
  </g>
  <g id="C.3.9">
    <polygon class="cls-2" points="700.56 753.26 686.76 757.37 619.45 727.17 619.21 724.91 618.61 719.23 683.31 702.07 683.41 703.16 699.26 698.95 713.2 704.42 697.34 708.73 694.12 707.43 685.29 709.82 706.12 718.31 723.81 713.38 743.75 721.3 745.08 740 700.56 753.26"/>
  </g>
  <g id="D.3.9">
    <polyline class="cls-3" points="399.99 765.94 402.97 783.56 463.47 821.69 515.17 806.33 512.65 788.08 460.61 803.02 399.99 765.94"/>
  </g>
  <g id="D.3.11">
    <polygon class="cls-3" points="512.65 788.08 515.17 806.33 593.83 782.95 591.81 765.35 512.65 788.08"/>
  </g>
  <g id="H.3.9">
    <polygon class="cls-2" points="1235.12 834.77 1235.05 854.37 1254.92 861.36 1257.07 860.2 1368.88 900.32 1396.61 882.13 1398.9 862.41 1368.36 881.2 1235.12 834.77"/>
  </g>
  <g id="H.3.11">
    <polygon class="cls-2" points="1398.9 862.41 1396.61 882.13 1442.58 853.01 1445.02 834.04 1398.9 862.41"/>
  </g>
  <g id="G.3.9">
    <polygon class="cls-3" points="851.32 882.04 852.19 902.47 964.61 958.97 1010.87 936.02 1010.95 914.75 964.4 937.14 851.32 882.04"/>
  </g>
  <g id="G.3.11">
    <polygon class="cls-3" points="1010.95 914.75 1010.87 936.02 1080.26 901.58 1080.75 881.17 1010.95 914.75"/>
  </g>
  <g id="I.3.9">
    <polygon class="cls-1" points="1127.16 941.42 1126.33 963.15 1274.68 1030.47 1314.1 1003 1316.26 980.33 1276.64 1007.15 1127.16 941.42"/>
  </g>
  <g id="I.3.11">
    <polygon class="cls-1" points="1316.26 980.33 1314.1 1003 1372.81 962.1 1375.23 940.39 1316.26 980.33"/>
  </g>
  <g id="K.3.9">
    <polygon class="cls-3" points="1424.63 1032.98 1421.55 1056.73 1621.66 1143.23 1652.5 1107.7 1657.57 1082.84 1626.69 1117.62 1424.63 1032.98"/>
  </g>
  <g id="K.3.11">
    <polygon class="cls-3" points="1657.57 1082.84 1652.5 1107.7 1697.88 1055.4 1702.97 1031.68 1657.57 1082.84"/>
  </g>
  <g id="B.3.9">
    <polygon class="cls-3" points="412.81 683.68 414.44 699.92 463.87 725.93 507.3 715.17 505.16 699.43 461.48 709.87 412.81 683.68"/>
  </g>
  <g id="B.3.11">
    <polygon class="cls-2" points="505.16 699.43 507.3 715.17 574.13 698.63 572.34 683.38 505.16 699.43"/>
  </g>
  <g id="A.3.10">
    <path class="cls-2" d="M678.9,638.98l-.42-4.79-11.5-3.93-.21-2.37-39.25-13.34-21.86,4.52,23.96,8.42-6.22,1.33,14.95,5.3,1.54,15.72,28.27-6.46,10.9-2.49-.17-1.91Z"/>
  </g>
  <g id="A.3.9">
    <path class="cls-2" d="M561.21,628.27l.16,1.33-23.66,4.91.6,4.79.24,1.91,50.75,20.17,11.91-2.72,38.67-8.83-1.54-15.72-14.95-5.3-15.39,3.3-15.71-5.7,7.68-1.61,2.43.87,13.81-2.9-10.57-3.71-44.45,9.2Z"/>
  </g>
  <g id="E.4.12">
    <polygon class="cls-3" points="562.05 807.29 564.45 826.67 645.32 872.79 698 853.89 695.88 833.98 643.21 852.13 562.05 807.29"/>
  </g>
  <g id="E.4.14">
    <polygon class="cls-3" points="695.88 833.98 697.63 854.12 776.59 825.94 775.36 806.58 695.88 833.98"/>
  </g>
  <g id="D.4.13">
    <path class="cls-2" d="M591.52,762.83l-.72-6.31-65.04-31.91-45.78,11.69.1.7,13.62-3.48,29.29,15.13-9.05,2.42,18.48,9.69,2.74,20.86,40.98-11.76,15.67-4.5-.29-2.52Z"/>
  </g>
  <g id="D.4.12">
    <polygon class="cls-2" points="398.5 757.1 479.98 736.3 480.08 737 493.7 733.52 506.56 740.16 486.51 745.39 483.56 743.82 472.37 746.72 491.47 757.09 513.94 751.07 532.42 760.75 535.17 781.62 478.32 797.94 460.61 803.02 399.99 765.94 399.57 763.42 398.5 757.1"/>
  </g>
  <g id="H.4.13">
    <path class="cls-2" d="M1435.92,839.63l-23.86,14.68,2.7-22.56-38.68-12.12,5.4-3.02-60.57-18.82-22.94,11.72-10.86-3.49h0l35.61-17.75,12.21,2.36h0l5.45-2.78,98.34,29.68-.57,4.51,8.11,2.47-.87,6.81-.35,2.72-9.1,5.6Z"/>
  </g>
  <g id="H.4.12">
    <polygon class="cls-2" points="1235.3 832.05 1235.3 832.05 1235.12 834.77 1368.36 881.2 1378.77 874.79 1412.06 854.31 1414.75 831.75 1376.07 819.63 1362.63 827.15 1322.13 814.2 1329.01 810.58 1335.2 812.55 1347.45 806.03 1320.9 797.79 1297.96 809.5 1287.1 806.01 1287.1 806.01 1235.3 832.05"/>
  </g>
  <g id="G.4.12">
    <polygon class="cls-2" points="850.44 861.37 851.32 882.04 964.4 937.14 1010.95 914.75 1011.04 893.21 964.18 915.03 850.44 861.37"/>
  </g>
  <g id="G.4.14">
    <polygon class="cls-3" points="1011.04 893.21 1010.95 914.75 1080.75 881.17 1081.25 860.52 1011.04 893.21"/>
  </g>
  <g id="I.4.12">
    <polygon class="cls-2" points="1128.01 919.4 1127.16 941.42 1276.64 1007.15 1316.26 980.33 1318.45 957.34 1278.63 983.51 1128.01 919.4"/>
  </g>
  <g id="I.4.14">
    <polygon class="cls-2" points="1318.45 957.34 1316.26 980.33 1375.23 940.39 1377.69 918.41 1318.45 957.34"/>
  </g>
  <g id="K.4.12">
    <polygon class="cls-3" points="1427.76 1008.89 1424.63 1032.98 1626.69 1117.62 1657.57 1082.84 1662.71 1057.59 1631.8 1091.6 1427.76 1008.89"/>
  </g>
  <g id="K.4.14">
    <polygon class="cls-3" points="1662.71 1057.59 1657.57 1082.84 1702.97 1031.68 1708.13 1007.61 1662.71 1057.59"/>
  </g>
  <g id="B.4.13">
    <polygon class="cls-2" points="556.83 668.88 556.93 669.65 571.45 675.73 572.09 681.2 572.34 683.38 558.97 686.58 524.18 694.89 521.83 676.9 506.37 670.07 514.03 668.36 489.36 657.6 516.1 651.84 556.83 668.88"/>
  </g>
  <g id="B.4.12">
    <polygon class="cls-2" points="434.66 669.36 434.84 670.53 412.08 678.37 412.81 683.68 412.81 683.68 461.48 709.87 476.3 706.33 524.18 694.89 521.83 676.9 506.37 670.07 487.38 674.32 471.28 667 480.74 664.93 483.23 666.05 500.22 662.33 489.36 657.6 434.66 669.36 434.66 669.36"/>
  </g>
  <g id="E.5.16">
    <path class="cls-2" d="M758.16,789.43l.47,6.87,16.56,7.51.18,2.77-15.67,5.4-41.12,14.17-1.84-23.03-24.52-11.67,9.12-2.91-38.56-18.11,31.7-9.56,63.69,28.55Z"/>
  </g>
  <g id="E.5.15">
    <polygon class="cls-2" points="661.17 845.94 643.21 852.13 562.05 807.29 561.71 804.52 569.37 802.19 597.46 793.67 597.07 790.24 662.76 770.43 679.66 778.37 659.39 784.63 655.49 782.75 644.16 786.23 669.5 798.7 692.2 791.45 716.73 803.12 718.57 826.16 661.17 845.94"/>
  </g>
  <g id="G.5.16">
    <polygon class="cls-2" points="1067.94 842.85 1067.75 852.16 1081.32 857.56 1081.25 860.52 1031.14 883.85 1031.38 859.21 997.58 845.26 1005.71 841.79 952.97 820.27 927.83 829.61 925.61 828.67 967.38 812.19 970.37 813.38 983.04 809.05 1067.94 842.85"/>
  </g>
  <g id="G.5.15">
    <polygon class="cls-2" points="952.97 820.27 976.05 829.69 957.85 837.14 952.49 834.89 942.29 839.04 977.32 853.91 997.58 845.26 1031.38 859.21 1031.14 883.85 980.19 907.57 964.18 915.03 850.44 861.37 850.31 858.4 952.97 820.27 952.97 820.27"/>
  </g>
  <g id="I.5.16">
    <polygon class="cls-2" points="1232.21 873.55 1208.38 886.34 1194.83 881.12 1194.83 881.12 1238.02 857.44 1253.52 862.11 1257.07 860.2 1368.88 900.32 1368.53 903.59 1378.93 907.34 1378.04 915.25 1377.69 918.41 1366.09 926.03 1335.47 946.16 1338.1 919.84 1293.84 903.2 1300.79 899.07 1232.21 873.55"/>
  </g>
  <g id="I.5.15">
    <polygon class="cls-2" points="1292.26 974.55 1335.47 946.16 1338.1 919.84 1293.84 903.2 1276.47 913.51 1230.52 895.79 1239.39 890.87 1246.4 893.54 1262.16 884.7 1232.21 873.55 1208.38 886.34 1194.83 881.12 1194.83 881.12 1128.13 916.25 1128.13 916.25 1128.01 919.4 1278.63 983.51 1292.26 974.55"/>
  </g>
  <g id="K.5.16">
    <polygon class="cls-2" points="1704.4 993.3 1705.28 989.14 1557.08 938.15 1553.52 941.07 1553.52 941.07 1522.16 932.08 1485.18 960.93 1485.18 960.93 1515.63 972.16 1536.51 955.02 1627.8 987.53 1622.29 992.82 1681.81 1014.23 1675.83 1043.16 1699.29 1017.34 1708.13 1007.61 1708.87 1004.16 1710.73 995.49 1704.4 993.3"/>
  </g>
  <g id="K.5.15">
    <polygon class="cls-2" points="1433.47 1001.01 1428.21 1005.43 1427.76 1008.89 1631.8 1091.6 1642.42 1079.92 1675.83 1043.16 1681.81 1014.23 1622.29 992.82 1608.48 1006.07 1546.78 983.34 1554.07 977.05 1563.42 980.45 1576.27 969.18 1536.51 955.02 1515.63 972.16 1515.63 972.16 1485.18 960.93 1485.18 960.93 1433.47 1001.01"/>
  </g>
</svg>