<?xml version="1.0" encoding="UTF-8"?>
<svg xmlns="http://www.w3.org/2000/svg" viewBox="0 0 2000 1498">
  <defs>
    <style>
      .cls-1, .cls-2 {
        fill: none;
        stroke: #000;
        stroke-miterlimit: 10;
      }

      .cls-3 {
        opacity: .73;
      }

      .cls-4 {
        opacity: .36;
      }

      .cls-2 {
        fill-rule: evenodd;
      }
    </style>
  </defs>
  <g id="Muehle_Wohn_1" data-name="Muehle Wohn 1">
    <polygon class="cls-2" points="794.71 794.4 800.61 802.98 786.39 807.5 780.33 799.06 794.71 794.4"/>
  </g>
  <g id="F.0.1">
    <polyline class="cls-2" points="910.62 798.2 911.27 815.03 954.98 857.84 1001.51 851.26 1001.5 834.53 953.65 841.73 910.62 798.2"/>
  </g>
  <g id="F.0.2">
    <polygon class="cls-2" points="1020.98 831.6 1020.98 834.1 1076.82 825.66 1076.82 823.19 1020.98 831.6"/>
  </g>
  <g id="C.0.1">
    <polyline class="cls-2" points="641.09 717.99 641.53 733.69 656.79 761.87 701.56 756.8 700.48 743.37 656.9 748.45 641.09 717.99"/>
  </g>
  <g id="C.0.2">
    <polyline class="cls-2" points="769.51 735.57 745.08 738.37 770.32 746.99 769.51 735.57"/>
  </g>
  <g id="D.0.1">
    <polygon class="cls-1" points="436.08 771.77 438.49 787.55 480.96 782.74 478.72 766.91 436.08 771.77"/>
  </g>
  <g id="H.0.1">
    <polygon class="cls-2" points="1010.91 904.49 1010.91 922.84 1056.21 974.9 1113.36 963.8 1125.63 975.5 1131.6 974.74 1131.6 958.82 1074.94 969.79 1010.91 904.49"/>
  </g>
  <g id="H.0.2">
    <polygon class="cls-2" points="1150.53 955.15 1150.53 959.87 1164.27 972.72 1218.92 962.05 1220.1 941.68 1150.53 955.15"/>
  </g>
  <g id="G.0.1">
    <polygon class="cls-2" points="712.38 933.67 713.4 951.4 686.45 955.5 686.45 950.86 686.45 949.79 686.45 948.72 685.37 947.83 679.48 941.94 671.81 939.44 712.38 933.67"/>
  </g>
  <g id="G.0.2">
    <polygon class="cls-2" points="746.29 928.06 747.32 946.4 778.38 940.87 777.37 922.92 746.29 928.06"/>
  </g>
  <g id="I.0.1">
    <polygon class="cls-2" points="780.38 976.21 780.38 996.18 822.91 1078.86 893.22 1066.69 893.22 1045.28 824.22 1059.42 780.38 976.21"/>
  </g>
  <g id="K.0.1">
    <polygon class="cls-2" points="987.86 1210.64 977.09 1223.38 927.28 1141.36 927.46 1113.29 987.86 1210.64"/>
  </g>
  <g id="K.0.2">
    <polygon class="cls-2" points="1132.31 1204.38 1131.54 1228.76 1208.36 1207.72 1208.95 1183.89 1132.31 1204.38"/>
  </g>
  <g id="B.0.1">
    <polygon class="cls-2" points="572.82 696.68 574.06 710.32 556.65 711.31 556.65 710.32 555.8 702.39 554.52 698.39 572.82 696.68"/>
  </g>
  <g id="B.0.2">
    <polygon class="cls-2" points="596.14 694.5 596.14 703.99 598.44 709.11 638.61 706.51 637.19 690.67 596.14 694.5"/>
  </g>
  <g id="A.0.1">
    <polygon class="cls-1" points="674.57 642.86 675.21 654.72 688.96 672.94 725.24 669.7 724.45 659.68 689.4 662.93 674.57 642.86"/>
  </g>
  <g id="A.0.2">
    <polygon class="cls-1" points="742.86 657.97 742.86 665.81 746.3 670.36 780.72 667.71 780.17 654.33 742.86 657.97"/>
  </g>
  <g id="E.1.5">
    <polygon class="cls-2" points="542.33 821.38 544.36 837.35 624.38 827.76 622.73 810.96 542.33 821.38"/>
  </g>
  <g id="Muehle_Wohn_2" data-name="Muehle Wohn 2">
    <polygon class="cls-2" points="790.38 779.57 790.38 783.8 794.71 785.51 794.71 787.07 794.71 792.03 794.71 794.4 780.33 799.06 779.54 797.96 790.38 779.57"/>
  </g>
  <g id="F.1.3">
    <polygon class="cls-2" points="1001.5 816.92 953.45 823.91 910.25 781.68 910.62 798.2 953.65 841.73 1001.5 834.53 1001.5 816.92"/>
  </g>
  <g id="F.1.5">
    <polygon class="cls-2" points="1001.5 816.92 1001.5 834.53 1076.82 823.19 1077.15 805.92 1001.5 816.92"/>
  </g>
  <g id="C.1.3">
    <polygon class="cls-2" points="639.86 703.68 641.09 717.99 656.9 748.45 700.49 743.46 699.39 728.35 655.63 733.17 639.89 704.08 639.86 703.68"/>
  </g>
  <g id="C.1.5">
    <polygon class="cls-2" points="699.39 728.35 700.49 743.46 719.59 741.09 729.94 733.69 745.08 738.37 769.51 735.57 768.68 720.7 699.39 728.35"/>
  </g>
  <g id="D.1.3">
    <polygon class="cls-1" points="433.87 755.74 436.08 771.77 478.72 766.91 477.34 750.95 433.87 755.74"/>
  </g>
  <g id="H.1.3">
    <polygon class="cls-2" points="1074.94 969.79 1010.91 904.49 1010.96 885.04 1075.35 948.54 1132.31 937.86 1131.6 958.82 1074.94 969.79"/>
  </g>
  <g id="H.1.5">
    <polygon class="cls-2" points="1132.31 937.86 1131.6 958.82 1220.1 941.68 1221.25 921.19 1132.31 937.86"/>
  </g>
  <g id="G.1.3">
    <polygon class="cls-2" points="710.89 913.21 666.66 920.28 677.16 927.35 677.99 933.11 671.81 939.44 712.38 933.67 710.89 913.21"/>
  </g>
  <g id="G.1.5">
    <polygon class="cls-2" points="710.89 913.21 712.38 933.67 777.37 922.92 776.23 902.64 710.89 913.21"/>
  </g>
  <g id="I.1.3">
    <polygon class="cls-2" points="779.17 954.78 780.38 976.21 824.22 1059.42 893.22 1045.28 892.57 1022.02 823.13 1035.8 779.17 954.78"/>
  </g>
  <g id="I.1.5">
    <polygon class="cls-2" points="892.57 1022.02 893.22 1045.28 926.8 1039.03 926.3 1015.33 892.57 1022.02"/>
  </g>
  <g id="K.1.3">
    <polygon class="cls-2" points="987.86 1210.64 1005.12 1210.64 927.76 1089.7 927.46 1113.29 987.86 1210.64"/>
  </g>
  <g id="K.1.5">
    <polygon class="cls-2" points="1086.13 1189.63 1210.46 1157.38 1208.95 1183.89 1109.85 1211.7 1086.13 1189.63"/>
  </g>
  <g id="B.1.3">
    <polygon class="cls-2" points="571.49 682.92 550.19 684.83 554.52 698.39 572.82 696.68 571.49 682.92"/>
  </g>
  <g id="B.1.5">
    <polygon class="cls-2" points="571.49 682.92 572.82 696.68 637.19 690.67 636.09 677.12 571.49 682.92"/>
  </g>
  <g id="A.1.3">
    <polygon class="cls-1" points="723.63 647.18 724.45 659.68 689.4 662.93 674.57 642.86 673.65 630.92 688.47 650.32 723.63 647.18"/>
  </g>
  <g id="A.1.5">
    <polygon class="cls-1" points="723.63 647.18 724.45 659.68 780.26 654.51 779.61 642.18 723.63 647.18"/>
  </g>
  <g id="E.2.6">
    <path class="cls-2" d="M540.29,803.27l2.05,18.11-22.03,2.78v-8.25s-.81-2.81-1.75-2.19-6.22,0-6.22,0l-6.23-6.18,34.17-4.27Z"/>
  </g>
  <g id="E.2.8">
    <polygon class="cls-2" points="628.09 792.31 540.29 803.27 542.33 821.38 622.73 810.96 621.86 802.9 628.81 802.02 628.09 792.31"/>
  </g>
  <g id="Muehle_Wohn_3" data-name="Muehle Wohn 3">
    <path class="cls-1" d="M784.5,790.14,792.73,754.43l-4.56-1.33v-.19s-11.77-3.89-11.77-3.89l-.21-.02-5.12-1.7v-.05s-11.47-3.8-11.47-3.8l-.21-.02-29.44-9.75-16.82,12.02-1.39.67-23.93,26.83.03.36,29.24,10.53,41.4-5.24,4.29,6.1,6.81-.87,9.98,13.88,4.96-7.82,9.58-17.23,6.41-11.42.38-.69.16-.29,1.2-2.14.1-.18.28-.5-9.9-3.28"/>
  </g>
  <g id="F.2.6">
    <polygon class="cls-2" points="909.89 765.02 910.25 781.68 953.45 823.91 1001.5 816.92 1001.51 799.15 953.24 805.93 909.89 765.02"/>
  </g>
  <g id="F.2.8">
    <polygon class="cls-2" points="1001.51 799.15 1001.5 816.92 1077.15 805.92 1077.48 788.49 1001.51 799.15"/>
  </g>
  <g id="C.2.6">
    <polygon class="cls-2" points="638.61 689.27 639.86 703.68 655.63 733.17 699.39 728.35 698.29 713.12 654.34 717.78 638.61 689.27"/>
  </g>
  <g id="C.2.8">
    <polygon class="cls-2" points="698.29 713.12 699.39 728.35 768.68 720.7 767.85 705.73 698.29 713.12"/>
  </g>
  <g id="D.2.6">
    <polygon class="cls-1" points="431.64 739.58 433.87 755.74 477.34 750.95 475.64 734.91 431.64 739.58"/>
  </g>
  <g id="H.2.6">
    <polygon class="cls-2" points="1011.02 865.39 1010.96 885.04 1075.35 948.54 1132.31 937.86 1133.02 916.68 1075.76 927.05 1011.02 865.39"/>
  </g>
  <g id="H.2.8">
    <polygon class="cls-2" points="1133.02 916.68 1132.31 937.86 1221.25 921.19 1222.41 900.49 1133.02 916.68"/>
  </g>
  <g id="G.2.6">
    <polygon class="cls-2" points="666.66 920.28 710.89 913.21 709.38 892.54 655.49 900.85 662.7 903.73 666.66 911.2 666.66 920.28"/>
  </g>
  <g id="G.2.8">
    <polygon class="cls-2" points="709.38 892.54 710.89 913.21 776.23 902.64 775.02 882.41 709.38 892.54"/>
  </g>
  <g id="I.2.6">
    <polygon class="cls-1" points="777.95 933.11 779.17 954.78 823.13 1035.8 892.57 1022.02 891.92 998.48 822.03 1011.89 777.95 933.11"/>
  </g>
  <g id="I.2.8">
    <polygon class="cls-1" points="891.92 998.48 892.57 1022.02 926.3 1015.33 926.06 1000.16 1000 985.81 1000.37 977.68 891.92 998.48"/>
  </g>
  <g id="K.2.6">
    <polygon class="cls-2" points="1086.78 1161.95 1005.16 1182.46 927.28 1064.53 927.76 1089.7 1005.12 1210.64 1017.1 1207.64 1031.85 1182.46 1078.07 1192.89 1086.13 1189.63 1086.78 1161.95"/>
  </g>
  <g id="K.2.8">
    <polygon class="cls-2" points="1086.78 1161.95 1086.13 1189.63 1210.46 1157.38 1211.98 1130.49 1086.78 1161.95"/>
  </g>
  <g id="B.2.6">
    <polygon class="cls-2" points="570.15 669.07 529.31 672.59 523.1 648.95 524.59 662.73 527.2 673.25 533 672.71 533.75 675.36 546.77 674.15 550.19 684.83 571.49 682.92 570.15 669.07"/>
  </g>
  <g id="B.2.8">
    <polygon class="cls-2" points="570.15 669.07 571.49 682.92 636.09 677.12 634.98 663.48 570.15 669.07"/>
  </g>
  <g id="A.2.6">
    <polygon class="cls-1" points="722.81 634.61 687.53 637.64 672.73 618.91 673.65 630.92 688.47 650.32 723.63 647.18 722.81 634.61"/>
  </g>
  <g id="A.2.8">
    <polygon class="cls-1" points="722.81 634.61 723.63 647.18 779.61 642.18 778.97 629.78 722.81 634.61"/>
  </g>
  <g id="E.3.9">
    <polygon class="cls-2" points="538.22 785 540.29 803.27 505.14 806.84 501.4 803.27 501.23 798.81 500.52 798.47 496.85 798.29 494.78 800.03 493.38 804.22 491.11 805.71 485.31 805.71 482.75 805.71 482.11 791.75 538.22 785 626.46 774.4 628.09 792.31 540.29 803.27 538.22 785"/>
  </g>
  <g id="F.3.10">
    <polygon class="cls-1" points="994.57 746.17 1025.61 742.2 1077.65 779.76 1077.53 786 1077.48 788.49 1062.19 790.64 1022.8 796.17 1022.92 775.79 1008.6 764.6 1017.11 763.49 994.57 746.17"/>
  </g>
  <g id="F.3.9">
    <polygon class="cls-1" points="969.52 803.64 1022.8 796.17 1022.92 775.79 1008.6 764.6 987.63 767.34 973.29 755.63 983.57 754.32 985.8 756.1 1004.41 753.73 994.57 746.17 935.61 753.52 983.05 747.6 983.05 747.51 909.71 756.66 909.84 762.63 909.89 765.02 953.24 805.93 969.52 803.64"/>
  </g>
  <g id="C.3.10">
    <path class="cls-1" d="M767.43,698.23l-23.08-26.42-6.5.63-1.77-2.07-26.94,2.58,9.37,12.13-7.79.77,5.82,7.75,1.18,17.45,36.08-3.83,14.04-1.49-.12-2.14-.3-5.36Z"/>
  </g>
  <g id="C.3.9">
    <path class="cls-1" d="M637.99,682.06l17.38-1.68-.19-2.27,53.96-5.17,4.11,5.32-17.05,1.66-.9-1.25-9.41.91,5.68,8.16,19.16-1.9,5.82,7.75,1.18,17.45-48.59,5.16-14.8,1.57-15.73-28.51-.18-2.06-.45-5.16Z"/>
  </g>
  <g id="D.3.9">
    <polygon class="cls-1" points="429.4 723.28 431.64 739.58 475.64 734.91 475.27 731.38 480.3 730.85 478.72 718.26 429.4 723.28"/>
  </g>
  <g id="D.3.11">
    <polygon class="cls-1" points="478.72 718.26 480.3 730.85 492.95 729.52 491.94 721.3 556.54 714.67 556.65 710.32 478.72 718.26"/>
  </g>
  <g id="H.3.9">
    <polygon class="cls-2" points="1011.07 845.56 1011.02 865.39 1075.76 927.05 1133.02 916.68 1133.02 895.39 1076.18 905.32 1011.07 845.56"/>
  </g>
  <g id="H.3.11">
    <polygon class="cls-2" points="1133.02 895.39 1133.02 916.68 1222.41 900.49 1223.58 879.57 1133.02 895.39"/>
  </g>
  <g id="G.3.9">
    <polygon class="cls-2" points="707.85 871.65 644.93 881 623.94 825.28 625.74 844.67 646.82 902.19 709.38 892.54 707.85 871.65"/>
  </g>
  <g id="G.3.11">
    <polygon class="cls-2" points="707.85 871.65 709.38 892.54 775.02 882.41 774.84 877.92 806.91 873.01 806.18 857.03 707.85 871.65"/>
  </g>
  <g id="I.3.9">
    <polygon class="cls-2" points="776.71 911.2 777.95 933.11 822.03 1011.89 891.92 998.48 891.25 974.65 820.91 987.67 776.71 911.2"/>
  </g>
  <g id="I.3.11">
    <polygon class="cls-2" points="891.25 974.65 891.92 998.48 1000.37 977.68 1000.37 954.46 891.25 974.65"/>
  </g>
  <g id="K.3.9">
    <polygon class="cls-2" points="1087.44 1133.85 1005.2 1153.83 926.8 1039.03 926.06 1062.58 1005.16 1182.46 1086.78 1161.95 1087.44 1133.85"/>
  </g>
  <g id="K.3.11">
    <polygon class="cls-2" points="1087.44 1133.85 1086.78 1161.95 1211.98 1130.49 1213.53 1103.21 1087.44 1133.85"/>
  </g>
  <g id="B.3.9">
    <polyline class="cls-2" points="521.75 636.32 523.17 649.57 529.31 672.59 570.15 669.07 568.79 655.13 527.81 658.52 521.75 636.32"/>
  </g>
  <g id="B.3.11">
    <polygon class="cls-2" points="568.79 655.13 570.15 669.07 634.98 663.48 633.86 649.76 568.79 655.13"/>
  </g>
  <g id="A.3.10">
    <polygon class="cls-1" points="752.53 603.56 730.58 605.27 738.8 613.29 732.5 613.79 737.58 618.86 738.47 633.26 767.6 630.76 778.97 629.78 778.87 628.01 778.64 623.58 759.02 606.04 755.59 606.32 752.53 603.56"/>
  </g>
  <g id="A.3.9">
    <path class="cls-1" d="M737.58,618.86l-5.08-5.07-15.48,1.25-5.08-5.37,7.63-.6.8.82,13.83-1.1-3.61-3.52-43.79,3.43.22,3.04-14.74,1.17.33,4.29.13,1.71,14.8,18.73,11.86-1.02,39.07-3.36-.89-14.4Z"/>
  </g>
  <g id="E.4.12">
    <polygon class="cls-2" points="536.14 766.57 479.74 773.08 482.11 791.75 538.22 785 536.14 766.57"/>
  </g>
  <g id="E.4.14">
    <polygon class="cls-2" points="536.14 766.57 538.22 785 626.46 774.4 624.81 756.33 536.14 766.57"/>
  </g>
  <g id="D.4.13">
    <polygon class="cls-1" points="533.75 675.36 546.77 674.15 555.8 702.39 556.4 708.06 556.65 710.32 540.93 711.92 500.52 716.04 498.3 697.57 496.85 689.26 505.56 688.43 502.99 675.47 533 672.71 533.75 675.36"/>
  </g>
  <g id="D.4.12">
    <path class="cls-1" d="M496.85,689.26l-21.44,2.04-1.02-8.74,10.51-.98.19,1.33,19.03-1.77-1.12-5.68-60.17,5.52.09,2.77-14.43,1.33-.2,30.04.8,5.83.32,2.33,16.62-1.69,54.5-5.55-2.22-18.47-1.45-8.31Z"/>
  </g>
  <g id="H.4.13">
    <polygon class="cls-1" points="1205.58 882.71 1223.58 879.57 1223.75 876.57 1224.17 869.06 1147.09 815.03 1097.37 822.55 1097.29 825.82 1114.81 823.15 1148.39 848.2 1138.34 849.82 1160 866.26 1159.02 890.85 1205.58 882.71"/>
  </g>
  <g id="H.4.12">
    <polygon class="cls-1" points="1114.81 823.15 1097.29 825.82 1097.37 822.55 1011.1 835.6 1011.08 842.72 1011.07 845.56 1076.18 905.32 1095.64 901.92 1159.02 890.85 1160 866.26 1138.34 849.82 1113.52 853.83 1092 836.78 1104.14 834.89 1107.46 837.47 1129.41 834.04 1114.81 823.15"/>
  </g>
  <g id="G.4.12">
    <polygon class="cls-2" points="622.12 805.71 623.94 825.28 644.93 881 707.85 871.65 706.31 850.54 643.02 859.59 622.12 805.71"/>
  </g>
  <g id="G.4.14" class="cls-3">
    <polygon class="cls-2" points="706.31 850.54 707.85 871.65 806.18 857.03 805.19 836.4 706.31 850.54"/>
  </g>
  <g id="I.4.12">
    <polygon class="cls-2" points="775.46 889.05 776.71 911.2 820.91 987.67 891.25 974.65 890.58 950.53 819.78 963.15 775.46 889.05"/>
  </g>
  <g id="I.4.14">
    <polygon class="cls-2" points="890.58 950.53 891.25 974.65 1000.37 954.46 1000.38 930.95 890.58 950.53"/>
  </g>
  <g id="K.4.12">
    <polygon class="cls-2" points="926.3 1013.17 926.8 1039.03 1005.2 1153.83 1087.44 1133.85 1088.11 1105.32 1005.25 1124.76 926.3 1013.17"/>
  </g>
  <g id="K.3.14">
    <polygon class="cls-2" points="1088.11 1105.32 1087.44 1133.85 1213.53 1103.21 1215.11 1075.53 1088.11 1105.32"/>
  </g>
  <g id="B.4.13">
    <polygon class="cls-1" points="620.71 650.84 586.96 653.63 585.48 637.66 582.67 631.65 589.96 631.09 585.31 621.63 610.59 619.75 612.36 622.82 620.8 622.19 633.3 642.88 633.7 647.79 633.86 649.76 620.71 650.84"/>
  </g>
  <g id="B.4.12">
    <polygon class="cls-1" points="521.03 629.69 521.54 634.43 521.75 636.32 527.81 658.52 541.6 657.38 586.96 653.63 585.48 637.66 582.67 631.65 564.75 633.02 562.15 626.68 570.96 626.01 571.39 626.99 587.35 625.78 585.31 621.63 534.79 625.38 535.13 628.63 535.13 628.63 521.03 629.69"/>
  </g>
  <g id="E.5.16">
    <polygon class="cls-1" points="606.97 758.39 561 763.7 558.74 742.56 555.56 731.87 565.46 730.8 560.15 714.3 594.04 710.81 597.23 718.59 608.6 717.4 624.57 753.75 624.81 756.33 606.97 758.39"/>
  </g>
  <g id="E.5.15">
    <polygon class="cls-1" points="479.4 770.41 479.74 773.08 498.77 770.88 561 763.7 558.74 742.56 555.56 731.87 531.16 734.48 528.5 723.31 540.43 722.07 540.88 723.76 562.47 721.5 560.15 714.3 491.94 721.3 492.95 729.52 475.27 731.38 478.69 763.7 479.4 770.41"/>
  </g>
  <g id="G.5.16">
    <polygon class="cls-1" points="800.18 826.67 805.05 833.45 805.19 836.4 785.36 839.23 734.11 846.56 732.51 822.33 723.77 807.56 734.8 806.11 720.91 783.56 758.46 778.85 762.75 784.95 769.56 784.08 800.18 826.67"/>
  </g>
  <g id="G.5.15">
    <polygon class="cls-1" points="645.64 793.02 720.91 783.56 726.95 793.37 702.95 796.45 701.64 794.14 688.37 795.83 696.54 811.16 723.77 807.56 732.51 822.33 734.11 846.56 664.41 856.53 643.02 859.59 622.12 805.71 621.86 802.9 645.64 799.87 645.64 793.02 645.64 793.02"/>
  </g>
  <g id="I.5.16">
    <polygon class="cls-1" points="1000.38 919.14 1000.38 927.58 1000.38 930.95 978.44 934.86 921.55 945.01 921 917.29 904.42 896.84 916.67 894.84 890.97 864.05 878.76 865.93 878.64 862.03 938.17 852.92 1000.38 919.14"/>
  </g>
  <g id="I.5.15">
    <path class="cls-1" d="M890.97,864.05l11.13,13.34-26.6,4.21-2.48-3.17-14.72,2.32,15.85,21.06,30.27-4.96,16.58,20.44.55,27.72-77.8,13.87s-23.97,4.27-23.97,4.27l-44.32-74.1-.18-3.17-.45-7.96,103.81-15.89.12,3.9,12.21-1.88Z"/>
  </g>
  <g id="K.5.16" class="cls-4">
    <polygon class="cls-1" points="1047.24 988.05 1045.39 986.02 1045.49 976.98 1113.36 963.8 1215.9 1061.58 1215.33 1071.55 1215.11 1075.53 1189.88 1081.45 1124.12 1096.87 1125.2 1064.02 1096.48 1032.95 1110.64 1029.93 1067.2 984.11 1047.24 988.05"/>
  </g>
  <g id="K.5.15">
    <polygon class="cls-1" points="926.06 1000.16 926.23 1009.46 926.3 1013.17 1005.25 1124.76 1033.39 1118.15 1124.12 1096.87 1125.2 1064.02 1096.48 1032.95 1061.38 1040.45 1033.98 1008.83 1050.99 1005.38 1055.21 1010.1 1085.89 1003.83 1067.2 984.11 1047.24 988.05 1045.39 986.02 1045.49 976.98 926.06 1000.16"/>
  </g>
</svg>