<?xml version="1.0" encoding="UTF-8"?>
<svg xmlns="http://www.w3.org/2000/svg" viewBox="0 0 2000 1498">
  <defs>
    <style>
      .cls-1 {
        stroke-linecap: round;
        stroke-linejoin: round;
        stroke-width: .37px;
      }

      .cls-1, .cls-2, .cls-3 {
        fill: none;
        stroke: #000;
      }

      .cls-2, .cls-3 {
        stroke-miterlimit: 10;
      }

      .cls-3 {
        fill-rule: evenodd;
      }
    </style>
  </defs>
  <g id="E.0.2">
    <polygon class="cls-2" points="867.24 760.21 855.6 773.14 867.49 773.71 867.24 760.21"/>
  </g>
  <g id="E.0.1">
    <polygon class="cls-2" points="718.81 789.89 719.36 801.61 734.81 802.14 746.27 791.84 718.81 789.89"/>
  </g>
  <g id="Muehle_Wohn_1" data-name="Muehle Wohn 1">
    <polygon class="cls-3" points="1003.38 809.15 1003.61 820.05 994.54 821.08 994.31 810.18 993.91 790.28 996.36 787.82 996.26 786.65 996.27 783.64 979.86 757.48 969.82 773.81 955.55 791.87 946.5 800 946 812.02 945.77 823.38 949.67 829.23 950.01 818.44 946 812.02 946.5 800 955.55 791.87 969.82 773.81 979.86 757.48 996.27 783.64 996.38 785.05 996.36 787.82 994.66 789.41 993.91 790.28 994.31 810.18 1003.38 809.15"/>
  </g>
  <g id="F.0.2">
    <polygon class="cls-1" points="1155.21 882.55 1154.95 887.37 1201.52 891.11 1202.35 901.55 1210.35 902.09 1217.04 839.45 1215.97 833.83 1209.3 886.98 1155.21 882.55"/>
  </g>
  <g id="F.0.1">
    <polygon class="cls-1" points="1070.27 875.44 1070.1 879.87 1123.9 884.96 1124.43 879.34 1070.27 875.44"/>
  </g>
  <g id="C.0.2">
    <polygon class="cls-2" points="1001.32 738.4 1001.32 749 1043.45 751.05 1058.3 724.79 1058.76 710.77 1041.47 740.95 1001.32 738.4"/>
  </g>
  <g id="C.0.1">
    <polygon class="cls-2" points="937.2 734.34 937.2 742.09 940.11 739.93 941.21 739.54 954.82 731.07 963.8 737.83 969.43 740.95 978.22 743.21 978.22 736.83 961.17 735.86 954.82 731.07 948.46 735.03 937.2 734.34"/>
  </g>
  <g id="D.0.2">
    <polygon class="cls-3" points="865.93 720.45 866.35 733.24 887.51 712.7 886.97 699.91 865.93 720.45"/>
  </g>
  <g id="H.0.2">
    <polygon class="cls-2" points="1118.79 1035.24 1118.79 1055.48 1187.41 1061.73 1198.6 987.16 1197.9 978.22 1187.89 1042.76 1118.79 1035.24"/>
  </g>
  <g id="H.0.1">
    <polygon class="cls-2" points="1014.6 1024.47 1014.39 1044.63 1079.09 1051.63 1079.43 1031.31 1014.6 1024.47"/>
  </g>
  <g id="G.0.2">
    <polygon class="cls-2" points="901.09 854.31 900.7 873.69 888.52 872.43 901.09 854.31"/>
  </g>
  <g id="G.0.1">
    <polygon class="cls-2" points="724.17 897.66 725.33 917.39 741.64 899.13 724.17 897.66"/>
  </g>
  <g id="I.0.2">
    <polygon class="cls-3" points="904.82 1016.84 913.09 1017.86 931.39 986.34 931 967.65 904.82 1016.84"/>
  </g>
  <g id="K.0.2">
    <polygon class="cls-3" points="775.07 1244.64 775.57 1267 859.62 1279.78 917.62 1149.53 917.07 1127.35 858.16 1256.84 775.07 1244.64"/>
  </g>
  <g id="K.0.1">
    <polygon class="cls-3" points="647.91 1226.8 649 1249.31 730.34 1260.61 741.4 1240.21 647.91 1226.8"/>
  </g>
  <g id="B.0.2">
    <polygon class="cls-2" points="1006.33 655.89 993.57 671.69 1002.81 672.2 1005.84 669.02 1006.33 655.89"/>
  </g>
  <g id="B.0.1">
    <polygon class="cls-2" points="898.43 673.7 898.43 687.34 934.94 689 938.51 681.9 938.51 675.57 898.43 673.7"/>
  </g>
  <g id="A.0.2">
    <polygon class="cls-3" points="1118.81 664.63 1118.15 675.55 1152.64 676.93 1160.65 656.75 1160.67 645.27 1152.58 666.38 1118.81 664.63"/>
  </g>
  <g id="A.0.1">
    <polygon class="cls-3" points="1064.33 661.8 1064.52 674.3 1097.6 676.25 1101.5 670.3 1101.5 663.73 1064.33 661.8"/>
  </g>
  <g id="E.1.4">
    <polygon class="cls-2" points="845.52 767.42 845.54 772.29 855.6 773.14 867.24 760.21 866.75 745.39 845.52 767.42"/>
  </g>
  <g id="E.1.3">
    <polygon class="cls-2" points="717.71 774.22 718.81 789.89 746.27 791.84 760.57 778.66 760.33 777.29 717.71 774.22"/>
  </g>
  <g id="E.1.5">
    <polygon class="cls-2" points="845.52 767.42 841.01 771.87 845.54 772.29 845.52 767.42"/>
  </g>
  <g id="Muehle_Wohn_2" data-name="Muehle Wohn 2">
    <polygon class="cls-2" points="1003.38 809.15 1002.96 795.31 993.92 796.08 993.91 790.28 994.66 789.41 995.79 788.85 996.41 787.57 996.26 785.62 996.27 783.64 979.86 757.48 969.82 773.81 955.55 791.87 946.05 800.41 965.39 800.08 967.8 806.39 967.92 818.44 950.01 818.44 946 812.02 946.05 800.41 927.52 801.69 914.67 778.05 915.47 765.54 928.92 789.35 937.58 782.91 939.97 786.91 939.09 787.96 946.05 800.41 955.55 791.87 969.82 773.81 979.86 757.48 996.27 783.64 996.43 784.26 996.26 786.65 996.41 787.57 995.47 789.19 994.16 790.15 993.92 796.08 994.31 810.18 1003.38 809.15"/>
  </g>
  <g id="F.1.3">
    <polygon class="cls-3" points="1070.59 857.57 1070.27 875.44 1122.44 879.77 1123.01 861.79 1070.59 857.57"/>
  </g>
  <g id="F.1.5">
    <polygon class="cls-3" points="1123.01 861.79 1122.44 879.77 1209.3 886.98 1214.49 849.6 1213.15 845.12 1210.28 868.8 1123.01 861.79"/>
  </g>
  <g id="C.1.4">
    <polygon class="cls-2" points="1048.6 714.82 1048.43 728.81 1058.76 710.77 1058.96 697.32 1048.6 714.82"/>
  </g>
  <g id="C.1.3">
    <polygon class="cls-2" points="937.42 720.19 937.2 734.34 948.46 735.03 954.82 731.07 961.17 735.86 976.72 736.83 976.64 722.6 937.42 720.19"/>
  </g>
  <g id="C.1.5">
    <polygon class="cls-2" points="976.64 722.6 976.72 736.83 1041.47 740.95 1048.43 728.81 1048.6 714.82 1041.62 726.6 976.64 722.6"/>
  </g>
  <g id="D.1.4">
    <polygon class="cls-3" points="869.05 703.33 869.49 716.97 886.97 699.91 886.6 686.78 869.05 703.33"/>
  </g>
  <g id="D.1.5">
    <polygon class="cls-3" points="869.05 703.33 865.48 706.71 865.93 720.45 869.49 716.97 869.05 703.33"/>
  </g>
  <g id="H.1.3">
    <polygon class="cls-2" points="1014.68 1002.96 1014.6 1024.47 1079.43 1031.31 1079.89 1009.63 1014.68 1002.96"/>
  </g>
  <g id="H.1.5">
    <polygon class="cls-2" points="1079.89 1009.63 1079.43 1031.31 1187.89 1042.76 1194.22 996.24 1193.48 989.07 1189 1020.8 1079.89 1009.63"/>
  </g>
  <g id="G.1.4">
    <polygon class="cls-2" points="877.07 869.14 877.01 871.01 888.52 872.43 901.09 854.31 900.65 837.02 877.07 869.14"/>
  </g>
  <g id="G.1.3">
    <polyline class="cls-2" points="722.85 879.2 724.17 897.66 741.64 899.13 757.41 882.37 722.85 879.2"/>
  </g>
  <g id="I.1.4">
    <polygon class="cls-3" points="904.26 994.55 904.8 1015.85 931 967.65 930.64 947.55 904.26 994.55"/>
  </g>
  <g id="I.1.5">
    <polygon class="cls-3" points="891.84 1015.45 904.26 994.55 904.82 1016.84 891.84 1015.45"/>
  </g>
  <g id="K.1.4">
    <polygon class="cls-3" points="882.09 1176.97 882.93 1202.4 917.07 1127.35 916.53 1103.57 882.09 1176.97"/>
  </g>
  <g id="K.1.3">
    <polygon class="cls-3" points="645.33 1200.85 647.91 1226.8 726.22 1237.99 724.19 1211.8 645.33 1200.85"/>
  </g>
  <g id="K.1.5">
    <polygon class="cls-3" points="724.19 1211.8 726.22 1237.99 858.16 1256.84 882.93 1202.4 882.09 1176.97 857.09 1230.27 724.19 1211.8"/>
  </g>
  <g id="B.1.4">
    <polygon class="cls-2" points="995.29 657.2 995.31 669.54 1006.33 655.89 1006.35 643.97 995.29 657.2"/>
  </g>
  <g id="B.1.3">
    <polygon class="cls-2" points="898.12 661.23 898.43 673.7 932.17 675.57 931.96 663.04 898.12 661.23"/>
  </g>
  <g id="B.1.5">
    <polygon class="cls-2" points="931.96 663.04 932.17 675.57 956.77 676.93 961.47 671.7 966.33 671.96 967.84 670.26 993.57 671.69 995.31 669.54 995.29 657.2 987.91 666.03 931.96 663.04"/>
  </g>
  <g id="A.1.4">
    <polygon class="cls-3" points="1156.26 646.03 1155.83 657.46 1160.67 645.27 1161.12 633.74 1156.26 646.03"/>
  </g>
  <g id="A.1.3">
    <polygon class="cls-3" points="1064.52 649.76 1064.33 661.8 1097.6 663.53 1097.89 651.43 1064.52 649.76"/>
  </g>
  <g id="A.1.5">
    <polygon class="cls-3" points="1097.89 651.43 1097.6 663.53 1152.58 666.38 1155.83 657.46 1155.93 646.88 1153.03 654.2 1097.89 651.43"/>
  </g>
  <g id="E.2.7">
    <polygon class="cls-2" points="844.92 751.83 845.52 767.42 866.75 745.39 866.26 730.47 844.92 751.83"/>
  </g>
  <g id="E.2.6">
    <polygon class="cls-2" points="716.59 758.43 717.71 774.22 760.33 777.29 759.38 761.4 716.59 758.43"/>
  </g>
  <g id="E.2.8">
    <polygon class="cls-2" points="759.38 761.4 760.33 777.29 762.55 777.25 773.9 767.22 841.01 771.87 845.52 767.42 844.92 751.83 830.41 766.34 759.38 761.4"/>
  </g>
  <g id="Muehle_Wohn_3" data-name="Muehle Wohn 3">
    <g>
      <polygon class="cls-2" points="945.47 780.63 943.81 777.94 943.81 777.94 943.96 778.18 945.05 779.95 945.47 780.63"/>
      <polygon class="cls-2" points="928.91 789 912.51 760.41 928.91 789 928.91 789"/>
      <path class="cls-2" d="M945.47,780.63l-5.58,1.1-.8.07-1.51,1.12,2.39,3.99h0l-.88,1.06v.38s6.93,12.08,6.93,12.08l.02-.02-.02-.06-.02-.05v-.26s.49-.04.49-.04l9.05-8.13h0s13.35-16.89,13.35-16.89h0l.92-1.17,1.32-2.14,3.94-6.4,1-1.63,1.95-3.17.16-.26.53-.87,1.14-1.85,2.71,4.3,2.44,3.89.35.55,3.26,5.18,5.73,9.12.14.22,1.51,2.4.21.34.07.17.1.27.06.35v2.86s0,.35,0,.35l-.02.1-.05.25-.13.35-.45.69-.32.34-.38.33-.44.32-.49.31-.25.14v5.8s9.04-.78,9.04-.78v-1.64s5.28,3.83,5.28,3.83l.2-.24-8.36-11.87-1.68-1.22v-2.15s1.26-.11,1.26-.11l.68-.06,1.72-.14v-5.13s1.07-.09,1.07-.09l9.91,5.72v-.35s-11.4-15.03-11.4-15.03l1.9-.21v.18s0-.18,0-.18h0s0,0,0,0l-4.37-5.73-2.59-.6.12.03-.93-1.1-.11-.74,1.86.43v-.18s-4.23-5.54-4.23-5.54l-3.73-.87h0v-1.88s1.82.43,1.82.43v-.18s-4.08-5.35-4.08-5.35l-17.3-4.07-5.47-3.19-.72-.26-8.98-6.76-13.61,8.47-1.1.4-10.58,7.85h0l-6.79,2.64v.18s.94,1.53.94,1.53l-11.16,8.28h0l16.4,28.94,15.04-11.17-.15-.24h0s1.67,2.69,1.67,2.69l-.42-.68-1.09-1.77-4.87,3.61,6.38-1.16Z"/>
    </g>
  </g>
  <g id="F.2.6">
    <polyline class="cls-3" points="1070.92 839.54 1070.59 857.57 1123.01 861.79 1123.58 843.63 1070.92 839.54"/>
  </g>
  <g id="F.2.8">
    <polygon class="cls-3" points="1123.58 843.63 1123.01 861.79 1210.28 868.8 1213.15 845.12 1212.41 840.29 1211.27 850.45 1123.58 843.63"/>
  </g>
  <g id="C.2.7">
    <polygon class="cls-2" points="1048.77 700.73 1048.6 714.82 1058.96 697.32 1059.16 683.78 1048.77 700.73"/>
  </g>
  <g id="C.2.6">
    <polygon class="cls-2" points="937.2 705.94 937.42 720.19 976.64 722.6 976.56 708.28 937.2 705.94"/>
  </g>
  <g id="C.2.8">
    <polygon class="cls-2" points="976.56 708.28 976.64 722.6 1041.62 726.6 1048.6 714.82 1048.77 700.73 1041.77 712.15 976.56 708.28"/>
  </g>
  <g id="D.2.7">
    <polygon class="cls-3" points="868.61 689.61 869.05 703.33 886.6 686.78 886.24 673.57 868.61 689.61"/>
  </g>
  <g id="D.2.8">
    <polygon class="cls-3" points="868.61 689.61 860.6 697.77 865.19 698.11 865.48 706.71 869.05 703.33 868.61 689.61"/>
  </g>
  <g id="H.2.6">
    <polygon class="cls-2" points="1014.77 981.2 1014.68 1002.96 1079.89 1009.63 1080.36 987.7 1014.77 981.2"/>
  </g>
  <g id="H.2.8">
    <polygon class="cls-2" points="1080.36 987.7 1079.89 1009.63 1189 1020.8 1193.48 989.07 1194.73 966.91 1190.12 998.59 1080.36 987.7"/>
  </g>
  <g id="G.2.7">
    <polygon class="cls-2" points="876.49 850.78 877.07 869.14 900.65 837.02 900.21 819.57 876.49 850.78"/>
  </g>
  <g id="G.2.6">
    <polygon class="cls-2" points="721.53 860.56 722.85 879.2 757.41 882.37 773.03 865.04 721.53 860.56"/>
  </g>
  <g id="G.2.8">
    <polygon class="cls-2" points="876.49 850.78 863.23 869.87 875.45 871.15 877.07 869.14 876.49 850.78"/>
  </g>
  <g id="I.2.6">
    <polygon class="cls-3" points="715.71 987.57 716.41 1008.34 725.25 997.78 779.41 1003.29 779.02 994.2 715.71 987.57"/>
  </g>
  <g id="I.2.7">
    <polygon class="cls-3" points="903.72 973.01 904.26 994.55 930.64 947.55 930.27 927.24 903.72 973.01"/>
  </g>
  <g id="I.2.8">
    <polygon class="cls-3" points="779.02 994.2 779.41 1003.29 891.84 1015.45 904.26 994.55 903.72 973.01 884.99 1005.3 779.02 994.2"/>
  </g>
  <g id="K.2.7">
    <polygon class="cls-3" points="881.25 1151.17 882.09 1176.97 916.53 1103.57 915.99 1079.47 881.25 1151.17"/>
  </g>
  <g id="K.2.6">
    <polygon class="cls-3" points="642.72 1174.51 645.33 1200.85 724.19 1211.8 722.14 1185.23 642.72 1174.51"/>
  </g>
  <g id="K.2.8">
    <polygon class="cls-3" points="722.14 1185.23 724.19 1211.8 857.09 1230.27 882.09 1176.97 881.25 1151.17 856 1203.29 722.14 1185.23"/>
  </g>
  <g id="B.2.7">
    <polygon class="cls-2" points="995.28 644.78 995.29 657.2 1006.35 643.97 1006.37 631.98 995.28 644.78"/>
  </g>
  <g id="B.2.6">
    <polygon class="cls-2" points="897.81 648.68 898.12 661.23 931.96 663.04 931.75 650.43 897.81 648.68"/>
  </g>
  <g id="B.2.8">
    <polygon class="cls-2" points="931.75 650.43 931.96 663.04 987.91 666.03 995.29 657.2 995.28 644.78 987.88 653.33 931.75 650.43"/>
  </g>
  <g id="A.2.7">
    <polygon class="cls-3" points="1156.72 634.03 1156.26 646.03 1161.12 633.74 1161.57 622.15 1156.72 634.03"/>
  </g>
  <g id="A.2.6">
    <polygon class="cls-3" points="1064.71 637.65 1064.52 649.76 1097.89 651.43 1098.17 639.27 1064.71 637.65"/>
  </g>
  <g id="A.2.8">
    <polygon class="cls-3" points="1098.17 639.27 1097.89 651.43 1153.03 654.2 1156.26 646.03 1156.72 634.03 1153.49 641.95 1098.17 639.27"/>
  </g>
  <g id="E.3.10">
    <polygon class="cls-3" points="844.31 736.11 844.92 751.83 866.26 730.47 865.76 715.43 844.31 736.11"/>
  </g>
  <g id="E.3.9">
    <polygon class="cls-2" points="715.47 742.51 716.59 758.43 759.38 761.4 758.42 745.39 715.47 742.51"/>
  </g>
  <g id="E.3.11">
    <polygon class="cls-3" points="758.42 745.39 759.38 761.4 830.41 766.34 844.92 751.83 844.31 736.11 829.73 750.18 758.42 745.39"/>
  </g>
  <g id="F.3.10">
    <path class="cls-2" d="M1218.9,793l-48.7-3.38-.02.56-2.92-.2-5.47,21.4-9.65-.7-3.8,13.81-.79,21.01,45.58,3.54,18.14,1.41,7.16-48.96.13-2.42.33-6.06Z"/>
  </g>
  <g id="F.3.9">
    <polygon class="cls-2" points="1088.43 840.9 1147.55 845.5 1148.34 824.49 1152.13 810.68 1128.67 808.97 1133.21 794.86 1144.61 795.67 1143.96 797.83 1164.87 799.31 1167.25 789.98 1170.18 790.18 1170.2 789.62 1090.52 784.08 1071.08 830.49 1070.96 836.96 1070.92 839.54 1088.43 840.9"/>
  </g>
  <g id="C.3.10">
    <path class="cls-2" d="M1042.24,674.27l-25.31-1.36-9.26,12.42-7.22-.4-6.04,7.89.02,16.53,33.89,2.01,13.46.8,17.39-28.38.03-1.93.07-4.84-17.04-.92.02-1.81Z"/>
  </g>
  <g id="C.3.9">
    <polygon class="cls-2" points="950.3 706.72 937.2 705.94 937.17 703.9 937.09 698.8 961.47 671.7 966.33 671.96 967.84 670.26 1016.92 672.9 1012.86 678.35 997.12 677.49 998.11 676.23 989.51 675.76 982.85 683.94 1000.44 684.92 994.4 692.81 994.42 709.34 950.3 706.72"/>
  </g>
  <g id="D.3.10">
    <polygon class="cls-3" points="868.17 675.79 868.61 689.61 886.24 673.57 885.87 660.28 868.17 675.79"/>
  </g>
  <g id="D.3.9">
    <polygon class="cls-3" points="757.09 680.54 757.09 687.48 760.43 685.24 794.6 687.12 794.43 682.68 757.09 680.54"/>
  </g>
  <g id="D.3.11">
    <polygon class="cls-3" points="794.43 682.68 794.6 687.12 841.7 689.95 841.96 696.74 860.6 697.77 868.61 689.61 868.17 675.79 856.26 686.21 794.43 682.68"/>
  </g>
  <g id="H.3.9">
    <polygon class="cls-2" points="1014.86 959.19 1014.77 981.2 1080.36 987.7 1080.83 965.52 1014.86 959.19"/>
  </g>
  <g id="H.3.11">
    <polygon class="cls-2" points="1080.83 965.52 1080.36 987.7 1190.12 998.59 1194.73 966.91 1195.5 948.23 1191.25 976.11 1080.83 965.52"/>
  </g>
  <g id="G.3.10">
    <polygon class="cls-2" points="875.91 832.25 876.49 850.78 900.21 819.57 899.77 801.96 875.91 832.25"/>
  </g>
  <g id="G.3.9">
    <polygon class="cls-2" points="720.19 841.74 721.53 860.56 773.03 865.04 772.4 846.03 720.19 841.74"/>
  </g>
  <g id="G.3.11">
    <polygon class="cls-2" points="772.4 846.03 773.03 865.04 775.52 862.49 863.23 869.87 876.49 850.78 875.91 832.25 859.41 853.19 772.4 846.03"/>
  </g>
  <g id="I.3.9">
    <polygon class="cls-3" points="714.05 965.39 715.71 987.57 779.02 994.2 777.71 971.84 714.05 965.39"/>
  </g>
  <g id="I.3.10">
    <polygon class="cls-3" points="903.17 951.22 903.72 973.01 930.27 927.24 929.9 906.7 903.17 951.22"/>
  </g>
  <g id="I.3.11">
    <polygon class="cls-3" points="777.71 971.84 779.02 994.2 884.99 1005.3 903.72 973.01 903.17 951.22 884.3 982.64 777.71 971.84"/>
  </g>
  <g id="K.3.10">
    <polygon class="cls-3" points="880.39 1125 881.25 1151.17 915.99 1079.47 915.43 1055.06 880.39 1125"/>
  </g>
  <g id="K.3.9">
    <polygon class="cls-3" points="640.07 1147.79 642.72 1174.51 722.14 1185.23 720.05 1158.25 640.07 1147.79"/>
  </g>
  <g id="K.3.11">
    <polygon class="cls-3" points="720.05 1158.25 722.14 1185.23 856 1203.29 881.25 1151.17 880.39 1125 854.9 1175.89 720.05 1158.25"/>
  </g>
  <g id="B.3.10">
    <polygon class="cls-2" points="995.26 632.29 995.28 644.78 1006.37 631.98 1006.39 619.92 995.26 632.29"/>
  </g>
  <g id="B.3.9">
    <polygon class="cls-2" points="897.5 636.06 897.81 648.68 931.75 650.43 931.54 637.75 897.5 636.06"/>
  </g>
  <g id="B.3.11">
    <polygon class="cls-2" points="931.54 637.75 931.75 650.43 987.88 653.33 995.28 644.78 995.26 632.29 987.84 640.55 931.54 637.75"/>
  </g>
  <g id="A.3.10">
    <polygon class="cls-2" points="1142.08 641.39 1153.49 641.95 1161.57 622.15 1161.64 620.5 1161.8 616.35 1149.03 615.78 1149.13 613.09 1127.51 612.14 1122.89 620.81 1116.75 620.53 1113.73 625.99 1113.34 640 1142.08 641.39"/>
  </g>
  <g id="A.3.9">
    <path class="cls-2" d="M1064.8,631.59l-.07,4.33-.03,1.73,11.15.54,37.49,1.81.39-14.02,3.02-5.46-14.97-.68,3.43-5.71,7.34.33-.51.88,13.43.6,2.03-3.81-41.99-1.86-1.74,2.59-5.82-.26-13.16,18.98Z"/>
  </g>
  <g id="E.4.13">
    <polyline class="cls-3" points="843.7 720.28 844.31 736.11 865.76 715.43 865.26 700.28 843.7 720.28"/>
  </g>
  <g id="E.4.12">
    <polygon class="cls-3" points="714.34 726.46 715.47 742.51 758.42 745.39 757.45 729.25 714.34 726.46"/>
  </g>
  <g id="E.4.14">
    <polygon class="cls-3" points="757.45 729.25 758.42 745.39 829.73 750.18 844.31 736.11 843.7 720.28 829.04 733.88 757.45 729.25"/>
  </g>
  <g id="D.4.13">
    <polygon class="cls-2" points="843.5 685.48 856.26 686.21 885.87 660.28 885.82 658.38 885.69 653.62 865.95 652.59 865.88 650.53 841.81 649.28 827.02 660.61 820.16 660.25 810.62 667.43 811.37 683.65 843.5 685.48"/>
  </g>
  <g id="D.4.12">
    <polygon class="cls-2" points="756.68 673.54 768.62 665.13 795.14 646.87 841.81 649.28 835.32 654.25 820.36 653.47 821.92 652.32 813.74 651.89 803.47 659.35 820.16 660.25 810.62 667.43 811.37 683.65 769.52 681.25 757.09 680.54 756.97 678.54 756.68 673.54"/>
  </g>
  <g id="H.4.13">
    <path class="cls-2" d="M1142.82,886.29l-.15,4.03-4.43-.37-8.48,32.46-12.08-1.08-6,21.31-.75,25.76,57.41,5.51,22.91,2.2,11.09-74.56.15-2.92.38-7.32-60.06-5.03Z"/>
  </g>
  <g id="H.4.12">
    <polygon class="cls-2" points="1036.76 961.29 1110.94 968.41 1111.69 942.65 1117.69 921.33 1088.36 918.72 1095.44 897.29 1109.57 898.5 1108.58 901.77 1134.57 904.01 1138.25 889.95 1142.67 890.32 1142.82 886.29 1044.98 878.1 1014.9 948.13 1014.87 956.03 1014.86 959.19 1036.76 961.29"/>
  </g>
  <g id="G.4.13">
    <polygon class="cls-2" points="875.32 813.54 875.91 832.25 899.77 801.96 899.32 784.2 875.32 813.54"/>
  </g>
  <g id="G.4.12">
    <polygon class="cls-2" points="718.84 822.74 720.19 841.74 772.4 846.03 771.29 826.9 718.84 822.74"/>
  </g>
  <g id="G.4.14">
    <polygon class="cls-2" points="771.29 826.9 772.4 846.03 859.41 853.19 875.91 832.25 875.32 813.54 858.72 833.84 771.29 826.9"/>
  </g>
  <g id="I.4.12">
    <polygon class="cls-3" points="712.36 942.94 714.05 965.39 777.71 971.84 776.39 949.21 712.36 942.94"/>
  </g>
  <g id="I.4.13">
    <polygon class="cls-3" points="902.61 929.18 903.17 951.22 929.9 906.7 929.53 885.95 902.61 929.18"/>
  </g>
  <g id="I.4.14">
    <polygon class="cls-3" points="776.39 949.21 777.71 971.84 884.3 982.64 903.17 951.22 902.61 929.18 883.6 959.71 776.39 949.21"/>
  </g>
  <g id="K.4.13">
    <polygon class="cls-3" points="879.09 1099.5 880.39 1125 915.43 1055.06 914.87 1030.32 879.09 1099.5"/>
  </g>
  <g id="K.3.12">
    <polygon class="cls-3" points="637.37 1120.66 640.07 1147.79 720.05 1158.25 717.93 1130.86 637.37 1120.66"/>
  </g>
  <g id="K.3.14">
    <polygon class="cls-3" points="717.93 1130.86 720.05 1158.25 854.9 1175.89 880.39 1125 879.09 1099.5 853.78 1148.07 717.93 1130.86"/>
  </g>
  <g id="B.4.13">
    <path class="cls-2" d="M990.64,613.16v-2.68s-21.99-.99-21.99-.99l-9.49,9.01-6.25-.29-6.11,5.69.19,14.61,29.25,1.45,11.61.58,18.55-20.63v-1.72s0-4.31,0-4.31l-15.76-.72Z"/>
  </g>
  <g id="B.4.12">
    <polygon class="cls-2" points="908.84 636.62 946.98 638.52 946.79 623.9 952.9 618.21 937.68 617.5 944.35 611.57 951.82 611.91 950.81 612.83 964.48 613.45 968.65 609.49 925.95 607.56 922.93 610.08 921.16 609.99 897.34 629.74 897.46 634.26 897.5 636.06 908.84 636.62"/>
  </g>
  <g id="E.5.16">
    <polygon class="cls-2" points="859.42 697.77 841.96 696.74 841.7 689.95 814.02 688.35 795.79 702.98 787.88 702.51 776.02 711.87 777.04 730.52 814.25 732.92 829.04 733.88 865.26 700.28 865.19 698.11 859.42 697.77"/>
  </g>
  <g id="E.5.15">
    <polygon class="cls-2" points="760.43 685.24 727.44 708.87 727.8 714.27 721.42 718.91 728.14 719.33 728.53 725.09 714.18 724.17 714.34 726.46 728.68 727.39 777.04 730.52 776.02 711.87 787.88 702.51 768.62 701.35 781.34 691.7 790.74 692.25 788.83 693.73 806.05 694.75 814.02 688.35 760.43 685.24"/>
  </g>
  <g id="G.5.16">
    <polygon class="cls-2" points="871.91 774.11 838.48 771.76 817.52 793.36 807.89 792.65 794.02 806.64 795.17 828.8 840.62 832.4 858.72 833.84 899.32 784.2 899.26 781.66 894.09 781.29 872.09 779.72 871.91 774.11"/>
  </g>
  <g id="G.5.15">
    <polygon class="cls-2" points="773.9 767.22 734.81 802.14 735.08 806.26 735.02 805.3 725.58 813.78 735.64 814.57 736.09 821.4 718.64 820.02 718.84 822.74 736.28 824.12 795.17 828.8 794.02 806.64 807.89 792.65 784.5 790.93 799.37 776.68 810.72 777.49 808.51 779.67 829.35 781.17 838.48 771.76 773.9 767.22"/>
  </g>
  <g id="I.5.16">
    <polygon class="cls-2" points="857.01 873.75 832.54 905.79 820.8 904.73 804.28 925.79 805.61 952.07 861.36 957.53 883.6 959.71 929.53 885.95 929.47 882.98 929.34 875.52 870.82 870.57 870.96 874.94 857.01 873.75"/>
  </g>
  <g id="I.5.15">
    <polygon class="cls-2" points="857.01 873.75 870.96 874.94 870.82 870.57 775.52 862.49 711.52 931.66 712.12 939.73 712.36 942.94 733.62 945.02 805.61 952.07 804.28 925.79 820.8 904.73 792.31 902.15 809.99 880.99 823.74 882.19 821.13 885.41 846.41 887.63 857.01 873.75 857.01 873.75"/>
  </g>
  <g id="K.5.16">
    <path class="cls-2" d="M825.49,1144.49l28.29,3.58,61.09-117.75-.08-3.55-.2-8.9-72.27-7.67.37,8.82-1.8,2.86-17.01-1.83-33.32,50.98-14.75-1.71-23.12,34.28,2.15,31.94,70.65,8.95Z"/>
  </g>
  <g id="K.5.15">
    <polygon class="cls-2" points="664.07 1124.04 637.37 1120.66 636.99 1116.77 636.02 1106.99 725.25 997.78 842.31 1010.2 842.68 1019.03 840.89 1021.89 823.88 1020.05 809.56 1041.95 778.03 1038.44 781.6 1033.34 764.5 1031.45 740.05 1065.17 775.81 1069.32 752.69 1103.6 754.84 1135.54 664.07 1124.04"/>
  </g>
</svg>