<?xml version="1.0" encoding="UTF-8"?>
<svg xmlns="http://www.w3.org/2000/svg" viewBox="0 0 2000 1498">
  <defs>
    <style>
      .cls-1 {
        stroke-linecap: round;
        stroke-linejoin: round;
        stroke-width: .37px;
      }

      .cls-1, .cls-2, .cls-3 {
        fill: none;
        stroke: #000;
      }

      .cls-2, .cls-3 {
        stroke-miterlimit: 10;
      }

      .cls-3 {
        fill-rule: evenodd;
      }
    </style>
  </defs>
  <g id="E.0.2">
    <polygon class="cls-3" points="951.17 772.14 966.18 777.87 1052.78 748.62 1052.08 767.24 968.57 798.21 951.54 792.33 951.17 772.14"/>
  </g>
  <g id="Muehle_Wohn_1" data-name="Muehle Wohn 1">
    <g>
      <polygon class="cls-2" points="1085.83 828.36 1085.83 828.36 1085.83 828.36 1085.83 828.36 1085.83 828.36 1085.83 828.36 1085.83 828.36 1085.83 828.36 1085.42 831.08 1085.43 831.48 1085.19 841.96 1100.96 844.17 1110.96 830.58 1111.35 817.28 1101.33 830.59 1085.83 828.36"/>
      <line class="cls-2" x1="1101.33" y1="830.59" x2="1111.39" y2="817.23"/>
    </g>
  </g>
  <g id="F.0.2">
    <polygon class="cls-3" points="1151.98 944.64 1151.98 970.09 1206.77 993.01 1299.85 936.62 1301.77 913.21 1204.72 967.18 1151.98 944.64"/>
  </g>
  <g id="F.0.1">
    <polygon class="cls-3" points="1077.27 912.21 1077.01 935.01 1124.24 958.4 1149 943.72 1077.27 912.21"/>
  </g>
  <g id="C.0.2">
    <polygon class="cls-3" points="1212.71 754.23 1212.35 772.37 1250.06 783.46 1318.09 756.61 1319.85 737.41 1251.2 765.43 1212.71 754.23"/>
  </g>
  <g id="C.0.1">
    <polygon class="cls-3" points="1154.75 736.88 1154.47 751.36 1193.22 764.99 1203.88 760.43 1204 751.12 1154.75 736.88"/>
  </g>
  <g id="D.0.2">
    <polygon class="cls-3" points="1056.76 707.43 1056.76 720.87 1088.54 732.45 1156.01 709.89 1156.34 697.8 1157.75 697.28 1157.91 693.07 1087.38 715.79 1056.76 707.43"/>
  </g>
  <g id="H.0.2">
    <polygon class="cls-3" points="883.79 1090.51 883.99 1116.2 937.71 1151.69 1076.14 1070.32 1076.66 1044.12 935.32 1123.32 883.79 1090.51"/>
  </g>
  <g id="H.0.1">
    <polygon class="cls-3" points="808.74 1042.68 809.67 1067.37 857.52 1100.12 875.36 1085.81 808.74 1042.68"/>
  </g>
  <g id="G.0.2">
    <polyline class="cls-3" points="952.08 847.01 952.19 871.08 840.69 913.97 818.42 900.65 817.69 879.11 839.49 889.9 952.08 847.01"/>
  </g>
  <g id="I.0.1">
    <polygon class="cls-3" points="582.53 961.8 584.95 989.36 617.85 1011.6 638.14 1001.45 582.53 961.8"/>
  </g>
  <g id="I.0.2">
    <polygon class="cls-3" points="638.29 1000.79 639.83 1024.34 676.87 1052.15 806.24 995.7 804.49 970.19 673.28 1025.53 638.29 1000.79"/>
  </g>
  <g id="K.0.1">
    <polygon class="cls-3" points="309.68 1104.21 314.15 1134.02 344.45 1169.18 357.64 1161.32 309.68 1104.21"/>
  </g>
  <g id="K.0.2">
    <polygon class="cls-3" points="357.64 1161.32 362.26 1189.77 391.85 1222.76 600.76 1135.41 596.36 1105.89 389.53 1198.52 357.64 1161.32"/>
  </g>
  <g id="B.0.2">
    <polygon class="cls-3" points="1345.15 671.15 1292.65 690.57 1314.66 696.35 1343.86 687.74 1345.15 671.15"/>
  </g>
  <g id="B.0.1">
    <polygon class="cls-3" points="1202.97 670.76 1202.19 679.86 1218.13 674.77 1202.97 670.76"/>
  </g>
  <g id="A.0.2">
    <polygon class="cls-3" points="1463.9 699.39 1463.18 715.59 1503.55 725.3 1550.66 704.1 1552.77 686.38 1504.45 708.5 1463.9 699.39"/>
  </g>
  <g id="A.0.1">
    <polygon class="cls-3" points="1404.85 685.95 1403.55 702.5 1442.6 710.3 1452.88 707.45 1453.04 696.75 1404.85 685.95"/>
  </g>
  <g id="E.1.4">
    <polygon class="cls-3" points="1000.81 749.86 1000.8 766.18 1052.78 748.62 1053.01 732.83 1000.81 749.86"/>
  </g>
  <g id="E.1.3">
    <polygon class="cls-3" points="884.63 732.29 884.79 745.76 914.38 756.43 914.39 742.86 884.63 732.29"/>
  </g>
  <g id="E.1.5">
    <polygon class="cls-3" points="914.39 742.86 914.38 756.43 951.13 769.42 951.17 772.14 966.18 777.87 1000.8 766.18 1000.81 749.86 966.04 761.21 914.39 742.86"/>
  </g>
  <g id="Muehle_Wohn_2" data-name="Muehle Wohn 2">
    <polygon class="cls-2" points="1088.66 795.92 1088.86 796.33 1089.05 797.15 1088.99 799.82 1088.97 800.33 1088.96 800.73 1088.72 801.55 1086.17 803.94 1085.87 812.71 1101.76 814.83 1102.1 814.38 1106.6 818.27 1117.49 804.34 1112.77 799.79 1119.78 800.7 1122.81 796.7 1129.92 802.43 1119.88 816.45 1112.7 815.2 1101.33 830.59 1085.83 828.36 1085.87 812.71 1086.17 803.94 1087.27 803.23 1088.2 802.35 1088.72 801.55 1088.99 799.82 1089.11 799.04 1089.11 797.73 1088.99 796.74 1088.66 795.92 1071.26 767.04 1053.07 794.86 1049.47 798.96 1055.28 805.1 1054.63 823.94 1036.45 822.06 1036.45 815.5 1034.64 815.42 1034.89 812.31 1038.41 806.29 1049.14 799.45 1051.57 796.72 1051.76 796.5 1052.65 795.43 1053.29 794.43 1071.26 767.04 1088.66 795.92"/>
  </g>
  <g id="F.1.4">
    <polygon class="cls-3" points="1245.43 924.25 1244.01 945.34 1301.77 913.21 1303.45 892.97 1245.43 924.25"/>
  </g>
  <g id="F.1.3">
    <polygon class="cls-3" points="1077.71 891.99 1077.27 912.21 1123.22 932.03 1123.94 911.29 1077.71 891.99"/>
  </g>
  <g id="F.1.5">
    <polygon class="cls-3" points="1123.94 911.29 1123.22 932.03 1204.72 967.18 1244.01 945.34 1245.43 924.25 1205.96 945.53 1123.94 911.29"/>
  </g>
  <g id="C.1.4">
    <polyline class="cls-3" points="1279.8 738.17 1278.62 754.24 1319.85 737.41 1321.15 721.85 1279.8 738.17"/>
  </g>
  <g id="C.1.3">
    <polygon class="cls-3" points="1155.39 721.33 1154.75 736.88 1190.03 747.33 1190.83 731.46 1155.39 721.33"/>
  </g>
  <g id="C.1.5">
    <polygon class="cls-3" points="1190.83 731.46 1190.03 747.33 1251.2 765.43 1278.62 754.24 1279.8 738.17 1252.29 749.03 1190.83 731.46"/>
  </g>
  <g id="D.1.4">
    <polygon class="cls-3" points="1115.9 692.11 1115.45 706.75 1157.91 693.07 1158.5 678.86 1115.9 692.11"/>
  </g>
  <g id="D.1.5">
    <polygon class="cls-3" points="1053.58 691.13 1053.38 706.41 1087.38 715.79 1115.45 706.75 1115.9 692.11 1087.73 700.88 1053.58 691.13"/>
  </g>
  <g id="H.1.4">
    <polyline class="cls-3" points="993.08 1066.46 993.11 1090.94 1076.66 1044.12 1077.18 1020.75 993.08 1066.46"/>
  </g>
  <g id="H.1.3">
    <polygon class="cls-3" points="807.5 1019.34 808.74 1042.68 853.88 1071.44 852.9 1047.41 807.5 1019.34"/>
  </g>
  <g id="H.1.5">
    <polygon class="cls-3" points="852.9 1047.41 853.88 1071.44 935.32 1123.32 993.11 1090.94 993.08 1066.46 934.86 1098.09 852.9 1047.41"/>
  </g>
  <g id="G.1.4">
    <polygon class="cls-3" points="884.24 853.48 884.82 872.63 952.08 847.01 951.85 828.57 884.24 853.48"/>
  </g>
  <g id="G.1.3">
    <polygon class="cls-3" points="750.31 827.79 750.72 833.12 782.47 848.09 782.33 843.19 750.31 827.79"/>
  </g>
  <g id="G.1.5">
    <polygon class="cls-1" points="782.33 843.19 782.47 848.09 816.85 864.91 817.69 879.11 839.49 889.9 884.82 872.63 884.24 853.48 838.65 870.28 782.33 843.19"/>
  </g>
  <g id="I.1.3">
    <polygon class="cls-3" points="580.09 940.48 582.53 961.8 615.13 984.69 612.81 962.79 580.09 940.48"/>
  </g>
  <g id="I.1.5">
 <polygon class="cls-3" points="612.81 962.79 615.13 984.69 673.28 1025.53 733.54 1000.11 731.9 977.82 671.2 1002.62 612.81 962.79"/>
  <g id="K.1.3">
    <polygon class="cls-3" points="304.82 1079.59 309.68 1104.21 338.01 1137.68 333.16 1112.29 304.82 1079.59"/>
  </g>
  <g id="K.1.4">
    <polygon class="cls-3" points="470.53 1134.58 474.48 1160.48 596.36 1105.89 593.52 1081.22 470.53 1134.58"/>
  </g>
  <g id="K.1.5">
    <polygon class="cls-3" points="333.16 1112.29 338.01 1137.68 389.53 1198.52 474.48 1160.48 470.53 1134.58 384.74 1171.79 333.16 1112.29"/>
  </g>
  <g id="B.2.4">
    <polygon class="cls-3" points="1311.76 669.47 1310.63 683.48 1345.15 671.15 1346.36 657.53 1311.76 669.47"/>
  </g>
  <g id="B.2.3">
    <polygon class="cls-3" points="1203.68 657.15 1202.97 670.76 1218.13 674.77 1221.52 673.59 1234.14 676.52 1235.04 664.58 1203.68 657.15"/>
  </g>
  <g id="B.2.5">
    <polygon class="cls-3" points="1235.04 664.58 1234.14 676.52 1292.22 690.57 1310.63 683.48 1311.76 669.47 1288.94 677.34 1235.04 664.58"/>
  </g>
  <g id="A.1.4">
    <polygon class="cls-3" points="1525.64 685.18 1523.68 699.69 1552.77 686.38 1554.78 672.27 1525.64 685.18"/>
  </g>
  <g id="A.1.3">
    <polygon class="cls-3" points="1406.32 671.86 1404.85 685.95 1441.44 694.23 1443.07 679.89 1406.32 671.86"/>
  </g>
  <g id="A.1.5">
    <polygon class="cls-3" points="1443.07 679.89 1441.44 694.23 1504.45 708.5 1523.68 699.69 1525.64 685.18 1506.39 693.71 1443.07 679.89"/>
  </g>
  <g id="E.2.7">
    <polygon class="cls-3" points="1000.82 733.41 1000.81 749.86 1053.01 732.83 1053.24 716.9 1000.82 733.41"/>
  </g>
  <g id="E.2.6">
    <polygon class="cls-3" points="884.17 716.38 884.63 732.29 914.39 742.86 914.04 726.62 884.17 716.38"/>
  </g>
  <g id="E.2.8">
    <polygon class="cls-3" points="914.04 726.62 914.39 742.86 966.04 761.21 1000.81 749.86 1000.82 733.41 965.9 744.4 914.04 726.62"/>
  </g>
  <g id="Muehle_Wohn_3" data-name="Muehle Wohn 3">
    <path class="cls-2" d="M1073.48,770.74l.55.91.25.42.14.23,12.38,20.53.44.73.17.28,1.26,2.08.2.41.13.41.06.41-.06,2.67v.49s-.01.02-.01.02v.39s-.1.41-.1.41l-.16.41-.23.4-.3.4-.36.39-.22.19-.35.3-.52.36-.58.35-.1.05-.2,8.72,15.89,2.11.34-.44,4.27,4.11.23-.22,10.89-13.93-4.73-4.54,7.01.9,3.04-3.99-.37-.29,9.35,7.46,24.13-32.91.02-.37-12.54-9.96.83-1.08v-.19s-5.34-2.31-5.34-2.31l-12.84-10.2-1.26-.47-15.49-9.7-9.25,6.85-.73.23-6.54,3.54-19.39,3.81-5.69,6.05v.19s2.11-.41,2.11-.41l-.03,1.49-4.02.78-5.89,6.26v.2s2.16-.42,2.16-.42l-.03,2.1-4.75.91-6.12,6.5v.2s0-.2,0-.2l2.21-.22-.04,2.48-13.63,14.62v.38s8.88-4.75,8.88-4.75l-4.41,4.78v.2s0-.2,0-.2l2.29-.22-.07,5.9-7.96,8.55.51.07,9.86-6.74h0s3.74-3.89,3.74-3.89l.13-.31.12-.2.52-.8h0s3.03-4.61,3.03-4.61l6.62-10.09.14-.21.39-.59,1.64-2.5,6.16-9.38,2.12,3.51.11.18Z"/>
  </g>
  <g id="F.2.7">
    <polyline class="cls-2" points="1246.87 902.91 1245.43 924.25 1303.45 892.97 1305.14 872.5 1246.87 902.91"/>
  </g>
  <g id="F.2.6">
    <polygon class="cls-2" points="1078.15 871.55 1077.71 891.99 1123.94 911.29 1124.66 890.31 1078.15 871.55"/>
  </g>
  <g id="F.2.8">
    <polygon class="cls-2" points="1124.66 890.31 1123.94 911.29 1205.96 945.53 1245.43 924.25 1246.87 902.91 1207.21 923.61 1124.66 890.31"/>
  </g>
  <g id="C.2.7">
    <polyline class="cls-3" points="1280.98 721.96 1279.8 738.17 1321.15 721.85 1322.46 706.15 1280.98 721.96"/>
  </g>
  <g id="C.2.6">
    <polygon class="cls-3" points="1155.98 705.66 1155.39 721.33 1190.83 731.46 1191.63 715.47 1155.98 705.66"/>
  </g>
  <g id="C.2.8">
    <polygon class="cls-3" points="1191.63 715.47 1190.83 731.46 1252.29 749.03 1279.8 738.17 1280.98 721.96 1253.38 732.48 1191.63 715.47"/>
  </g>
  <g id="D.2.7">
    <polygon class="cls-3" points="1116.34 677.37 1115.9 692.11 1158.5 678.86 1159.08 664.54 1116.34 677.37"/>
  </g>
  <g id="D.2.6">
    <polygon class="cls-3" points="1009.06 664.14 1009.1 665.87 1020.76 669.06 1020.73 673.13 1037.89 677.91 1038.07 672.11 1009.06 664.14"/>
  </g>
  <g id="D.2.8">
    <polygon class="cls-3" points="1038.07 672.11 1037.89 677.91 1053.73 682.33 1053.58 691.13 1087.73 700.88 1115.9 692.11 1116.34 677.37 1088.07 685.85 1038.07 672.11"/>
  </g>
  <g id="H.2.7">
    <polygon class="cls-3" points="993.04 1041.63 993.08 1066.46 1077.18 1020.75 1077.71 997.08 993.04 1041.63"/>
  </g>
  <g id="H.2.6">
    <polygon class="cls-3" points="806.24 995.7 807.5 1019.34 852.9 1047.41 851.9 1023.06 806.24 995.7"/>
  </g>
  <g id="H.2.8">
    <polygon class="cls-3" points="851.9 1023.06 852.9 1047.41 934.86 1098.09 993.08 1066.46 993.04 1041.63 934.4 1072.49 851.9 1023.06"/>
  </g>
  <g id="G.2.7">
    <polygon class="cls-3" points="883.65 834.14 884.24 853.48 951.85 828.57 951.63 809.94 883.65 834.14"/>
  </g>
  <g id="G.2.6">
    <polygon class="cls-3" points="749.35 809.79 750.31 827.79 782.33 843.19 781.24 824.15 749.35 809.79"/>
  </g>
  <g id="G.2.8">
    <polygon class="cls-3" points="781.24 824.15 782.33 843.19 838.65 870.28 884.24 853.48 883.65 834.14 837.8 850.46 781.24 824.15"/>
  </g>
  <g id="I.2.6">
    <polyline class="cls-3" points="577.63 918.91 580.09 940.48 612.81 962.79 610.45 940.62 577.63 918.91"/>
  </g>
  <g id="I.2.7">
    <polygon class="cls-3" points="730.24 955.26 731.9 977.82 820.57 941.61 819.52 920.01 730.24 955.26"/>
  </g>
  <g id="I.2.8">
    <polygon class="cls-3" points="610.45 940.62 612.81 962.79 671.2 1002.62 731.9 977.82 730.24 955.26 669.09 979.4 610.45 940.62"/>
  </g>
  <g id="K.2.6">
    <polygon class="cls-3" points="299.89 1054.61 304.82 1079.59 333.16 1112.29 328.24 1086.52 299.89 1054.61"/>
  </g>
  <g id="K.2.7">
    <polygon class="cls-3" points="466.52 1108.29 470.53 1134.58 593.52 1081.22 590.64 1056.21 466.52 1108.29"/>
  </g>
  <g id="K.2.8">
    <polygon class="cls-3" points="328.24 1086.52 333.16 1112.29 384.74 1171.79 470.53 1134.58 466.52 1108.29 379.87 1144.64 328.24 1086.52"/>
  </g>
  <g id="B.2.7">
    <polyline class="cls-3" points="1312.89 655.36 1311.76 669.47 1346.36 657.53 1347.57 643.81 1312.89 655.36"/>
  </g>
  <g id="B.2.6">
    <polygon class="cls-3" points="1204.4 643.44 1203.68 657.15 1235.04 664.58 1235.88 650.63 1204.4 643.44"/>
  </g>
  <g id="B.2.8">
    <polyline class="cls-3" points="1235.88 650.63 1235.04 664.58 1288.94 677.34 1311.76 669.47 1312.89 655.36 1290 662.97 1236.01 650.85"/>
  </g>
  <g id="A.2.7">
    <polygon class="cls-3" points="1527.62 670.55 1525.64 685.18 1554.78 672.27 1556.8 658.07 1527.62 670.55"/>
  </g>
  <g id="A.2.6">
    <polygon class="cls-3" points="1407.8 657.67 1406.32 671.86 1443.07 679.89 1444.72 665.43 1407.8 657.67"/>
  </g>
  <g id="A.2.8">
    <polygon class="cls-3" points="1444.72 665.43 1443.07 679.89 1506.39 693.71 1525.64 685.18 1527.62 670.55 1508.33 678.81 1444.72 665.43"/>
  </g>
  <g id="E.3.10">
    <polyline class="cls-3" points="1000.83 716.81 1000.82 733.41 1053.24 716.9 1053.47 700.84 1000.83 716.81"/>
  </g>
  <g id="E.3.9">
    <polygon class="cls-3" points="883.7 700.34 884.17 716.38 914.04 726.62 913.68 710.24 883.7 700.34"/>
  </g>
  <g id="E.3.11">
    <polygon class="cls-3" points="913.68 710.24 914.04 726.62 965.9 744.4 1000.82 733.41 1000.83 716.81 965.76 727.45 913.68 710.24"/>
  </g>
  <g id="F.3.10">
    <path class="cls-2" d="M1255.89,845.01l-.44,6.41h0l-23.66-8.22-45.73,21.31-9.18-3.41-29.34,13.49-.99,24.55,43.02,17.35,17.64,7.11,97.93-51.11.24-2.93.61-7.35-50.09-17.21Z"/>
  </g>
  <g id="F.3.9">
    <polygon class="cls-2" points="1093.98 853.86 1093.98 853.86 1093.96 854.63 1078.37 861.29 1078.21 868.63 1078.15 871.55 1093.37 877.69 1146.56 899.15 1147.55 874.59 1176.89 861.1 1154.91 852.94 1185.44 839.33 1196.3 843.19 1191.63 845.31 1211.8 852.52 1231.8 843.2 1255.45 851.42 1255.89 845.01 1178.68 818.48 1093.98 853.86"/>
  </g>
  <g id="C.3.10">
    <polygon class="cls-2" points="1285.77 689.16 1268.61 685.1 1236.42 696.23 1229.53 694.47 1209.2 701.42 1208.19 720.03 1240.34 728.89 1253.38 732.48 1253.38 732.48 1322.46 706.15 1322.65 703.91 1323.12 698.29 1285.77 689.16"/>
  </g>
  <g id="C.3.9">
    <polygon class="cls-2" points="1156.34 697.8 1168.4 693.87 1168.54 690.7 1221.52 673.59 1226.79 674.88 1227.01 674.81 1268.61 685.1 1254.45 690 1239.28 686.21 1242.58 685.1 1234.36 683.06 1212.94 690.22 1229.53 694.47 1209.2 701.42 1208.19 720.03 1167.74 708.88 1156.02 705.65 1156.12 703.41 1156.34 697.8"/>
  </g>
  <g id="D.3.10">
    <polygon class="cls-3" points="1116.79 662.51 1116.34 677.37 1159.08 664.54 1159.68 650.12 1116.79 662.51"/>
  </g>
  <g id="D.3.9">
    <polygon class="cls-3" points="1009.1 649.73 1009.06 664.14 1038.07 672.11 1038.22 657.43 1009.1 649.73"/>
  </g>
  <g id="D.3.11">
    <polygon class="cls-3" points="1038.22 657.43 1038.07 672.11 1088.07 685.85 1116.34 677.37 1116.79 662.51 1088.42 670.71 1038.22 657.43"/>
  </g>
  <g id="H.3.10">
    <polygon class="cls-3" points="993.01 1016.45 993.04 1041.63 1077.71 997.08 1078.24 973.08 993.01 1016.45"/>
  </g>
  <g id="H.3.9">
    <polygon class="cls-3" points="804.96 971.75 806.24 995.7 851.9 1023.06 850.89 998.37 804.96 971.75"/>
  </g>
  <g id="H.3.11">
    <polygon class="cls-3" points="850.89 998.37 851.9 1023.06 934.4 1072.49 993.04 1041.63 993.01 1016.45 933.94 1046.51 850.89 998.37"/>
  </g>
  <g id="G.3.10">
    <polygon class="cls-3" points="883.06 814.59 883.65 834.14 951.63 809.94 951.4 791.13 883.06 814.59"/>
  </g>
  <g id="G.3.9">
    <polygon class="cls-3" points="747.85 790.4 749.35 809.79 781.24 824.15 780.13 804.9 747.85 790.4"/>
  </g>
  <g id="G.3.11">
    <polygon class="cls-3" points="780.13 804.9 781.24 824.15 837.8 850.46 883.65 834.14 883.06 814.59 836.98 830.11 780.13 804.9"/>
  </g>
  <g id="I.3.9">
    <polygon class="cls-3" points="575.13 897.08 577.63 918.91 610.45 940.62 608.07 918.18 575.13 897.08"/>
  </g>
  <g id="I.3.10">
    <polyline class="cls-3" points="728.55 932.41 730.24 955.26 819.52 920.01 818.46 898.15 728.55 932.41"/>
  </g>
  <g id="I.3.11">
    <polygon class="cls-3" points="608.07 918.18 610.45 940.62 669.09 979.4 730.24 955.26 728.55 932.41 666.95 955.89 608.07 918.18"/>
  </g>
  <g id="K.3.10">
    <polyline class="cls-3" points="462.45 1081.59 466.52 1108.29 590.64 1056.21 587.71 1030.83 462.45 1081.59"/>
  </g>
  <g id="K.3.9">
    <polyline class="cls-3" points="294.89 1029.27 299.89 1054.61 328.24 1086.52 323.24 1060.37 294.89 1029.27"/>
  </g>
  <g id="K.3.11">
    <polygon class="cls-3" points="323.24 1060.37 328.24 1086.52 379.87 1144.64 466.52 1108.29 462.45 1081.59 374.93 1117.06 323.24 1060.37"/>
  </g>
  <g id="B.3.10">
    <polygon class="cls-3" points="1314.03 641.14 1312.89 655.36 1347.57 643.81 1348.8 630 1314.03 641.14"/>
  </g>
  <g id="B.3.9">
    <polygon class="cls-3" points="1205.12 629.64 1204.4 643.44 1235.88 650.63 1236.73 636.57 1205.12 629.64"/>
  </g>
  <g id="B.3.11">
    <polygon class="cls-3" points="1236.73 636.57 1235.88 650.63 1290 662.97 1312.89 655.36 1314.03 641.14 1291.08 648.5 1236.73 636.57"/>
  </g>
  <g id="A.3.10">
    <polygon class="cls-2" points="1494.94 675.99 1508.33 678.81 1556.8 658.07 1557.09 656.04 1557.81 650.95 1533.46 646.32 1533.75 644.22 1508.11 639.36 1485.28 648.16 1478.19 646.77 1463.82 652.25 1461.83 669.03 1494.94 675.99"/>
  </g>
  <g id="A.3.9">
    <polygon class="cls-2" points="1419.97 660.23 1461.83 669.03 1463.82 652.25 1478.19 646.77 1461.11 643.42 1476.39 637.74 1484.83 639.36 1482.49 640.25 1498.05 643.24 1508.11 639.36 1459.78 630.21 1421.74 643.8 1421.51 645.91 1408.54 650.57 1408.01 655.65 1407.8 657.67 1419.97 660.23"/>
  </g>
  <g id="E.4.13">
    <polygon class="cls-2" points="1000.85 700.07 1000.83 716.81 1053.47 700.84 1053.7 684.65 1000.85 700.07"/>
  </g>
  <g id="E.4.12">
    <polygon class="cls-2" points="883.22 684.16 883.7 700.34 913.68 710.24 913.33 693.73 883.22 684.16"/>
  </g>
  <g id="E.4.14">
    <polygon class="cls-2" points="913.33 693.73 913.68 710.24 965.76 727.45 1000.83 716.81 1000.85 700.07 965.62 710.35 913.33 693.73"/>
  </g>
  <g id="D.4.13">
    <path class="cls-2" d="M1077.86,667.91l10.57,2.8,71.25-20.59.08-2.06.21-5.16-28.14-6.59h0l-20.54-5.12-33,8.72-5.62-1.38-20.72,5.43-.23,17.05,26.13,6.91Z"/>
  </g>
  <g id="D.4.12">
    <polygon class="cls-2" points="1072.58 622.12 1018.79 635.57 1018.77 640.07 1009.12 642.51 1009.11 647.67 1009.1 649.73 1018.7 652.27 1051.72 661 1051.96 643.95 1072.68 638.52 1059.12 635.2 1080.97 629.58 1087.71 631.18 1084.34 632.06 1096.76 635.02 1111.29 631.18 1072.58 622.12"/>
  </g>
  <g id="H.4.13">
    <polygon class="cls-2" points="1078.51 961.01 1078.32 969.64 1078.24 973.08 933.94 1046.51 916.03 1036.13 872.74 1011.03 871.72 982 914.92 962.67 924.2 967.53 990.83 937.32 1016.87 949.73 1026.42 945.24 1026.49 936.86 1078.51 961.01"/>
  </g>
  <g id="H.4.12">
    <polygon class="cls-2" points="871.72 982 872.74 1011.03 819.93 980.42 804.96 971.75 804.78 968.31 804.32 959.69 818.61 953.75 818.57 952.84 818.55 952.38 927.58 907.18 929.04 907.88 947.52 900.2 1026.49 936.86 1026.42 945.24 1016.87 949.73 990.83 937.32 961.82 950.48 941.3 940.29 948.05 937.31 937.02 931.89 892.78 951.07 914.92 962.67 871.72 982"/>
  </g>
  <g id="G.4.13">
    <polyline class="cls-2" points="882.46 794.84 883.06 814.59 951.4 791.13 951.17 772.14 882.46 794.84"/>
  </g>
  <g id="G.4.12">
    <polygon class="cls-2" points="746.6 771.42 747.85 790.4 780.13 804.9 779.02 785.46 746.6 771.42"/>
  </g>
  <g id="G.4.14">
    <polygon class="cls-3" points="779.05 785.15 780.17 804.6 836.98 830.11 883.09 814.28 882.46 794.84 836.11 809.86 779.05 785.15"/>
  </g>
  <g id="I.4.12">
    <polyline class="cls-3" points="572.6 875 575.13 897.08 608.07 918.18 605.66 895.47 572.6 875"/>
  </g>
  <g id="I.4.13">
    <polygon class="cls-3" points="726.85 909.27 728.55 932.41 818.46 898.15 817.39 876.03 726.85 909.27"/>
  </g>
  <g id="I.4.14">
    <polygon class="cls-3" points="605.66 895.47 608.07 918.18 666.95 955.89 728.55 932.41 726.85 909.27 664.78 932.07 605.66 895.47"/>
  </g>
  <g id="K.4.13">
    <polygon class="cls-3" points="458.31 1054.48 462.45 1081.59 587.71 1030.83 584.75 1005.08 458.31 1054.48"/>
  </g>
  <g id="K.4.12">
    <polygon class="cls-3" points="289.81 1003.57 294.89 1029.27 323.24 1060.37 318.17 1033.83 289.81 1003.57"/>
  </g>
  <g id="K.4.14">
    <polygon class="cls-3" points="318.17 1033.83 323.24 1060.37 374.93 1117.06 462.45 1081.59 458.31 1054.48 369.9 1089.03 318.17 1033.83"/>
  </g>
  <g id="B.4.13">
    <path class="cls-2" d="M1324.32,616.33l-22.06-4.33-26.89,7.84-6.07-1.24-16.88,4.88-1.05,16.31,28.29,6.21,11.43,2.51,57.71-18.5.18-1.97.44-4.94-25.24-4.98.15-1.77Z"/>
  </g>
  <g id="B.4.12">
    <polygon class="cls-2" points="1216.43 615.95 1260.61 603.82 1302.25 612 1290.4 615.45 1277.02 612.78 1279.78 611.99 1272.52 610.55 1254.64 615.61 1269.29 618.6 1252.41 623.48 1251.37 639.78 1215.55 631.93 1205.12 629.64 1205.23 627.67 1205.48 622.73 1216.22 619.75 1216.43 615.95"/>
  </g>
  <g id="E.5.16">
    <polygon class="cls-2" points="1020.73 673.13 1053.73 682.33 1053.7 684.65 965.62 710.35 954.57 706.83 927.34 698.18 926.99 678.96 952.65 672.2 958.51 673.91 999.18 663.1 1020.76 669.06 1020.73 673.13"/>
  </g>
  <g id="E.5.15">
    <g>
      <polygon class="cls-2" points="892.62 668.53 893.06 684.98 883.16 681.85 883.22 684.16 893.13 687.31 927.34 698.18 926.99 678.96 952.65 672.2 938.53 668.07 965.43 661.12 972.46 663.1 968.32 664.18 981.3 667.85 999.18 663.1 958.74 651.94 892.62 668.53"/>
      <polygon class="cls-2" points="1020.73 673.13 1020.73 673.55 1021.5 673.34 1020.73 673.13"/>
    </g>
  </g>
  <g id="G.5.16">
    <polygon class="cls-2" points="823.94 804.91 794.22 792.04 793 769.33 826.68 759.33 833.1 761.86 886.05 745.98 951.13 769.42 951.17 772.14 836.08 810.16 823.94 804.91"/>
  </g>
  <g id="G.5.15">
    <polygon class="cls-2" points="756.62 766.43 757.06 773.29 746.42 768.71 746.6 771.42 757.23 776.03 794.22 792.04 793 769.33 826.68 759.33 811.29 753.25 846.28 743.09 853.98 745.98 848.6 747.56 862.84 752.94 886.05 745.98 841.72 729.78 755.84 753.94 756.62 766.43"/>
  </g>
  <g id="I.5.16">
    <polygon class="cls-2" points="765.44 858.59 778.83 853.97 778.37 846.24 816.85 864.91 817.24 872.86 817.39 876.03 664.78 932.07 652.1 924.22 651.71 923.98 621.29 905.14 618.57 878.5 663.43 863.76 670.12 867.48 739.95 844.31 765.34 857.01 765.44 858.59"/>
  </g>
  <g id="I.5.15">
    <polygon class="cls-2" points="621.29 905.14 618.57 878.5 663.43 863.76 647.42 854.88 693.47 840.12 701.55 844.3 694.49 846.59 709.46 854.43 739.95 844.31 765.34 857.01 765.44 858.59 778.83 853.97 778.37 846.24 719.43 817.63 699.22 823.94 693.28 820.97 580.89 855.96 581.07 860.85 571.33 863.89 572.24 871.83 572.6 875 621.29 905.14 621.29 905.14"/>
  </g>
  <g id="K.5.16">
    <path class="cls-2" d="M516.45,984.92l-24.02-18.71-97.32,34.28-6.02-5.54-63.25,22.04,5.88,31.28,26.98,28.79,11.2,11.96,214.85-83.95-.43-3.7-1.07-9.27-37.22-27.28,1.12,8.98-30.68,11.24-.02-.14Z"/>
  </g>
  <g id="K.5.15">
    <path class="cls-2" d="M299.03,1013.41l32.69,34.88-5.88-31.28,63.25-22.04-14.32-13.17,63.9-21.71,7.45,6.13-9.78,3.36,13.8,11.54,42.29-14.9,24.02,18.71.02.14,30.68-11.24-1.12-8.98-56.08-41.1-36.56,12.06-4.53-3.53-155.72,51,.99,5.09-6.88,2.27,1.83,9.26.73,3.69,9.22,9.84Z"/>
  </g>
</svg>