<?xml version="1.0" encoding="UTF-8"?>
<svg xmlns="http://www.w3.org/2000/svg" viewBox="0 0 2000 1498">
  <defs>
    <style>
      .cls-1, .cls-2 {
        fill: none;
        stroke: #000;
        stroke-miterlimit: 10;
      }

      .cls-2 {
        fill-rule: evenodd;
      }
    </style>
  </defs>
  <g id="E.0.2">
    <polygon class="cls-2" points="1000.14 765.67 999.31 783.14 1014.53 802.26 1029.6 776.77 1033.85 785.4 1058.69 776.91 1031.18 779.44 1029.6 776.77 1027.34 780.77 1012.73 780.96 1000.14 765.67"/>
  </g>
  <g id="E.0.1">
    <polygon class="cls-2" points="982.76 743.74 982.66 765.87 999.31 783.14 1000.14 765.67 982.76 743.74"/>
  </g>
  <g id="Muehle_Wohn_1" data-name="Muehle Wohn 1">
    <g id="LWPOLYLINE">
      <path class="cls-1" d="M1059.59,844.7s27.79-9.29,27.79-9.29c0,0-27.79,9.29-27.79,9.29Z"/>
    </g>
    <g id="HATCH">
      <path class="cls-2" d="M1059.59,844.7l27.9-9.32-27.9,9.32Z"/>
    </g>
    <g id="LWPOLYLINE-2" data-name="LWPOLYLINE">
      <polygon class="cls-1" points="1059.59 844.7 1087.49 835.38 1086.92 846.11 1060.6 848.67 1056.77 843.83 1046.38 845.33 1046.42 839.41 1059.59 844.7"/>
    </g>
  </g>
  <g id="F.0.2">
    <polygon class="cls-1" points="958.61 952.57 958.17 980.18 974.74 1013.54 1140.86 992.11 1142.29 964.75 975.67 985.65 958.61 952.57"/>
  </g>
  <g id="F.0.1">
    <polygon class="cls-1" points="938.52 912.29 938.07 938.87 950.88 961.85 951.65 938.21 938.52 912.29"/>
  </g>
  <g id="C.0.2">
    <polygon class="cls-2" points="1277.51 803.59 1276.76 825.65 1297.06 842.61 1419.78 830.19 1421.87 808.87 1300.41 821.14 1277.51 803.59"/>
  </g>
  <g id="C.0.1">
    <polygon class="cls-2" points="1243.21 777.3 1242.7 798.92 1260.89 814.65 1277.23 813.72 1277.51 803.59 1243.21 777.3"/>
  </g>
  <g id="D.0.2">
    <polygon class="cls-2" points="1189.92 734.23 1189.32 753.58 1203.51 766.66 1243.99 763.82 1245.18 744.02 1206.84 747.13 1189.92 734.23"/>
  </g>
  <g id="D.0.1">
    <polygon class="cls-2" points="1164.26 714.68 1163.54 733.34 1177.6 744.45 1189.57 744.32 1189.92 734.23 1164.26 714.68"/>
  </g>
  <g id="H.0.2">
    <polygon class="cls-1" points="589.13 1040.08 591.6 1064.27 781.3 1041.4 779.85 1015.95 589.13 1040.08"/>
  </g>
  <g id="G.0.2">
    <polygon class="cls-1" points="918.27 835.62 779.66 849 771.36 818.38 772.35 835.77 779.13 867.5 919.21 854.04 918.27 835.62"/>
  </g>
  <g id="G.0.1">
    <polygon class="cls-1" points="766.73 801.28 768.03 820.3 772.35 835.77 771.36 818.38 766.73 801.28"/>
  </g>
  <g id="I.0.2">
    <polygon class="cls-2" points="528.35 917.94 530.49 938.85 579.69 934.27 579.27 929.75 580.93 912.58 528.35 917.94"/>
  </g>
  <g id="K.0.1">
    <polygon class="cls-2" points="424.13 918.12 427.06 938.06 436.47 911.82 433.33 891.44 424.13 918.12"/>
  </g>
  <g id="K.0.2">
    <polygon class="cls-2" points="225.38 978.42 229.57 1000.77 412.79 981.91 427.06 938.06 424.13 918.12 410.28 958.28 225.38 978.42"/>
  </g>
  <g id="B.0.2">
    <polyline class="cls-2" points="1431.22 744.99 1430.38 764.91 1452.5 779.79 1557.77 769.8 1560.63 749.12 1456.29 758.66 1431.22 744.99"/>
  </g>
  <g id="B.0.1">
    <polygon class="cls-2" points="1393.28 724.31 1392.1 744.49 1420.39 760.65 1430.59 760.23 1431.22 744.99 1393.28 724.31"/>
  </g>
  <g id="A.0.2">
    <polygon class="cls-2" points="1663.69 800.47 1660.41 820.17 1690.86 824 1696.52 819.07 1738.83 833.66 1807.76 828.01 1814.43 806.67 1702.33 818.91 1663.69 800.47"/>
  </g>
  <g id="A_01" data-name="A 01">
    <polygon class="cls-2" points="1610.42 775.17 1608.07 793.18 1638.89 810.5 1662.41 805.76 1663.69 800.47 1610.42 775.17"/>
  </g>
  <g id="E.1.4">
    <polygon class="cls-2" points="1058.92 760.47 1058.69 776.91 1066.72 775.03 1067.33 776.31 1068.49 775.16 1130.72 756.97 1130.92 754.35 1058.92 760.47"/>
  </g>
  <g id="E.1.3">
    <polygon class="cls-2" points="982.68 728.34 982.76 743.74 993.57 757.17 993.54 741.34 982.68 728.34"/>
  </g>
  <g id="E.1.5">
    <polygon class="cls-2" points="1058.69 776.91 1058.92 760.47 1012.77 764.39 993.54 741.34 993.57 757.17 1012.73 780.96 1027.75 780.83 1029.6 776.77 1031.18 779.44 1058.69 776.91"/>
  </g>
  <g id="Muehle_Wohn_2" data-name="Muehle Wohn 2">
    <path class="cls-1" d="M1046.58,823.02l.02.35-.17,15.69,13.17,5.64,27.79-9.29,5.82,2.4,63.9-21.53.32-9.73-55.25,18.22-4.82-6.42-3.74,1.22-5.1-2.03,3.48,5.45-30.21,9.87-2.98-4.76-12.23-5.08Z"/>
  </g>
  <g id="F.1.4">
    <polygon class="cls-1" points="1041.33 955.29 1041.1 977.44 1142.29 964.75 1143.07 942.95 1041.33 955.29"/>
  </g>
  <g id="F.1.3">
    <polygon class="cls-1" points="938.2 891.98 938.52 912.29 951.65 938.21 951.38 917.16 938.2 891.98"/>
  </g>
  <g id="F.1.5">
    <polyline class="cls-1" points="951.38 917.16 951.65 938.21 975.67 985.65 1041.1 977.44 1041.33 955.29 975.52 963.27 951.38 917.16"/>
  </g>
  <g id="C.2.4">
    <polygon class="cls-2" points="1349.43 798.54 1347.9 816.34 1421.87 808.87 1423.69 791.31 1349.43 798.54"/>
  </g>
  <g id="C.2.3">
    <polygon class="cls-2" points="1244.19 760.73 1243.21 777.3 1263.75 793.04 1264.61 775.44 1244.19 760.73"/>
  </g>
  <g id="C.2.5">
    <polygon class="cls-2" points="1264.61 775.44 1263.75 793.04 1300.41 821.14 1347.9 816.34 1349.43 798.54 1301.74 803.19 1264.61 775.44"/>
  </g>
  <g id="D.1.4">
    <polygon class="cls-2" points="1249.19 728.12 1248.67 735.32 1252.81 735.05 1253.16 729.39 1313.82 724.33 1314.15 722.8 1249.19 728.12"/>
  </g>
  <g id="D.1.3">
    <polygon class="cls-2" points="1164.83 700.11 1164.26 714.68 1179.67 726.42 1180.32 711.48 1164.83 700.11"/>
  </g>
  <g id="D.1.5">
    <polygon class="cls-2" points="1180.32 711.48 1179.67 726.42 1206.84 747.13 1245.18 744.02 1245.68 735.64 1248.67 735.32 1249.19 728.12 1207.62 731.51 1180.32 711.48"/>
  </g>
  <g id="H.1.4">
    <polygon class="cls-1" points="662.07 1007.22 664.13 1030.59 779.85 1015.95 778.52 992.97 662.07 1007.22"/>
  </g>
  <g id="H.1.5">
    <polygon class="cls-1" points="586.58 1016.45 589.13 1040.08 664.13 1030.59 662.07 1007.22 586.58 1016.45"/>
  </g>
  <g id="G.1.4">
    <polygon class="cls-1" points="833.12 825.46 833.89 843.77 918.27 835.62 917.9 817.56 833.12 825.46"/>
  </g>
  <g id="G.1.3">
    <polygon class="cls-1" points="765.74 784.26 766.73 801.28 771.36 818.38 770.36 800.84 765.74 784.26"/>
  </g>
  <g id="G.1.5">
    <polygon class="cls-1" points="770.36 800.84 771.36 818.38 779.66 849 833.89 843.77 833.12 825.46 778.63 830.54 770.36 800.84"/>
  </g>
  <g id="I.1.5">
    <polygon class="cls-2" points="525.91 897.66 528.35 917.94 580.93 912.58 582.69 891.94 525.91 897.66"/>
  </g>
  <g id="K.1.3">
    <polygon class="cls-2" points="421.18 897.97 424.13 918.12 433.33 891.44 430.1 873.31 421.18 897.97"/>
  </g>
  <g id="K.1.4">
    <polygon class="cls-2" points="294.05 948.91 297.96 970.51 410.28 958.28 424.13 918.12 421.18 897.97 407.06 937.02 294.05 948.91"/>
  </g>
  <g id="K.1.5">
    <polygon class="cls-2" points="221.01 956.6 225.38 978.42 297.96 970.51 294.05 948.91 221.01 956.6"/>
  </g>
  <g id="B.2.4">
    <polygon class="cls-2" points="1498.95 738.96 1497.02 754.94 1560.63 749.12 1562.77 733.33 1498.95 738.96"/>
  </g>
  <g id="B.2.3">
    <polygon class="cls-2" points="1394.7 709.33 1393.28 724.31 1416.05 736.73 1417.6 721.34 1394.7 709.33"/>
  </g>
  <g id="B.2.5">
    <polygon class="cls-2" points="1417.6 721.34 1416.05 736.73 1456.29 758.66 1497.02 754.94 1498.95 738.96 1458.07 742.56 1417.6 721.34"/>
  </g>
  <g id="A.1.4">
    <polygon class="cls-2" points="1749.45 796.27 1746.17 814.13 1814.43 806.67 1817.97 789.05 1749.45 796.27"/>
  </g>
  <g id="A.1.3">
    <polyline class="cls-2" points="1612.9 758.54 1610.42 775.17 1643.42 790.87 1646.13 773.75 1612.9 758.54"/>
  </g>
  <g id="A.1.5">
    <polygon class="cls-2" points="1646.13 773.75 1643.42 790.87 1702.33 818.91 1746.17 814.13 1749.45 796.27 1705.46 800.91 1646.13 773.75"/>
  </g>
  <g id="E.2.7">
    <polygon class="cls-2" points="1059.15 743.88 1058.92 760.47 1130.92 754.35 1131.44 737.97 1059.15 743.88"/>
  </g>
  <g id="E.2.6">
    <polygon class="cls-2" points="982.61 712.83 982.68 728.34 993.54 741.34 993.51 725.39 982.61 712.83"/>
  </g>
  <g id="E.2.8">
    <polygon class="cls-2" points="993.51 725.39 993.54 741.34 1012.77 764.39 1058.92 760.47 1059.15 743.88 1012.82 747.68 993.51 725.39"/>
  </g>
  <g id="Muehle_Wohn_3" data-name="Muehle Wohn 3">
    <path class="cls-1" d="M1102.17,824.76l72.07-23.82.02-.39-23.4-29.65-1.52-.74-18.62-13.19-62.23,18.19h0s-1.16,1.15-1.16,1.15h0l-.61-1.28-29.16,9.04,8.26,13.56,1.03,1.76,1.05,1.91.52,1.01,1.24,2.48h0s-.08,1.33-.08,1.33l-.15,1.26-.22,1.2-.25.97-.04.06-.16.18-.17.18-.03.03-.42.38-.49.37-.56.36-.34.19-.13,11.74,12.21,5.07h0l2.98,4.76,30.21-9.87h0l-30.05,9.68,30.05-9.68-3.48-5.45,5.1,2.03,3.74-1.22,4.82,6.42Z"/>
  </g>
  <g id="F.2.7">
    <polygon class="cls-1" points="1041.55 932.89 1041.33 955.29 1143.07 942.95 1143.87 920.91 1041.55 932.89"/>
  </g>
  <g id="F.2.6">
    <polygon class="cls-1" points="937.87 871.46 938.2 891.98 951.38 917.16 951.11 895.88 937.87 871.46"/>
  </g>
  <g id="F.2.8">
    <polygon class="cls-1" points="951.11 895.88 951.38 917.16 975.52 963.27 1041.33 955.29 1041.55 932.89 975.36 940.64 951.11 895.88"/>
  </g>
  <g id="C.2.7">
    <polyline class="cls-2" points="1350.96 780.59 1349.43 798.54 1423.69 791.31 1425.53 773.59 1350.96 780.59"/>
  </g>
  <g id="C.2.6">
    <polygon class="cls-2" points="1245.18 744.02 1244.19 760.73 1264.85 775.97 1265.96 758.76 1245.18 744.02"/>
  </g>
  <g id="C.2.8">
    <polygon class="cls-2" points="1265.96 758.76 1264.85 775.97 1301.74 803.19 1349.43 798.54 1351 780.47 1303.08 785.09 1265.96 758.76"/>
  </g>
  <g id="D.2.7">
    <polygon class="cls-2" points="1250.12 712.5 1249.19 728.12 1314.15 722.8 1315.31 707.36 1250.12 712.5"/>
  </g>
  <g id="D.2.6">
    <polygon class="cls-2" points="1165.41 685.44 1164.83 700.11 1180.32 711.48 1180.97 696.42 1165.41 685.44"/>
  </g>
  <g id="D.2.8">
    <polygon class="cls-2" points="1180.97 696.42 1180.32 711.48 1207.62 731.51 1249.19 728.12 1250.12 712.5 1208.4 715.78 1180.97 696.42"/>
  </g>
  <g id="H.2.7">
    <polygon class="cls-1" points="659.98 983.56 662.07 1007.22 778.52 992.97 777.18 969.71 659.98 983.56"/>
  </g>
  <g id="H.2.8">
    <polygon class="cls-1" points="583.99 992.53 586.58 1016.45 662.07 1007.22 659.98 983.56 583.99 992.53"/>
  </g>
  <g id="G.2.7">
    <polygon class="cls-1" points="832.35 806.99 833.12 825.46 917.9 817.56 917.52 799.34 832.35 806.99"/>
  </g>
  <g id="G.2.6">
    <polygon class="cls-1" points="764.75 767.1 765.74 784.26 770.36 800.84 769.35 783.15 764.75 767.1"/>
  </g>
  <g id="G.2.8">
    <polygon class="cls-1" points="832.35 806.99 777.6 811.91 769.35 783.15 770.36 800.84 778.63 830.54 833.12 825.46 832.35 806.99"/>
  </g>
  <g id="I.2.7">
    <polygon class="cls-2" points="587.4 870.96 587.63 873.96 686.56 864.26 686.58 861.32 587.4 870.96"/>
  </g>
  <g id="I.2.8">
    <polygon class="cls-2" points="523.45 877.17 525.91 897.66 582.69 891.94 584.14 874.38 587.63 873.96 587.4 870.96 523.45 877.17"/>
  </g>
  <g id="K.2.6">
    <polygon class="cls-2" points="418.19 877.62 421.18 897.97 430.1 873.31 427.75 852.47 418.19 877.62"/>
  </g>
  <g id="K.2.7">
    <polygon class="cls-2" points="290.09 927.07 294.05 948.91 407.06 937.02 421.18 897.97 418.19 877.62 403.8 915.52 290.09 927.07"/>
  </g>
  <g id="K.2.8">
    <polygon class="cls-2" points="216.59 934.54 221.01 956.6 294.05 948.91 290.09 927.07 216.59 934.54"/>
  </g>
  <g id="B.2.7">
    <polygon class="cls-2" points="1500.89 722.86 1498.95 738.96 1562.77 733.33 1564.94 717.42 1500.89 722.86"/>
  </g>
  <g id="B.2.6">
    <polygon class="cls-2" points="1396.13 694.24 1394.7 709.33 1417.6 721.34 1419.16 705.83 1396.13 694.24"/>
  </g>
  <g id="B.2.8">
    <polygon class="cls-2" points="1419.16 705.83 1417.6 721.34 1458.07 742.56 1498.95 738.96 1500.89 722.86 1459.87 726.34 1419.16 705.83"/>
  </g>
  <g id="A.2.7">
    <polygon class="cls-2" points="1752.77 778.26 1749.45 796.27 1817.97 789.05 1821.53 771.28 1752.77 778.26"/>
  </g>
  <g id="A.2.6">
    <polygon class="cls-2" points="1615.4 741.78 1612.9 758.54 1646.13 773.75 1648.85 756.48 1615.4 741.78"/>
  </g>
  <g id="A.2.8">
    <polygon class="cls-2" points="1648.85 756.48 1646.13 773.75 1705.46 800.91 1749.45 796.27 1752.77 778.26 1708.61 782.75 1648.85 756.48"/>
  </g>
  <g id="E.3.10">
    <polygon class="cls-2" points="1059.38 727.17 1059.15 743.88 1131.44 737.97 1131.96 721.46 1059.38 727.17"/>
  </g>
  <g id="E.3.9">
    <polygon class="cls-2" points="982.54 697.2 982.61 712.83 993.51 725.39 993.47 709.32 982.54 697.2"/>
  </g>
  <g id="E.3.11">
    <polygon class="cls-2" points="993.47 709.32 993.51 725.39 1012.82 747.68 1059.15 743.88 1059.38 727.17 1012.86 730.83 993.47 709.32"/>
  </g>
  <g id="F.3.10">
    <path class="cls-1" d="M1122.33,884.07l-.23,7.63-27.75,3.08.08-3.44-13.45-16.96-74.9,8-3.04-4.67-45.88,4.86.28,25.01,12.65,23.34,5.27,9.72,168.51-19.73.11-3.16.29-7.92-21.94-25.77Z"/>
  </g>
  <g id="F.3.9">
    <polygon class="cls-1" points="937.7 861.16 941.89 860.73 941.81 855.4 1056.77 843.83 1060.6 848.67 1089.67 845.72 1122.33 884.07 1122.1 891.69 1094.35 894.77 1094.43 891.33 1080.98 874.37 1047.79 877.91 1040.42 867.81 1047.95 867.02 1043.94 861.63 995.82 866.62 1003.04 877.71 957.16 882.57 957.45 907.58 942.17 879.39 937.87 871.46 937.82 868.52 937.7 861.16"/>
  </g>
  <g id="C.3.10">
    <polygon class="cls-1" points="1386.58 756.75 1399.25 755.62 1399.85 749.46 1426.45 764.71 1425.79 771.06 1425.53 773.59 1303.08 785.09 1295.12 779.45 1275.78 765.72 1277.13 745.61 1310.7 742.73 1315.03 745.49 1370.01 740.75 1387.15 750.77 1386.58 756.75"/>
  </g>
  <g id="C.3.9">
    <polygon class="cls-1" points="1275.78 765.72 1277.13 745.61 1310.7 742.73 1300.37 736.13 1335.9 733.14 1341.26 736.37 1335.71 736.84 1345.61 742.85 1370.01 740.75 1387.15 750.77 1386.58 756.75 1399.25 755.62 1399.85 749.46 1359.26 726.19 1346.88 727.22 1338.58 722.37 1253.16 729.39 1252.81 735.05 1245.68 735.64 1245.32 741.63 1245.18 744.02 1275.78 765.72"/>
  </g>
  <g id="D.3.10">
    <polygon class="cls-2" points="1251.07 696.76 1250.12 712.5 1315.31 707.36 1316.49 691.81 1251.07 696.76"/>
  </g>
  <g id="D.3.9">
    <polygon class="cls-2" points="1165.99 670.67 1165.41 685.44 1180.97 696.42 1181.62 681.25 1165.99 670.67"/>
  </g>
  <g id="D.3.11">
    <polygon class="cls-2" points="1181.62 681.25 1180.97 696.42 1208.4 715.78 1250.12 712.5 1251.07 696.76 1209.2 699.92 1181.62 681.25"/>
  </g>
  <g id="H.3.10">
    <polygon class="cls-1" points="657.87 959.61 659.98 983.56 777.18 969.71 775.82 946.17 657.87 959.61"/>
  </g>
  <g id="H.3.11">
    <polygon class="cls-1" points="581.38 968.32 583.99 992.53 659.98 983.56 657.87 959.61 581.38 968.32"/>
  </g>
  <g id="G.3.10">
    <polygon class="cls-1" points="831.57 788.36 832.35 806.99 917.52 799.34 917.14 780.95 831.57 788.36"/>
  </g>
  <g id="G.3.9">
    <polygon class="cls-1" points="763.75 749.8 764.75 767.1 769.35 783.15 768.33 765.31 763.75 749.8"/>
  </g>
  <g id="G.3.11">
    <polygon class="cls-1" points="768.33 765.31 769.35 783.15 777.6 811.91 832.35 806.99 831.57 788.36 776.56 793.11 768.33 765.31"/>
  </g>
  <g id="I.3.10">
    <polygon class="cls-2" points="585.26 850.45 587.4 870.96 686.58 861.32 684.98 841.13 585.26 850.45"/>
  </g>
  <g id="I.3.11">
    <polygon class="cls-2" points="520.97 856.47 523.45 877.17 587.4 870.96 585.26 850.45 520.97 856.47"/>
  </g>
  <g id="K.3.9">
    <polygon class="cls-2" points="415.18 857.06 418.19 877.62 427.75 852.47 424.91 832.7 415.18 857.06"/>
  </g>
  <g id="K.3.10">
    <polygon class="cls-2" points="286.09 904.99 290.09 927.07 403.8 915.52 418.19 877.62 415.18 857.06 400.5 893.78 286.09 904.99"/>
  </g>
  <g id="K.3.11">
    <polygon class="cls-2" points="212.13 912.23 216.59 934.54 290.09 927.07 286.09 904.99 212.13 912.23"/>
  </g>
  <g id="B.3.10">
    <polygon class="cls-2" points="1502.85 706.63 1500.89 722.86 1564.94 717.42 1567.12 701.38 1502.85 706.63"/>
  </g>
  <g id="B.3.9">
    <polygon class="cls-2" points="1397.57 679.03 1396.13 694.24 1419.16 705.83 1420.73 690.21 1397.57 679.03"/>
  </g>
  <g id="B.3.11">
    <polygon class="cls-1" points="1500.89 722.86 1502.85 706.63 1461.69 709.99 1420.73 690.21 1419.16 705.83 1459.87 726.34 1500.89 722.86"/>
  </g>
  <g id="A.3.10">
    <polygon class="cls-1" points="1783.3 747.15 1823.32 762.36 1822.04 768.74 1821.53 771.28 1708.61 782.75 1695.8 777.12 1664.66 763.43 1667.93 743.25 1699 740.38 1705.82 743.13 1756.68 738.41 1782.88 748.4 1783.3 747.15"/>
  </g>
  <g id="A.3.9">
    <path class="cls-1" d="M1783.3,747.15l-.42,1.24.42-1.24-61.04-23.2-2.82.25-10.81-4.12-79.33,6.99-.8,5.25-11.85,1.06-.9,6.01-.36,2.4,10.93,4.8,38.33,16.85,3.27-20.18,31.07-2.87-16.31-6.58,32.93-2.98,8.28,3.22-5.15.47,15.34,6,22.57-2.1,26.2,9.99.42-1.24"/>
  </g>
  <g id="E.4.13">
    <polygon class="cls-2" points="1059.62 710.32 1059.38 727.17 1131.96 721.46 1132.48 704.82 1059.62 710.32"/>
  </g>
  <g id="E.4.12">
    <polygon class="cls-2" points="982.47 681.45 982.54 697.2 993.47 709.32 993.44 693.12 982.47 681.45"/>
  </g>
  <g id="E.4.14">
    <polygon class="cls-2" points="993.44 693.12 993.47 709.32 1012.86 730.83 1059.38 727.17 1059.62 710.32 1012.91 713.84 993.44 693.12"/>
  </g>
  <g id="D.4.13">
    <path class="cls-1" d="M1283.51,672.2l-12.76-7.1-48.32,3.37-3.22-1.96-29.46,2.04-.79,17.67,14.37,9.73,5.87,3.98,107.29-8.12.17-2.22.42-5.57-19.82-10.84-.38,5.42-13.87,1.01.5-7.41Z"/>
  </g>
  <g id="D.4.12">
    <path class="cls-1" d="M1270.76,665.1l12.76,7.1-.5,7.41,13.87-1.01.38-5.42-30.59-16.73-10.21.69-9.32-5.19-75.34,5.04-.24,5.93-5.29.36-.21,5.29-.08,2.11,5.12,3.47,17.85,12.08.79-17.67,29.46-2.04-7.73-4.7,31.28-2.14,4.02,2.31-4.89.34,7.4,4.28,21.47-1.5h0Z"/>
  </g>
  <g id="H.4.13">
    <g>
      <polygon class="cls-1" points="723.19 918.68 769.1 913.72 768.62 905.59 775.14 934.34 775.62 942.8 775.82 946.17 581.38 968.32 581 964.85 580.06 956.14 580.95 945.39 580.95 945.39 579.27 929.75 581.48 904.57 634.15 899.15 634.15 904.36 720.09 895.44 722.88 914.36 723.19 918.68"/>
      <path class="cls-1" d="M768.62,905.59l.48,8.13-.48-8.13Z"/>
    </g>
  </g>
  <g id="H.4.12">
    <polygon class="cls-1" points="715.95 867.39 759 863.14 768.62 905.59 769.1 913.72 723.19 918.68 722.88 914.36 720.09 895.44 682.03 899.39 681.11 888.14 689.73 887.27 689.15 881.28 634.14 886.82 634.15 899.15 581.48 904.57 584.14 874.38 715.09 861.59 715.95 867.39"/>
  </g>
  <g id="G.4.13">
    <polygon class="cls-1" points="830.78 769.54 831.57 788.36 917.14 780.95 916.75 762.4 830.78 769.54"/>
  </g>
  <g id="G.4.12">
    <polygon class="cls-1" points="762.83 732.06 767.31 747.31 768.33 765.31 763.75 749.8 762.83 732.06"/>
  </g>
  <g id="G.4.14">
    <polygon class="cls-1" points="830.78 769.54 775.51 774.13 767.31 747.31 768.33 765.31 776.56 793.11 831.57 788.36 830.78 769.54"/>
  </g>
  <g id="I.4.13">
    <polygon class="cls-2" points="583.11 829.74 585.26 850.45 684.98 841.13 683.37 820.72 583.11 829.74"/>
  </g>
  <g id="I.4.14">
    <polygon class="cls-2" points="518.45 835.55 520.97 856.47 585.26 850.45 583.11 829.74 518.45 835.55"/>
  </g>
  <g id="K.4.12">
    <polygon class="cls-2" points="412.13 836.28 415.18 857.06 424.91 832.7 422.05 812.74 412.13 836.28"/>
  </g>
  <g id="K.4.13">
    <polygon class="cls-2" points="282.05 882.65 286.09 904.99 400.5 893.78 415.18 857.06 412.13 836.28 397.17 871.81 282.05 882.65"/>
  </g>
  <g id="K.3.14">
    <polygon class="cls-2" points="207.61 889.66 212.13 912.23 286.09 904.99 282.05 882.65 207.61 889.66"/>
  </g>
  <g id="B.4.13">
    <polygon class="cls-1" points="1452.95 705.77 1431.61 695.47 1433.5 677.25 1462.48 675.09 1467.2 677.17 1514.72 673.6 1532.95 681.12 1532.07 688.05 1539.52 687.47 1540.24 681.88 1568.21 693.35 1567.43 699.09 1567.12 701.38 1461.69 709.99 1452.95 705.77"/>
  </g>
  <g id="B.4.12">
    <path class="cls-1" d="M1481.05,659.72l-74.19,5.31-.56,5.8-8.01.58-.52,5.44-.21,2.17,7.59,3.66,26.46,12.77,1.88-18.22,28.99-2.16-11.29-4.97,30.78-2.26,5.78,2.44-4.81.36,10.67,4.53,21.11-1.58,18.23,7.52-.44,3.43-.45,3.5,7.45-.58.72-5.59-43.08-17.66-4.41.32-11.7-4.82Z"/>
  </g>
  <g id="E.5.16">
    <polygon class="cls-1" points="1008.75 709.42 998.61 698.62 998.59 679.72 1031.35 677.46 1033.7 679.63 1087.4 675.91 1097.15 683.77 1096.97 691.73 1117.08 690.27 1132.56 702.44 1132.48 704.82 1012.91 713.84 1008.75 709.42"/>
  </g>
  <g id="E.5.15">
    <polygon class="cls-1" points="1117.08 690.27 1093.32 671.59 1082.93 672.3 1069.43 661.42 985.99 666.96 986.05 683 982.46 679.19 982.47 681.45 986.06 685.27 998.61 698.62 998.59 679.72 1031.35 677.46 1025.73 672.27 1060.43 669.92 1063.45 672.46 1058.02 672.83 1063.55 677.56 1087.4 675.91 1097.15 683.77 1096.97 691.73 1117.08 690.27"/>
  </g>
  <g id="G.5.16">
    <polygon class="cls-1" points="916.7 759.75 906.81 744.04 877.13 746.4 876.89 738.57 871.12 728.4 807.99 733.21 806.83 730.41 768.28 733.33 769.47 754.39 773.75 768.37 775.51 774.13 916.75 762.4 916.7 759.75"/>
  </g>
  <g id="G.5.15">
    <polygon class="cls-1" points="891.78 720.16 867.48 721.98 860.57 709.82 763.06 716.9 762.83 732.06 769.47 754.39 768.28 733.33 806.83 730.41 804.08 723.72 844.76 720.69 846.44 723.96 840.07 724.44 843.11 730.54 871.12 728.4 876.89 738.57 877.13 746.4 906.81 744.04 891.78 720.16"/>
  </g>
  <g id="I.5.16">
    <polygon class="cls-1" points="682.43 810.49 682.57 810.48 683.14 817.8 683.37 820.72 518.45 835.55 518.09 832.56 517.19 825.05 518.81 817.88 517.2 804.39 521.18 787.49 566.02 783.83 565.51 787.35 638.86 781.31 640.65 801.36 640.65 801.56 681.22 798.08 681.22 798.08 682.57 810.48 682.43 810.49"/>
  </g>
  <g id="I.5.15">
    <path class="cls-1" d="M681.22,798.08l-.56-7.07-2.86-29.29-38.61,3.07-.59-6.67-112.57,8.81-4.85,20.56,44.83-3.66,1.2-8.38,47.12-3.78-.17,4.09-7.38.6-.44,7.64,32.52-2.68,1.79,20.05v.21s40.58-3.49,40.58-3.49Z"/>
  </g>
  <g id="K.5.16">
    <polygon class="cls-1" points="213.42 877.57 205.34 878.32 213.42 877.57 208.97 855.11 224.81 834.8 276.11 830.42 273.22 834.63 357.09 827.4 360.54 848.98 360.42 849.22 402.11 845.48 405.58 837.46 406.71 845.06 407.16 848.1 397.17 871.81 207.61 889.66 206.96 886.43 205.34 878.32 213.42 877.57"/>
  </g>
  <g id="K.5.15">
    <polygon class="cls-1" points="372.94 806.81 372.94 806.81 420.61 802.71 421.64 809.88 422.05 812.74 407.16 848.1 405.58 837.46 402.11 845.48 360.42 849.22 357.09 827.4 319.92 830.61 325.43 821.48 333.85 820.77 336.71 815.9 283 820.4 276.11 830.42 224.81 834.8 243.93 810.27 371.85 799.81 372.92 806.67 420.61 802.71 372.94 806.81"/>
  </g>
</svg>