<?xml version="1.0" encoding="UTF-8"?>
<svg xmlns="http://www.w3.org/2000/svg" viewBox="0 0 2000 1498">
  <defs>
    <style>
      .cls-1 {
        stroke-linecap: round;
        stroke-linejoin: round;
        stroke-width: .37px;
      }

      .cls-1, .cls-2, .cls-3 {
        fill: none;
        stroke: #000;
      }

      .cls-2, .cls-3 {
        stroke-miterlimit: 10;
      }

      .cls-3 {
        fill-rule: evenodd;
      }
    </style>
  </defs>
  <g id="E.0.1">
    <polygon class="cls-1" points="1136.9 796.47 1136.41 812.66 1144.41 798.74 1144.89 781.31 1136.9 796.47"/>
  </g>
  <g id="E.0.2">
    <polygon class="cls-1" points="1136.9 796.47 1125.15 818.75 1077.27 814.72 1081.7 831.39 1125.76 835.57 1136.41 812.66 1136.9 796.47"/>
  </g>
  <g id="Muehle_Wohn_1" data-name="Muehle Wohn 1">
    <polygon class="cls-2" points="940.42 867.94 937.59 860.98 937.78 874.89 940.6 882.02 978.37 879.35 978.31 865.33 978.45 865.32 940.42 867.94"/>
  </g>
  <g id="F.0.1">
    <polygon class="cls-3" points="883.73 943.31 884.27 963.99 905.68 938.61 905.68 916.83 883.73 943.31"/>
  </g>
  <g id="F.0.2">
    <polygon class="cls-3" points="694.09 964.21 695.76 988.29 852.14 1005.84 884.27 963.99 883.73 943.31 850.56 983.32 694.09 964.21"/>
  </g>
  <g id="C.0.2">
    <polygon class="cls-2" points="1206.72 894.81 1206.72 909.08 1224.91 908.01 1232.42 909.08 1232.42 914.84 1245.54 913.77 1252.11 921 1360.74 929.17 1361.99 910.01 1206.72 894.81"/>
  </g>
  <g id="H.0.1">
    <polygon class="cls-3" points="583.53 914.07 585.35 933.66 618.59 909.42 617.08 890.36 583.53 914.07"/>
  </g>
  <g id="H.0.2">
    <polygon class="cls-3" points="395.46 932.71 398.63 954.35 536.45 972.25 585.35 933.66 583.53 914.07 533.15 949.67 395.46 932.71"/>
  </g>
  <g id="G.0.1">
    <polygon class="cls-2" points="877.97 814.39 878.41 830.98 895.44 814.58 895.44 798.17 877.97 814.39"/>
  </g>
  <g id="G.0.2">
    <polygon class="cls-2" points="731.29 826.97 732.22 843.65 855.19 855.04 878.41 830.98 877.97 814.39 852.22 838.3 731.29 826.97"/>
  </g>
  <g id="I.0.1">
    <polygon class="cls-3" points="650.72 827.54 652.01 844.39 677.66 826.93 676.78 810.55 650.72 827.54"/>
  </g>
  <g id="I.0.2">
    <polygon class="cls-3" points="650.72 827.54 621.39 846.67 613.31 845.98 614.99 865.71 622.24 866.51 652.01 844.39 650.72 827.54"/>
  </g>
  <g id="K.0.2">
    <polygon class="cls-3" points="279.75 840.12 282.63 858.14 386.87 869.29 385.71 860.72 399.29 853.8 398.68 847.6 390.94 851.89 279.75 840.12"/>
  </g>
  <g id="B.0.2">
    <polygon class="cls-2" points="1649.58 882.87 1493.09 869.01 1489.12 853 1488.53 871.6 1491.75 888.71 1647.21 902.96 1649.58 882.87"/>
  </g>
  <g id="B.0.1">
    <polygon class="cls-2" points="1481.6 822.71 1479.51 844.63 1485.3 861.86 1486.99 844.45 1481.6 822.71"/>
  </g>
  <g id="A.0.2">
    <polygon class="cls-3" points="1685.72 962.8 1683.46 983.7 1699.86 1014.49 1898.55 1034.1 1903.16 1012.62 1700.73 991.16 1685.72 962.8"/>
  </g>
  <g id="A.0.1">
    <polygon class="cls-3" points="1663.84 921.47 1661.74 944.29 1675.19 968.67 1685.08 968.67 1685.72 962.8 1663.84 921.47"/>
  </g>
  <g id="E.1.3">
    <polygon class="cls-1" points="1137.39 780.16 1136.9 796.47 1144.89 781.31 1145.39 765.53 1137.39 780.16"/>
  </g>
  <g id="E.1.4">
    <polygon class="cls-1" points="1048.6 795.37 1048.58 797.56 1059.26 796.92 1069.29 804.91 1070.1 805.21 1077.27 814.72 1125.15 818.75 1136.9 796.47 1137.39 780.16 1125.62 801.69 1048.6 795.37"/>
  </g>
  <g id="E.1.5">
    <polygon class="cls-1" points="1001.46 791.5 1001.44 800.4 1048.58 797.56 1048.6 795.37 1001.46 791.5"/>
  </g>
  <g id="Muehle_Wohn_2" data-name="Muehle Wohn 2">
    <polygon class="cls-2" points="1071.23 849.67 1071.03 862.05 979.77 868.37 978.31 865.33 940.42 867.94 937.59 860.98 937.38 844.85 938.58 855.91 979.41 853.28 979.17 849.82 980.16 849.71 981.25 855.83 1071.23 849.67"/>
  </g>
  <g id="F.1.3">
    <polygon class="cls-3" points="883.19 922.43 883.73 943.31 905.68 916.83 905.26 896.79 883.19 922.43"/>
  </g>
  <g id="F.1.4">
    <polygon class="cls-3" points="752.01 949.68 753.22 971.43 850.56 983.32 883.73 943.31 883.19 922.43 849.82 961.2 752.01 949.68"/>
  </g>
  <g id="F.1.5">
    <polygon class="cls-3" points="692.61 942.68 694.09 964.21 753.22 971.43 752.01 949.68 692.61 942.68"/>
  </g>
  <g id="C.1.4">
    <polygon class="cls-2" points="1266.69 880.66 1265.51 900.56 1361.99 910.01 1363.63 889.8 1266.69 880.66"/>
  </g>
  <g id="C.1.5">
    <polygon class="cls-2" points="1207.63 875.09 1206.72 894.81 1265.51 900.56 1266.69 880.66 1207.63 875.09"/>
  </g>
  <g id="D.1.4">
    <polygon class="cls-2" points="1328.75 800.69 1328.28 807.27 1366.18 810.3 1367.51 804.02 1328.75 800.69"/>
  </g>
  <g id="H.1.3">
    <polygon class="cls-3" points="581.69 894.31 583.53 914.07 617.08 890.36 615.47 871.35 581.69 894.31"/>
  </g>
  <g id="H.1.4">
    <polygon class="cls-3" points="445.01 918.58 447.56 939.13 533.15 949.67 583.53 914.07 581.69 894.31 530.96 928.8 445.01 918.58"/>
  </g>
  <g id="H.1.5">
    <polygon class="cls-3" points="392.71 912.36 395.46 932.71 447.56 939.13 445.01 918.58 392.71 912.36"/>
  </g>
  <g id="G.1.3">
    <polygon class="cls-2" points="877.53 797.67 877.97 814.39 895.44 798.17 895.08 782 877.53 797.67"/>
  </g>
  <g id="G.1.4">
    <polygon class="cls-2" points="776.35 813.99 777.19 831.27 852.22 838.3 877.97 814.39 877.53 797.67 851.66 820.79 776.35 813.99"/>
  </g>
  <g id="G.1.5">
    <polygon class="cls-2" points="730.28 809.83 731.29 826.97 777.19 831.27 776.35 813.99 730.28 809.83"/>
  </g>
  <g id="I.1.3">
    <polygon class="cls-3" points="649.43 810.55 650.72 827.54 676.78 810.55 675.62 794.12 649.43 810.55"/>
  </g>
  <g id="I.1.4">
    <polygon class="cls-3" points="649.43 810.55 619.92 829.06 611.81 828.28 613.31 845.98 621.39 846.67 650.72 827.54 649.43 810.55"/>
  </g>
  <g id="K.1.3">
    <polygon class="cls-3" points="438.22 810.2 439.39 819.73 472.73 803.26 471.86 793.91 438.22 810.2"/>
  </g>
  <g id="K.1.4">
    <polygon class="cls-3" points="319.35 827.17 321.95 844.59 390.94 851.89 398.68 847.6 397.52 840.46 439.39 819.73 438.22 810.2 388.57 834.24 319.35 827.17"/>
  </g>
  <g id="K.1.5">
    <polygon class="cls-3" points="277.02 822.85 279.75 840.12 321.95 844.59 319.35 827.17 277.02 822.85"/>
  </g>
  <g id="B.1.4">
    <polygon class="cls-2" points="1554.74 855.08 1552.39 874.26 1649.58 882.87 1652.4 863.4 1554.74 855.08"/>
  </g>
  <g id="B.1.3">
    <polygon class="cls-2" points="1483.44 805.27 1481.6 822.71 1485.71 839.28 1487.64 821.27 1483.44 805.27"/>
  </g>
  <g id="B.1.5">
    <polygon class="cls-2" points="1554.74 855.08 1495.17 850.01 1487.64 821.27 1485.71 839.28 1493.09 869.01 1552.39 874.26 1554.74 855.08"/>
  </g>
  <g id="A.1.4">
    <polygon class="cls-3" points="1781.24 976.05 1777.12 999.26 1903.16 1012.62 1908.05 988.99 1781.24 976.05"/>
  </g>
  <g id="A.1.3">
    <polygon class="cls-3" points="1666.92 900.74 1663.84 921.47 1676.85 946.06 1680.14 924.54 1666.92 900.74"/>
  </g>
  <g id="A.1.5">
    <polygon class="cls-3" points="1680.14 924.54 1676.85 946.06 1700.73 991.16 1777.12 999.26 1781.24 976.05 1704.4 968.2 1680.14 924.54"/>
  </g>
  <g id="E.2.6">
    <polygon class="cls-1" points="1137.88 763.74 1137.39 780.16 1145.39 765.53 1145.9 749.63 1137.88 763.74"/>
  </g>
  <g id="E.2.7">
    <polygon class="cls-1" points="1048.79 778.4 1048.6 795.37 1125.62 801.69 1137.39 780.16 1137.88 763.74 1126.1 784.5 1048.79 778.4"/>
  </g>
  <g id="E.2.8">
    <polygon class="cls-1" points="1001.47 774.67 1001.46 791.5 1048.6 795.37 1048.79 778.4 1001.47 774.67"/>
  </g>
  <g id="Muehle_Wohn_3" data-name="Muehle Wohn 3">
    <g>
      <polygon class="cls-2" points="932.62 804.83 932.64 805.01 932.61 804.79 932.62 804.83"/>
      <path class="cls-2" d="M981.25,855.83l104.08-7.03v-.41s-8.06-33.68-8.06-33.68l-7.17-9.5-.81-.3-10.03-7.99-86.5,5.2h0l-40.16,2.14v.09s-.39,2.65-.39,2.65l.07.11.69,1.08h0s.04.07.04.07l.02.05.37.63.51.93.51,1.02.52,1.11.52,1.22.51,1.33.51,1.45.49,1.59.47,1.73.44,1.88.4,2.03.17,1.06.37,2.62h0s0,0,0,0l-.69,1.24-.75,1.17-.89,1.22h-.01s-.62.74-.62.74l-.12.04-.23.06h-.05s.83,7.8.83,7.8h.02s2.27,16.72,2.27,16.72l40.83-2.64.04-.18-.28-3.27.53-.09.46-.03,1.1,6.12ZM932.62,804.83v-.05s.02.23.02.23l-.02-.18Z"/>
    </g>
  </g>
  <g id="F.2.6">
    <polygon class="cls-3" points="882.65 901.35 883.19 922.43 905.26 896.79 904.84 876.56 882.65 901.35"/>
  </g>
  <g id="F.2.7">
    <polygon class="cls-3" points="750.79 927.71 752.01 949.68 849.82 961.2 883.19 922.43 882.65 901.35 849.07 938.86 750.79 927.71"/>
  </g>
  <g id="F.2.8">
    <polygon class="cls-3" points="691.11 920.94 692.61 942.68 752.01 949.68 750.79 927.71 691.11 920.94"/>
  </g>
  <g id="C.2.7">
    <polygon class="cls-2" points="1267.88 860.58 1266.69 880.66 1363.63 889.8 1365.28 869.41 1267.88 860.58"/>
  </g>
  <g id="C.2.8">
    <polygon class="cls-2" points="1208.55 855.2 1207.63 875.09 1266.69 880.66 1267.88 860.58 1208.55 855.2"/>
  </g>
  <g id="D.2.7">
    <polygon class="cls-2" points="1287.07 780.42 1286 797.59 1367.51 804.02 1368.91 786.62 1287.07 780.42"/>
  </g>
  <g id="D.2.8">
    <polygon class="cls-2" points="1237 776.62 1236.12 793.65 1286 797.59 1287.07 780.42 1237 776.62"/>
  </g>
  <g id="H.2.6">
    <polygon class="cls-3" points="579.84 874.38 581.69 894.31 615.47 871.35 613.84 852.18 579.84 874.38"/>
  </g>
  <g id="H.2.7">
    <polygon class="cls-3" points="442.44 897.85 445.01 918.58 530.96 928.8 581.69 894.31 579.84 874.38 528.75 907.74 442.44 897.85"/>
  </g>
  <g id="H.2.8">
    <polygon class="cls-3" points="389.93 891.84 392.71 912.36 445.01 918.58 442.44 897.85 389.93 891.84"/>
  </g>
  <g id="G.2.6">
    <polygon class="cls-2" points="877.09 780.83 877.53 797.67 895.08 782 894.71 765.71 877.09 780.83"/>
  </g>
  <g id="G.2.7">
    <polygon class="cls-2" points="775.5 796.58 776.35 813.99 851.66 820.79 877.53 797.67 877.09 780.83 851.09 803.14 775.5 796.58"/>
  </g>
  <g id="G.2.8">
    <polygon class="cls-2" points="729.27 792.57 730.28 809.83 776.35 813.99 775.5 796.58 729.27 792.57"/>
  </g>
  <g id="I.2.6">
    <polygon class="cls-3" points="648.12 793.45 649.43 810.55 675.62 794.12 674.46 777.58 648.12 793.45"/>
  </g>
  <g id="I.2.7">
    <polygon class="cls-3" points="648.12 793.45 609.21 816.88 565.75 813.24 566.28 818.86 611.37 823.15 611.81 828.28 619.92 829.06 649.43 810.55 648.12 793.45"/>
  </g>
  <g id="K.2.6">
    <polygon class="cls-3" points="436.14 793.23 438.22 810.2 471.86 793.91 469.98 777.5 436.14 793.23"/>
  </g>
  <g id="K.2.7">
    <polygon class="cls-3" points="316.74 809.63 319.35 827.17 388.57 834.24 438.22 810.2 436.14 793.23 386.19 816.46 316.74 809.63"/>
  </g>
  <g id="K.2.8">
    <polygon class="cls-3" points="274.27 805.45 277.02 822.85 319.35 827.17 316.74 809.63 274.27 805.45"/>
  </g>
  <g id="B.2.7">
    <polygon class="cls-2" points="1557.12 835.74 1554.74 855.08 1652.4 863.4 1655.24 843.77 1557.12 835.74"/>
  </g>
  <g id="B.2.6">
    <polygon class="cls-2" points="1485.3 787.69 1483.44 805.27 1487.64 821.27 1489.58 803.12 1485.3 787.69"/>
  </g>
  <g id="B.2.8">
    <polygon class="cls-2" points="1557.12 835.74 1497.27 830.84 1489.58 803.12 1487.64 821.27 1495.17 850.01 1554.74 855.08 1557.12 835.74"/>
  </g>
  <g id="A.2.7">
    <polygon class="cls-3" points="1785.4 952.59 1781.24 976.05 1908.05 988.99 1912.98 965.11 1785.4 952.59"/>
  </g>
  <g id="A.2.6">
    <polygon class="cls-3" points="1670.04 879.82 1683.46 902.8 1680.14 924.54 1666.92 900.74 1670.04 879.82"/>
  </g>
  <g id="A.2.8">
    <polygon class="cls-3" points="1785.4 952.59 1708.11 945.01 1683.46 902.8 1680.14 924.54 1704.4 968.2 1781.24 976.05 1785.4 952.59"/>
  </g>
  <g id="C_06" data-name="C 06">
    <g id="HATCH">
      <polygon class="cls-3" points="1223.65 808.04 1218.26 824.86 1295.7 831.44 1295.87 830.33 1310.98 831.61 1310.59 834.9 1365.37 839.57 1365.4 829.26 1346.02 827.64 1346.44 818.08 1223.65 808.04"/>
    </g>
    <g id="LWPOLYLINE">
      <polygon class="cls-1" points="1223.65 808.04 1218.26 824.86 1295.7 831.44 1295.87 830.33 1310.98 831.61 1310.59 834.9 1365.37 839.57 1365.4 829.26 1346.02 827.64 1346.44 818.08 1223.65 808.04"/>
    </g>
    <g id="HATCH-2" data-name="HATCH">
      <polygon class="cls-3" points="1362.3 820.34 1361.61 828.94 1364.74 829.2 1365.43 820.6 1362.3 820.34"/>
    </g>
    <g id="LWPOLYLINE-2" data-name="LWPOLYLINE">
      <polygon class="cls-1" points="1362.3 820.34 1361.61 828.94 1364.74 829.2 1365.43 820.6 1362.3 820.34"/>
    </g>
    <g id="HATCH-3" data-name="HATCH">
      <polygon class="cls-3" points="1361.55 828.94 1361.61 828.94 1362.3 820.34 1362.31 819.37 1361.55 828.94"/>
    </g>
    <g id="LWPOLYLINE-3" data-name="LWPOLYLINE">
      <polygon class="cls-1" points="1361.55 828.94 1361.61 828.94 1362.3 820.34 1362.31 819.37 1361.55 828.94"/>
    </g>
    <g id="HATCH-4" data-name="HATCH">
      <polygon class="cls-3" points="1362.31 819.37 1362.3 820.34 1365.43 820.6 1365.43 819.63 1362.31 819.37"/>
    </g>
    <g id="LWPOLYLINE-4" data-name="LWPOLYLINE">
      <polygon class="cls-1" points="1362.31 819.37 1362.3 820.34 1365.43 820.6 1365.43 819.63 1362.31 819.37"/>
    </g>
    <g id="HATCH-5" data-name="HATCH">
      <polygon class="cls-3" points="1346.03 827.43 1346.02 827.64 1361.55 828.94 1361.56 828.73 1346.03 827.43"/>
    </g>
    <g id="LWPOLYLINE-5" data-name="LWPOLYLINE">
      <polygon class="cls-1" points="1346.03 827.43 1346.02 827.64 1361.55 828.94 1361.56 828.73 1346.03 827.43"/>
    </g>
  </g>
  <g id="E.3.9">
    <polygon class="cls-1" points="1138.38 747.2 1137.88 763.74 1145.9 749.63 1146.41 733.62 1138.38 747.2"/>
  </g>
  <g id="E.3.10">
    <polygon class="cls-1" points="1048.97 761.32 1048.79 778.4 1126.1 784.5 1137.88 763.74 1138.38 747.2 1126.57 767.19 1048.97 761.32"/>
  </g>
  <g id="E.3.11">
    <polygon class="cls-1" points="1001.48 757.72 1001.47 774.67 1048.79 778.4 1048.97 761.32 1001.48 757.72"/>
  </g>
  <g id="F.3.10">
    <polygon class="cls-2" points="865.03 909.77 831.27 905.87 831.27 905.87 830.47 884.29 760.08 877.02 764.86 872.95 723.62 868.73 699.6 887.71 700.53 901.71 690.6 909.78 691.14 917.58 691.36 920.69 849.31 938.61 871.74 913.56 871.65 910.48 871.43 902.77 865.03 909.77"/>
  </g>
  <g id="F.3.9">
    <path class="cls-2" d="M904.78,873.66l-.15-7.25-45.35-4.45-.17-5.63-106.63-10.35-29.11,23,41.25,4.22,11.38-9.69,44.86,4.49-5.26,4.89-7.13-.72-9.94,9.1,31.68,3.27.81,21.58h0l33.76,3.9,6.4-7h0l.22,7.71.09,3.08,33.35-37.25-.06-2.89Z"/>
  </g>
  <g id="C.3.10">
    <polygon class="cls-2" points="1209.01 845.23 1208.68 852.36 1208.55 855.2 1365.28 869.41 1365.52 866.49 1366.11 859.18 1366.14 839.66 1365.57 846.71 1325.36 843.23 1325.37 843.03 1326.79 823.28 1256.97 817.49 1257.76 814.23 1216.75 810.85 1211.7 826.01 1209.01 845.23"/>
  </g>
  <g id="C.3.9">
    <polygon class="cls-2" points="1328.28 807.27 1328.23 807.93 1328.75 800.69 1222.92 792.34 1216.75 810.85 1257.76 814.23 1259.62 806.46 1304.14 810.06 1303.59 813.98 1296.53 813.4 1295.4 820.68 1326.79 823.28 1325.37 843.03 1325.36 843.23 1365.57 846.71 1366.14 839.66 1366.18 810.3 1328.28 807.27"/>
  </g>
  <g id="D.3.10">
    <polygon class="cls-2" points="1288.16 763.12 1287.07 780.42 1368.91 786.62 1370.32 769.09 1288.16 763.12"/>
  </g>
  <g id="D.3.11">
    <polygon class="cls-2" points="1288.16 763.12 1237.88 759.46 1237 776.62 1287.07 780.42 1288.16 763.12"/>
  </g>
  <g id="H.3.9">
    <polygon class="cls-3" points="577.97 854.27 579.84 874.38 613.84 852.18 612.2 832.85 577.97 854.27"/>
  </g>
  <g id="H.3.10">
    <polygon class="cls-3" points="439.85 876.92 442.44 897.85 528.75 907.74 579.84 874.38 577.97 854.27 526.52 886.47 439.85 876.92"/>
  </g>
  <g id="H.3.11">
    <polygon class="cls-3" points="387.12 871.12 389.93 891.84 442.44 897.85 439.85 876.92 387.12 871.12"/>
  </g>
  <g id="G.3.9">
    <polygon class="cls-2" points="876.64 763.87 877.09 780.83 894.71 765.71 894.34 749.3 876.64 763.87"/>
  </g>
  <g id="G.3.10">
    <polygon class="cls-2" points="774.65 779.04 775.5 796.58 851.09 803.14 877.09 780.83 876.64 763.87 850.52 785.36 774.65 779.04"/>
  </g>
  <g id="G.3.11">
    <polygon class="cls-2" points="728.25 775.18 729.27 792.57 775.5 796.58 774.65 779.04 728.25 775.18"/>
  </g>
  <g id="I.3.9">
    <polygon class="cls-3" points="646.8 776.21 648.12 793.45 674.46 777.58 673.28 760.92 646.8 776.21"/>
  </g>
  <g id="I.3.10">
    <polygon class="cls-3" points="646.8 776.21 607.67 798.8 533.99 792.15 535.8 809.99 609.21 816.88 648.12 793.45 646.8 776.21"/>
  </g>
  <g id="I.3.11">
    <polygon class="cls-3" points="488.95 788.09 490.34 805.77 535.8 809.99 533.99 792.15 488.95 788.09"/>
  </g>
  <g id="K.3.9">
    <polygon class="cls-3" points="434.05 776.14 436.14 793.23 469.98 777.5 468.08 760.97 434.05 776.14"/>
  </g>
  <g id="K.3.10">
    <polygon class="cls-3" points="314.1 791.94 316.74 809.63 386.19 816.46 436.14 793.23 434.05 776.14 383.79 798.53 314.1 791.94"/>
  </g>
  <g id="K.3.11">
    <polygon class="cls-3" points="271.5 787.91 274.27 805.45 316.74 809.63 314.1 791.94 271.5 787.91"/>
  </g>
  <g id="B.3.10">
    <polygon class="cls-2" points="1559.51 816.23 1557.12 835.74 1655.24 843.77 1658.1 823.96 1559.51 816.23"/>
  </g>
  <g id="B.3.9">
    <polygon class="cls-2" points="1487.18 769.98 1485.3 787.69 1489.58 803.12 1491.75 785.52 1487.18 769.98"/>
  </g>
  <g id="B.3.11">
    <polygon class="cls-2" points="1491.75 785.52 1489.58 803.12 1497.27 830.84 1557.12 835.74 1559.51 816.23 1499.39 811.51 1491.75 785.52"/>
  </g>
  <g id="A.3.10">
    <polygon class="cls-2" points="1853.96 930.55 1888.28 933.75 1889.92 925.52 1915.47 953.11 1913.69 961.69 1912.98 965.11 1708.11 945.01 1702.75 935.83 1689.9 913.82 1693.84 888.28 1746.6 892.96 1749.84 897.5 1840.2 905.59 1855.39 923.08 1853.96 930.55"/>
  </g>
  <g id="A.3.9">
    <polygon class="cls-2" points="1674.4 887.28 1689.9 913.82 1693.84 888.28 1746.6 892.96 1738.93 882.21 1796.1 887.19 1800.53 892.61 1791.42 891.81 1799.51 901.94 1840.2 905.59 1855.39 923.08 1853.96 930.55 1888.28 933.75 1889.92 925.52 1846.21 881.72 1821.05 881.1 1813.58 873.13 1678.07 862.82 1677.03 869.78 1671.61 869.32 1670.49 876.82 1670.04 879.82 1674.4 887.28"/>
  </g>
  <g id="E.4.12">
    <polygon class="cls-1" points="1138.88 730.55 1138.38 747.2 1146.41 733.62 1146.41 718.34 1138.88 730.55"/>
  </g>
  <g id="E.4.13">
    <polygon class="cls-1" points="1049.16 744.1 1048.97 761.32 1126.57 767.19 1138.38 747.2 1138.88 730.55 1127.06 749.74 1049.16 744.1"/>
  </g>
  <g id="E.4.14">
    <polygon class="cls-1" points="1001.49 740.65 1001.48 757.72 1048.97 761.32 1048.79 744 1001.49 740.65"/>
  </g>
  <g id="D.4.13">
    <polygon class="cls-2" points="1371.03 760.3 1370.52 766.58 1370.32 769.09 1237.88 759.46 1238.01 757.01 1238.33 750.86 1239.77 746.5 1240.34 735.45 1243.84 725.08 1278.81 727.4 1278.27 729.63 1337.58 733.59 1336.34 750.64 1336.33 750.78 1370.4 753.16 1370.89 747.07 1371.03 760.3"/>
  </g>
  <g id="D.4.12">
    <path class="cls-2" d="M1370.68,726.86l-32.37-2.11.49-6.68-90.63-5.8-4.32,12.81,34.97,2.32,1.28-5.35,37.97,2.48-.36,2.69-6.01-.4-.75,4.98,26.64,1.78-1.24,17.04v.15s34.06,2.38,34.06,2.38l.49-6.09-.21-20.21ZM1337.6,734.46"/>
  </g>
  <g id="H.4.13">
    <polygon class="cls-2" points="549.69 860.93 524.56 858.31 524.92 858.09 522.77 837.52 460.37 831.28 467.12 827.78 430.47 824.15 397.52 840.46 399.29 853.8 385.71 860.72 386.72 868.15 387.12 871.12 526.52 886.47 560.84 864.99 560.55 862.06 559.84 854.71 549.69 860.93"/>
  </g>
  <g id="H.4.12">
    <polygon class="cls-2" points="524.56 858.31 549.69 860.93 559.84 854.71 560.84 864.99 612.2 832.85 611.96 830.08 611.37 823.15 566.28 818.86 566.28 818.86 565.75 813.24 470.58 804.29 430.47 824.15 467.12 827.78 483.19 819.43 523.1 823.3 515.43 827.51 509.1 826.89 494.7 834.72 522.77 837.52 524.92 858.09 524.56 858.31"/>
  </g>
  <g id="G.4.12">
    <polygon class="cls-2" points="876.19 746.78 876.64 763.87 894.34 749.3 893.97 732.78 876.19 746.78"/>
  </g>
  <g id="G.4.13">
    <polygon class="cls-2" points="773.79 761.37 774.65 779.04 850.52 785.36 876.64 763.87 876.19 746.78 849.94 767.44 773.79 761.37"/>
  </g>
  <g id="G.4.14">
    <polygon class="cls-2" points="727.22 757.65 728.25 775.18 774.65 779.04 773.79 761.37 727.22 757.65"/>
  </g>
  <g id="I.4.12">
    <polygon class="cls-3" points="645.48 758.84 646.8 776.21 673.28 760.92 672.1 744.14 645.48 758.84"/>
  </g>
  <g id="I.4.13">
    <polygon class="cls-3" points="645.48 758.84 606.11 780.58 532.18 774.18 533.99 792.15 607.67 798.8 646.8 776.21 645.48 758.84"/>
  </g>
  <g id="I.4.14">
    <polygon class="cls-3" points="486.98 770.27 488.95 788.09 533.99 792.15 532.18 774.18 486.98 770.27"/>
  </g>
  <g id="K.4.12">
    <polygon class="cls-3" points="431.94 758.91 434.05 776.14 468.08 760.97 466.17 744.32 431.94 758.91"/>
  </g>
  <g id="K.4.13">
    <polygon class="cls-3" points="311.45 774.12 314.1 791.94 383.79 798.53 434.05 776.14 431.94 758.91 381.36 780.46 311.45 774.12"/>
  </g>
  <g id="K.3.14">
    <polygon class="cls-3" points="268.7 770.24 271.5 787.91 314.1 791.94 311.45 774.12 268.7 770.24"/>
  </g>
  <g id="B.4.13">
    <polygon class="cls-2" points="1615.58 792.25 1609.3 781.36 1538.63 776.29 1537.45 773.43 1495.92 770.47 1493.61 791.86 1497.7 805.77 1499.39 811.51 1658.1 823.96 1658.51 821.13 1659.53 814.03 1648.5 796.93 1647.53 803.79 1614.36 801.3 1615.58 792.25"/>
  </g>
  <g id="B.4.12">
    <polygon class="cls-2" points="1609.3 781.36 1615.58 792.25 1614.36 801.3 1647.53 803.79 1648.5 796.93 1631.85 771.13 1602.22 769.06 1597.88 761.54 1490.79 754.2 1490.05 761.23 1490.05 761.23 1488.12 761.1 1487.45 767.44 1487.18 769.98 1488.6 774.82 1493.61 791.86 1495.92 770.47 1537.45 773.43 1534.63 766.61 1579.69 769.78 1581.47 773.21 1574.32 772.7 1577.53 779.08 1609.3 781.36"/>
  </g>
  <g id="E.5.16">
    <polygon class="cls-2" points="1134.98 734.57 1102.71 732.2 1102.71 732.2 1103.09 715.23 1046.77 711.5 1048.69 709.39 1015.47 707.21 1005.56 716.98 1005.54 732.38 1001.49 738.21 1001.49 740.65 1127.06 749.74 1134.91 736.99 1134.98 734.57"/>
  </g>
  <g id="E.5.15">
    <polygon class="cls-2" points="1102.21 732.33 1134.98 734.57 1134.91 736.99 1146.92 717.51 1146.99 715.2 1113.67 713.01 1113.67 713.01 1113.98 700.59 1027.72 695.12 1015.47 707.21 1048.69 709.39 1053.29 704.35 1089.39 706.7 1087.36 709.23 1081.64 708.86 1077.8 713.56 1103.09 715.23 1102.62 732.33 1102.21 732.33"/>
  </g>
  <g id="G.5.16">
    <polygon class="cls-2" points="835.83 748.67 867.31 751.23 867.38 753.72 849.94 767.44 727.22 757.65 727.07 755.15 734.31 749.46 733.38 733.15 751.26 722.63 783.75 724.98 780.13 727.25 835.22 731.26 835.83 748.67"/>
  </g>
  <g id="G.5.15">
    <polygon class="cls-2" points="835.83 748.67 867.31 751.23 867.38 753.72 893.97 732.78 893.92 730.42 893.92 730.52 858.16 727.85 857.79 715.52 773.33 709.65 751.26 722.63 783.75 724.98 792.42 719.56 827.75 722.08 823.68 724.8 818.09 724.4 810.47 729.46 835.22 731.26 835.83 748.67 835.83 748.67"/>
  </g>
  <g id="I.5.16">
    <path class="cls-2" d="M621.48,762.73l-20.2-1.67.28-.15-1.52-17.7-53.55-4.23,5.16-2.38-31.58-2.47-25.08,11.06,1.25,11.47-10.26,4.67.71,6.38.28,2.55,119.14,10.31,26.16-14.45-.2-2.52-.5-6.32-10.1,5.45Z"/>
  </g>
  <g id="I.5.15">
    <polygon class="cls-2" points="601.56 760.92 600.04 743.21 575.98 741.32 587.02 736 592.46 736.42 598.37 733.56 564 730.91 551.66 736.61 520.08 734.13 550.99 720.5 633.2 726.66 633.69 732.85 671.51 735.73 671.93 741.74 672.1 744.14 632.28 766.13 631.58 757.28 621.48 762.73 601.28 761.06 601.56 760.92"/>
  </g>
  <g id="K.5.16">
    <path class="cls-2" d="M278.24,745.38l1.77,11.38-12.71,4.63,1,6.33.4,2.53,112.66,10.22,33.61-14.32-.32-2.5-.79-6.27-12.33,5.14-15.7-1.53h0l-2.33-17.55-50.73-4.19,6.46-2.36-29.93-2.46-31.06,10.98Z"/>
  </g>
  <g id="K.5.15">
    <path class="cls-2" d="M465.9,741.94l-.68-5.96-38.79-3.09-.73-5.91-78.11-6.12-38.29,13.54,29.93,2.46,15.44-5.65,32.6,2.63-7.47,2.85-5.16-.42-13.93,5.28,22.79,1.88,2.33,17.55-.35.14,16.06,1.39,12.33-5.14.79,6.27.32,2.5,51.2-21.82-.27-2.38Z"/>
  </g>
</svg>