<?xml version="1.0" encoding="UTF-8"?>
<svg xmlns="http://www.w3.org/2000/svg" xmlns:xlink="http://www.w3.org/1999/xlink" viewBox="0 0 2000 1498">
  <defs>
    <style>
      .cls-1, .cls-2 {
        fill: none;
        stroke: #000;
        stroke-miterlimit: 10;
        stroke-width: 2px;
      }

      .cls-2 {
        fill-rule: evenodd;
      }
    </style>
  </defs>
  <g id="Ebene_134" data-name="Ebene 134">
    <image width="2000" height="1498" transform="translate(.4 -.74)" xlink:href="../Downloads/1010.jpg"/>
  </g>
  <g id="E.0.1">
    <polygon class="cls-1" points="1260.59 797.2 1261.17 789.8 1287.99 778.51 1287.99 778.51 1287.4 790.62 1287.1 794.06 1275.8 799.19 1264.02 795.71 1260.59 797.2"/>
  </g>
  <g id="E.0.2">
    <polygon class="cls-1" points="1261.17 789.8 1216.63 808.86 1121.97 780.23 1121.85 785.89 1128.51 795.11 1128.54 795.92 1115.6 794.33 1115.79 795.51 1125.83 798.18 1192.58 818.99 1204.34 822.37 1222.54 814.24 1260.75 797.2 1261.17 789.8"/>
  </g>
  <g id="F.0.1">
    <polygon class="cls-1" points="863.81 873.76 864.52 892.78 889.26 883.34 905.7 877.31 905.7 877.31 906.08 857.82 863.81 873.76"/>
  </g>
  <g id="F.0.2">
    <polygon class="cls-1" points="811.03 913.18 864.52 892.78 863.81 873.76 792.63 899.5 704.13 857.36 704.63 875.28 717.21 881.47 774.54 909.64 794.53 919.47 811.03 913.18"/>
  </g>
  <g id="C.0.1">
    <polygon class="cls-1" points="1404.89 895.38 1371.78 916.36 1369.75 937.12 1387.69 925.97 1404.89 915.28 1404.89 913.58 1404.89 905.51 1404.89 895.38"/>
  </g>
  <g id="C.0.2">
    <polygon class="cls-1" points="1182.47 896.99 1182.8 919.09 1315.68 971.73 1369.75 937.12 1371.78 916.36 1320.56 947.25 1182.47 896.99"/>
  </g>
  <g id="D.0.1">
    <polygon class="cls-1" points="1517.36 847.89 1526.88 841.78 1527.43 833.78 1527.43 833.78 1528.35 823.42 1505.94 838.33 1503.47 856.98 1517.36 847.89"/>
  </g>
  <g id="D.0.2">
    <polygon class="cls-1" points="1503.47 856.98 1505.94 838.33 1466.48 861.93 1364.18 832.45 1363.73 837.23 1411.39 851.35 1411.08 854.3 1404.71 857.9 1404.87 866.69 1460.31 882.58 1503.47 856.98"/>
  </g>
  <g id="H.0.1">
    <polygon class="cls-1" points="689.81 819.28 688.46 802.3 715.02 794.6 716.31 811.71 689.81 819.28"/>
  </g>
  <g id="H.0.2">
    <polygon class="cls-1" points="689.81 819.28 623.73 839.64 557.27 805.81 555.41 789.2 622.05 822.05 688.46 802.3 689.81 819.28"/>
  </g>
  <g id="G.0.1">
    <polygon class="cls-1" points="1039.03 754.71 1012.54 764.81 1038.88 767.7 1038.98 763.77 1039.03 754.71"/>
  </g>
  <g id="G.0.2">
    <polygon class="cls-1" points="955.86 800.5 963.61 798.28 963.61 782.53 961.7 780.83 955.67 783.78 872.59 755.02 873.01 768.64 873.09 770.9 884.81 775.09 937.65 793.99 955.86 800.5"/>
  </g>
  <g id="I.0.1">
    <polygon class="cls-1" points="840.99 754.18 857.69 748.46 857.19 734.47 820.29 744.5 821 759.92 840.99 754.18"/>
  </g>
  <g id="I.0.2">
    <polygon class="cls-1" points="820.29 744.5 821 759.92 778.3 772.18 764.09 775.55 749.99 770.07 731.25 762.29 731.16 747.84 748.99 754.35 764.39 759.74 777.4 756.4 820.29 744.5"/>
  </g>
  <g id="K.0.1">
    <polygon class="cls-2" points="697.19 714.85 702.59 713.45 703.34 724.72 697.56 722.95 697.19 714.85"/>
  </g>
  <g id="B.0.1">
    <polygon class="cls-1" points="1766.29 941.49 1743.02 960.71 1738.54 982.91 1761.11 962.4 1766.29 941.49"/>
  </g>
  <g id="B.0.2">
    <polygon class="cls-1" points="1528.37 940.04 1526.23 963 1626.28 995.9 1655.75 969.18 1730.16 993.03 1738.54 982.91 1743.02 960.71 1715.88 988.24 1655.75 969.18 1646.4 977.79 1528.37 940.04"/>
  </g>
  <g id="A.0.1">
    <polygon class="cls-1" points="1872.31 1140.98 1859.25 1161.77 1852.58 1189.19 1865.83 1167.4 1878.15 1147.15 1879.07 1143.41 1872.31 1140.98"/>
  </g>
  <g id="A.0.2">
    <polygon class="cls-1" points="1859.25 1161.77 1820.69 1224.02 1577.7 1126.31 1576.57 1133.14 1564.75 1145.33 1564.14 1149.08 1597.93 1163.12 1756.62 1229.06 1813.86 1252.85 1823.16 1237.57 1852.58 1189.19 1859.25 1161.77"/>
  </g>
  <g id="E.1.3">
    <polygon class="cls-1" points="1287.99 778.51 1287.99 778.51 1287.99 778.51 1288.87 761.88 1288.87 761.88 1262.31 772.88 1261.17 789.8 1287.99 778.51"/>
  </g>
  <g id="E.1.4">
    <polygon class="cls-1" points="1262.31 772.88 1217.62 791.37 1151.13 772.03 1150.47 788.91 1193.44 801.86 1216.63 808.86 1227.09 804.38 1261.17 789.8 1262.31 772.88"/>
  </g>
  <g id="E.1.5">
    <polygon class="cls-1" points="1151.13 772.03 1150.47 788.91 1126.38 781.65 1111.55 777.18 1111.62 774.84 1111.62 774.84 1112.04 760.65 1151.13 772.03"/>
  </g>
  <g id="F.1.3">
    <polygon class="cls-1" points="888.68 864.58 906.08 857.82 906.18 853.51 906.5 839.75 863.1 854.56 863.81 873.76 888.68 864.58"/>
  </g>
  <g id="F.1.4">
    <polygon class="cls-1" points="810.03 893.62 863.81 873.76 863.1 854.56 792.32 879.82 735.06 853.4 736.39 872.57 792.63 899.5 810.03 893.62"/>
  </g>
  <g id="F.1.5">
    <polygon class="cls-1" points="704.13 857.36 715.81 862.76 736.39 872.57 735.06 853.4 703.95 838.79 704.13 857.36"/>
  </g>
  <g id="C.1.3">
    <polygon class="cls-1" points="1373.83 895.38 1404.89 876.64 1404.89 887.12 1404.89 892.21 1404.89 895.38 1389.78 905.51 1371.78 916.36 1373.83 895.38 1391.89 884.83 1373.83 895.38"/>
  </g>
  <g id="C.1.4">
    <polygon class="cls-1" points="1332.68 939.94 1371.78 916.36 1373.83 895.38 1322.42 925.41 1233.11 894.01 1231.81 914.95 1289.24 935.85 1320.56 947.25 1332.68 939.94"/>
  </g>
  <g id="C.1.5">
    <polygon class="cls-1" points="1233.11 894.01 1231.81 914.95 1199.97 903.36 1182.47 896.99 1182.47 893.2 1182.47 885.42 1182.47 876.2 1233.11 894.01"/>
  </g>
  <g id="D.1.3">
    <polygon class="cls-1" points="1522.88 810.12 1508.42 819.5 1505.94 838.33 1520.62 828.79 1528.35 823.42 1528.92 818.98 1530.24 805.3 1522.88 810.12"/>
  </g>
  <g id="D.1.4">
    <polygon class="cls-1" points="1475.77 856.37 1505.94 838.33 1508.42 819.5 1468.88 842.41 1382.69 818.44 1380.8 837.24 1436.36 853.25 1466.48 861.93 1475.77 856.37"/>
  </g>
  <g id="D.1.5">
    <polygon class="cls-1" points="1382.69 818.44 1380.8 837.24 1364.18 832.45 1364.8 824.71 1335.62 816.51 1335.62 814.3 1335.62 805.35 1382.69 818.44 1382.69 818.44"/>
  </g>
  <g id="H.1.3">
    <polygon class="cls-1" points="731.28 772.4 731.41 787.89 715.02 792.61 715.15 794.23 715.02 794.6 688.46 802.3 687.11 785.16 731.28 772.4"/>
  </g>
  <g id="H.1.4">
    <polygon class="cls-1" points="580.09 801.34 578.28 784.24 620.34 804.34 687.11 785.13 688.47 802.26 637.64 817.4 622.05 822.05 580.09 801.34"/>
  </g>
  <g id="H.1.5">
    <polygon class="cls-1" points="578.27 784.27 553.54 772.45 555.15 786.83 555.41 789.2 564.81 793.84 580.08 801.38 578.27 784.27"/>
  </g>
  <g id="G.1.3">
    <polygon class="cls-1" points="1024.91 760.32 1039.03 754.71 1039.03 752.05 1039.05 739.03 1006.7 750.15 1006.76 764.1 1012.54 764.81 1024.91 760.32"/>
  </g>
  <g id="G.1.4">
    <polygon class="cls-1" points="1006.58 764.22 1006.76 764.1 1006.7 750.15 980.56 758.33 977.15 751.24 971.85 761.55 955.48 766.91 903.05 749.37 903.44 765.69 937.39 777.45 955.67 783.78 961.7 780.83 971.85 761.55 977.15 751.24 984.19 768.3 984.25 765.6 985.18 761.92 1006.58 764.22"/>
  </g>
  <g id="G.1.5">
    <polygon class="cls-1" points="903.05 749.37 872.09 739.02 872.52 752.75 872.59 755.02 884.35 759.09 903.44 765.69 903.05 749.37"/>
  </g>
  <g id="I.1.3">
    <polygon class="cls-1" points="840.36 738.92 857.19 734.47 856.65 718.6 819.58 728.96 820.29 744.5 840.36 738.92"/>
  </g>
  <g id="I.1.4">
    <polygon class="cls-1" points="819.58 728.96 820.29 744.5 777.4 756.4 764.59 760.04 748.99 754.35 731.16 747.84 731.03 735.37 719.36 731.13 719.36 728.05 747.98 738.52 765.38 743.43 776.5 740.51 819.58 728.96"/>
  </g>
  <g id="I.1.5">
    <polygon class="cls-2" points="719.39 728.26 703.28 722.48 703.45 725.03 719.55 731.35 719.39 728.26"/>
  </g>
  <g id="K.1.3">
    <polygon class="cls-2" points="683.91 703.48 684.34 710.01 697.19 714.85 702.59 713.45 701.1 698.93 683.91 703.48"/>
  </g>
  <g id="K.1.5">
    <polyline class="cls-2" points="572.89 694.46 573.35 707.68 582.85 711.41 594.77 708.15 594.13 702.87 572.89 694.46"/>
  </g>
  <g id="B.1.3">
    <polygon class="cls-1" points="1769.87 921.36 1766.29 941.49 1743.02 960.71 1747.56 938.25 1769.87 921.36"/>
  </g>
  <g id="B.1.4">
    <polygon class="cls-1" points="1715.88 988.24 1715.88 988.24 1715.88 988.24 1715.88 988.24 1743.02 960.71 1745.29 949.48 1747.56 938.25 1712 973.36 1592.02 936.65 1588.39 959.06 1646.4 977.79 1655.75 969.18 1715.88 988.24"/>
  </g>
  <g id="B.1.5">
    <polygon class="cls-1" points="1592.02 936.65 1588.39 959.06 1588.39 959.06 1588.39 959.06 1545.92 945.6 1532.96 941.49 1528.37 940.04 1528.82 936.65 1528.82 936.65 1530.25 927.11 1531.56 918.15 1592.02 936.65"/>
  </g>
  <g id="A.1.3">
    <polygon class="cls-1" points="1866.01 1133.94 1878.8 1114.53 1885.63 1116.9 1884.69 1120.7 1872.43 1140.48 1859.25 1161.77 1866.01 1133.94"/>
  </g>
  <g id="A.1.4">
    <polygon class="cls-1" points="1865.83 1134.7 1827.63 1194.71 1664.18 1131.21 1658.95 1158.98 1762.82 1200.75 1820.69 1224.02 1829.95 1209.07 1859.25 1161.77 1866.01 1133.94 1865.83 1134.7"/>
  </g>
  <g id="A.1.5">
    <polygon class="cls-1" points="1602.55 1136.3 1658.95 1158.98 1664.18 1131.21 1582.15 1099.34 1580.9 1106.88 1569.06 1118.78 1568.44 1122.58 1602.55 1136.3"/>
  </g>
  <g id="E.2.6">
    <polygon class="cls-1" points="1289.56 745.05 1289.56 745.05 1263.45 755.83 1262.31 772.88 1278.22 766.3 1288.87 761.88 1288.87 761.88 1289.56 745.05"/>
  </g>
  <g id="E.2.7">
    <polygon class="cls-1" points="1194.31 784.59 1217.62 791.37 1228.11 787.03 1262.31 772.88 1263.45 755.83 1218.61 773.74 1151.8 755 1151.13 772.03 1194.31 784.59"/>
  </g>
  <g id="E.2.8">
    <polygon class="cls-1" points="1151.13 772.03 1126.94 764.99 1112.04 760.65 1112.11 758.29 1112.11 758.29 1112.53 743.98 1151.8 755 1151.13 772.03 1126.94 764.99 1151.13 772.03"/>
  </g>
  <g id="F.2.6">
    <polygon class="cls-1" points="863.1 854.56 862.38 835.17 907.08 819.68 906.5 839.75 863.1 854.56 863.1 854.56"/>
  </g>
  <g id="F.2.7">
    <polygon class="cls-1" points="772.16 870.52 735.06 853.4 733.7 834.05 791.2 859.68 862.38 835.17 863.1 854.56 809.02 873.86 792.32 879.82 772.16 870.52"/>
  </g>
  <g id="F.2.8">
    <polygon class="cls-1" points="703.95 838.79 704.1 820.88 733.7 834.05 735.06 853.4 714.39 843.87 703.95 838.79"/>
  </g>
  <g id="C.2.6">
    <polygon class="cls-1" points="1391.89 884.83 1391.89 884.83 1373.83 895.38 1375.9 874.17 1404.71 857.9 1404.89 866.17 1404.89 871.12 1404.89 876.64 1391.89 884.83"/>
  </g>
  <g id="C.2.7">
    <polygon class="cls-1" points="1290.89 914.32 1322.42 925.41 1334.59 918.3 1373.83 895.38 1375.9 874.17 1324.31 903.32 1234.42 872.84 1233.11 894.01 1290.89 914.32"/>
  </g>
  <g id="C.2.8">
    <polygon class="cls-1" points="1234.42 872.84 1233.11 894.01 1201.07 882.74 1182.47 876.2 1182.47 872.84 1182.47 865.6 1182.47 855.22 1234.42 872.84"/>
  </g>
  <g id="D.2.6">
    <polygon class="cls-1" points="1510.93 800.5 1508.42 819.5 1522.88 810.12 1530.24 805.3 1530.52 801.52 1530.8 798.13 1530.8 798.13 1531.18 792.29 1531.46 788.57 1531.49 787.71 1510.93 800.5 1510.93 800.5"/>
  </g>
  <g id="D.2.7">
    <polygon class="cls-1" points="1510.93 800.5 1471.3 822.71 1384.6 799.47 1382.69 818.44 1438.58 833.99 1468.88 842.41 1478.19 837.02 1508.42 819.5 1510.93 800.5"/>
  </g>
  <g id="D.2.8">
    <polygon class="cls-1" points="1335.62 786.35 1335.62 805.35 1382.69 818.44 1384.6 799.47 1335.62 786.35"/>
  </g>
  <g id="H.2.6">
    <polygon class="cls-1" points="685.74 767.88 687.11 785.16 710.89 778.32 731.28 772.4 731.22 755.34 685.74 767.88"/>
  </g>
  <g id="H.2.7">
    <polygon class="cls-1" points="636.01 799.87 687.11 785.16 685.74 767.88 618.61 786.51 576.44 767.02 578.27 784.27 605.59 797.33 620.33 804.38 636.01 799.87"/>
  </g>
  <g id="H.2.8">
    <polygon class="cls-1" points="576.44 767.02 551.64 755.56 553.27 770.06 553.54 772.45 562.96 776.96 578.27 784.27 576.44 767.02"/>
  </g>
  <g id="G.2.6">
    <polygon class="cls-1" points="1039.13 723.42 1039.05 739.03 1025 744.16 1006.7 750.15 1006.72 733.67 1039.13 723.42"/>
  </g>
  <g id="G.2.7">
    <polygon class="cls-1" points="937.13 760.77 903.05 749.37 902.65 732.92 955.29 749.9 1006.72 733.67 1006.7 750.15 980.56 758.33 977.15 751.24 971.85 761.55 967.48 762.98 955.48 766.91 903.05 749.37 937.13 760.77"/>
  </g>
  <g id="G.2.8">
    <polygon class="cls-1" points="883.9 742.97 872.09 739.02 872.02 736.73 871.58 722.89 902.65 732.92 903.05 749.37 883.9 742.97"/>
  </g>
  <g id="I.2.6">
    <polygon class="cls-1" points="856.33 703.29 856.65 718.6 819.58 728.96 818.86 713.3 856.33 703.29"/>
  </g>
  <g id="I.2.7">
    <polygon class="cls-1" points="818.86 713.3 775.6 724.49 763.89 727.52 746.97 722.56 718.29 712.62 719.39 728.26 747.98 738.52 765.38 743.43 776.5 740.51 819.58 728.96 818.86 713.3"/>
  </g>
  <g id="I.2.8">
    <polygon class="cls-1" points="718.29 712.62 702.14 707.03 703.28 722.48 719.39 728.26 718.29 712.62"/>
  </g>
  <g id="K.2.6">
    <polygon class="cls-2" points="682.77 688.76 700.64 684.87 701.57 699.12 683.91 703.48 682.77 688.76"/>
  </g>
  <g id="K.2.7">
    <polygon class="cls-2" points="594.13 702.87 592.67 688.17 625.22 700.7 646.17 695.86 648.68 696.88 682.77 688.76 683.91 703.48 673.54 706.01 646.17 695.86 602.31 706.19 594.13 702.87"/>
  </g>
  <g id="K.2.8">
    <polygon class="cls-2" points="571.3 679.84 592.67 688.17 594.13 702.87 572.89 694.46 571.3 679.84"/>
  </g>
  <g id="B.2.6">
    <polygon class="cls-1" points="1774.65 896.66 1769.87 921.36 1747.56 938.25 1752.15 915.53 1774.65 896.66"/>
  </g>
  <g id="B.2.7">
    <polygon class="cls-1" points="1595.69 913.97 1592.02 936.65 1669.53 960.37 1669.53 960.37 1669.53 960.37 1669.53 960.37 1712 973.36 1720.44 965.03 1720.44 965.03 1720.44 965.03 1720.44 965.03 1734 951.64 1747.56 938.25 1749.09 930.68 1752.15 915.53 1716.62 949.63 1595.69 913.97"/>
  </g>
  <g id="B.2.8">
    <polygon class="cls-1" points="1595.69 913.97 1592.02 936.65 1549.24 923.56 1531.56 918.15 1532.37 913.97 1533.4 905.47 1534.78 896.01 1595.69 913.97"/>
  </g>
  <g id="A.2.6">
    <polygon class="cls-1" points="1872.89 1105.68 1866.01 1133.94 1879.14 1113.16 1891.32 1093.87 1892.28 1090.02 1885.38 1087.71 1885.94 1085.44 1872.89 1105.68"/>
  </g>
  <g id="A.2.7">
    <polygon class="cls-1" points="1836.85 1180.11 1866.01 1133.94 1872.89 1105.68 1834.67 1164.93 1669.5 1103.02 1664.18 1131.21 1769.13 1171.99 1827.63 1194.71 1836.85 1180.11"/>
  </g>
  <g id="A.2.8">
    <polygon class="cls-1" points="1669.5 1103.02 1664.18 1131.21 1607.23 1109.08 1572.8 1095.7 1573.43 1091.85 1585.3 1080.24 1586.66 1071.97 1669.5 1103.02"/>
  </g>
  <g id="E.3.9">
    <polygon class="cls-1" points="1290.65 728.32 1264.61 738.62 1263.45 755.83 1289.56 745.05 1290.65 728.02 1290.65 728.32"/>
  </g>
  <g id="E.3.10">
    <polygon class="cls-1" points="1264.61 738.62 1219.61 755.95 1152.48 737.82 1151.8 755 1195.19 767.17 1218.61 773.74 1263.45 755.83 1264.61 738.62"/>
  </g>
  <g id="E.3.11">
    <polygon class="cls-1" points="1151.8 755 1112.53 743.98 1112.6 741.6 1112.6 741.6 1113.03 727.17 1152.48 737.82 1151.8 755 1127.5 748.18 1151.8 755"/>
  </g>
  <g id="F.3.10">
    <polygon class="cls-1" points="838.25 840.63 813.43 829.96 813.43 829.96 812.46 810.42 769.95 793.4 778.41 790.86 754.05 781.22 714.61 792.66 716.01 811.61 700.04 816.43 700.25 819.13 791.2 859.68 838.37 843.44 838.25 840.63"/>
  </g>
  <g id="F.3.9">
    <polygon class="cls-1" points="911.18 815.65 871.07 800.58 870.77 791.85 803.3 766.93 754.05 781.22 778.41 790.86 798.73 784.76 826.43 795.42 816.29 798.58 811.89 796.86 793.13 802.68 812.46 810.42 813.43 829.96 813.43 829.96 838.25 840.63 838.37 843.44 911.24 818.35 911.18 815.65"/>
  </g>
  <g id="C.3.10">
    <polygon class="cls-1" points="1319.97 868.43 1320.33 868.24 1322.12 846.86 1257.01 826.78 1263.42 823.79 1226.41 812.48 1196.04 825.91 1194.97 846.6 1182.62 852.27 1182.47 855.22 1324.31 903.32 1358.55 883.98 1358.83 880.9 1319.97 868.43"/>
  </g>
  <g id="C.3.9">
    <polygon class="cls-1" points="1363.73 837.23 1364.89 824.95 1264.16 795.79 1226.41 812.48 1263.42 823.79 1278.77 816.63 1320.65 829.15 1313.13 832.88 1306.43 830.85 1292.45 837.71 1322.12 846.86 1320.33 868.24 1319.97 868.43 1358.83 880.9 1358.55 883.98 1411.08 854.3 1411.39 851.35 1363.73 837.23"/>
  </g>
  <g id="D.3.9">
    <polygon class="cls-2" points="1513.46 781.31 1510.93 800.5 1531.28 787.65 1532.81 770.84 1513.46 781.31"/>
  </g>
  <g id="D.3.10">
    <polygon class="cls-1" points="1386.53 780.32 1473.74 802.81 1513.46 781.31 1510.93 800.5 1480.63 817.48 1471.3 822.71 1440.82 814.54 1384.6 799.47 1386.53 780.32 1443.07 794.9 1386.53 780.32"/>
  </g>
  <g id="D.3.11">
    <polygon class="cls-1" points="1335.62 767.2 1335.62 786.35 1384.6 799.47 1386.53 780.32 1335.62 767.2"/>
  </g>
  <g id="H.3.9">
    <polygon class="cls-1" points="731.15 737.95 684.36 750.46 685.74 767.88 731.22 755.34 731.15 737.95"/>
  </g>
  <g id="H.3.10">
    <polygon class="cls-1" points="574.59 749.62 616.88 768.49 684.36 750.46 685.74 767.88 634.38 782.14 618.61 786.51 603.83 779.68 576.44 767.02 574.59 749.62"/>
  </g>
  <g id="H.3.11">
    <polygon class="cls-1" points="574.59 749.62 576.44 767.02 561.09 759.93 551.64 755.56 551.64 755.56 550.77 739.24 574.59 749.62"/>
  </g>
  <g id="G.3.9">
    <polygon class="cls-1" points="1039.01 707.45 1006.74 717.06 1006.72 733.67 1025.09 727.87 1039.13 723.42 1039.01 707.45"/>
  </g>
  <g id="G.3.10">
    <polygon class="cls-1" points="1006.74 717.06 1006.72 733.67 967.34 746.1 955.29 749.9 902.65 732.92 902.26 716.33 955.1 732.76 1006.74 717.06"/>
  </g>
  <g id="G.3.11">
    <polygon class="cls-1" points="902.26 716.33 871.07 706.64 871.51 720.59 871.58 722.89 883.43 726.72 902.65 732.92 902.26 716.33"/>
  </g>
  <g id="I.3.9">
    <polygon class="cls-1" points="856.33 703.29 856.19 687.88 818.13 697.53 818.86 713.3 839.09 708.07 856.33 703.29"/>
  </g>
  <g id="I.3.10">
    <polygon class="cls-1" points="818.13 697.53 774.68 708.34 763.7 711.11 745.95 706.48 717.18 696.87 718.29 712.62 746.97 722.56 763.89 727.52 775.6 724.49 818.86 713.3 818.13 697.53"/>
  </g>
  <g id="I.3.11">
    <polygon class="cls-1" points="717.18 696.87 700.99 691.46 702.14 707.03 718.29 712.62 717.18 696.87"/>
  </g>
  <g id="K.3.9">
    <polygon class="cls-2" points="681.5 673.87 682.77 688.76 700.64 684.87 699.89 675.74 689.83 672.21 681.5 673.87"/>
  </g>
  <g id="K.3.10">
    <polygon class="cls-2" points="591.21 673.36 592.67 688.17 625.22 700.7 646.17 695.86 648.68 696.88 682.77 688.76 681.5 673.87 626.32 686.28 591.21 673.36"/>
  </g>
  <g id="K.3.11">
    <polygon class="cls-2" points="570.33 665.68 591.21 673.36 592.67 688.17 571.3 679.84 570.33 665.68"/>
  </g>
  <g id="B.3.9">
    <polygon class="cls-1" points="1778.44 872.95 1774.65 896.66 1752.15 915.53 1756.8 892.54 1778.44 872.95"/>
  </g>
  <g id="B.3.10">
    <polygon class="cls-1" points="1673.8 937.01 1716.62 949.63 1716.62 949.63 1716.62 949.63 1725.06 941.54 1725.06 941.54 1725.06 941.54 1752.15 915.53 1754.48 904.03 1756.8 892.54 1721.3 925.61 1599.41 891.03 1595.69 913.97 1673.8 937.01"/>
  </g>
  <g id="B.3.11">
    <polygon class="cls-1" points="1538.04 873.62 1599.41 891.03 1595.69 913.97 1534.78 896.01 1538.04 873.62"/>
  </g>
  <g id="A.3.10">
    <polygon class="cls-1" points="1790.38 1096.24 1790.67 1095.87 1796.97 1067.26 1680.65 1027.83 1686.23 1022.06 1621.81 1000.44 1593.91 1026.14 1589.39 1053.57 1577.86 1064.52 1577.23 1068.43 1834.67 1164.93 1860.21 1125.34 1861.2 1121.2 1790.38 1096.24"/>
  </g>
  <g id="A.3.9">
    <polygon class="cls-1" points="1790.38 1096.24 1861.2 1121.2 1860.21 1125.34 1898.06 1066.64 1899.02 1062.74 1826.73 1039.39 1826.73 1039.39 1830.15 1024.3 1655.75 969.18 1621.81 1000.44 1686.23 1022.06 1699.5 1008.34 1773.07 1032.43 1766.98 1039.68 1755.08 1035.74 1743.55 1049.15 1796.97 1067.26 1790.38 1096.24"/>
  </g>
  <g id="E.4.12">
    <polygon class="cls-1" points="1264.61 738.62 1265.78 721.27 1292.42 711.68 1290.65 728.02 1290.65 728.32 1290.65 728.32 1264.61 738.62"/>
  </g>
  <g id="E.4.13">
    <polygon class="cls-1" points="1230.18 751.88 1264.61 738.62 1265.78 721.27 1220.62 737.99 1153.16 720.5 1152.48 737.82 1196.07 749.59 1219.61 755.95 1230.18 751.88"/>
  </g>
  <g id="E.4.14">
    <polygon class="cls-1" points="1153.16 720.5 1152.48 737.82 1113.03 727.17 1113.1 724.77 1113.12 721.11 1113.53 710.22 1153.16 720.5 1153.16 720.5"/>
  </g>
  <g id="D.4.13">
    <polygon class="cls-1" points="1462.9 776.56 1463.18 776.42 1465.49 757.1 1402.25 742.18 1407.26 739.95 1371.08 731.47 1347.22 741.53 1345.53 760.28 1335.86 764.52 1335.62 767.2 1473.74 802.81 1500.04 788.57 1500.4 785.79 1462.9 776.56"/>
  </g>
  <g id="D.4.12">
    <polygon class="cls-1" points="1462.9 776.56 1500.4 785.79 1500.04 788.57 1540.82 766.51 1541.18 763.84 1497.15 753.68 1498.78 740.81 1400.94 718.88 1371.08 731.47 1407.26 739.95 1419.32 734.59 1460 743.95 1454.13 746.72 1447.64 745.22 1436.74 750.32 1465.49 757.1 1463.18 776.42 1462.9 776.56"/>
  </g>
  <g id="H.4.13">
    <polygon class="cls-1" points="661.29 754.04 643.06 746.15 643.06 746.15 641.5 728.62 609.92 715.99 617.91 714.09 599.66 706.88 562.58 715.43 564.43 732.5 549.47 736.1 549.74 738.53 616.88 768.49 661.51 756.56 661.29 754.04"/>
  </g>
  <g id="H.4.12">
    <polygon class="cls-1" points="643.06 746.15 661.29 754.04 661.51 756.56 731.15 737.95 730.99 735.52 697.6 722.97 697.6 722.97 696.99 714.83 646.27 696.12 599.66 706.88 617.91 714.09 637.13 709.53 657.83 717.49 648.21 719.84 644.93 718.56 627.17 722.88 641.5 728.62 643.06 746.15 643.06 746.15"/>
  </g>
  <g id="G.4.12">
    <polygon class="cls-1" points="1039.01 707.45 1039.13 691.04 1006.76 700.32 1006.74 717.06 1039.01 707.45"/>
  </g>
  <g id="G.4.13">
    <polygon class="cls-1" points="936.6 727.01 955.1 732.76 967.2 729.08 1006.74 717.06 1006.76 700.32 954.91 715.47 901.86 699.61 902.26 716.33 936.6 727.01"/>
  </g>
  <g id="G.4.14">
    <polygon class="cls-1" points="901.86 699.61 902.26 716.33 882.97 710.34 871.07 706.64 871 704.31 871.06 690.36 901.86 699.61"/>
  </g>
  <g id="I.4.12">
    <polygon class="cls-1" points="856.19 687.88 855.91 672.77 817.4 681.63 818.13 697.53 838.45 692.47 856.19 687.88"/>
  </g>
  <g id="I.4.13">
    <polygon class="cls-1" points="760.43 695.26 817.4 681.63 760.43 695.26 716.07 681 717.18 696.87 745.95 706.48 763.7 711.11 774.68 708.34 818.13 697.53 817.4 681.63 760.43 695.26"/>
  </g>
  <g id="I.4.14">
    <polygon class="cls-1" points="716.07 681 717.18 696.87 700.99 691.46 699.83 675.78 716.07 681"/>
  </g>
  <g id="K.4.12">
    <polygon class="cls-2" points="680.46 659.01 701.44 654.49 702.5 667.64 689.74 670.34 689.83 672.21 681.5 673.87 680.46 659.01"/>
  </g>
  <g id="K.4.13">
    <polygon class="cls-1" points="680.46 659.01 681.5 673.87 626.32 686.28 614.07 681.77 591.21 673.36 589.73 658.45 624.93 670.92 680.46 659.01"/>
  </g>
  <g id="K.4.14">
    <polygon class="cls-1" points="589.73 658.45 569.58 651.24 570.33 665.68 578.31 668.61 591.21 673.36 589.73 658.45"/>
  </g>
  <g id="B.4.13">
    <polygon class="cls-1" points="1693.29 886.19 1693.55 885.98 1697.86 862.78 1610.63 840.23 1615.43 836.88 1572.15 825.78 1549.86 840.58 1547.54 862.36 1538.82 869.19 1538.04 873.62 1721.3 925.61 1744.89 903.63 1745.56 900.28 1693.29 886.19"/>
  </g>
  <g id="B.4.12">
    <polygon class="cls-1" points="1725.3 852.86 1728.12 838.18 1600.11 807.61 1572.15 825.78 1615.43 836.88 1626.92 828.88 1682.59 842.88 1677.16 847.06 1668.22 844.79 1658.05 852.49 1697.86 862.78 1693.55 885.98 1693.29 886.19 1745.56 900.28 1744.89 903.63 1780.82 870.16 1781.48 866.97 1725.3 852.86"/>
  </g>
  <g id="E.5.16">
    <polygon class="cls-1" points="1221.82 717.11 1221.82 717.11 1222.81 699.65 1173.5 687.99 1179.04 686.24 1150.66 679.57 1124.66 687.48 1124.11 704.47 1113.6 707.8 1113.53 710.22 1220.62 737.99 1250.49 726.93 1250.65 724.42 1221.82 717.11"/>
  </g>
  <g id="E.5.15">
    <polygon class="cls-1" points="1259.62 698.56 1260.38 686.92 1183.36 669.64 1150.66 679.57 1179.04 686.24 1192.35 682.03 1224.23 689.37 1217.66 691.55 1212.59 690.37 1200.43 694.36 1222.81 699.65 1221.82 717.11 1221.82 717.11 1250.65 724.42 1250.49 726.93 1297.09 709.68 1297.27 707.26 1259.62 698.56"/>
  </g>
  <g id="G.5.16">
    <polygon class="cls-1" points="989.16 703.03 966.47 696.4 966.47 696.4 966.33 679.55 927.23 668.93 933.47 667.33 910.88 661.24 881.76 668.46 882.23 684.88 870.49 687.92 870.56 690.26 954.91 715.47 989.17 705.45 989.16 703.03"/>
  </g>
  <g id="G.5.15">
    <polygon class="cls-1" points="966.47 696.4 989.16 703.03 989.17 705.45 1042.87 689.76 1042.89 687.42 1009.29 678.58 1009.31 667.95 947.59 652.14 910.88 661.24 933.47 667.33 948.51 663.49 973.92 670.19 966.44 672.18 962.41 671.1 948.6 674.74 966.33 679.55 966.47 696.4 966.47 696.4"/>
  </g>
  <g id="I.5.16">
    <polygon class="cls-1" points="797.93 683.97 778.94 677.99 778.94 677.99 778.05 662.01 745.12 652.41 751.93 650.96 732.83 645.45 701.22 651.99 702.36 667.58 689.63 670.33 689.8 672.56 760.43 695.26 798.05 686.26 797.93 683.97"/>
  </g>
  <g id="I.5.15">
    <polygon class="cls-1" points="857.13 669.89 825.65 661.06 825.65 661.06 825.23 651.53 772.77 637.19 732.83 645.45 751.93 650.96 768.32 647.48 789.83 653.55 781.64 655.35 778.23 654.37 763.14 657.66 778.05 662.01 778.94 677.99 778.94 677.99 797.93 683.97 798.05 686.26 857.21 672.11 857.13 669.89"/>
  </g>
  <g id="K.5.16">
    <polygon class="cls-1" points="661.39 660.9 646.33 655.67 646.33 655.67 645.04 640.66 618.76 632.23 625.37 630.96 610.06 626.1 579.43 631.86 580.91 646.53 568.6 648.94 568.81 651.04 624.93 670.92 661.57 663.06 661.39 660.9"/>
  </g>
  <g id="K.5.15">
    <polygon class="cls-1" points="646.33 655.67 661.39 660.9 661.57 663.06 701.44 654.49 701.23 651.99 719.28 648.55 691.72 640.09 691.07 631.46 648.87 618.8 610.06 626.1 625.37 630.96 641.31 627.89 658.55 633.24 650.56 634.81 647.84 633.96 633.15 636.85 645.04 640.66 646.33 655.67 646.33 655.67"/>
  </g>
</svg>