<?xml version="1.0" encoding="UTF-8"?>
<svg xmlns="http://www.w3.org/2000/svg" viewBox="0 0 2000 1498">
  <defs>
    <style>
      .cls-1, .cls-2 {
        fill: none;
        stroke: #000;
        stroke-miterlimit: 10;
      }

      .cls-2 {
        fill-rule: evenodd;
      }
    </style>
  </defs>
  <g id="E.0.1">
    <polygon class="cls-1" points="986.09 810.49 986.14 827.36 1010.48 823.51 1010.51 805.88 986.09 810.49"/>
  </g>
  <g id="E.0.2">
    <polygon class="cls-1" points="867.62 783.7 867.98 803.88 881.28 813.31 888.71 811.65 901.51 821.79 906.15 820.92 930.58 840.2 986.14 827.36 986.09 810.49 918.72 823.21 867.62 783.7"/>
  </g>
  <g id="F.0.1">
    <polyline class="cls-2" points="538.07 841.51 540.1 859.08 597.98 849.32 596.66 831.46 538.07 841.51"/>
  </g>
  <g id="F.0.2">
    <polygon class="cls-1" points="540.1 859.08 493.32 839.52 452.97 855.31 440.29 827.76 438.99 811.71 456.77 853.49 493.32 839.52 510.02 846.96 538.07 841.51 540.1 859.08"/>
  </g>
  <g id="C.0.1">
    <polygon class="cls-2" points="910.96 938.57 911.42 959.18 972.69 946.35 972.75 924.34 910.96 938.57"/>
  </g>
  <g id="C.0.2">
    <polygon class="cls-2" points="768.34 896.68 769.61 921.48 824.84 982.72 911.42 959.18 910.43 938.81 822.85 958.87 768.34 896.68"/>
  </g>
  <g id="D.0.1">
    <polygon class="cls-1" points="1207.99 871.95 1207.2 888.96 1186.26 876.07 1207.99 871.95"/>
  </g>
  <g id="D.0.2">
    <polygon class="cls-1" points="1010.54 848.71 1010.57 871.68 1049.81 899.21 1049.76 884.89 1058.3 882.95 1010.54 848.71"/>
  </g>
  <g id="H.0.2">
    <polygon class="cls-1" points="433.67 773.54 424.38 774.67 412.56 742.63 414.77 760.1 428.32 794.15 436.37 792.98 433.67 773.54"/>
  </g>
  <g id="G.0.1">
    <polygon class="cls-2" points="795.24 760.83 796 776.06 840.99 769.37 840.99 753.57 795.24 760.83"/>
  </g>
  <g id="G.0.2">
    <polygon class="cls-2" points="795.24 760.83 796 776.06 789.82 777.27 746.9 767.17 795.24 760.83"/>
  </g>
  <g id="I.0.1">
    <polygon class="cls-2" points="609.54 734.02 587.01 707.16 587.77 723.8 608.93 747.1 671.73 739.49 670.61 725.46 671.73 739.49 697.89 735.87 696.85 721.68 670.61 725.46 609.54 734.02"/>
  </g>
  <g id="K.0.2">
    <polygon class="cls-1" points="522.34 675.66 523.25 681.07 539.78 703.83 540.63 711.51 586.81 706.49 585.53 692.32 538.87 698.17 522.34 675.66"/>
  </g>
  <g id="B.0.1">
    <polygon class="cls-2" points="1217.36 1038.97 1216 1062.38 1280.11 1043.93 1281.17 1019.79 1217.36 1038.97"/>
  </g>
  <g id="B.0.2">
    <polygon class="cls-2" points="1029.22 982.92 1028.7 1008.68 1126.67 1091.54 1216 1062.38 1217.36 1038.97 1125.54 1066.58 1029.22 982.92"/>
  </g>
  <g id="A.0.1">
    <polygon class="cls-1" points="1029.29 1248.88 1029.05 1277.55 1117.12 1246.51 1117.74 1217.14 1029.29 1248.88"/>
  </g>
  <g id="A.0.2">
    <polygon class="cls-1" points="809.28 1157.44 810.11 1188.35 898.91 1328.65 1029.05 1277.55 1029.29 1248.88 899.68 1295.39 809.28 1157.44"/>
  </g>
  <g id="E.1.3">
    <polygon class="cls-1" points="986.04 793.49 986.09 810.49 1010.51 805.88 1010.56 789.01 986.04 793.49"/>
  </g>
  <g id="E.1.4">
    <polygon class="cls-1" points="885.89 781.54 886.35 798.18 918.72 823.21 986.09 810.49 986.04 793.49 918.38 805.82 885.89 781.54"/>
  </g>
  <g id="E.1.5">
    <polygon class="cls-1" points="867.09 767.5 867.62 783.7 886.35 798.18 885.89 781.54 867.09 767.5"/>
  </g>
  <g id="F.1.3">
    <polygon class="cls-1" points="535.71 824.42 538.07 841.51 596.66 831.46 594.91 814.02 535.71 824.42"/>
  </g>
  <g id="F.1.4">
    <polygon class="cls-1" points="444.95 827.79 442.55 810.46 452.81 837.57 535.71 824.42 538.07 841.51 510.02 846.96 493.32 839.52 456.77 853.49 444.95 827.79"/>
  </g>
  <g id="F.1.5">
    <polygon class="cls-1" points="436.64 794.85 438.99 811.71 444.95 827.79 442.55 810.46 436.64 794.85"/>
  </g>
  <g id="C.1.3">
    <polyline class="cls-2" points="910.49 917.75 910.96 938.57 972.75 924.34 972.62 903.91 910.49 917.75"/>
  </g>
  <g id="C.1.4">
    <polygon class="cls-2" points="786.97 898.9 788.06 919.18 822.85 958.87 910.96 938.57 910.16 917.69 821.88 937.48 786.97 898.9"/>
  </g>
  <g id="C.1.5">
    <polygon class="cls-2" points="767.19 877.04 768.34 896.68 788.06 919.18 786.5 898.19 767.19 877.04"/>
  </g>
  <g id="D.1.3">
    <polygon class="cls-1" points="1209 853.02 1165.03 863.34 1185.38 876.07 1207.99 871.95 1209 853.02"/>
  </g>
  <g id="D.1.4">
    <polygon class="cls-1" points="1037.26 848.82 1037.07 867.62 1058.3 882.95 1079.38 877.83 1037.26 848.82"/>
  </g>
  <g id="D.1.5">
    <polygon class="cls-1" points="1010.6 830.45 1010.54 848.71 1037.07 867.62 1037.26 848.82 1010.6 830.45"/>
  </g>
  <g id="H.1.4">
    <polygon class="cls-2" points="414.77 739.43 416.59 753.78 424.38 774.67 433.67 773.54 433.08 769.32 450.56 766.81 449.07 755.79 422.16 759.06 414.77 739.43"/>
  </g>
  <g id="H.1.5">
    <polygon class="cls-2" points="416.59 753.78 412.56 742.63 410.46 727.97 414.77 739.43 416.59 753.78"/>
  </g>
  <g id="G.1.3">
    <polyline class="cls-2" points="794.48 745.49 795.24 760.83 840.99 753.57 840.41 738.45 794.48 745.49"/>
  </g>
  <g id="G.1.4">
    <polygon class="cls-2" points="795.24 760.83 746.9 767.17 711.06 755.02 710.26 750.91 709.2 735.87 730.02 755.36 794.46 745.2 795.24 760.83"/>
  </g>
  <g id="G.1.5">
    <polygon class="cls-2" points="697.06 724.5 698.13 739.18 710.26 750.91 709.2 735.87 697.06 724.5"/>
  </g>
  <g id="I.1.3">
    <polygon class="cls-2" points="669.48 711.33 670.61 725.46 696.85 721.68 695.82 707.68 669.48 711.33"/>
  </g>
  <g id="I.1.4">
    <polygon class="cls-2" points="593.99 703.22 595.35 717.09 609.54 734.02 670.61 725.46 669.48 711.33 608.17 719.63 593.99 703.22"/>
  </g>
  <g id="I.1.5">
    <polygon class="cls-2" points="585.66 693.59 587.01 707.16 595.35 717.09 593.99 703.22 585.66 693.59"/>
  </g>
  <g id="K.1.4">
    <polygon class="cls-2" points="527.03 671.25 528.48 684.02 538.87 698.17 585.53 692.32 584.23 679.3 537.4 684.97 527.03 671.25"/>
  </g>
  <g id="K.1.5">
    <polygon class="cls-2" points="520.9 663.15 522.34 675.66 528.48 684.02 527.03 671.25 520.9 663.15"/>
  </g>
  <g id="B.1.3">
    <polygon class="cls-2" points="1218.73 1015.28 1217.36 1038.97 1281.17 1019.79 1282.9 996.6 1218.73 1015.28"/>
  </g>
  <g id="B.1.4">
    <polygon class="cls-2" points="1064.1 989.86 1063.7 1012.87 1125.54 1066.58 1217.36 1038.97 1218.73 1015.28 1126.37 1042.16 1064.1 989.86"/>
  </g>
  <g id="B.1.5">
    <polygon class="cls-2" points="1029.4 960.72 1029.22 982.92 1063.7 1012.87 1064.1 989.86 1029.4 960.72"/>
  </g>
  <g id="A.1.3">
    <polygon class="cls-1" points="1029.53 1219.75 1029.29 1248.88 1117.74 1217.14 1118.66 1188.75 1029.53 1219.75"/>
  </g>
  <g id="A.1.4">
    <polygon class="cls-1" points="839.01 1177.26 840.97 1205.8 899.68 1295.39 1029.29 1248.88 1029.53 1219.75 898.83 1265.21 839.01 1177.26"/>
  </g>
  <g id="A.1.5">
    <polygon class="cls-1" points="807.9 1130.47 809.28 1157.44 840.97 1205.8 839.01 1177.26 807.9 1130.47"/>
  </g>
  <g id="E.2.6">
    <polygon class="cls-1" points="985.99 776.33 986.04 793.49 1010.56 789.01 1010.75 784.1 1026.5 781.26 1026.59 769.2 985.99 776.33"/>
  </g>
  <g id="E.2.7">
    <polygon class="cls-1" points="885.42 764.76 885.89 781.54 918.38 805.82 986.04 793.49 985.99 776.33 918.03 788.29 885.42 764.76"/>
  </g>
  <g id="E.2.8">
    <polygon class="cls-1" points="866.57 751.16 867.09 767.5 885.89 781.54 885.42 764.76 866.57 751.16"/>
  </g>
  <g id="F.2.6">
    <polyline class="cls-1" points="533.95 805.89 593.14 796.43 594.91 814.02 535.71 824.42 533.95 805.89"/>
  </g>
  <g id="F.2.7">
    <polygon class="cls-1" points="440.13 792.98 442.55 810.46 452.81 837.57 535.71 824.42 533.95 805.89 450.3 819.26 440.13 792.98"/>
  </g>
  <g id="F.2.8">
    <polygon class="cls-1" points="434.27 777.85 436.64 794.85 442.55 810.46 440.13 792.98 434.27 777.85"/>
  </g>
  <g id="C.2.6">
    <polygon class="cls-2" points="972.49 883.27 910.02 896.7 910.49 917.75 972.62 903.91 972.49 883.27"/>
  </g>
  <g id="C.2.7">
    <polygon class="cls-2" points="785.86 878.4 786.97 898.9 821.88 937.48 910.49 917.75 910.02 896.7 820.9 915.86 785.86 878.4"/>
  </g>
  <g id="C.2.8">
    <polygon class="cls-2" points="766.03 857.2 767.19 877.04 786.97 898.9 785.86 878.4 766.03 857.2"/>
  </g>
  <g id="D.2.6">
    <polygon class="cls-1" points="1158.09 845.1 1157.42 860.85 1159.96 860.45 1164.45 863.19 1209 853.02 1210.02 833.9 1158.09 845.1"/>
  </g>
  <g id="D.2.7">
    <polygon class="cls-1" points="1037.45 829.83 1037.26 848.82 1080.11 878.12 1157.42 860.85 1158.09 845.1 1084.36 861 1037.45 829.83"/>
  </g>
  <g id="D.2.8">
    <polygon class="cls-1" points="1010.66 812.02 1010.6 830.45 1037.26 848.82 1037.45 829.83 1010.66 812.02"/>
  </g>
  <g id="H.2.6">
    <polygon class="cls-1" points="491.41 733.69 493.32 749.11 544.03 742.02 542.34 726.82 491.41 733.69"/>
  </g>
  <g id="H.2.7">
    <polygon class="cls-2" points="412.61 724.31 414.77 739.43 422.16 759.06 493.32 749.11 491.41 733.69 419.93 743.32 412.61 724.31"/>
  </g>
  <g id="H.2.8">
    <polygon class="cls-2" points="408.34 713.22 410.46 727.97 415.31 739.43 412.61 724.31 408.34 713.22"/>
  </g>
  <g id="G.2.6">
    <polyline class="cls-2" points="793.71 730.03 794.48 745.49 840.41 738.45 839.82 723.21 793.71 730.03"/>
  </g>
  <g id="G.2.7">
    <polyline class="cls-2" points="708.13 720.72 709.2 735.87 730.02 755.36 794.48 745.49 793.71 730.03 728.98 739.59 708.13 720.72"/>
  </g>
  <g id="G.2.8">
    <polygon class="cls-2" points="695.97 709.7 697.06 724.5 709.2 735.87 707.72 720.34 695.97 709.7"/>
  </g>
  <g id="I.2.6">
    <polygon class="cls-2" points="668.34 697.1 669.48 711.33 695.82 707.68 694.88 693.59 668.34 697.1"/>
  </g>
  <g id="I.2.7">
    <polygon class="cls-2" points="592.62 689.25 593.99 703.22 608.17 719.63 669.48 711.33 668.34 697.1 606.8 705.13 592.62 689.25"/>
  </g>
  <g id="I.2.8">
    <polygon class="cls-2" points="584.29 679.93 585.66 693.59 593.99 703.22 592.62 689.25 584.29 679.93"/>
  </g>
  <g id="K.2.7">
    <polygon class="cls-2" points="525.57 658.41 527.03 671.25 537.4 684.97 584.23 679.3 582.92 666.18 535.93 671.68 525.57 658.41"/>
  </g>
  <g id="K.2.8">
    <polygon class="cls-2" points="519.46 650.57 520.9 663.15 527.03 671.25 525.57 658.41 519.46 650.57"/>
  </g>
  <g id="B.2.6">
    <polygon class="cls-2" points="1220.13 991.28 1218.73 1015.28 1282.9 996.6 1284.65 973.12 1220.13 991.28"/>
  </g>
  <g id="B.2.7">
    <polygon class="cls-2" points="1064.5 966.58 1064.1 989.86 1126.37 1042.16 1218.73 1015.28 1220.13 991.28 1127.21 1017.42 1064.5 966.58"/>
  </g>
  <g id="B.2.8">
    <polygon class="cls-2" points="1029.59 938.27 1029.4 960.72 1064.1 989.86 1064.5 966.58 1029.59 938.27"/>
  </g>
  <g id="A.2.6">
    <polyline class="cls-1" points="1029.77 1190.15 1119.6 1159.9 1118.66 1188.75 1029.53 1219.75 1029.77 1190.15"/>
  </g>
  <g id="A.2.7">
    <polygon class="cls-1" points="1029.53 1219.75 898.83 1265.21 839.01 1177.26 838.51 1149.11 897.97 1234.52 1029.77 1190.15 1029.53 1219.75"/>
  </g>
  <g id="A.2.8">
    <polygon class="cls-1" points="806.49 1103.11 807.9 1130.47 839.01 1177.26 838.51 1149.11 806.49 1103.11"/>
  </g>
  <g id="E.3.9">
    <polygon class="cls-1" points="985.94 759.03 985.99 776.33 1034.12 767.35 1034.34 750.84 985.94 759.03"/>
  </g>
  <g id="E.3.10">
    <polyline class="cls-1" points="884.95 747.85 885.42 764.76 918.03 788.29 985.99 776.33 985.94 759.03 917.68 770.6 884.95 747.85"/>
  </g>
  <g id="E.3.11">
    <polygon class="cls-1" points="866.04 734.69 866.57 751.16 885.42 764.76 884.61 747.41 866.04 734.69"/>
  </g>
  <g id="F.3.10">
    <polygon class="cls-1" points="502 801.77 499.49 796.8 500.06 796.71 497.85 778.86 488.58 761.09 498.16 759.71 492.7 749.69 449.07 755.79 450.56 766.81 450.56 766.81 433.08 769.32 433.93 775.41 434.27 777.85 450.3 819.26 505.4 810.45 505.09 807.87 504.29 801.41 502 801.77"/>
  </g>
  <g id="F.3.9">
    <polygon class="cls-1" points="499.49 796.8 502 801.77 504.29 801.41 505.09 807.87 505.4 810.45 593.14 796.43 592.89 793.91 592.25 787.61 565.8 750.28 555.14 751.81 548.37 741.9 492.7 749.69 498.16 759.71 521.32 756.39 528.08 767.65 516.27 769.39 515.24 767.58 493.62 770.75 497.85 778.86 500.06 796.71 499.49 796.8"/>
  </g>
  <g id="C.3.10">
    <polygon class="cls-1" points="872.98 893.9 862.93 884.41 863.53 884.28 862.81 863.27 862.81 863.27 835.3 838.25 845.48 836.33 829.83 822.4 783.42 830.87 784.11 843.75 784.11 843.75 765.45 847.24 765.86 854.36 766.03 857.2 820.9 915.86 879.72 903.21 879.62 900.17 879.4 892.54 872.98 893.9"/>
  </g>
  <g id="C.3.9">
    <polygon class="cls-1" points="862.93 884.41 872.98 893.9 879.4 892.54 879.72 903.21 972.49 883.27 972.47 880.32 972.42 872.91 906.15 820.92 901.51 821.79 888.71 811.65 829.83 822.4 845.48 836.33 870.03 831.7 888.61 847.45 876.1 849.9 873.17 847.35 850.21 851.81 862.81 863.27 862.81 863.27 863.53 884.28 862.93 884.41"/>
  </g>
  <g id="D.3.9">
    <polyline class="cls-1" points="1158.88 825.44 1158.09 845.1 1210.02 833.9 1211.05 814.6 1158.88 825.44"/>
  </g>
  <g id="D.3.10">
    <polygon class="cls-1" points="1037.64 810.66 1037.45 829.83 1084.36 861 1158.09 845.1 1158.3 825.56 1084.8 840.84 1037.64 810.66"/>
  </g>
  <g id="D.3.11">
    <polygon class="cls-1" points="1010.72 793.43 1010.66 812.02 1037.45 829.83 1037.64 810.66 1010.72 793.43"/>
  </g>
  <g id="H.3.9">
    <polygon class="cls-1" points="489.48 718.15 491.41 733.69 542.34 726.82 540.63 711.51 489.48 718.15"/>
  </g>
  <g id="H.3.10">
    <polygon class="cls-1" points="410.44 709.08 412.61 724.31 419.93 743.32 491.41 733.69 489.48 718.15 417.69 727.47 410.44 709.08"/>
  </g>
  <g id="H.3.11">
    <polygon class="cls-1" points="406.21 698.35 408.34 713.22 412.61 724.31 410.44 709.08 406.21 698.35"/>
  </g>
  <g id="G.3.9">
    <polyline class="cls-2" points="792.93 714.45 793.71 730.03 839.82 723.21 839.23 707.86 792.93 714.45"/>
  </g>
  <g id="G.3.10">
    <polyline class="cls-2" points="707.05 705.45 708.13 720.72 728.98 739.59 793.71 730.03 792.93 714.45 727.94 723.7 707.05 705.45"/>
  </g>
  <g id="G.3.11">
    <polygon class="cls-2" points="694.88 694.81 695.97 709.7 708.13 720.72 707.05 705.45 694.88 694.81"/>
  </g>
  <g id="I.3.9">
    <polyline class="cls-2" points="667.2 682.77 668.34 697.1 694.88 693.59 693.77 679.8 667.2 682.77"/>
  </g>
  <g id="I.3.10">
    <polygon class="cls-2" points="591.24 675.19 592.62 689.25 606.8 705.13 668.34 697.1 667.2 682.77 605.41 690.54 591.24 675.19"/>
  </g>
  <g id="I.3.11">
    <polygon class="cls-2" points="582.92 666.18 584.29 679.93 592.62 689.25 591.24 675.19 582.92 666.18"/>
  </g>
  <g id="K.3.10">
    <polygon class="cls-2" points="524.11 645.48 525.57 658.41 535.93 671.68 582.92 666.18 581.54 652.33 534.44 658.31 524.11 645.48"/>
  </g>
  <g id="K.3.11">
    <polygon class="cls-2" points="518.01 637.91 519.46 650.57 525.57 658.41 524.11 645.48 518.01 637.91"/>
  </g>
  <g id="B.3.9">
    <polyline class="cls-2" points="1221.54 966.97 1220.13 991.28 1284.65 973.12 1286.42 949.36 1221.54 966.97"/>
  </g>
  <g id="B.3.10">
    <polygon class="cls-2" points="1064.91 943.01 1064.5 966.58 1127.21 1017.42 1220.13 991.28 1221.83 967.11 1128.06 992.35 1064.91 943.01"/>
  </g>
  <g id="B.3.11">
    <polygon class="cls-2" points="1029.77 915.55 1029.59 938.27 1064.5 966.58 1064.91 943.01 1029.77 915.55"/>
  </g>
  <g id="A.3.10">
    <polygon class="cls-1" points="805.79 1089.33 806.29 1099.18 806.49 1103.11 897.97 1234.52 985.45 1205.07 985.43 1200.76 985.39 1189.95 978.45 1192.25 956.06 1164.91 956.94 1164.63 956.6 1135.03 909.75 1079.87 924.38 1075.74 898.57 1046.16 832 1064.06 832.79 1081.89 805.79 1089.33"/>
  </g>
  <g id="A.3.9">
    <polygon class="cls-1" points="956.06 1164.91 978.45 1192.25 985.39 1189.95 985.43 1200.76 985.45 1205.07 1119.6 1159.9 1119.73 1155.76 1120.07 1145.37 1005.48 1034.36 995.16 1037.21 981.6 1023.84 898.57 1046.16 924.38 1075.74 959.48 1065.84 991.13 1099.88 973.12 1105.25 968.08 1099.65 934.88 1109.47 956.6 1135.03 956.94 1164.63 956.06 1164.91"/>
  </g>
  <g id="E.4.12">
    <polygon class="cls-1" points="1034.49 733.67 985.89 741.59 985.94 759.03 1034.34 750.84 1034.49 733.67"/>
  </g>
  <g id="E.4.13">
    <polygon class="cls-1" points="884.48 730.79 884.95 747.85 917.68 770.6 985.94 759.03 985.89 741.59 917.33 752.75 884.48 730.79"/>
  </g>
  <g id="E.4.14">
    <polygon class="cls-1" points="865.5 718.09 866.04 734.69 884.95 747.85 884.48 730.79 865.5 718.09"/>
  </g>
  <g id="D.4.13">
    <polygon class="cls-1" points="1133.98 820.73 1124.84 822.6 1112.2 815.14 1112.7 815.04 1113.27 795.42 1113.27 795.42 1077.53 775.19 1086.1 773.64 1065.8 762.3 1026.59 769.2 1026.5 781.26 1026.5 781.26 1010.75 784.1 1010.73 790.77 1010.72 793.43 1084.8 840.84 1133.64 830.69 1133.74 827.85 1133.98 820.73"/>
  </g>
  <g id="D.4.12">
    <polygon class="cls-1" points="1174.18 783.71 1115.68 753.53 1065.8 762.3 1086.1 773.64 1106.79 769.88 1130.43 782.65 1119.94 784.63 1116.19 782.57 1096.94 786.17 1113.27 795.42 1113.27 795.42 1112.7 815.04 1112.2 815.14 1124.84 822.6 1133.98 820.73 1133.98 820.73 1133.74 827.85 1133.64 830.69 1211.05 814.6 1211.19 811.84 1211.56 804.91 1174.18 783.71"/>
  </g>
  <g id="H.4.13">
    <polygon class="cls-1" points="461.86 713.75 460.62 711.35 461.11 711.29 459.08 695.77 452.41 683.25 460.7 682.28 456.73 675.15 418.91 679.49 420.26 689.12 420.26 689.12 405.14 690.91 405.9 696.23 405.9 696.23 406.21 698.35 417.69 727.47 464.91 721.34 464.62 719.1 463.89 713.49 461.86 713.75"/>
  </g>
  <g id="H.4.12">
    <polygon class="cls-1" points="461.86 713.75 460.62 711.35 461.11 711.29 459.08 695.77 456.05 690.08 474.72 687.85 475.47 689.12 485.68 687.9 480.78 679.92 460.7 682.28 456.73 675.15 505.19 669.57 511.34 678.37 520.5 677.29 539.78 703.83 540.39 709.32 540.63 711.51 464.91 721.34 463.89 713.49 461.86 713.75"/>
  </g>
  <g id="G.4.12">
    <polyline class="cls-2" points="792.15 698.75 792.93 714.45 839.23 707.86 838.64 692.39 792.15 698.75"/>
  </g>
  <g id="G.4.13">
    <polygon class="cls-2" points="705.97 690.07 707.05 705.45 727.94 723.7 792.93 714.45 792.15 698.75 726.88 707.68 705.97 690.07"/>
  </g>
  <g id="G.4.14">
    <polygon class="cls-2" points="693.77 679.8 694.88 694.81 707.05 705.45 705.97 690.07 693.77 679.8"/>
  </g>
  <g id="I.4.12">
    <polygon class="cls-1" points="666.05 668.34 667.2 682.77 693.77 679.8 693.62 677.66 707.44 675.93 706.57 663.45 666.05 668.34"/>
  </g>
  <g id="I.4.13">
    <polygon class="cls-1" points="666.05 668.34 604.01 675.84 589.85 661.02 591.24 675.19 605.41 690.54 667.2 682.77 666.05 668.34"/>
  </g>
  <g id="I.4.14">
    <polygon class="cls-1" points="581.54 652.33 582.92 666.18 591.24 675.19 589.85 661.02 581.54 652.33"/>
  </g>
  <g id="K.4.12">
    <polyline class="cls-2" points="590.73 638.6 591.29 644.4 594.02 643.96 593.47 638.3 590.73 638.6"/>
  </g>
  <g id="K.4.13">
    <polyline class="cls-2" points="522.63 632.47 524.11 645.48 534.44 658.31 581.54 652.88 580.85 645.4 591.29 644.4 590.73 638.6 532.94 644.84 522.63 632.47"/>
  </g>
  <g id="K.4.14">
    <polygon class="cls-2" points="516.55 625.17 518.01 637.91 524.11 645.48 522.99 632.91 516.55 625.17"/>
  </g>
  <g id="B.4.13">
    <polygon class="cls-1" points="1181.11 965.72 1161.39 951.14 1161.39 951.14 1162.41 926.88 1114.62 894.38 1125.29 891.91 1098.59 874.05 1049.76 884.89 1049.57 899.65 1049.57 899.65 1029.87 904.13 1029.8 912.3 1029.77 915.55 1128.06 992.35 1189.87 975.57 1190.05 972.05 1190.49 963.22 1181.11 965.72"/>
  </g>
  <g id="B.4.12">
    <polygon class="cls-1" points="1159.96 860.45 1287.31 937.41 1286.67 945.95 1286.42 949.36 1189.87 975.57 1190.47 963.11 1181.11 965.72 1161.39 951.14 1162.41 926.88 1140.43 911.93 1164.48 906.14 1169.51 909.44 1182.59 906.27 1151 885.96 1125.29 891.91 1098.59 874.05 1160.15 860.38 1159.96 860.45"/>
  </g>
  <g id="E.5.16">
    <polygon class="cls-1" points="865.43 715.72 879.97 713.59 879.49 696.91 915.83 691.81 930.32 700.19 922.37 701.34 947.6 716.15 947.82 733.56 947.82 733.56 962.45 742.88 962.47 745.4 917.33 752.75 865.5 718.09 865.43 715.72"/>
  </g>
  <g id="E.5.15">
    <polygon class="cls-1" points="947.35 733.64 947.82 733.56 962.45 742.88 962.47 745.4 1034.49 733.67 1034.51 731.22 1004.21 714.83 1004.23 707.59 962.26 685.29 915.83 691.81 930.32 700.19 949.54 697.42 966.37 706.82 956.62 708.26 953.97 706.75 936.1 709.4 947.6 716.15 947.82 733.56 947.35 733.64"/>
  </g>
  <g id="G.5.16">
    <polygon class="cls-1" points="760.33 692.07 760.33 692.07 759.43 676.4 742.97 664.45 750.55 663.52 741.01 656.71 706.39 660.86 707.44 675.93 693.62 677.66 693.77 679.8 726.88 707.68 769.82 701.81 769.69 699.55 760.33 692.07"/>
  </g>
  <g id="G.5.15">
    <polygon class="cls-1" points="838.55 690.18 838.64 692.39 769.82 701.81 769.69 699.55 760.33 692.07 759.43 676.4 751.95 670.97 768.98 668.83 770.72 670.05 780.03 668.88 768.9 661.27 750.55 663.52 741.01 656.71 785.37 651.39 813.5 669.51 813.7 673.98 813.7 673.98 838.55 690.18"/>
  </g>
  <g id="I.5.16">
    <polygon class="cls-1" points="644.17 663.64 639.56 664.19 637.83 662.6 638.25 662.55 637.01 648.14 625.58 638.04 632.8 637.25 626.12 631.47 593.15 635 594.02 643.96 580.85 645.4 581.34 650.36 581.54 652.33 604.01 675.84 644.79 670.91 644.62 668.84 644.17 663.64"/>
  </g>
  <g id="I.5.15">
    <polygon class="cls-1" points="637.83 662.6 639.56 664.19 644.17 663.64 644.62 668.84 644.79 670.91 706.57 663.45 706.43 661.41 706.39 660.86 710.21 660.4 709.89 655.86 681.56 634.33 678.53 634.66 678.53 634.66 668.45 626.94 626.12 631.47 632.8 637.25 650.28 635.34 658.13 641.79 649.26 642.78 648.04 641.75 631.82 643.56 637.01 648.14 637.83 662.6"/>
  </g>
  <g id="K.5.16">
    <polygon class="cls-1" points="527.19 609.34 558 606.36 562.99 611.24 556.25 611.9 564.72 620.37 566.09 633.58 566.09 633.58 566.51 634.47 570.22 634.08 570.71 638.84 570.91 640.74 532.94 644.84 516.55 625.17 516.34 623.35 515.82 618.8 528.11 617.58 528.11 617.58 527.19 609.34"/>
  </g>
  <g id="K.5.15">
    <polygon class="cls-1" points="566.51 634.47 570.22 634.08 570.71 638.84 570.91 640.74 593.47 638.3 593.29 636.41 593.15 635 626.12 631.47 631.88 630.85 631.6 627.58 610.08 609.45 606.21 609.83 597.66 602.54 558 606.36 562.99 611.24 579.35 609.63 585.23 615.05 576.94 615.88 576.03 615.02 560.88 616.53 564.72 620.37 566.09 633.58 566.51 634.47"/>
  </g>
</svg>