<?xml version="1.0" encoding="UTF-8"?>
<svg xmlns="http://www.w3.org/2000/svg" viewBox="0 0 2000 1498">
  <defs>
    <style>
      .cls-1, .cls-2 {
        fill: none;
        stroke: #000;
        stroke-miterlimit: 10;
      }

      .cls-2 {
        fill-rule: evenodd;
      }
    </style>
  </defs>
  <g id="E.0.2">
    <polygon class="cls-1" points="1016.37 866.64 1016.41 882.31 1057.19 884.13 1059.01 868.39 1016.37 866.64"/>
  </g>
  <g id="F.0.1">
    <polygon class="cls-1" points="705.86 805.22 707.06 822.15 758.46 823.15 789.51 780.09 788.77 765 758.09 807.08 705.86 805.22"/>
  </g>
  <g id="F.0.2">
    <polygon class="cls-2" points="635.93 802.73 636.8 819.27 707.06 822.15 705.86 805.22 635.93 802.73"/>
  </g>
  <g id="C.0.1">
    <polygon class="cls-2" points="843.79 998.79 854.97 999.42 869.51 963.38 888.15 964.3 894.09 948.02 929.31 949.76 939.08 923.83 938.69 904.78 924.8 949.04 893.88 947.61 887.94 963.89 869.1 962.87 863.16 977.61 842.92 976.66 843.79 998.79"/>
  </g>
  <g id="C.0.2">
    <polygon class="cls-2" points="746.74 972.09 748.09 993.15 843.79 998.79 842.92 976.66 746.74 972.09"/>
  </g>
  <g id="D.0.1">
    <polygon class="cls-2" points="1151 988.45 1150.14 1010.25 1223.35 1013.62 1224.35 991.92 1151 988.45"/>
  </g>
  <g id="D.0.2">
    <polygon class="cls-2" points="1150.14 1010.25 1151 988.45 1068.63 984.67 1068.57 1006.5 1150.14 1010.25"/>
  </g>
  <g id="H.0.1">
    <polygon class="cls-2" points="839.93 700.58 817.92 730.75 786.98 730.04 787.83 744.62 819.1 745.42 840.45 714.24 839.93 700.58"/>
  </g>
  <g id="G.0.1">
    <polygon class="cls-1" points="1002.62 779.52 1002.61 795.81 1016.68 796.12 1016.73 786.38 1018.32 786.32 1018.5 779.96 1002.62 779.52"/>
  </g>
  <g id="G.0.2">
    <polygon class="cls-1" points="933.46 777.26 933.61 793.93 1002.61 795.81 1002.62 779.52 933.46 777.26"/>
  </g>
  <g id="I.0.2">
    <polygon class="cls-2" points="887.97 721.01 888.04 734.92 932.75 735.91 932.53 722.48 887.97 721.01"/>
  </g>
  <g id="B.0.1">
    <path class="cls-1" d="M1055.97,1181.68l-96.66-5.74.3,26.91,48.44,2.96h0s0,0,0,0l47.51,2.91,1.67-18.6,9.58-106.61.42-24.15-11.27,122.31Z"/>
  </g>
  <g id="B.0.2">
    <polygon class="cls-1" points="830.75 1168.31 831.52 1194.59 959.61 1202.86 959.31 1175.94 830.75 1168.31"/>
  </g>
  <g id="A.0.1">
    <polyline class="cls-2" points="690.17 1150.24 692.94 1177.54 613.82 1337.41 509.67 1328.26 506.51 1299.09 610.44 1306.56 690.17 1150.24"/>
  </g>
  <g id="A_02" data-name="A 02">
    <polygon class="cls-2" points="509.67 1328.26 506.51 1299.09 365.31 1288.31 369.26 1318.36 509.67 1328.26"/>
  </g>
  <g id="E.1.4">
    <polygon class="cls-1" points="1016.45 847.55 1016.37 866.64 1059.01 868.39 1061.67 849.49 1016.45 847.55"/>
  </g>
  <g id="F.1.3">
    <polygon class="cls-1" points="704.64 788.15 705.86 805.22 758.09 807.08 788.77 765 787.96 749.11 757.09 789.96 704.64 788.15"/>
  </g>
  <g id="F.1.4">
    <polygon class="cls-1" points="634.43 785.73 635.93 802.73 705.86 805.22 704.64 788.15 634.43 785.73"/>
  </g>
  <g id="C.1.3">
    <polygon class="cls-2" points="842.03 954.27 842.92 976.66 863.68 977.71 869.51 963.38 888.15 964.3 894.09 948.02 924.6 949.76 938.69 904.78 938.38 884.36 917.94 947.01 894.6 945.87 890.5 956.83 842.03 954.27"/>
  </g>
  <g id="C.1.4">
    <polygon class="cls-2" points="745.32 949.82 746.74 972.09 842.92 976.66 842.03 954.27 745.32 949.82"/>
  </g>
  <g id="D.1.3">
    <polygon class="cls-2" points="1151 988.45 1224.35 991.92 1225.65 969.77 1151.86 966.39 1151 988.45"/>
  </g>
  <g id="D.1.4">
    <polygon class="cls-2" points="1053.4 961.89 1053.36 971.68 1068.77 972.49 1068.63 984.67 1151 988.45 1151.86 966.39 1053.4 961.89"/>
  </g>
  <g id="H.1.3">
    <polygon class="cls-2" points="773.05 714.97 773.58 724.75 786.64 725.09 786.98 730.04 817.92 730.75 839.93 700.58 839.41 686.99 817.28 716.25 773.05 714.97"/>
  </g>
  <g id="G.1.3">
    <polygon class="cls-1" points="1002.64 763.09 1002.62 779.52 1018.5 779.96 1021.97 763.71 1002.64 763.09"/>
  </g>
  <g id="G.1.4">
    <polygon class="cls-1" points="933.2 760.9 933.46 777.26 1002.62 779.52 1002.64 763.09 933.2 760.9"/>
  </g>
  <g id="I.1.4">
    <polygon class="cls-2" points="887.59 706.67 887.97 721.01 932.53 722.48 932.53 708.06 887.59 706.67"/>
  </g>
  <g id="B.1.3">
    <polygon class="cls-2" points="959.01 1148.63 959.31 1175.94 1055.97 1181.68 1067.24 1059.37 1067.67 1034.91 1056.39 1154.24 959.01 1148.63"/>
  </g>
  <g id="B.1.4">
    <polygon class="cls-2" points="829.51 1141.18 830.75 1168.31 959.31 1175.94 959.01 1148.63 829.51 1141.18"/>
  </g>
  <g id="A.1.3">
    <polygon class="cls-1" points="687.96 1123.59 690.17 1150.24 610.44 1306.56 506.51 1299.09 502.35 1269.06 607.13 1276.38 687.96 1123.59"/>
  </g>
  <g id="A.1.4">
    <polygon class="cls-1" points="502.35 1269.06 361.36 1259.02 365.31 1288.31 506.51 1299.09 502.35 1269.06"/>
  </g>
  <g id="E.2.7">
    <polygon class="cls-1" points="1016.54 828.28 1016.45 847.55 1061.67 849.49 1062.99 838.88 1081.06 839.54 1082.39 830.76 1016.54 828.28"/>
  </g>
  <g id="F.2.6">
    <polygon class="cls-1" points="704.64 788.15 757.09 789.96 787.96 749.11 787.15 733.09 756.07 772.69 703.42 770.94 704.64 788.15"/>
  </g>
  <g id="F.2.7">
    <polygon class="cls-1" points="632.92 768.59 634.43 785.73 704.64 788.15 703.42 770.94 632.92 768.59"/>
  </g>
  <g id="C.2.6">
    <polygon class="cls-2" points="938.07 863.72 914.01 934.87 841.14 931.64 842.03 954.27 890.91 956.52 894.6 945.87 917.94 947.01 938.38 884.36 938.07 863.72"/>
  </g>
  <g id="C.2.7">
    <polygon class="cls-2" points="743.89 927.31 745.32 949.82 842.03 954.27 841.14 931.64 743.89 927.31"/>
  </g>
  <g id="D.2.6">
    <polyline class="cls-2" points="1152.73 944.09 1151.86 966.39 1225.65 969.77 1226.96 947.37 1152.73 944.09"/>
  </g>
  <g id="D.2.7">
    <polygon class="cls-2" points="1053.7 939.7 1053.4 961.89 1151.86 966.39 1152.73 944.09 1053.7 939.7"/>
  </g>
  <g id="H.2.6">
    <polygon class="cls-1" points="772.26 700.41 773.05 714.97 817.28 716.25 839.41 686.99 838.88 673.31 816.64 701.65 772.26 700.41"/>
  </g>
  <g id="H.2.7">
    <polygon class="cls-1" points="712.76 698.75 713.58 712.32 771.64 714.22 771.7 714.93 773.05 714.97 772.26 700.41 712.76 698.75"/>
  </g>
  <g id="G.2.6">
    <polygon class="cls-1" points="1002.65 746.54 1002.64 763.09 1021.97 763.71 1025.88 747.42 1002.65 746.54"/>
  </g>
  <g id="G.2.7">
    <polygon class="cls-1" points="932.95 744.42 933.2 760.9 1002.64 763.09 1002.65 746.54 932.95 744.42"/>
  </g>
  <g id="I.2.7">
    <polygon class="cls-2" points="887.21 692.24 887.59 706.67 935.24 708.01 935.27 702.75 939.68 693.74 887.21 692.24"/>
  </g>
  <g id="K.2.7">
    <polygon class="cls-1" points="887.01 649.02 886.67 655.14 890.98 649.02 887.01 649.02"/>
  </g>
  <g id="B.2.6">
    <polygon class="cls-1" points="958.7 1120.91 959.01 1148.63 1056.39 1154.24 1067.67 1034.91 1068.11 1010.14 1056.81 1126.38 958.7 1120.91"/>
  </g>
  <g id="B.2.7">
    <polygon class="cls-2" points="828.24 1113.64 829.51 1141.18 959.01 1148.63 958.7 1120.91 828.24 1113.64"/>
  </g>
  <g id="A.2.6">
    <polygon class="cls-1" points="498.12 1238.52 502.35 1269.06 607.13 1276.38 687.96 1123.59 685.71 1096.55 603.78 1245.67 498.12 1238.52"/>
  </g>
  <g id="A.2.7">
    <polygon class="cls-1" points="498.12 1238.52 357.94 1229.04 361.36 1259.02 502.35 1269.06 498.12 1238.52"/>
  </g>
  <g id="E.3.9">
    <polygon class="cls-1" points="1099.38 811.75 1099.13 827.11 1159.8 829.1 1161.27 813.94 1099.38 811.75"/>
  </g>
  <g id="E.3.10">
    <polygon class="cls-1" points="1016.54 828.28 1082.39 830.76 1082.88 825.95 1099.13 827.11 1099.38 811.75 1016.63 808.83 1016.54 828.28"/>
  </g>
  <g id="F.3.10">
    <polygon class="cls-1" points="678.19 761.51 678.67 767.67 678.86 770.12 632.92 768.59 632.7 766.14 632.16 760 673.11 721.66 676.05 721.75 686.67 711.74 723.23 712.81 713.63 722.68 705.48 722.44 688.23 739.83 689.5 756.84 689.02 756.82 684.35 761.71 678.19 761.51"/>
  </g>
  <g id="F.3.9">
    <polygon class="cls-1" points="786.74 725.07 772.21 724.63 771.65 714.22 723.23 712.81 713.63 722.68 733.55 723.28 723.1 734.58 712.88 734.27 714.59 732.46 696.1 731.9 688.23 739.83 689.5 756.84 689.02 756.82 684.35 761.71 678.19 761.51 678.67 767.67 678.86 770.12 756.07 772.69 787.15 733.09 787.03 730.8 786.74 725.07"/>
  </g>
  <g id="C.3.10">
    <polygon class="cls-1" points="743.17 916 785.48 847.44 796.23 847.86 804.02 834.82 853.05 836.68 844.25 854.02 833.24 853.59 816.8 884.79 817.8 907.08 817.14 907.05 811.09 918.97 806.68 918.77 807.07 926.89 807.22 930.13 743.89 927.31 743.69 924.09 743.17 916"/>
  </g>
  <g id="C.3.9">
    <polygon class="cls-1" points="817.14 907.05 811.09 918.97 806.68 918.77 807.07 926.89 807.22 930.13 914.01 934.87 938.07 863.72 938.02 860.77 937.91 853.37 918.38 852.61 918.11 839.15 853.05 836.68 844.25 854.02 871.22 855.08 861.94 875.27 847.98 874.7 849.55 871.46 824.36 870.45 816.8 884.79 817.8 907.08 817.14 907.05"/>
  </g>
  <g id="D.3.9">
    <polygon class="cls-2" points="1153.61 921.52 1152.73 944.09 1226.96 947.37 1228.28 924.7 1153.61 921.52"/>
  </g>
  <g id="D.3.10">
    <polygon class="cls-2" points="1054 917.26 1053.7 939.7 1152.73 944.09 1153.61 921.52 1054 917.26"/>
  </g>
  <g id="H.3.9">
    <polygon class="cls-1" points="771.46 685.74 772.26 700.41 816.64 701.65 838.88 673.31 838.35 659.54 815.99 686.94 771.46 685.74"/>
  </g>
  <g id="H.3.10">
    <polygon class="cls-1" points="711.76 684.14 712.76 698.75 772.26 700.41 771.46 685.74 711.76 684.14"/>
  </g>
  <g id="G.3.9">
    <polygon class="cls-1" points="1002.67 729.86 1002.65 746.54 1025.88 747.42 1027.5 740.21 1040.64 740.62 1044.34 722.49 1059.03 723.08 1061.18 712.19 1061.41 696.63 1056.25 722.65 1044.28 722.17 1042.28 731.08 1002.67 729.86"/>
  </g>
  <g id="G.3.10">
    <polygon class="cls-1" points="932.69 727.8 932.95 744.42 1002.65 746.54 1002.67 729.86 932.69 727.8"/>
  </g>
  <g id="I.3.9">
    <polygon class="cls-2" points="1004.73 653.73 1004.54 661.59 1001.89 661.48 1004.73 653.73"/>
  </g>
  <g id="I.3.10">
    <polygon class="cls-2" points="886.82 677.71 887.21 692.24 939.68 693.74 946.73 679.32 886.82 677.71"/>
  </g>
  <g id="K.3.9">
    <polygon class="cls-1" points="987.18 618.36 984.7 623.62 987.21 623.62 987.18 618.36"/>
  </g>
  <g id="K.3.10">
    <polygon class="cls-1" points="886.67 636.63 887.01 649.02 890.98 649.02 899.39 636.92 886.67 636.63"/>
  </g>
  <g id="B.3.9">
    <polyline class="cls-1" points="958.38 1092.77 958.7 1120.91 1056.81 1126.38 1068.11 1010.14 1068.55 985.04 1057.24 1098.09 958.38 1092.77"/>
  </g>
  <g id="B.3.10">
    <polygon class="cls-1" points="828.24 1113.64 958.7 1120.91 958.21 1092.77 826.96 1085.7 828.24 1113.64"/>
  </g>
  <g id="A.3.10">
    <polygon class="cls-1" points="355.24 1213.74 357.17 1224.68 357.94 1229.04 449.12 1235.21 448.46 1230.83 446.79 1219.84 455.96 1220.45 479.49 1187.9 480.43 1187.96 476.18 1157.97 525.15 1092.79 540.53 1093.67 566.04 1058.78 498.52 1055.09 484.8 1071.77 484.8 1071.77 474.5 1071.2 355.24 1213.74"/>
  </g>
  <g id="A.3.9">
    <polygon class="cls-1" points="479.49 1187.9 455.96 1220.45 446.79 1219.84 448.46 1230.83 449.12 1235.21 603.78 1245.67 685.71 1096.55 685.39 1092.67 684.58 1082.93 657.55 1081.42 655.95 1063.69 566.04 1058.78 540.53 1093.67 578.22 1095.82 549.59 1137.74 529.78 1136.55 534.6 1129.73 499 1127.6 476.18 1157.97 480.43 1187.96 479.49 1187.9"/>
  </g>
  <g id="E.4.12">
    <polygon class="cls-1" points="1099.86 792.02 1099.38 811.75 1161.27 813.94 1162.05 794.14 1099.86 792.02"/>
  </g>
  <g id="E.4.13">
    <polygon class="cls-1" points="1016.72 789.19 1016.63 808.83 1099.38 811.75 1099.86 792.02 1016.72 789.19"/>
  </g>
  <g id="D.4.13">
    <polygon class="cls-1" points="1054.15 905.98 1054.04 914.05 1054 917.26 1118.87 920.03 1118.96 916.8 1119.21 908.71 1119.16 908.71 1119.45 897.3 1120.12 897.33 1120.8 875.12 1121.51 844.58 1132.75 845 1132.8 828.07 1082.85 826.25 1081.55 839.5 1063.03 838.81 1054.15 905.98 1054.15 905.98"/>
  </g>
  <g id="D.4.12">
    <polygon class="cls-1" points="1119.45 897.3 1119.16 908.71 1119.21 908.71 1118.96 916.8 1118.87 920.03 1228.28 924.7 1228.47 921.46 1228.94 913.31 1218.35 844.6 1200.75 843.94 1199.1 830.48 1132.8 828.07 1132.75 845 1160.28 846.03 1161.21 865.79 1146.94 865.24 1146.87 862.06 1121.13 861.07 1120.8 875.12 1120.12 897.33 1119.45 897.3"/>
  </g>
  <g id="H.4.13">
    <polygon class="cls-1" points="757.94 675.65 755.61 677.99 750.24 677.85 750.55 683.09 750.67 685.19 711.76 684.14 711.62 682.05 711.26 676.82 740.78 650.26 742.99 650.32 752.95 641.51 752.83 641.59 783.86 642.41 776.88 649.3 769.93 649.13 757.51 661.15 758.35 675.66 757.94 675.65"/>
  </g>
  <g id="H.4.12">
    <polygon class="cls-1" points="758.35 675.66 757.51 661.15 763.16 655.69 778.89 656.08 777.66 657.32 786.35 657.54 793.89 649.71 776.88 649.3 783.86 642.41 825.29 643.4 825.66 652.34 825.66 652.34 838.09 652.65 838.28 657.57 838.35 659.54 815.99 686.94 750.67 685.19 750.55 683.09 750.24 677.85 755.61 677.99 757.94 675.65 758.35 675.66"/>
  </g>
  <g id="G.4.12">
    <polygon class="cls-1" points="1002.68 713.04 1002.67 729.86 1042.51 731.01 1044.34 722.49 1056.27 722.86 1061.41 696.63 1061.64 680.95 1055.14 714.52 1002.68 713.04"/>
  </g>
  <g id="G.4.13">
    <polygon class="cls-1" points="932.43 711.06 932.69 727.8 1002.67 729.86 1002.68 713.04 932.43 711.06"/>
  </g>
  <g id="I.4.12">
    <polygon class="cls-2" points="948.44 664.59 948.36 675.78 955.27 675.96 962.53 660.44 1001.89 661.48 1004.73 653.73 1004.87 639.57 996.39 660.6 962.25 660.05 959.83 665.23 948.44 664.59"/>
  </g>
  <g id="I.4.13">
    <polygon class="cls-2" points="886.44 663.08 886.82 677.71 946.73 679.32 948.36 675.78 948.44 664.59 886.44 663.08"/>
  </g>
  <g id="K.4.12">
    <polygon class="cls-1" points="987.14 606.54 978.98 623.19 984.7 623.62 987.18 618.36 987.14 606.54"/>
  </g>
  <g id="K.4.13">
    <polygon class="cls-1" points="886.33 624.17 886.67 636.63 899.39 636.92 903.68 630.77 910.32 630.92 914.42 624.88 886.33 624.17"/>
  </g>
  <g id="B.4.13">
    <polygon class="cls-1" points="915.2 1076.32 921.48 1054.09 922.37 1054.14 921.8 1026.5 936.25 977.14 950.79 977.81 958.06 951.04 893.95 948.19 888.03 964.19 869.36 963.34 826.31 1071.62 826.46 1071.28 826.96 1085.7 912.48 1090.3 912.39 1086.27 912.15 1076.16 915.2 1076.32"/>
  </g>
  <g id="B.4.12">
    <polygon class="cls-1" points="1068.77 972.41 1043.15 971.25 1043.33 954.82 958.06 951.04 950.79 977.81 986.43 979.46 979.45 1011.28 960.8 1010.38 962.06 1005.23 928.5 1003.61 921.8 1026.5 922.37 1054.14 921.48 1054.09 915.2 1076.32 912.15 1076.16 912.39 1086.27 912.48 1090.3 1057.24 1098.09 1068.55 985.04 1068.61 981.44 1068.77 972.41"/>
  </g>
  <g id="E.5.16">
    <polygon class="cls-1" points="1070.89 791.03 1016.72 789.19 1016.73 786.38 1018.32 786.32 1018.36 779.39 1027.5 740.21 1040.64 740.62 1044.34 722.49 1086.87 723.74 1085.63 735.37 1076.12 735.08 1073.48 755.74 1073.13 775.2 1072.56 775.18 1070.89 791.03"/>
  </g>
  <g id="E.5.15">
    <polygon class="cls-1" points="1073.13 775.2 1072.56 775.18 1070.93 788.21 1070.89 791.03 1162.05 794.14 1161.76 784.17 1159.51 744.27 1143.65 743.78 1143.25 725.41 1086.87 723.74 1085.63 735.37 1108.92 736.07 1108.18 749.47 1096.18 749.1 1096.36 746.96 1074.69 746.28 1073.48 755.74 1073.13 775.2 1072.56 775.18 1073.13 775.2"/>
  </g>
  <g id="I.5.16">
    <path class="cls-1" d="M886.24,655.75l17.44-24.98,6.64.15,5.96-8.78,32.52.7-3.75,6.47-7.22-.16-6.78,11.29.23,14.53h-.42s-1.05,1.81-1.05,1.81l-3.08-.07.09,5.25.04,2.1-40.41-.98-.06-2.09-.14-5.24Z"/>
  </g>
  <g id="I.5.15">
    <g>
      <polygon class="cls-1" points="994.68 658.34 1004.76 633.02 1002.81 637.91 994.68 658.34"/>
      <polygon class="cls-1" points="1004.76 633.02 991.85 632.73 991.83 623.78 948.79 622.85 945.05 629.32 962.71 629.71 958.84 637.06 949.82 636.85 950.46 635.68 934.13 635.32 931.05 640.45 931.28 654.98 930.86 654.97 929.8 656.79 926.73 656.72 926.82 661.97 926.85 664.06 960.17 665.04 962.53 660.44 996.49 661.06 1004.75 639.93 1004.75 637.96 1004.76 633.02"/>
    </g>
  </g>
  <g id="G.5.15">
    <polygon class="cls-1" points="978.2 709.95 980.44 704 981.65 700.78 982.13 700.8 982.07 684.18 984.69 677.49 1003.12 677.97 1002.6 679.49 1012.79 679.75 1015.82 670.21 995.94 669.7 999.03 661.34 1047.36 662.54 1047.19 678.34 1061.67 678.71 1061.64 680.95 1055.14 714.52 978.21 712.35 978.2 709.95"/>
  </g>
  <g id="G.5.16">
    <polygon class="cls-1" points="932.39 708.66 932.43 711.06 978.21 712.35 978.2 709.95 981.65 700.78 982.13 700.8 982.07 684.18 987.81 669.5 995.94 669.7 999.03 661.34 962.53 660.44 955.27 675.96 948.36 675.78 935.27 702.75 935.03 708.69 932.39 708.66"/>
  </g>
  <g id="K.5.16">
    <polygon class="cls-1" points="886.16 617.94 886.28 622.39 886.33 624.17 918.53 624.88 919.73 623.12 920.34 622.21 920.27 618.67 923.33 618.73 923.94 617.83 924.3 617.84 924.07 605.46 930.12 596.86 936.24 596.98 939.62 592.03 912.01 591.49 906.15 599 901.33 598.91 886.16 617.94"/>
  </g>
  <g id="K.5.15">
    <polygon class="cls-1" points="987.14 604.85 987.12 600.63 976.17 600.41 976.13 592.74 939.62 592.03 936.24 596.98 951.19 597.28 947.67 602.88 940.04 602.73 940.63 601.84 926.82 601.56 924.07 605.46 924.3 617.84 923.94 617.83 923.33 618.73 920.27 618.67 920.34 622.21 920.53 621.93 951.37 622.6 977.51 623.16 978.11 623.18 978.98 623.19 987.14 606.54 987.14 604.85"/>
  </g>
</svg>