<svg width="330" height="209" viewBox="0 0 330 209" fill="none" xmlns="http://www.w3.org/2000/svg">
<g filter="url(#filter0_d_270_5159)">
<rect x="9" y="9" width="312" height="191" rx="20" fill="white" shape-rendering="crispEdges"/>
<path d="M77.102 64V41.131L79.61 40.669V64H77.102ZM92.0402 49.15C95.3402 49.15 97.7822 51.361 97.7822 55.255V64H95.4722V55.453C95.4722 52.714 93.9212 51.295 91.7102 51.295C89.3012 51.295 87.5522 53.011 87.5522 55.783V64H85.2422V49.678L87.4202 49.249V51.229C88.5092 49.909 90.1262 49.15 92.0402 49.15ZM109.414 51.592H105.19V59.842C105.19 61.327 106.015 62.119 107.302 62.119C108.028 62.119 108.919 61.888 109.414 61.657V63.802C108.919 64.033 108.028 64.264 107.071 64.264C104.53 64.264 102.88 62.68 102.88 60.007V51.592H100.735L101.131 49.48H102.88V46.279L105.19 44.893V49.48H109.414V51.592ZM119.491 62.218C121.537 62.218 123.385 61.327 124.969 59.512L125.86 61.624C124.045 63.406 121.834 64.33 119.458 64.33C114.97 64.33 111.736 60.997 111.736 56.773C111.736 52.483 115.102 49.15 119.392 49.15C122.956 49.15 125.695 51.493 126.223 55.156L114.442 58.984C115.234 60.898 117.082 62.218 119.491 62.218ZM119.359 51.262C116.356 51.262 114.013 53.704 114.013 56.773V56.905L123.517 53.836C122.89 52.252 121.273 51.262 119.359 51.262ZM132.247 51.658C133.27 50.107 134.953 49.249 137.329 49.249V51.592C134.062 51.592 132.379 53.176 132.379 56.443V64H130.069V49.678L132.247 49.249V51.658ZM150.222 64H148.077L147.978 63.01C147.021 63.835 145.767 64.33 144.348 64.33C141.279 64.33 138.903 61.987 138.903 59.017C138.903 56.047 141.279 53.704 144.348 53.704C145.8 53.704 146.922 54.199 147.813 54.958V54.067C147.813 52.186 147.021 51.229 144.678 51.229C143.424 51.229 142.269 51.493 141.147 51.889L141.576 49.744C142.665 49.381 143.688 49.216 144.777 49.216C148.308 49.216 150.123 50.932 150.123 53.869V61.195L150.222 64ZM144.546 62.35C146.493 62.35 148.011 60.865 148.011 59.017C148.011 57.136 146.46 55.684 144.546 55.684C142.632 55.684 141.114 57.136 141.114 59.017C141.114 60.898 142.632 62.35 144.546 62.35ZM166.499 64H163.397L157.226 56.674V64H154.916V40.471L157.226 40.009V56.212L163.1 49.48H166.169L159.833 56.41L166.499 64ZM176.993 51.592H172.769V59.842C172.769 61.327 173.594 62.119 174.881 62.119C175.607 62.119 176.498 61.888 176.993 61.657V63.802C176.498 64.033 175.607 64.264 174.65 64.264C172.109 64.264 170.459 62.68 170.459 60.007V51.592H168.314L168.71 49.48H170.459V46.279L172.769 44.893V49.48H176.993V51.592ZM181.951 45.52C181.027 45.52 180.301 44.794 180.301 43.87C180.301 42.946 181.027 42.22 181.951 42.22C182.875 42.22 183.601 42.946 183.601 43.87C183.601 44.794 182.875 45.52 181.951 45.52ZM180.796 64V49.711L183.106 49.249V64H180.796ZM194.804 64.33C190.481 64.33 187.082 60.997 187.082 56.74C187.082 52.483 190.481 49.15 194.804 49.15C199.127 49.15 202.526 52.483 202.526 56.74C202.526 60.997 199.127 64.33 194.804 64.33ZM194.804 62.185C197.84 62.185 200.15 59.842 200.15 56.74C200.15 53.638 197.84 51.295 194.804 51.295C191.768 51.295 189.458 53.638 189.458 56.74C189.458 59.842 191.768 62.185 194.804 62.185ZM213.18 49.15C216.48 49.15 218.922 51.361 218.922 55.255V64H216.612V55.453C216.612 52.714 215.061 51.295 212.85 51.295C210.441 51.295 208.692 53.011 208.692 55.783V64H206.382V49.678L208.56 49.249V51.229C209.649 49.909 211.266 49.15 213.18 49.15ZM230.286 62.218C232.332 62.218 234.18 61.327 235.764 59.512L236.655 61.624C234.84 63.406 232.629 64.33 230.253 64.33C225.765 64.33 222.531 60.997 222.531 56.773C222.531 52.483 225.897 49.15 230.187 49.15C233.751 49.15 236.49 51.493 237.018 55.156L225.237 58.984C226.029 60.898 227.877 62.218 230.286 62.218ZM230.154 51.262C227.151 51.262 224.808 53.704 224.808 56.773V56.905L234.312 53.836C233.685 52.252 232.068 51.262 230.154 51.262ZM247.662 49.15C250.962 49.15 253.404 51.361 253.404 55.255V64H251.094V55.453C251.094 52.714 249.543 51.295 247.332 51.295C244.923 51.295 243.174 53.011 243.174 55.783V64H240.864V49.678L243.042 49.249V51.229C244.131 49.909 245.748 49.15 247.662 49.15Z" fill="#003566"/>
<path d="M36.592 112.224C33.232 112.224 30.624 109.664 30.624 106.4C30.624 103.136 33.248 100.576 36.656 100.576C37.68 100.576 38.64 100.8 39.456 101.2L39.104 103.44C38.4 103.024 37.536 102.752 36.672 102.752C34.576 102.752 32.976 104.336 32.976 106.4C32.976 108.448 34.576 110.032 36.672 110.032C37.552 110.032 38.416 109.76 39.248 109.248L39.6 111.488C38.672 111.968 37.632 112.224 36.592 112.224ZM41.2889 112V100.688L43.4809 100.416V112H41.2889ZM46.5648 103.456C45.8288 103.456 45.2368 102.88 45.2368 102.176C45.2368 101.456 45.8288 100.88 46.5648 100.88C47.3168 100.88 47.9088 101.456 47.9088 102.176C47.9088 102.88 47.3168 103.456 46.5648 103.456ZM45.4608 112V104.848L47.6528 104.576V112H45.4608ZM53.1206 112.208C50.8486 112.208 49.1046 110.528 49.1046 108.352C49.1046 106.176 50.8646 104.512 53.1046 104.512C53.7766 104.512 54.4166 104.656 55.0246 104.912L54.7206 106.784C54.2086 106.512 53.7126 106.368 53.2326 106.368C52.0326 106.368 51.2166 107.248 51.2166 108.352C51.2166 109.44 52.0326 110.336 53.2486 110.336C53.7766 110.336 54.2886 110.176 54.8166 109.888L55.0886 111.76C54.4806 112.048 53.8246 112.208 53.1206 112.208ZM63.516 112H60.94L58.636 108.624V112H56.46V100.688L58.636 100.416V107.84L60.86 104.72H63.372L60.732 108.208L63.516 112Z" fill="#003566"/>
<path d="M123.472 100.8L119.52 112.4L115.936 103.568L112.352 112.4L108.4 100.8H109.664L112.464 109.136L115.936 100.608L119.408 109.136L122.208 100.8H123.472ZM126.978 112.16C124.882 112.16 123.234 110.544 123.234 108.48C123.234 106.416 124.882 104.8 126.978 104.8C129.074 104.8 130.722 106.416 130.722 108.48C130.722 110.544 129.074 112.16 126.978 112.16ZM126.978 111.12C128.45 111.12 129.57 109.984 129.57 108.48C129.57 106.976 128.45 105.84 126.978 105.84C125.506 105.84 124.386 106.976 124.386 108.48C124.386 109.984 125.506 111.12 126.978 111.12ZM135.903 104.8C137.471 104.8 138.671 105.872 138.671 107.76V112H137.551V107.856C137.551 106.544 136.799 105.856 135.727 105.856C134.559 105.856 133.711 106.688 133.711 108.016V112H132.591V100.592L133.711 100.368V105.824C134.223 105.168 134.991 104.8 135.903 104.8ZM144.309 104.8C145.909 104.8 147.093 105.872 147.093 107.76V112H145.973V107.856C145.973 106.528 145.221 105.84 144.149 105.84C142.981 105.84 142.133 106.672 142.133 108.016V112H141.013V105.056L142.069 104.848V105.808C142.597 105.168 143.381 104.8 144.309 104.8ZM154.203 105.056L155.323 104.848V112.016H154.267V111.152C153.739 111.792 152.971 112.16 152.059 112.16C150.475 112.16 149.307 111.088 149.307 109.2V105.056L150.427 104.848V109.104C150.427 110.416 151.163 111.104 152.219 111.104C153.371 111.104 154.203 110.272 154.203 108.944V105.056ZM161.091 104.8C162.691 104.8 163.875 105.872 163.875 107.76V112H162.755V107.856C162.755 106.528 162.003 105.84 160.931 105.84C159.763 105.84 158.914 106.672 158.914 108.016V112H157.795V105.056L158.851 104.848V105.808C159.379 105.168 160.163 104.8 161.091 104.8ZM172.568 104.64L172.36 105.744L171.112 105.632C171.8 106.16 172.216 106.96 172.216 107.904C172.216 109.056 171.56 110.032 170.584 110.544C171.416 111.04 171.976 111.936 171.976 112.976C171.976 114.544 170.728 115.84 168.936 115.84C167.352 115.84 166.168 114.832 165.912 113.36L166.952 112.928C167.08 114.064 167.832 114.816 168.936 114.816C170.104 114.816 170.888 113.984 170.888 112.928C170.888 111.84 170.04 111.04 168.92 111.04C168.136 111.04 167.56 111.44 167.16 111.968L166.568 111.136C166.792 110.896 167.032 110.704 167.288 110.56C166.312 110.048 165.656 109.072 165.656 107.888C165.656 106.192 167 104.864 169 104.784L172.568 104.64ZM168.936 110.032C170.184 110.032 171.128 109.136 171.128 107.936C171.128 106.736 170.184 105.808 168.936 105.808C167.688 105.808 166.744 106.736 166.744 107.936C166.744 109.136 167.688 110.032 168.936 110.032ZM177.312 102.96L181.104 100.48V112H179.888V102.656L177.552 104.192L177.312 102.96ZM187.617 112.16C184.993 112.16 183.537 109.52 183.537 106.4C183.537 103.28 184.993 100.64 187.617 100.64C190.241 100.64 191.697 103.28 191.697 106.4C191.697 109.52 190.241 112.16 187.617 112.16ZM187.617 111.008C189.585 111.008 190.417 108.768 190.417 106.4C190.417 104.032 189.585 101.792 187.617 101.792C185.649 101.792 184.817 104.032 184.817 106.4C184.817 108.768 185.649 111.008 187.617 111.008ZM193.265 102.96L197.057 100.48V112H195.841V102.656L193.505 104.192L193.265 102.96Z" fill="#003566"/>
<path d="M243.64 102.96L247.432 100.48V112H246.216V102.656L243.88 104.192L243.64 102.96ZM253.802 104.88C255.786 104.88 257.338 106.464 257.338 108.48C257.338 110.544 255.69 112.16 253.578 112.16C251.434 112.16 249.818 110.464 249.818 108.224C249.818 105.152 252.586 102.048 255.146 100.496L255.93 101.392C254.474 102.352 252.746 103.712 251.77 105.552C252.314 105.136 253.002 104.88 253.802 104.88ZM253.594 111.008C254.986 111.008 256.074 109.888 256.074 108.48C256.074 107.088 254.986 106 253.594 106C252.186 106 251.082 107.088 251.082 108.48C251.082 109.888 252.186 111.008 253.594 111.008ZM263.065 114.48V99.76H264.153V114.48H263.065Z" fill="#003566"/>
<path d="M272.936 104.864C274.952 104.864 276.552 106.464 276.552 108.496C276.552 110.528 274.904 112.16 272.744 112.16C271.576 112.16 270.632 111.696 269.96 111.168L270.376 110C270.936 110.512 271.752 111.008 272.744 111.008C274.216 111.008 275.304 109.888 275.304 108.48C275.304 107.104 274.232 105.984 272.76 105.984C271.896 105.984 271.048 106.368 270.296 106.96L270.664 100.8H276.104L275.88 101.952H271.784L271.576 105.152C271.96 104.976 272.408 104.864 272.936 104.864ZM280.796 110.848H285.116L284.892 112H278.316L282.076 107.376C283.404 105.728 283.852 104.784 283.852 103.92C283.852 102.656 282.908 101.744 281.708 101.744C280.508 101.744 279.564 102.688 279.564 103.904C279.564 104.4 279.724 104.848 279.932 105.248L278.716 105.488C278.46 105.024 278.316 104.48 278.316 103.904C278.316 102.048 279.804 100.592 281.708 100.592C283.596 100.592 285.1 101.984 285.1 103.92C285.1 104.96 284.684 106.032 283.068 108.032L280.796 110.848ZM288.954 112.128L288.234 111.552L297.034 100.672L297.754 101.248L288.954 112.128ZM289.786 106.736C288.314 106.736 287.402 105.456 287.402 103.728C287.402 102 288.314 100.72 289.786 100.72C291.274 100.72 292.186 102 292.186 103.728C292.186 105.456 291.274 106.736 289.786 106.736ZM289.786 105.808C290.682 105.808 291.178 104.944 291.178 103.728C291.178 102.512 290.682 101.648 289.786 101.648C288.906 101.648 288.41 102.512 288.41 103.728C288.41 104.944 288.906 105.808 289.786 105.808ZM296.266 112.096C294.794 112.096 293.882 110.816 293.882 109.088C293.882 107.36 294.794 106.08 296.266 106.08C297.754 106.08 298.666 107.36 298.666 109.088C298.666 110.816 297.754 112.096 296.266 112.096ZM296.266 111.168C297.162 111.168 297.658 110.304 297.658 109.088C297.658 107.872 297.162 107.008 296.266 107.008C295.386 107.008 294.89 107.872 294.89 109.088C294.89 110.304 295.386 111.168 296.266 111.168Z" fill="#D14600"/>
<path d="M36.592 142.224C33.232 142.224 30.624 139.664 30.624 136.4C30.624 133.136 33.248 130.576 36.656 130.576C37.68 130.576 38.64 130.8 39.456 131.2L39.104 133.44C38.4 133.024 37.536 132.752 36.672 132.752C34.576 132.752 32.976 134.336 32.976 136.4C32.976 138.448 34.576 140.032 36.672 140.032C37.552 140.032 38.416 139.76 39.248 139.248L39.6 141.488C38.672 141.968 37.632 142.224 36.592 142.224ZM41.2889 142V130.688L43.4809 130.416V142H41.2889ZM46.5648 133.456C45.8288 133.456 45.2368 132.88 45.2368 132.176C45.2368 131.456 45.8288 130.88 46.5648 130.88C47.3168 130.88 47.9088 131.456 47.9088 132.176C47.9088 132.88 47.3168 133.456 46.5648 133.456ZM45.4608 142V134.848L47.6528 134.576V142H45.4608ZM53.1206 142.208C50.8486 142.208 49.1046 140.528 49.1046 138.352C49.1046 136.176 50.8646 134.512 53.1046 134.512C53.7766 134.512 54.4166 134.656 55.0246 134.912L54.7206 136.784C54.2086 136.512 53.7126 136.368 53.2326 136.368C52.0326 136.368 51.2166 137.248 51.2166 138.352C51.2166 139.44 52.0326 140.336 53.2486 140.336C53.7766 140.336 54.2886 140.176 54.8166 139.888L55.0886 141.76C54.4806 142.048 53.8246 142.208 53.1206 142.208ZM63.516 142H60.94L58.636 138.624V142H56.46V130.688L58.636 130.416V137.84L60.86 134.72H63.372L60.732 138.208L63.516 142Z" fill="#003566"/>
<path d="M128.668 130.8H129.964L124.892 142.4L119.82 130.8H121.116L124.892 139.632L128.668 130.8ZM131.637 133.04C131.189 133.04 130.837 132.688 130.837 132.24C130.837 131.792 131.189 131.44 131.637 131.44C132.085 131.44 132.437 131.792 132.437 132.24C132.437 132.688 132.085 133.04 131.637 133.04ZM131.077 142V135.072L132.197 134.848V142H131.077ZM140.348 130.592L141.468 130.368V142H140.348V140.96C139.74 141.696 138.828 142.16 137.756 142.16C135.772 142.16 134.124 140.544 134.124 138.48C134.124 136.416 135.772 134.8 137.756 134.8C138.828 134.8 139.74 135.264 140.348 136V130.592ZM137.852 141.12C139.292 141.12 140.428 139.952 140.428 138.48C140.428 137.008 139.292 135.84 137.852 135.84C136.396 135.84 135.276 137.008 135.276 138.48C135.276 139.952 136.396 141.12 137.852 141.12ZM147.103 141.136C148.095 141.136 148.991 140.704 149.759 139.824L150.191 140.848C149.311 141.712 148.239 142.16 147.087 142.16C144.911 142.16 143.343 140.544 143.343 138.496C143.343 136.416 144.975 134.8 147.055 134.8C148.783 134.8 150.111 135.936 150.367 137.712L144.655 139.568C145.039 140.496 145.935 141.136 147.103 141.136ZM147.039 135.824C145.583 135.824 144.447 137.008 144.447 138.496V138.56L149.055 137.072C148.751 136.304 147.967 135.824 147.039 135.824ZM155.384 142.16C153.288 142.16 151.64 140.544 151.64 138.48C151.64 136.416 153.288 134.8 155.384 134.8C157.48 134.8 159.128 136.416 159.128 138.48C159.128 140.544 157.48 142.16 155.384 142.16ZM155.384 141.12C156.856 141.12 157.976 139.984 157.976 138.48C157.976 136.976 156.856 135.84 155.384 135.84C153.912 135.84 152.792 136.976 152.792 138.48C152.792 139.984 153.912 141.12 155.384 141.12ZM165.828 140.848H170.724L170.5 142H164.612V130.912L165.828 130.688V140.848ZM177.55 142H176.51L176.462 141.52C175.998 141.92 175.39 142.16 174.702 142.16C173.214 142.16 172.062 141.024 172.062 139.584C172.062 138.144 173.214 137.008 174.702 137.008C175.406 137.008 175.95 137.248 176.382 137.616V137.184C176.382 136.272 175.998 135.808 174.862 135.808C174.254 135.808 173.694 135.936 173.15 136.128L173.358 135.088C173.886 134.912 174.382 134.832 174.91 134.832C176.622 134.832 177.502 135.664 177.502 137.088V140.64L177.55 142ZM174.798 141.2C175.742 141.2 176.478 140.48 176.478 139.584C176.478 138.672 175.726 137.968 174.798 137.968C173.87 137.968 173.134 138.672 173.134 139.584C173.134 140.496 173.87 141.2 174.798 141.2ZM186.178 134.64L185.97 135.744L184.722 135.632C185.41 136.16 185.826 136.96 185.826 137.904C185.826 139.056 185.17 140.032 184.194 140.544C185.026 141.04 185.586 141.936 185.586 142.976C185.586 144.544 184.338 145.84 182.546 145.84C180.962 145.84 179.778 144.832 179.522 143.36L180.562 142.928C180.69 144.064 181.442 144.816 182.546 144.816C183.714 144.816 184.498 143.984 184.498 142.928C184.498 141.84 183.65 141.04 182.53 141.04C181.746 141.04 181.17 141.44 180.77 141.968L180.178 141.136C180.402 140.896 180.642 140.704 180.898 140.56C179.922 140.048 179.266 139.072 179.266 137.888C179.266 136.192 180.61 134.864 182.61 134.784L186.178 134.64ZM182.546 140.032C183.794 140.032 184.738 139.136 184.738 137.936C184.738 136.736 183.794 135.808 182.546 135.808C181.298 135.808 180.354 136.736 180.354 137.936C180.354 139.136 181.298 140.032 182.546 140.032ZM191.103 141.136C192.095 141.136 192.991 140.704 193.759 139.824L194.191 140.848C193.311 141.712 192.239 142.16 191.087 142.16C188.911 142.16 187.343 140.544 187.343 138.496C187.343 136.416 188.975 134.8 191.055 134.8C192.783 134.8 194.111 135.936 194.367 137.712L188.655 139.568C189.039 140.496 189.935 141.136 191.103 141.136ZM191.039 135.824C189.583 135.824 188.447 137.008 188.447 138.496V138.56L193.055 137.072C192.751 136.304 191.967 135.824 191.039 135.824Z" fill="#003566"/>
<path d="M255.288 135.104C257.016 135.152 258.424 136.624 258.424 138.496C258.424 140.544 256.776 142.16 254.664 142.16C253.368 142.16 252.328 141.552 251.56 140.592L252.2 139.552C252.744 140.352 253.576 141.008 254.664 141.008C256.072 141.008 257.176 139.904 257.176 138.48C257.176 137.088 256.136 135.984 254.552 135.984C254.136 135.984 253.672 136.064 253.192 136.176L256.088 131.952H251.896L252.12 130.8H258.392L255.288 135.104ZM264.315 144.48V129.76H265.403V144.48H264.315Z" fill="#003566"/>
<path d="M270.89 132.96L274.682 130.48V142H273.466V132.656L271.13 134.192L270.89 132.96ZM281.196 142.16C278.572 142.16 277.116 139.52 277.116 136.4C277.116 133.28 278.572 130.64 281.196 130.64C283.82 130.64 285.276 133.28 285.276 136.4C285.276 139.52 283.82 142.16 281.196 142.16ZM281.196 141.008C283.164 141.008 283.996 138.768 283.996 136.4C283.996 134.032 283.164 131.792 281.196 131.792C279.228 131.792 278.396 134.032 278.396 136.4C278.396 138.768 279.228 141.008 281.196 141.008ZM288.923 142.128L288.203 141.552L297.003 130.672L297.723 131.248L288.923 142.128ZM289.755 136.736C288.283 136.736 287.371 135.456 287.371 133.728C287.371 132 288.283 130.72 289.755 130.72C291.243 130.72 292.155 132 292.155 133.728C292.155 135.456 291.243 136.736 289.755 136.736ZM289.755 135.808C290.651 135.808 291.147 134.944 291.147 133.728C291.147 132.512 290.651 131.648 289.755 131.648C288.875 131.648 288.379 132.512 288.379 133.728C288.379 134.944 288.875 135.808 289.755 135.808ZM296.235 142.096C294.763 142.096 293.851 140.816 293.851 139.088C293.851 137.36 294.763 136.08 296.235 136.08C297.723 136.08 298.635 137.36 298.635 139.088C298.635 140.816 297.723 142.096 296.235 142.096ZM296.235 141.168C297.131 141.168 297.627 140.304 297.627 139.088C297.627 137.872 297.131 137.008 296.235 137.008C295.355 137.008 294.859 137.872 294.859 139.088C294.859 140.304 295.355 141.168 296.235 141.168Z" fill="#D14600"/>
<path d="M86.8396 160.8L81.6396 169.856H86.6476L86.3276 172H77.8956L83.1116 162.944H78.1516L78.4876 160.8H86.8396ZM92.8277 164.848L95.0197 164.576V172.016H92.8917V171.264C92.3637 171.856 91.6117 172.192 90.7157 172.192C89.0037 172.192 88.0277 171.024 88.0277 169.184V164.848L90.2037 164.576V168.912C90.2037 169.792 90.7157 170.304 91.4677 170.304C92.2677 170.304 92.8277 169.728 92.8277 168.832V164.848ZM98.9689 165.808C99.4009 164.992 100.153 164.576 101.305 164.576V166.528C99.8809 166.528 99.0969 167.184 99.0969 168.656V172H96.9209V164.848L98.9689 164.592V165.808ZM105.723 172V160.944L107.995 160.656V172H105.723ZM114.444 164.528C116.172 164.528 117.18 165.696 117.18 167.536V172H114.988V167.808C114.988 166.912 114.46 166.4 113.692 166.4C112.876 166.4 112.3 166.976 112.3 167.888V172H110.124V164.848L112.236 164.592V165.456C112.764 164.864 113.532 164.528 114.444 164.528ZM123.322 166.48H121.434V169.216C121.434 169.856 121.77 170.224 122.394 170.224C122.698 170.224 123.066 170.128 123.322 170.032V171.856C122.954 172.016 122.442 172.128 121.866 172.128C120.138 172.128 119.258 171.104 119.258 169.488V166.48H118.122L118.394 164.72H119.258V163.36L121.434 162.256V164.72H123.322V166.48ZM128.223 170.56C129.055 170.56 129.951 170.224 130.879 169.392L131.503 170.992C130.623 171.728 129.439 172.208 128.207 172.208C125.887 172.208 124.175 170.528 124.175 168.368C124.175 166.208 125.855 164.512 128.095 164.512C129.999 164.512 131.551 165.76 131.743 167.968L126.431 169.68C126.799 170.224 127.423 170.56 128.223 170.56ZM128.111 166.144C127.007 166.144 126.191 166.976 126.079 168.128L129.615 166.976C129.311 166.448 128.767 166.144 128.111 166.144ZM135.219 165.808C135.651 164.992 136.403 164.576 137.555 164.576V166.528C136.131 166.528 135.347 167.184 135.347 168.656V172H133.171V164.848L135.219 164.592V165.808ZM144.485 172H142.581L142.517 171.52C142.037 171.952 141.397 172.208 140.661 172.208C139.141 172.208 137.941 171.088 137.941 169.616C137.941 168.16 139.109 167.04 140.725 167.04C141.333 167.04 141.893 167.248 142.389 167.568V167.312C142.389 166.512 141.989 166.096 140.805 166.096C140.213 166.096 139.637 166.208 139.061 166.4L139.317 164.816C139.989 164.64 140.613 164.56 141.221 164.56C143.285 164.56 144.421 165.424 144.421 167.184V170.688L144.485 172ZM141.221 170.704C141.925 170.704 142.453 170.208 142.453 169.568C142.453 168.928 141.925 168.432 141.221 168.432C140.533 168.432 140.021 168.928 140.021 169.568C140.021 170.208 140.533 170.704 141.221 170.704ZM153.243 172H150.667L148.363 168.624V172H146.187V160.688L148.363 160.416V167.84L150.587 164.72H153.099L150.459 168.208L153.243 172ZM158.916 166.48H157.028V169.216C157.028 169.856 157.364 170.224 157.988 170.224C158.292 170.224 158.66 170.128 158.916 170.032V171.856C158.548 172.016 158.036 172.128 157.46 172.128C155.732 172.128 154.852 171.104 154.852 169.488V166.48H153.716L153.988 164.72H154.852V163.36L157.028 162.256V164.72H158.916V166.48ZM161.448 163.456C160.712 163.456 160.12 162.88 160.12 162.176C160.12 161.456 160.712 160.88 161.448 160.88C162.2 160.88 162.792 161.456 162.792 162.176C162.792 162.88 162.2 163.456 161.448 163.456ZM160.344 172V164.848L162.536 164.576V172H160.344ZM168.003 172.208C165.747 172.208 163.987 170.528 163.987 168.368C163.987 166.192 165.747 164.512 168.003 164.512C170.259 164.512 172.003 166.192 172.003 168.368C172.003 170.528 170.259 172.208 168.003 172.208ZM168.003 170.336C169.107 170.336 169.939 169.472 169.939 168.352C169.939 167.232 169.107 166.384 168.003 166.384C166.899 166.384 166.051 167.232 166.051 168.352C166.051 169.472 166.899 170.336 168.003 170.336ZM177.741 164.528C179.469 164.528 180.477 165.696 180.477 167.536V172H178.285V167.808C178.285 166.912 177.757 166.4 176.989 166.4C176.173 166.4 175.597 166.976 175.597 167.888V172H173.421V164.848L175.533 164.592V165.456C176.061 164.864 176.829 164.528 177.741 164.528ZM184.265 172.208C183.417 172.208 182.569 171.952 181.849 171.552L182.105 169.936C182.793 170.32 183.433 170.56 184.057 170.56C184.601 170.56 184.921 170.304 184.921 169.888C184.921 169.568 184.745 169.328 184.041 169.12L183.753 169.008C182.649 168.624 181.993 167.856 181.993 166.752C181.993 165.472 183.001 164.512 184.569 164.512C185.273 164.512 186.041 164.704 186.729 165.008L186.457 166.64C185.817 166.304 185.129 166.112 184.665 166.112C184.185 166.112 183.945 166.368 183.945 166.688C183.945 166.976 184.105 167.2 184.697 167.408L185.017 167.52C186.313 167.968 186.969 168.704 186.969 169.84C186.969 171.248 185.897 172.208 184.265 172.208ZM190.358 172.208C189.51 172.208 188.662 171.952 187.942 171.552L188.198 169.936C188.886 170.32 189.526 170.56 190.15 170.56C190.694 170.56 191.014 170.304 191.014 169.888C191.014 169.568 190.838 169.328 190.134 169.12L189.846 169.008C188.742 168.624 188.086 167.856 188.086 166.752C188.086 165.472 189.094 164.512 190.662 164.512C191.366 164.512 192.134 164.704 192.822 165.008L192.55 166.64C191.91 166.304 191.222 166.112 190.758 166.112C190.278 166.112 190.038 166.368 190.038 166.688C190.038 166.976 190.198 167.2 190.79 167.408L191.11 167.52C192.406 167.968 193.062 168.704 193.062 169.84C193.062 171.248 191.99 172.208 190.358 172.208ZM198.978 166.48H197.09V169.216C197.09 169.856 197.426 170.224 198.05 170.224C198.354 170.224 198.722 170.128 198.978 170.032V171.856C198.61 172.016 198.098 172.128 197.522 172.128C195.794 172.128 194.914 171.104 194.914 169.488V166.48H193.778L194.05 164.72H194.914V163.36L197.09 162.256V164.72H198.978V166.48ZM206.422 172H204.518L204.454 171.52C203.974 171.952 203.334 172.208 202.598 172.208C201.078 172.208 199.878 171.088 199.878 169.616C199.878 168.16 201.046 167.04 202.662 167.04C203.27 167.04 203.83 167.248 204.326 167.568V167.312C204.326 166.512 203.926 166.096 202.742 166.096C202.15 166.096 201.574 166.208 200.998 166.4L201.254 164.816C201.926 164.64 202.55 164.56 203.158 164.56C205.222 164.56 206.358 165.424 206.358 167.184V170.688L206.422 172ZM203.158 170.704C203.862 170.704 204.39 170.208 204.39 169.568C204.39 168.928 203.862 168.432 203.158 168.432C202.47 168.432 201.958 168.928 201.958 169.568C201.958 170.208 202.47 170.704 203.158 170.704ZM212.572 166.48H210.684V169.216C210.684 169.856 211.02 170.224 211.644 170.224C211.948 170.224 212.316 170.128 212.572 170.032V171.856C212.204 172.016 211.692 172.128 211.116 172.128C209.388 172.128 208.508 171.104 208.508 169.488V166.48H207.372L207.644 164.72H208.508V163.36L210.684 162.256V164.72H212.572V166.48ZM215.104 163.456C214.368 163.456 213.776 162.88 213.776 162.176C213.776 161.456 214.368 160.88 215.104 160.88C215.856 160.88 216.448 161.456 216.448 162.176C216.448 162.88 215.856 163.456 215.104 163.456ZM214 172V164.848L216.192 164.576V172H214ZM220.14 172.208C219.292 172.208 218.444 171.952 217.724 171.552L217.98 169.936C218.668 170.32 219.308 170.56 219.932 170.56C220.476 170.56 220.796 170.304 220.796 169.888C220.796 169.568 220.62 169.328 219.916 169.12L219.628 169.008C218.524 168.624 217.868 167.856 217.868 166.752C217.868 165.472 218.876 164.512 220.444 164.512C221.148 164.512 221.916 164.704 222.604 165.008L222.332 166.64C221.692 166.304 221.004 166.112 220.54 166.112C220.06 166.112 219.82 166.368 219.82 166.688C219.82 166.976 219.98 167.2 220.572 167.408L220.892 167.52C222.188 167.968 222.844 168.704 222.844 169.84C222.844 171.248 221.772 172.208 220.14 172.208ZM228.76 166.48H226.872V169.216C226.872 169.856 227.208 170.224 227.832 170.224C228.136 170.224 228.504 170.128 228.76 170.032V171.856C228.392 172.016 227.88 172.128 227.304 172.128C225.576 172.128 224.696 171.104 224.696 169.488V166.48H223.56L223.832 164.72H224.696V163.36L226.872 162.256V164.72H228.76V166.48ZM231.291 163.456C230.555 163.456 229.963 162.88 229.963 162.176C229.963 161.456 230.555 160.88 231.291 160.88C232.043 160.88 232.635 161.456 232.635 162.176C232.635 162.88 232.043 163.456 231.291 163.456ZM230.187 172V164.848L232.379 164.576V172H230.187ZM241.383 172H238.807L236.503 168.624V172H234.327V160.688L236.503 160.416V167.84L238.727 164.72H241.239L238.599 168.208L241.383 172Z" fill="#D14600"/>
<path d="M251.703 170.76L255.768 166.577C255.924 166.417 256 166.208 256 166C256 165.792 255.922 165.582 255.768 165.423L251.703 161.239C251.394 160.92 250.892 160.92 250.582 161.239L250.232 161.599C249.923 161.917 249.923 162.434 250.232 162.754L252.825 165.423C252.981 165.583 253.057 165.792 253.057 166C253.057 166.208 252.979 166.418 252.825 166.577L250.232 169.248C249.923 169.566 249.923 170.083 250.232 170.403L250.582 170.763C250.892 171.08 251.394 171.08 251.703 170.76Z" fill="#D14600"/>
</g>
<defs>
<filter id="filter0_d_270_5159" x="0.8" y="0.8" width="328.4" height="207.4" filterUnits="userSpaceOnUse" color-interpolation-filters="sRGB">
<feFlood flood-opacity="0" result="BackgroundImageFix"/>
<feColorMatrix in="SourceAlpha" type="matrix" values="0 0 0 0 0 0 0 0 0 0 0 0 0 0 0 0 0 0 127 0" result="hardAlpha"/>
<feMorphology radius="1" operator="dilate" in="SourceAlpha" result="effect1_dropShadow_270_5159"/>
<feOffset/>
<feGaussianBlur stdDeviation="3.6"/>
<feComposite in2="hardAlpha" operator="out"/>
<feColorMatrix type="matrix" values="0 0 0 0 0 0 0 0 0 0 0 0 0 0 0 0 0 0 0.14 0"/>
<feBlend mode="normal" in2="BackgroundImageFix" result="effect1_dropShadow_270_5159"/>
<feBlend mode="normal" in="SourceGraphic" in2="effect1_dropShadow_270_5159" result="shape"/>
</filter>
</defs>
</svg>
