<svg width="310" height="406" viewBox="0 0 310 406" fill="none" xmlns="http://www.w3.org/2000/svg">
<g filter="url(#filter0_d_270_5183)">
<rect x="9" y="9" width="292" height="388" rx="20" fill="white" shape-rendering="crispEdges"/>
<path d="M110.533 64H107.299L99.445 54.331V64H96.937V40.9H101.491C106.408 40.9 109.609 43.936 109.609 48.094C109.609 51.757 107.002 54.463 103.141 55.024L110.533 64ZM99.445 43.276V53.11H101.491C104.89 53.11 106.969 51.031 106.969 48.127C106.969 45.322 104.89 43.276 101.491 43.276H99.445ZM120.155 62.218C122.201 62.218 124.049 61.327 125.633 59.512L126.524 61.624C124.709 63.406 122.498 64.33 120.122 64.33C115.634 64.33 112.4 60.997 112.4 56.773C112.4 52.483 115.766 49.15 120.056 49.15C123.62 49.15 126.359 51.493 126.887 55.156L115.106 58.984C115.898 60.898 117.746 62.218 120.155 62.218ZM120.023 51.262C117.02 51.262 114.677 53.704 114.677 56.773V56.905L124.181 53.836C123.554 52.252 121.937 51.262 120.023 51.262ZM136.776 42.154C134.796 42.154 133.674 43.342 133.674 45.685V49.48H136.974V51.592H133.674V64H131.364V51.592H129.318L129.714 49.48H131.364V45.52C131.364 41.989 133.41 39.976 136.776 39.976H137.139V42.154H136.776ZM146.516 62.218C148.562 62.218 150.41 61.327 151.994 59.512L152.885 61.624C151.07 63.406 148.859 64.33 146.483 64.33C141.995 64.33 138.761 60.997 138.761 56.773C138.761 52.483 142.127 49.15 146.417 49.15C149.981 49.15 152.72 51.493 153.248 55.156L141.467 58.984C142.259 60.898 144.107 62.218 146.516 62.218ZM146.384 51.262C143.381 51.262 141.038 53.704 141.038 56.773V56.905L150.542 53.836C149.915 52.252 148.298 51.262 146.384 51.262ZM159.273 51.658C160.296 50.107 161.979 49.249 164.355 49.249V51.592C161.088 51.592 159.405 53.176 159.405 56.443V64H157.095V49.678L159.273 49.249V51.658ZM169.811 51.658C170.834 50.107 172.517 49.249 174.893 49.249V51.592C171.626 51.592 169.943 53.176 169.943 56.443V64H167.633V49.678L169.811 49.249V51.658ZM184.383 62.218C186.429 62.218 188.277 61.327 189.861 59.512L190.752 61.624C188.937 63.406 186.726 64.33 184.35 64.33C179.862 64.33 176.628 60.997 176.628 56.773C176.628 52.483 179.994 49.15 184.284 49.15C187.848 49.15 190.587 51.493 191.115 55.156L179.334 58.984C180.126 60.898 181.974 62.218 184.383 62.218ZM184.251 51.262C181.248 51.262 178.905 53.704 178.905 56.773V56.905L188.409 53.836C187.782 52.252 186.165 51.262 184.251 51.262ZM197.139 51.658C198.162 50.107 199.845 49.249 202.221 49.249V51.592C198.954 51.592 197.271 53.176 197.271 56.443V64H194.961V49.678L197.139 49.249V51.658ZM209.03 64.33C207.413 64.33 205.73 63.736 204.41 62.812L204.806 60.7C206.258 61.723 207.578 62.284 209.03 62.284C210.515 62.284 211.505 61.426 211.505 60.007C211.505 59.017 211.01 58.291 208.832 57.598L208.238 57.4C205.961 56.641 204.773 55.123 204.773 53.143C204.773 50.866 206.588 49.15 209.162 49.15C210.449 49.15 211.868 49.579 213.122 50.272L212.693 52.384C211.373 51.559 210.053 51.196 209.162 51.196C207.743 51.196 206.951 52.021 206.951 53.11C206.951 54.034 207.446 54.694 209.36 55.354L209.954 55.552C212.396 56.344 213.749 57.862 213.749 60.007C213.749 62.548 211.835 64.33 209.03 64.33Z" fill="#003566"/>
<path d="M43.044 104.8C44.612 104.8 45.812 105.872 45.812 107.76V112H44.692V107.856C44.692 106.544 43.94 105.856 42.868 105.856C41.7 105.856 40.852 106.688 40.852 108.016V112H39.732V100.592L40.852 100.368V105.824C41.364 105.168 42.132 104.8 43.044 104.8ZM51.3059 112.16C49.2099 112.16 47.5619 110.544 47.5619 108.48C47.5619 106.416 49.2099 104.8 51.3059 104.8C53.4019 104.8 55.0499 106.416 55.0499 108.48C55.0499 110.544 53.4019 112.16 51.3059 112.16ZM51.3059 111.12C52.7779 111.12 53.8979 109.984 53.8979 108.48C53.8979 106.976 52.7779 105.84 51.3059 105.84C49.8339 105.84 48.7139 106.976 48.7139 108.48C48.7139 109.984 49.8339 111.12 51.3059 111.12ZM64.4395 104.8C65.9115 104.8 66.9995 105.808 66.9995 107.632V112H65.8795V107.728C65.8795 106.48 65.2235 105.84 64.2955 105.84C63.2715 105.84 62.5195 106.624 62.5195 107.888V112H61.3995V107.728C61.3995 106.48 60.7435 105.84 59.8155 105.84C58.7915 105.84 58.0395 106.624 58.0395 107.888V112H56.9195V105.056L57.9755 104.848V105.808C58.4395 105.168 59.1435 104.8 59.9755 104.8C60.9035 104.8 61.6875 105.248 62.1195 106.096C62.5995 105.28 63.4315 104.8 64.4395 104.8ZM72.5094 111.136C73.5014 111.136 74.3974 110.704 75.1654 109.824L75.5974 110.848C74.7174 111.712 73.6454 112.16 72.4934 112.16C70.3174 112.16 68.7494 110.544 68.7494 108.496C68.7494 106.416 70.3814 104.8 72.4614 104.8C74.1894 104.8 75.5174 105.936 75.7734 107.712L70.0614 109.568C70.4454 110.496 71.3414 111.136 72.5094 111.136ZM72.4454 105.824C70.9894 105.824 69.8534 107.008 69.8534 108.496V108.56L74.4614 107.072C74.1574 106.304 73.3734 105.824 72.4454 105.824ZM83.9903 104.64L83.7823 105.744L82.5343 105.632C83.2223 106.16 83.6383 106.96 83.6383 107.904C83.6383 109.056 82.9823 110.032 82.0063 110.544C82.8383 111.04 83.3983 111.936 83.3983 112.976C83.3983 114.544 82.1503 115.84 80.3583 115.84C78.7743 115.84 77.5903 114.832 77.3343 113.36L78.3743 112.928C78.5023 114.064 79.2543 114.816 80.3583 114.816C81.5263 114.816 82.3103 113.984 82.3103 112.928C82.3103 111.84 81.4623 111.04 80.3423 111.04C79.5583 111.04 78.9823 111.44 78.5823 111.968L77.9903 111.136C78.2143 110.896 78.4543 110.704 78.7103 110.56C77.7343 110.048 77.0783 109.072 77.0783 107.888C77.0783 106.192 78.4223 104.864 80.4223 104.784L83.9903 104.64ZM80.3583 110.032C81.6063 110.032 82.5503 109.136 82.5503 107.936C82.5503 106.736 81.6063 105.808 80.3583 105.808C79.1103 105.808 78.1663 106.736 78.1663 107.936C78.1663 109.136 79.1103 110.032 80.3583 110.032ZM90.7218 112H89.6818L89.6338 111.52C89.1698 111.92 88.5618 112.16 87.8738 112.16C86.3858 112.16 85.2338 111.024 85.2338 109.584C85.2338 108.144 86.3858 107.008 87.8738 107.008C88.5778 107.008 89.1218 107.248 89.5538 107.616V107.184C89.5538 106.272 89.1698 105.808 88.0338 105.808C87.4258 105.808 86.8658 105.936 86.3218 106.128L86.5298 105.088C87.0578 104.912 87.5538 104.832 88.0818 104.832C89.7938 104.832 90.6738 105.664 90.6738 107.088V110.64L90.7218 112ZM87.9698 111.2C88.9138 111.2 89.6498 110.48 89.6498 109.584C89.6498 108.672 88.8978 107.968 87.9698 107.968C87.0418 107.968 86.3058 108.672 86.3058 109.584C86.3058 110.496 87.0418 111.2 87.9698 111.2ZM96.3736 105.984H94.3256V109.984C94.3256 110.704 94.7256 111.088 95.3496 111.088C95.7016 111.088 96.1336 110.976 96.3736 110.864V111.904C96.1336 112.016 95.7016 112.128 95.2376 112.128C94.0056 112.128 93.2056 111.36 93.2056 110.064V105.984H92.1656L92.3576 104.96H93.2056V103.408L94.3256 102.736V104.96H96.3736V105.984ZM101.259 111.136C102.251 111.136 103.147 110.704 103.915 109.824L104.347 110.848C103.467 111.712 102.395 112.16 101.243 112.16C99.0674 112.16 97.4994 110.544 97.4994 108.496C97.4994 106.416 99.1314 104.8 101.211 104.8C102.939 104.8 104.267 105.936 104.523 107.712L98.8114 109.568C99.1954 110.496 100.091 111.136 101.259 111.136ZM101.195 105.824C99.7394 105.824 98.6034 107.008 98.6034 108.496V108.56L103.211 107.072C102.907 106.304 102.123 105.824 101.195 105.824ZM107.142 112.128C106.598 112.128 106.166 111.712 106.166 111.168C106.166 110.624 106.598 110.208 107.142 110.208C107.686 110.208 108.118 110.624 108.118 111.168C108.118 111.712 107.686 112.128 107.142 112.128ZM113.415 112.16C111.367 112.16 109.687 110.512 109.687 108.48C109.687 106.448 111.351 104.8 113.415 104.8C114.023 104.8 114.647 104.944 115.271 105.248L115.063 106.32C114.551 106.016 114.007 105.84 113.415 105.84C111.911 105.84 110.839 107.008 110.839 108.48C110.839 109.952 111.927 111.12 113.415 111.12C114.071 111.12 114.647 110.896 115.143 110.592L115.335 111.696C114.743 111.984 114.087 112.16 113.415 112.16ZM120.482 104.8C122.05 104.8 123.25 105.872 123.25 107.76V112H122.13V107.856C122.13 106.544 121.378 105.856 120.306 105.856C119.138 105.856 118.289 106.688 118.289 108.016V112H117.17V100.592L118.289 100.368V105.824C118.802 105.168 119.57 104.8 120.482 104.8Z" fill="#003566"/>
<path d="M163.364 104.88C165.348 104.88 166.9 106.464 166.9 108.48C166.9 110.544 165.252 112.16 163.14 112.16C160.996 112.16 159.38 110.464 159.38 108.224C159.38 105.152 162.148 102.048 164.708 100.496L165.492 101.392C164.036 102.352 162.308 103.712 161.332 105.552C161.876 105.136 162.564 104.88 163.364 104.88ZM163.156 111.008C164.548 111.008 165.636 109.888 165.636 108.48C165.636 107.088 164.548 106 163.156 106C161.748 106 160.644 107.088 160.644 108.48C160.644 109.888 161.748 111.008 163.156 111.008ZM177.203 106.24C178.435 106.672 179.219 107.664 179.219 108.944C179.219 110.752 177.795 112 175.747 112H172.627V100.8H175.587C177.571 100.8 178.963 102 178.963 103.712C178.963 104.88 178.275 105.792 177.203 106.24ZM175.587 101.952H173.843V105.76H175.587C176.835 105.76 177.715 104.96 177.715 103.792C177.715 102.704 176.835 101.952 175.587 101.952ZM175.747 110.848C177.059 110.848 177.971 110.048 177.971 108.88C177.971 107.712 177.059 106.912 175.747 106.912H173.843V110.848H175.747ZM184.556 111.136C185.548 111.136 186.444 110.704 187.212 109.824L187.644 110.848C186.764 111.712 185.692 112.16 184.54 112.16C182.364 112.16 180.796 110.544 180.796 108.496C180.796 106.416 182.428 104.8 184.508 104.8C186.236 104.8 187.564 105.936 187.82 107.712L182.108 109.568C182.492 110.496 183.388 111.136 184.556 111.136ZM184.492 105.824C183.036 105.824 181.9 107.008 181.9 108.496V108.56L186.508 107.072C186.204 106.304 185.42 105.824 184.492 105.824ZM191.397 112.16C190.613 112.16 189.797 111.872 189.157 111.424L189.349 110.4C190.053 110.896 190.693 111.168 191.397 111.168C192.117 111.168 192.597 110.752 192.597 110.064C192.597 109.584 192.357 109.232 191.301 108.896L191.013 108.8C189.909 108.432 189.333 107.696 189.333 106.736C189.333 105.632 190.213 104.8 191.461 104.8C192.085 104.8 192.773 105.008 193.381 105.344L193.173 106.368C192.533 105.968 191.893 105.792 191.461 105.792C190.773 105.792 190.389 106.192 190.389 106.72C190.389 107.168 190.629 107.488 191.557 107.808L191.845 107.904C193.029 108.288 193.685 109.024 193.685 110.064C193.685 111.296 192.757 112.16 191.397 112.16ZM200.453 105.056L201.573 104.848V112.016H200.517V111.152C199.989 111.792 199.221 112.16 198.309 112.16C196.725 112.16 195.557 111.088 195.557 109.2V105.056L196.677 104.848V109.104C196.677 110.416 197.413 111.104 198.469 111.104C199.621 111.104 200.453 110.272 200.453 108.944V105.056ZM207.181 112.16C205.133 112.16 203.453 110.512 203.453 108.48C203.453 106.448 205.117 104.8 207.181 104.8C207.789 104.8 208.413 104.944 209.037 105.248L208.829 106.32C208.317 106.016 207.773 105.84 207.181 105.84C205.677 105.84 204.605 107.008 204.605 108.48C204.605 109.952 205.693 111.12 207.181 111.12C207.837 111.12 208.413 110.896 208.909 110.592L209.101 111.696C208.509 111.984 207.853 112.16 207.181 112.16ZM214.247 104.8C215.815 104.8 217.015 105.872 217.015 107.76V112H215.895V107.856C215.895 106.544 215.143 105.856 214.071 105.856C212.903 105.856 212.055 106.688 212.055 108.016V112H210.935V100.592L212.055 100.368V105.824C212.567 105.168 213.335 104.8 214.247 104.8ZM222.525 111.136C223.517 111.136 224.413 110.704 225.181 109.824L225.613 110.848C224.733 111.712 223.661 112.16 222.509 112.16C220.333 112.16 218.765 110.544 218.765 108.496C218.765 106.416 220.397 104.8 222.477 104.8C224.205 104.8 225.533 105.936 225.789 107.712L220.077 109.568C220.461 110.496 221.357 111.136 222.525 111.136ZM222.461 105.824C221.005 105.824 219.869 107.008 219.869 108.496V108.56L224.477 107.072C224.173 106.304 223.389 105.824 222.461 105.824ZM228.71 106.016C229.206 105.264 230.022 104.848 231.174 104.848V105.984C229.59 105.984 228.774 106.752 228.774 108.336V112H227.654V105.056L228.71 104.848V106.016ZM236.221 114.48V99.76H237.309V114.48H236.221Z" fill="#003566"/>
<path d="M242.796 102.96L246.588 100.48V112H245.372V102.656L243.036 104.192L242.796 102.96ZM252.734 100.64C254.878 100.64 256.494 102.336 256.494 104.576C256.494 107.648 253.726 110.752 251.166 112.304L250.382 111.408C251.838 110.448 253.566 109.088 254.542 107.248C253.998 107.664 253.31 107.92 252.51 107.92C250.526 107.92 248.974 106.336 248.974 104.32C248.974 102.256 250.622 100.64 252.734 100.64ZM252.718 106.8C254.126 106.8 255.23 105.712 255.23 104.32C255.23 102.912 254.126 101.792 252.718 101.792C251.326 101.792 250.238 102.912 250.238 104.32C250.238 105.712 251.326 106.8 252.718 106.8ZM260.095 112.128L259.375 111.552L268.175 100.672L268.895 101.248L260.095 112.128ZM260.927 106.736C259.455 106.736 258.543 105.456 258.543 103.728C258.543 102 259.455 100.72 260.927 100.72C262.415 100.72 263.327 102 263.327 103.728C263.327 105.456 262.415 106.736 260.927 106.736ZM260.927 105.808C261.823 105.808 262.319 104.944 262.319 103.728C262.319 102.512 261.823 101.648 260.927 101.648C260.047 101.648 259.551 102.512 259.551 103.728C259.551 104.944 260.047 105.808 260.927 105.808ZM267.407 112.096C265.935 112.096 265.023 110.816 265.023 109.088C265.023 107.36 265.935 106.08 267.407 106.08C268.895 106.08 269.807 107.36 269.807 109.088C269.807 110.816 268.895 112.096 267.407 112.096ZM267.407 111.168C268.303 111.168 268.799 110.304 268.799 109.088C268.799 107.872 268.303 107.008 267.407 107.008C266.527 107.008 266.031 107.872 266.031 109.088C266.031 110.304 266.527 111.168 267.407 111.168Z" fill="#D14600"/>
<path d="M46.084 134.64L45.876 135.744L44.628 135.632C45.316 136.16 45.732 136.96 45.732 137.904C45.732 139.056 45.076 140.032 44.1 140.544C44.932 141.04 45.492 141.936 45.492 142.976C45.492 144.544 44.244 145.84 42.452 145.84C40.868 145.84 39.684 144.832 39.428 143.36L40.468 142.928C40.596 144.064 41.348 144.816 42.452 144.816C43.62 144.816 44.404 143.984 44.404 142.928C44.404 141.84 43.556 141.04 42.436 141.04C41.652 141.04 41.076 141.44 40.676 141.968L40.084 141.136C40.308 140.896 40.548 140.704 40.804 140.56C39.828 140.048 39.172 139.072 39.172 137.888C39.172 136.192 40.516 134.864 42.516 134.784L46.084 134.64ZM42.452 140.032C43.7 140.032 44.644 139.136 44.644 137.936C44.644 136.736 43.7 135.808 42.452 135.808C41.204 135.808 40.26 136.736 40.26 137.936C40.26 139.136 41.204 140.032 42.452 140.032ZM50.9934 142.16C48.8974 142.16 47.2494 140.544 47.2494 138.48C47.2494 136.416 48.8974 134.8 50.9934 134.8C53.0894 134.8 54.7374 136.416 54.7374 138.48C54.7374 140.544 53.0894 142.16 50.9934 142.16ZM50.9934 141.12C52.4654 141.12 53.5854 139.984 53.5854 138.48C53.5854 136.976 52.4654 135.84 50.9934 135.84C49.5214 135.84 48.4014 136.976 48.4014 138.48C48.4014 139.984 49.5214 141.12 50.9934 141.12ZM59.759 142.16C57.663 142.16 56.015 140.544 56.015 138.48C56.015 136.416 57.663 134.8 59.759 134.8C61.855 134.8 63.503 136.416 63.503 138.48C63.503 140.544 61.855 142.16 59.759 142.16ZM59.759 141.12C61.231 141.12 62.351 139.984 62.351 138.48C62.351 136.976 61.231 135.84 59.759 135.84C58.287 135.84 57.167 136.976 57.167 138.48C57.167 139.984 58.287 141.12 59.759 141.12ZM71.7246 134.64L71.5166 135.744L70.2686 135.632C70.9566 136.16 71.3726 136.96 71.3726 137.904C71.3726 139.056 70.7166 140.032 69.7406 140.544C70.5726 141.04 71.1326 141.936 71.1326 142.976C71.1326 144.544 69.8846 145.84 68.0926 145.84C66.5086 145.84 65.3246 144.832 65.0686 143.36L66.1086 142.928C66.2366 144.064 66.9886 144.816 68.0926 144.816C69.2606 144.816 70.0446 143.984 70.0446 142.928C70.0446 141.84 69.1966 141.04 68.0766 141.04C67.2926 141.04 66.7166 141.44 66.3166 141.968L65.7246 141.136C65.9486 140.896 66.1886 140.704 66.4446 140.56C65.4686 140.048 64.8126 139.072 64.8126 137.888C64.8126 136.192 66.1566 134.864 68.1566 134.784L71.7246 134.64ZM68.0926 140.032C69.3406 140.032 70.2846 139.136 70.2846 137.936C70.2846 136.736 69.3406 135.808 68.0926 135.808C66.8446 135.808 65.9006 136.736 65.9006 137.936C65.9006 139.136 66.8446 140.032 68.0926 140.032ZM73.6863 142V130.592L74.8063 130.368V142H73.6863ZM80.4938 141.136C81.4858 141.136 82.3818 140.704 83.1498 139.824L83.5818 140.848C82.7018 141.712 81.6298 142.16 80.4778 142.16C78.3018 142.16 76.7338 140.544 76.7338 138.496C76.7338 136.416 78.3658 134.8 80.4458 134.8C82.1738 134.8 83.5018 135.936 83.7578 137.712L78.0458 139.568C78.4298 140.496 79.3258 141.136 80.4938 141.136ZM80.4298 135.824C78.9738 135.824 77.8378 137.008 77.8378 138.496V138.56L82.4458 137.072C82.1418 136.304 81.3578 135.824 80.4298 135.824ZM86.3765 142.128C85.8325 142.128 85.4005 141.712 85.4005 141.168C85.4005 140.624 85.8325 140.208 86.3765 140.208C86.9205 140.208 87.3525 140.624 87.3525 141.168C87.3525 141.712 86.9205 142.128 86.3765 142.128ZM92.6493 142.16C90.6013 142.16 88.9213 140.512 88.9213 138.48C88.9213 136.448 90.5853 134.8 92.6493 134.8C93.2573 134.8 93.8813 134.944 94.5053 135.248L94.2973 136.32C93.7853 136.016 93.2413 135.84 92.6493 135.84C91.1453 135.84 90.0733 137.008 90.0733 138.48C90.0733 139.952 91.1613 141.12 92.6493 141.12C93.3053 141.12 93.8813 140.896 94.3773 140.592L94.5693 141.696C93.9773 141.984 93.3213 142.16 92.6493 142.16ZM99.3996 142.16C97.3036 142.16 95.6556 140.544 95.6556 138.48C95.6556 136.416 97.3036 134.8 99.3996 134.8C101.496 134.8 103.144 136.416 103.144 138.48C103.144 140.544 101.496 142.16 99.3996 142.16ZM99.3996 141.12C100.872 141.12 101.992 139.984 101.992 138.48C101.992 136.976 100.872 135.84 99.3996 135.84C97.9276 135.84 96.8076 136.976 96.8076 138.48C96.8076 139.984 97.9276 141.12 99.3996 141.12ZM112.533 134.8C114.005 134.8 115.093 135.808 115.093 137.632V142H113.973V137.728C113.973 136.48 113.317 135.84 112.389 135.84C111.365 135.84 110.613 136.624 110.613 137.888V142H109.493V137.728C109.493 136.48 108.837 135.84 107.909 135.84C106.885 135.84 106.133 136.624 106.133 137.888V142H105.013V135.056L106.069 134.848V135.808C106.533 135.168 107.237 134.8 108.069 134.8C108.997 134.8 109.781 135.248 110.213 136.096C110.693 135.28 111.525 134.8 112.533 134.8Z" fill="#003566"/>
<path d="M163.14 132.96L166.932 130.48V142H165.716V132.656L163.38 134.192L163.14 132.96ZM177.859 136.24C179.091 136.672 179.875 137.664 179.875 138.944C179.875 140.752 178.451 142 176.403 142H173.283V130.8H176.243C178.227 130.8 179.619 132 179.619 133.712C179.619 134.88 178.931 135.792 177.859 136.24ZM176.243 131.952H174.499V135.76H176.243C177.491 135.76 178.371 134.96 178.371 133.792C178.371 132.704 177.491 131.952 176.243 131.952ZM176.403 140.848C177.715 140.848 178.627 140.048 178.627 138.88C178.627 137.712 177.715 136.912 176.403 136.912H174.499V140.848H176.403ZM185.213 141.136C186.205 141.136 187.101 140.704 187.869 139.824L188.301 140.848C187.421 141.712 186.349 142.16 185.197 142.16C183.021 142.16 181.453 140.544 181.453 138.496C181.453 136.416 183.085 134.8 185.165 134.8C186.893 134.8 188.221 135.936 188.477 137.712L182.765 139.568C183.149 140.496 184.045 141.136 185.213 141.136ZM185.149 135.824C183.693 135.824 182.557 137.008 182.557 138.496V138.56L187.165 137.072C186.861 136.304 186.077 135.824 185.149 135.824ZM192.053 142.16C191.269 142.16 190.453 141.872 189.813 141.424L190.005 140.4C190.709 140.896 191.349 141.168 192.053 141.168C192.773 141.168 193.253 140.752 193.253 140.064C193.253 139.584 193.013 139.232 191.957 138.896L191.669 138.8C190.565 138.432 189.989 137.696 189.989 136.736C189.989 135.632 190.869 134.8 192.117 134.8C192.741 134.8 193.429 135.008 194.037 135.344L193.829 136.368C193.189 135.968 192.549 135.792 192.117 135.792C191.429 135.792 191.045 136.192 191.045 136.72C191.045 137.168 191.285 137.488 192.213 137.808L192.501 137.904C193.685 138.288 194.341 139.024 194.341 140.064C194.341 141.296 193.413 142.16 192.053 142.16ZM201.109 135.056L202.229 134.848V142.016H201.173V141.152C200.645 141.792 199.877 142.16 198.965 142.16C197.381 142.16 196.213 141.088 196.213 139.2V135.056L197.333 134.848V139.104C197.333 140.416 198.069 141.104 199.125 141.104C200.277 141.104 201.109 140.272 201.109 138.944V135.056ZM207.837 142.16C205.789 142.16 204.109 140.512 204.109 138.48C204.109 136.448 205.773 134.8 207.837 134.8C208.445 134.8 209.069 134.944 209.693 135.248L209.485 136.32C208.973 136.016 208.429 135.84 207.837 135.84C206.333 135.84 205.261 137.008 205.261 138.48C205.261 139.952 206.349 141.12 207.837 141.12C208.493 141.12 209.069 140.896 209.565 140.592L209.757 141.696C209.165 141.984 208.509 142.16 207.837 142.16ZM214.903 134.8C216.471 134.8 217.671 135.872 217.671 137.76V142H216.551V137.856C216.551 136.544 215.799 135.856 214.727 135.856C213.559 135.856 212.711 136.688 212.711 138.016V142H211.591V130.592L212.711 130.368V135.824C213.223 135.168 213.991 134.8 214.903 134.8ZM223.181 141.136C224.173 141.136 225.069 140.704 225.837 139.824L226.269 140.848C225.389 141.712 224.317 142.16 223.165 142.16C220.989 142.16 219.421 140.544 219.421 138.496C219.421 136.416 221.053 134.8 223.133 134.8C224.861 134.8 226.189 135.936 226.445 137.712L220.733 139.568C221.117 140.496 222.013 141.136 223.181 141.136ZM223.117 135.824C221.661 135.824 220.525 137.008 220.525 138.496V138.56L225.133 137.072C224.829 136.304 224.045 135.824 223.117 135.824ZM229.366 136.016C229.862 135.264 230.678 134.848 231.83 134.848V135.984C230.246 135.984 229.43 136.752 229.43 138.336V142H228.31V135.056L229.366 134.848V136.016ZM236.877 144.48V129.76H237.965V144.48H236.877Z" fill="#003566"/>
<path d="M243.453 132.96L247.245 130.48V142H246.029V132.656L243.693 134.192L243.453 132.96ZM257.054 138.192V139.28H255.582V142H254.414V139.28H248.91L255.582 130.32V138.192H257.054ZM251.15 138.192H254.414V133.792L251.15 138.192ZM260.501 142.128L259.781 141.552L268.581 130.672L269.301 131.248L260.501 142.128ZM261.333 136.736C259.861 136.736 258.949 135.456 258.949 133.728C258.949 132 259.861 130.72 261.333 130.72C262.821 130.72 263.733 132 263.733 133.728C263.733 135.456 262.821 136.736 261.333 136.736ZM261.333 135.808C262.229 135.808 262.725 134.944 262.725 133.728C262.725 132.512 262.229 131.648 261.333 131.648C260.453 131.648 259.957 132.512 259.957 133.728C259.957 134.944 260.453 135.808 261.333 135.808ZM267.813 142.096C266.341 142.096 265.429 140.816 265.429 139.088C265.429 137.36 266.341 136.08 267.813 136.08C269.301 136.08 270.213 137.36 270.213 139.088C270.213 140.816 269.301 142.096 267.813 142.096ZM267.813 141.168C268.709 141.168 269.205 140.304 269.205 139.088C269.205 137.872 268.709 137.008 267.813 137.008C266.933 137.008 266.437 137.872 266.437 139.088C266.437 140.304 266.933 141.168 267.813 141.168Z" fill="#D14600"/>
<path d="M40.34 163.04C39.892 163.04 39.54 162.688 39.54 162.24C39.54 161.792 39.892 161.44 40.34 161.44C40.788 161.44 41.14 161.792 41.14 162.24C41.14 162.688 40.788 163.04 40.34 163.04ZM39.78 172V165.072L40.9 164.848V172H39.78ZM46.7155 164.8C48.3155 164.8 49.4995 165.872 49.4995 167.76V172H48.3795V167.856C48.3795 166.528 47.6275 165.84 46.5555 165.84C45.3875 165.84 44.5395 166.672 44.5395 168.016V172H43.4195V165.056L44.4755 164.848V165.808C45.0035 165.168 45.7875 164.8 46.7155 164.8ZM53.5534 172.16C52.7694 172.16 51.9534 171.872 51.3134 171.424L51.5054 170.4C52.2094 170.896 52.8494 171.168 53.5534 171.168C54.2734 171.168 54.7534 170.752 54.7534 170.064C54.7534 169.584 54.5134 169.232 53.4574 168.896L53.1694 168.8C52.0654 168.432 51.4894 167.696 51.4894 166.736C51.4894 165.632 52.3694 164.8 53.6174 164.8C54.2414 164.8 54.9294 165.008 55.5374 165.344L55.3294 166.368C54.6894 165.968 54.0494 165.792 53.6174 165.792C52.9294 165.792 52.5454 166.192 52.5454 166.72C52.5454 167.168 52.7854 167.488 53.7134 167.808L54.0014 167.904C55.1854 168.288 55.8414 169.024 55.8414 170.064C55.8414 171.296 54.9134 172.16 53.5534 172.16ZM61.1393 165.984H59.0913V169.984C59.0913 170.704 59.4913 171.088 60.1153 171.088C60.4673 171.088 60.8993 170.976 61.1393 170.864V171.904C60.8993 172.016 60.4673 172.128 60.0033 172.128C58.7713 172.128 57.9713 171.36 57.9713 170.064V165.984H56.9313L57.1233 164.96H57.9713V163.408L59.0913 162.736V164.96H61.1393V165.984ZM67.8311 172H66.7911L66.7431 171.52C66.2791 171.92 65.6711 172.16 64.9831 172.16C63.4951 172.16 62.3431 171.024 62.3431 169.584C62.3431 168.144 63.4951 167.008 64.9831 167.008C65.6871 167.008 66.2311 167.248 66.6631 167.616V167.184C66.6631 166.272 66.2791 165.808 65.1431 165.808C64.5351 165.808 63.9751 165.936 63.4311 166.128L63.6391 165.088C64.1671 164.912 64.6631 164.832 65.1911 164.832C66.9031 164.832 67.7831 165.664 67.7831 167.088V170.64L67.8311 172ZM65.0791 171.2C66.0231 171.2 66.7591 170.48 66.7591 169.584C66.7591 168.672 66.0071 167.968 65.0791 167.968C64.1511 167.968 63.4151 168.672 63.4151 169.584C63.4151 170.496 64.1511 171.2 65.0791 171.2ZM76.459 164.64L76.251 165.744L75.003 165.632C75.691 166.16 76.107 166.96 76.107 167.904C76.107 169.056 75.451 170.032 74.475 170.544C75.307 171.04 75.867 171.936 75.867 172.976C75.867 174.544 74.619 175.84 72.827 175.84C71.243 175.84 70.059 174.832 69.803 173.36L70.843 172.928C70.971 174.064 71.723 174.816 72.827 174.816C73.995 174.816 74.779 173.984 74.779 172.928C74.779 171.84 73.931 171.04 72.811 171.04C72.027 171.04 71.451 171.44 71.051 171.968L70.459 171.136C70.683 170.896 70.923 170.704 71.179 170.56C70.203 170.048 69.547 169.072 69.547 167.888C69.547 166.192 70.891 164.864 72.891 164.784L76.459 164.64ZM72.827 170.032C74.075 170.032 75.019 169.136 75.019 167.936C75.019 166.736 74.075 165.808 72.827 165.808C71.579 165.808 70.635 166.736 70.635 167.936C70.635 169.136 71.579 170.032 72.827 170.032ZM79.4286 166.016C79.9246 165.264 80.7406 164.848 81.8926 164.848V165.984C80.3086 165.984 79.4926 166.752 79.4926 168.336V172H78.3726V165.056L79.4286 164.848V166.016ZM88.1436 172H87.1036L87.0556 171.52C86.5916 171.92 85.9836 172.16 85.2956 172.16C83.8076 172.16 82.6556 171.024 82.6556 169.584C82.6556 168.144 83.8076 167.008 85.2956 167.008C85.9996 167.008 86.5436 167.248 86.9756 167.616V167.184C86.9756 166.272 86.5916 165.808 85.4556 165.808C84.8476 165.808 84.2876 165.936 83.7436 166.128L83.9516 165.088C84.4796 164.912 84.9756 164.832 85.5036 164.832C87.2156 164.832 88.0956 165.664 88.0956 167.088V170.64L88.1436 172ZM85.3916 171.2C86.3356 171.2 87.0716 170.48 87.0716 169.584C87.0716 168.672 86.3196 167.968 85.3916 167.968C84.4636 167.968 83.7276 168.672 83.7276 169.584C83.7276 170.496 84.4636 171.2 85.3916 171.2ZM97.9395 164.8C99.4115 164.8 100.5 165.808 100.5 167.632V172H99.3795V167.728C99.3795 166.48 98.7235 165.84 97.7955 165.84C96.7715 165.84 96.0195 166.624 96.0195 167.888V172H94.8995V167.728C94.8995 166.48 94.2435 165.84 93.3155 165.84C92.2915 165.84 91.5395 166.624 91.5395 167.888V172H90.4195V165.056L91.4755 164.848V165.808C91.9395 165.168 92.6435 164.8 93.4755 164.8C94.4035 164.8 95.1875 165.248 95.6195 166.096C96.0995 165.28 96.9315 164.8 97.9395 164.8Z" fill="#003566"/>
<path d="M163.14 162.96L166.932 160.48V172H165.716V162.656L163.38 164.192L163.14 162.96ZM177.859 166.24C179.091 166.672 179.875 167.664 179.875 168.944C179.875 170.752 178.451 172 176.403 172H173.283V160.8H176.243C178.227 160.8 179.619 162 179.619 163.712C179.619 164.88 178.931 165.792 177.859 166.24ZM176.243 161.952H174.499V165.76H176.243C177.491 165.76 178.371 164.96 178.371 163.792C178.371 162.704 177.491 161.952 176.243 161.952ZM176.403 170.848C177.715 170.848 178.627 170.048 178.627 168.88C178.627 167.712 177.715 166.912 176.403 166.912H174.499V170.848H176.403ZM185.213 171.136C186.205 171.136 187.101 170.704 187.869 169.824L188.301 170.848C187.421 171.712 186.349 172.16 185.197 172.16C183.021 172.16 181.453 170.544 181.453 168.496C181.453 166.416 183.085 164.8 185.165 164.8C186.893 164.8 188.221 165.936 188.477 167.712L182.765 169.568C183.149 170.496 184.045 171.136 185.213 171.136ZM185.149 165.824C183.693 165.824 182.557 167.008 182.557 168.496V168.56L187.165 167.072C186.861 166.304 186.077 165.824 185.149 165.824ZM192.053 172.16C191.269 172.16 190.453 171.872 189.813 171.424L190.005 170.4C190.709 170.896 191.349 171.168 192.053 171.168C192.773 171.168 193.253 170.752 193.253 170.064C193.253 169.584 193.013 169.232 191.957 168.896L191.669 168.8C190.565 168.432 189.989 167.696 189.989 166.736C189.989 165.632 190.869 164.8 192.117 164.8C192.741 164.8 193.429 165.008 194.037 165.344L193.829 166.368C193.189 165.968 192.549 165.792 192.117 165.792C191.429 165.792 191.045 166.192 191.045 166.72C191.045 167.168 191.285 167.488 192.213 167.808L192.501 167.904C193.685 168.288 194.341 169.024 194.341 170.064C194.341 171.296 193.413 172.16 192.053 172.16ZM201.109 165.056L202.229 164.848V172.016H201.173V171.152C200.645 171.792 199.877 172.16 198.965 172.16C197.381 172.16 196.213 171.088 196.213 169.2V165.056L197.333 164.848V169.104C197.333 170.416 198.069 171.104 199.125 171.104C200.277 171.104 201.109 170.272 201.109 168.944V165.056ZM207.837 172.16C205.789 172.16 204.109 170.512 204.109 168.48C204.109 166.448 205.773 164.8 207.837 164.8C208.445 164.8 209.069 164.944 209.693 165.248L209.485 166.32C208.973 166.016 208.429 165.84 207.837 165.84C206.333 165.84 205.261 167.008 205.261 168.48C205.261 169.952 206.349 171.12 207.837 171.12C208.493 171.12 209.069 170.896 209.565 170.592L209.757 171.696C209.165 171.984 208.509 172.16 207.837 172.16ZM214.903 164.8C216.471 164.8 217.671 165.872 217.671 167.76V172H216.551V167.856C216.551 166.544 215.799 165.856 214.727 165.856C213.559 165.856 212.711 166.688 212.711 168.016V172H211.591V160.592L212.711 160.368V165.824C213.223 165.168 213.991 164.8 214.903 164.8ZM223.181 171.136C224.173 171.136 225.069 170.704 225.837 169.824L226.269 170.848C225.389 171.712 224.317 172.16 223.165 172.16C220.989 172.16 219.421 170.544 219.421 168.496C219.421 166.416 221.053 164.8 223.133 164.8C224.861 164.8 226.189 165.936 226.445 167.712L220.733 169.568C221.117 170.496 222.013 171.136 223.181 171.136ZM223.117 165.824C221.661 165.824 220.525 167.008 220.525 168.496V168.56L225.133 167.072C224.829 166.304 224.045 165.824 223.117 165.824ZM229.366 166.016C229.862 165.264 230.678 164.848 231.83 164.848V165.984C230.246 165.984 229.43 166.752 229.43 168.336V172H228.31V165.056L229.366 164.848V166.016ZM236.877 174.48V159.76H237.965V174.48H236.877Z" fill="#003566"/>
<path d="M243.453 162.96L247.245 160.48V172H246.029V162.656L243.693 164.192L243.453 162.96ZM257.054 168.192V169.28H255.582V172H254.414V169.28H248.91L255.582 160.32V168.192H257.054ZM251.15 168.192H254.414V163.792L251.15 168.192ZM260.501 172.128L259.781 171.552L268.581 160.672L269.301 161.248L260.501 172.128ZM261.333 166.736C259.861 166.736 258.949 165.456 258.949 163.728C258.949 162 259.861 160.72 261.333 160.72C262.821 160.72 263.733 162 263.733 163.728C263.733 165.456 262.821 166.736 261.333 166.736ZM261.333 165.808C262.229 165.808 262.725 164.944 262.725 163.728C262.725 162.512 262.229 161.648 261.333 161.648C260.453 161.648 259.957 162.512 259.957 163.728C259.957 164.944 260.453 165.808 261.333 165.808ZM267.813 172.096C266.341 172.096 265.429 170.816 265.429 169.088C265.429 167.36 266.341 166.08 267.813 166.08C269.301 166.08 270.213 167.36 270.213 169.088C270.213 170.816 269.301 172.096 267.813 172.096ZM267.813 171.168C268.709 171.168 269.205 170.304 269.205 169.088C269.205 167.872 268.709 167.008 267.813 167.008C266.933 167.008 266.437 167.872 266.437 169.088C266.437 170.304 266.933 171.168 267.813 171.168Z" fill="#D14600"/>
<path d="M112.445 244.624H122.543L122.081 247H109.937V224.131L112.445 223.669V244.624ZM128.471 228.751C127.58 228.751 126.887 228.058 126.887 227.167C126.887 226.276 127.58 225.583 128.471 225.583C129.362 225.583 130.055 226.276 130.055 227.167C130.055 228.058 129.362 228.751 128.471 228.751ZM134.477 228.751C133.586 228.751 132.893 228.058 132.893 227.167C132.893 226.276 133.586 225.583 134.477 225.583C135.368 225.583 136.061 226.276 136.061 227.167C136.061 228.058 135.368 228.751 134.477 228.751ZM136.622 247H134.477L134.378 246.01C133.421 246.835 132.167 247.33 130.748 247.33C127.679 247.33 125.303 244.987 125.303 242.017C125.303 239.047 127.679 236.704 130.748 236.704C132.2 236.704 133.322 237.199 134.213 237.958V237.067C134.213 235.186 133.421 234.229 131.078 234.229C129.824 234.229 128.669 234.493 127.547 234.889L127.976 232.744C129.065 232.381 130.088 232.216 131.177 232.216C134.708 232.216 136.523 233.932 136.523 236.869V244.195L136.622 247ZM130.946 245.35C132.893 245.35 134.411 243.865 134.411 242.017C134.411 240.136 132.86 238.684 130.946 238.684C129.032 238.684 127.514 240.136 127.514 242.017C127.514 243.898 129.032 245.35 130.946 245.35ZM148.114 232.15C151.414 232.15 153.856 234.361 153.856 238.255V247H151.546V238.453C151.546 235.714 149.995 234.295 147.784 234.295C145.375 234.295 143.626 236.011 143.626 238.783V247H141.316V232.678L143.494 232.249V234.229C144.583 232.909 146.2 232.15 148.114 232.15ZM170.303 223.471L172.613 223.009V247H170.303V244.855C169.049 246.373 167.168 247.33 164.957 247.33C160.865 247.33 157.466 243.997 157.466 239.74C157.466 235.483 160.865 232.15 164.957 232.15C167.168 232.15 169.049 233.107 170.303 234.625V223.471ZM165.155 245.185C168.125 245.185 170.468 242.776 170.468 239.74C170.468 236.704 168.125 234.295 165.155 234.295C162.152 234.295 159.842 236.704 159.842 239.74C159.842 242.776 162.152 245.185 165.155 245.185ZM184.234 245.218C186.28 245.218 188.128 244.327 189.712 242.512L190.603 244.624C188.788 246.406 186.577 247.33 184.201 247.33C179.713 247.33 176.479 243.997 176.479 239.773C176.479 235.483 179.845 232.15 184.135 232.15C187.699 232.15 190.438 234.493 190.966 238.156L179.185 241.984C179.977 243.898 181.825 245.218 184.234 245.218ZM184.102 234.262C181.099 234.262 178.756 236.704 178.756 239.773V239.905L188.26 236.836C187.633 235.252 186.016 234.262 184.102 234.262ZM196.99 234.658C198.013 233.107 199.696 232.249 202.072 232.249V234.592C198.805 234.592 197.122 236.176 197.122 239.443V247H194.812V232.678L196.99 232.249V234.658Z" fill="#003566"/>
<path d="M33.096 295.192C31.656 295.192 30.504 294.552 29.768 293.928L30.04 292.6C30.808 293.384 31.912 294.04 33.096 294.04C34.392 294.04 35.272 293.192 35.272 292.024C35.272 291.176 34.776 290.408 33.576 290.024L32.84 289.784C30.728 289.096 30.104 287.864 30.104 286.552C30.104 284.888 31.432 283.608 33.256 283.608C34.184 283.608 35.224 283.928 36.088 284.504L35.848 285.768C34.968 285.112 34.12 284.76 33.256 284.76C32.104 284.76 31.336 285.512 31.336 286.552C31.336 287.416 31.784 288.104 33.272 288.584L34.008 288.824C35.736 289.384 36.52 290.584 36.52 292.008C36.52 293.848 35.112 295.192 33.096 295.192ZM41.7743 295.16C39.7263 295.16 38.0463 293.512 38.0463 291.48C38.0463 289.448 39.7103 287.8 41.7743 287.8C42.3823 287.8 43.0063 287.944 43.6303 288.248L43.4223 289.32C42.9103 289.016 42.3663 288.84 41.7743 288.84C40.2703 288.84 39.1983 290.008 39.1983 291.48C39.1983 292.952 40.2863 294.12 41.7743 294.12C42.4303 294.12 43.0063 293.896 43.5023 293.592L43.6943 294.696C43.1023 294.984 42.4463 295.16 41.7743 295.16ZM48.8409 287.8C50.4089 287.8 51.6089 288.872 51.6089 290.76V295H50.4889V290.856C50.4889 289.544 49.7369 288.856 48.6649 288.856C47.4969 288.856 46.6489 289.688 46.6489 291.016V295H45.5289V283.592L46.6489 283.368V288.824C47.1609 288.168 47.9289 287.8 48.8409 287.8ZM64.3385 287.96L61.0905 295.32L58.6105 290.056L56.1305 295.32L52.8825 287.96H54.1145L56.1625 292.84L58.6105 287.64L61.0585 292.84L63.1065 287.96H64.3385ZM68.8219 294.136C69.8139 294.136 70.7099 293.704 71.4779 292.824L71.9099 293.848C71.0299 294.712 69.9579 295.16 68.8059 295.16C66.6299 295.16 65.0619 293.544 65.0619 291.496C65.0619 289.416 66.6939 287.8 68.7739 287.8C70.5019 287.8 71.8299 288.936 72.0859 290.712L66.3739 292.568C66.7579 293.496 67.6539 294.136 68.8219 294.136ZM68.7579 288.824C67.3019 288.824 66.1659 290.008 66.1659 291.496V291.56L70.7739 290.072C70.4699 289.304 69.6859 288.824 68.7579 288.824ZM74.5588 286.04C74.1108 286.04 73.7588 285.688 73.7588 285.24C73.7588 284.792 74.1108 284.44 74.5588 284.44C75.0068 284.44 75.3588 284.792 75.3588 285.24C75.3588 285.688 75.0068 286.04 74.5588 286.04ZM73.9988 295V288.072L75.1188 287.848V295H73.9988ZM83.3823 287.96L79.0463 294.008H83.3343L83.1423 295H77.0303L81.3663 288.952H77.3503L77.5423 287.96H83.3823Z" fill="#003566"/>
<path d="M161.64 285.96L165.432 283.48V295H164.216V285.656L161.88 287.192L161.64 285.96ZM171.226 288.104C172.954 288.152 174.362 289.624 174.362 291.496C174.362 293.544 172.714 295.16 170.602 295.16C169.306 295.16 168.266 294.552 167.498 293.592L168.138 292.552C168.682 293.352 169.514 294.008 170.602 294.008C172.01 294.008 173.114 292.904 173.114 291.48C173.114 290.088 172.074 288.984 170.49 288.984C170.074 288.984 169.61 289.064 169.13 289.176L172.026 284.952H167.834L168.058 283.8H174.33L171.226 288.104ZM184.828 289.24C186.06 289.672 186.844 290.664 186.844 291.944C186.844 293.752 185.42 295 183.372 295H180.252V283.8H183.212C185.196 283.8 186.588 285 186.588 286.712C186.588 287.88 185.9 288.792 184.828 289.24ZM183.212 284.952H181.468V288.76H183.212C184.46 288.76 185.34 287.96 185.34 286.792C185.34 285.704 184.46 284.952 183.212 284.952ZM183.372 293.848C184.684 293.848 185.596 293.048 185.596 291.88C185.596 290.712 184.684 289.912 183.372 289.912H181.468V293.848H183.372ZM192.181 294.136C193.173 294.136 194.069 293.704 194.837 292.824L195.269 293.848C194.389 294.712 193.317 295.16 192.165 295.16C189.989 295.16 188.421 293.544 188.421 291.496C188.421 289.416 190.053 287.8 192.133 287.8C193.861 287.8 195.189 288.936 195.445 290.712L189.733 292.568C190.117 293.496 191.013 294.136 192.181 294.136ZM192.117 288.824C190.661 288.824 189.525 290.008 189.525 291.496V291.56L194.133 290.072C193.829 289.304 193.045 288.824 192.117 288.824ZM199.022 295.16C198.238 295.16 197.422 294.872 196.782 294.424L196.974 293.4C197.678 293.896 198.318 294.168 199.022 294.168C199.742 294.168 200.222 293.752 200.222 293.064C200.222 292.584 199.982 292.232 198.926 291.896L198.638 291.8C197.534 291.432 196.958 290.696 196.958 289.736C196.958 288.632 197.838 287.8 199.086 287.8C199.71 287.8 200.398 288.008 201.006 288.344L200.798 289.368C200.158 288.968 199.518 288.792 199.086 288.792C198.398 288.792 198.014 289.192 198.014 289.72C198.014 290.168 198.254 290.488 199.182 290.808L199.47 290.904C200.654 291.288 201.31 292.024 201.31 293.064C201.31 294.296 200.382 295.16 199.022 295.16ZM208.078 288.056L209.198 287.848V295.016H208.142V294.152C207.614 294.792 206.846 295.16 205.934 295.16C204.35 295.16 203.182 294.088 203.182 292.2V288.056L204.302 287.848V292.104C204.302 293.416 205.038 294.104 206.094 294.104C207.246 294.104 208.078 293.272 208.078 291.944V288.056ZM214.806 295.16C212.758 295.16 211.078 293.512 211.078 291.48C211.078 289.448 212.742 287.8 214.806 287.8C215.414 287.8 216.038 287.944 216.662 288.248L216.454 289.32C215.942 289.016 215.398 288.84 214.806 288.84C213.302 288.84 212.23 290.008 212.23 291.48C212.23 292.952 213.318 294.12 214.806 294.12C215.462 294.12 216.038 293.896 216.534 293.592L216.726 294.696C216.134 294.984 215.478 295.16 214.806 295.16ZM221.872 287.8C223.44 287.8 224.64 288.872 224.64 290.76V295H223.52V290.856C223.52 289.544 222.768 288.856 221.696 288.856C220.528 288.856 219.68 289.688 219.68 291.016V295H218.56V283.592L219.68 283.368V288.824C220.192 288.168 220.96 287.8 221.872 287.8ZM230.15 294.136C231.142 294.136 232.038 293.704 232.806 292.824L233.238 293.848C232.358 294.712 231.286 295.16 230.134 295.16C227.958 295.16 226.39 293.544 226.39 291.496C226.39 289.416 228.022 287.8 230.102 287.8C231.83 287.8 233.158 288.936 233.414 290.712L227.702 292.568C228.086 293.496 228.982 294.136 230.15 294.136ZM230.086 288.824C228.63 288.824 227.494 290.008 227.494 291.496V291.56L232.102 290.072C231.798 289.304 231.014 288.824 230.086 288.824ZM236.335 289.016C236.831 288.264 237.647 287.848 238.799 287.848V288.984C237.215 288.984 236.399 289.752 236.399 291.336V295H235.279V288.056L236.335 287.848V289.016ZM243.846 297.48V282.76H244.934V297.48H243.846Z" fill="#003566"/>
<path d="M254.421 283.64C256.565 283.64 258.181 285.336 258.181 287.576C258.181 290.648 255.413 293.752 252.853 295.304L252.069 294.408C253.525 293.448 255.253 292.088 256.229 290.248C255.685 290.664 254.997 290.92 254.197 290.92C252.213 290.92 250.661 289.336 250.661 287.32C250.661 285.256 252.309 283.64 254.421 283.64ZM254.405 289.8C255.813 289.8 256.917 288.712 256.917 287.32C256.917 285.912 255.813 284.792 254.405 284.792C253.013 284.792 251.925 285.912 251.925 287.32C251.925 288.712 253.013 289.8 254.405 289.8ZM263.116 288.104C264.844 288.152 266.252 289.624 266.252 291.496C266.252 293.544 264.604 295.16 262.492 295.16C261.196 295.16 260.156 294.552 259.388 293.592L260.028 292.552C260.572 293.352 261.404 294.008 262.492 294.008C263.9 294.008 265.004 292.904 265.004 291.48C265.004 290.088 263.964 288.984 262.38 288.984C261.964 288.984 261.5 289.064 261.02 289.176L263.916 284.952H259.724L259.948 283.8H266.22L263.116 288.104ZM270.017 295.128L269.297 294.552L278.097 283.672L278.817 284.248L270.017 295.128ZM270.849 289.736C269.377 289.736 268.465 288.456 268.465 286.728C268.465 285 269.377 283.72 270.849 283.72C272.337 283.72 273.249 285 273.249 286.728C273.249 288.456 272.337 289.736 270.849 289.736ZM270.849 288.808C271.745 288.808 272.241 287.944 272.241 286.728C272.241 285.512 271.745 284.648 270.849 284.648C269.969 284.648 269.473 285.512 269.473 286.728C269.473 287.944 269.969 288.808 270.849 288.808ZM277.329 295.096C275.857 295.096 274.945 293.816 274.945 292.088C274.945 290.36 275.857 289.08 277.329 289.08C278.817 289.08 279.729 290.36 279.729 292.088C279.729 293.816 278.817 295.096 277.329 295.096ZM277.329 294.168C278.225 294.168 278.721 293.304 278.721 292.088C278.721 290.872 278.225 290.008 277.329 290.008C276.449 290.008 275.953 290.872 275.953 292.088C275.953 293.304 276.449 294.168 277.329 294.168Z" fill="#D14600"/>
<path d="M33.096 325.192C31.656 325.192 30.504 324.552 29.768 323.928L30.04 322.6C30.808 323.384 31.912 324.04 33.096 324.04C34.392 324.04 35.272 323.192 35.272 322.024C35.272 321.176 34.776 320.408 33.576 320.024L32.84 319.784C30.728 319.096 30.104 317.864 30.104 316.552C30.104 314.888 31.432 313.608 33.256 313.608C34.184 313.608 35.224 313.928 36.088 314.504L35.848 315.768C34.968 315.112 34.12 314.76 33.256 314.76C32.104 314.76 31.336 315.512 31.336 316.552C31.336 317.416 31.784 318.104 33.272 318.584L34.008 318.824C35.736 319.384 36.52 320.584 36.52 322.008C36.52 323.848 35.112 325.192 33.096 325.192ZM42.3503 317.8C44.3343 317.8 45.9823 319.416 45.9823 321.48C45.9823 323.544 44.3343 325.16 42.3503 325.16C41.2783 325.16 40.3663 324.696 39.7582 323.96V328.68H38.6383V318.056L39.6943 317.848V319.08C40.3023 318.296 41.2463 317.8 42.3503 317.8ZM42.2543 324.12C43.7103 324.12 44.8303 322.952 44.8303 321.48C44.8303 320.008 43.7103 318.84 42.2543 318.84C40.8143 318.84 39.6783 320.008 39.6783 321.48C39.6783 322.952 40.8143 324.12 42.2543 324.12ZM52.753 325H51.713L51.665 324.52C51.201 324.92 50.593 325.16 49.905 325.16C48.417 325.16 47.265 324.024 47.265 322.584C47.265 321.144 48.417 320.008 49.905 320.008C50.609 320.008 51.153 320.248 51.585 320.616V320.184C51.585 319.272 51.201 318.808 50.065 318.808C49.457 318.808 48.897 318.936 48.353 319.128L48.561 318.088C49.089 317.912 49.585 317.832 50.113 317.832C51.825 317.832 52.705 318.664 52.705 320.088V323.64L52.753 325ZM50.001 324.2C50.945 324.2 51.681 323.48 51.681 322.584C51.681 321.672 50.929 320.968 50.001 320.968C49.073 320.968 48.337 321.672 48.337 322.584C48.337 323.496 49.073 324.2 50.001 324.2ZM58.3249 317.8C59.9249 317.8 61.1089 318.872 61.1089 320.76V325H59.9889V320.856C59.9889 319.528 59.2369 318.84 58.1649 318.84C56.9969 318.84 56.1489 319.672 56.1489 321.016V325H55.0289V318.056L56.0849 317.848V318.808C56.6129 318.168 57.3969 317.8 58.3249 317.8ZM64.0588 316.04C63.6108 316.04 63.2588 315.688 63.2588 315.24C63.2588 314.792 63.6108 314.44 64.0588 314.44C64.5068 314.44 64.8588 314.792 64.8588 315.24C64.8588 315.688 64.5068 316.04 64.0588 316.04ZM63.4988 325V318.072L64.6188 317.848V325H63.4988ZM70.3063 324.136C71.2983 324.136 72.1943 323.704 72.9623 322.824L73.3943 323.848C72.5143 324.712 71.4423 325.16 70.2903 325.16C68.1143 325.16 66.5463 323.544 66.5463 321.496C66.5463 319.416 68.1783 317.8 70.2583 317.8C71.9863 317.8 73.3143 318.936 73.5703 320.712L67.8583 322.568C68.2423 323.496 69.1383 324.136 70.3063 324.136ZM70.2423 318.824C68.7863 318.824 67.6503 320.008 67.6503 321.496V321.56L72.2583 320.072C71.9543 319.304 71.1703 318.824 70.2423 318.824ZM78.7311 317.8C80.3311 317.8 81.5151 318.872 81.5151 320.76V325H80.3951V320.856C80.3951 319.528 79.6431 318.84 78.5711 318.84C77.4031 318.84 76.5551 319.672 76.5551 321.016V325H75.4351V318.056L76.4911 317.848V318.808C77.0191 318.168 77.8031 317.8 78.7311 317.8Z" fill="#003566"/>
<path d="M179.64 315.96L183.432 313.48V325H182.216V315.656L179.88 317.192L179.64 315.96ZM194.359 319.24C195.591 319.672 196.375 320.664 196.375 321.944C196.375 323.752 194.951 325 192.903 325H189.783V313.8H192.743C194.727 313.8 196.119 315 196.119 316.712C196.119 317.88 195.431 318.792 194.359 319.24ZM192.743 314.952H190.999V318.76H192.743C193.991 318.76 194.871 317.96 194.871 316.792C194.871 315.704 193.991 314.952 192.743 314.952ZM192.903 323.848C194.215 323.848 195.127 323.048 195.127 321.88C195.127 320.712 194.215 319.912 192.903 319.912H190.999V323.848H192.903ZM201.713 324.136C202.705 324.136 203.601 323.704 204.369 322.824L204.801 323.848C203.921 324.712 202.849 325.16 201.697 325.16C199.521 325.16 197.953 323.544 197.953 321.496C197.953 319.416 199.585 317.8 201.665 317.8C203.393 317.8 204.721 318.936 204.977 320.712L199.265 322.568C199.649 323.496 200.545 324.136 201.713 324.136ZM201.649 318.824C200.193 318.824 199.057 320.008 199.057 321.496V321.56L203.665 320.072C203.361 319.304 202.577 318.824 201.649 318.824ZM208.553 325.16C207.769 325.16 206.953 324.872 206.313 324.424L206.505 323.4C207.209 323.896 207.849 324.168 208.553 324.168C209.273 324.168 209.753 323.752 209.753 323.064C209.753 322.584 209.513 322.232 208.457 321.896L208.169 321.8C207.065 321.432 206.489 320.696 206.489 319.736C206.489 318.632 207.369 317.8 208.617 317.8C209.241 317.8 209.929 318.008 210.537 318.344L210.329 319.368C209.689 318.968 209.049 318.792 208.617 318.792C207.929 318.792 207.545 319.192 207.545 319.72C207.545 320.168 207.785 320.488 208.713 320.808L209.001 320.904C210.185 321.288 210.841 322.024 210.841 323.064C210.841 324.296 209.913 325.16 208.553 325.16ZM217.609 318.056L218.729 317.848V325.016H217.673V324.152C217.145 324.792 216.377 325.16 215.465 325.16C213.881 325.16 212.713 324.088 212.713 322.2V318.056L213.833 317.848V322.104C213.833 323.416 214.569 324.104 215.625 324.104C216.777 324.104 217.609 323.272 217.609 321.944V318.056ZM224.337 325.16C222.289 325.16 220.609 323.512 220.609 321.48C220.609 319.448 222.273 317.8 224.337 317.8C224.945 317.8 225.569 317.944 226.193 318.248L225.985 319.32C225.473 319.016 224.929 318.84 224.337 318.84C222.833 318.84 221.761 320.008 221.761 321.48C221.761 322.952 222.849 324.12 224.337 324.12C224.993 324.12 225.569 323.896 226.065 323.592L226.257 324.696C225.665 324.984 225.009 325.16 224.337 325.16ZM231.403 317.8C232.971 317.8 234.171 318.872 234.171 320.76V325H233.051V320.856C233.051 319.544 232.299 318.856 231.227 318.856C230.059 318.856 229.211 319.688 229.211 321.016V325H228.091V313.592L229.211 313.368V318.824C229.723 318.168 230.491 317.8 231.403 317.8ZM239.681 324.136C240.673 324.136 241.569 323.704 242.337 322.824L242.769 323.848C241.889 324.712 240.817 325.16 239.665 325.16C237.489 325.16 235.921 323.544 235.921 321.496C235.921 319.416 237.553 317.8 239.633 317.8C241.361 317.8 242.689 318.936 242.945 320.712L237.233 322.568C237.617 323.496 238.513 324.136 239.681 324.136ZM239.617 318.824C238.161 318.824 237.025 320.008 237.025 321.496V321.56L241.633 320.072C241.329 319.304 240.545 318.824 239.617 318.824ZM245.866 319.016C246.362 318.264 247.178 317.848 248.33 317.848V318.984C246.746 318.984 245.93 319.752 245.93 321.336V325H244.81V318.056L245.866 317.848V319.016ZM253.377 327.48V312.76H254.465V327.48H253.377Z" fill="#003566"/>
<path d="M259.937 313.8H266.945L262.417 325H261.105L265.169 314.952H259.713L259.937 313.8ZM270.064 325.128L269.344 324.552L278.144 313.672L278.864 314.248L270.064 325.128ZM270.896 319.736C269.424 319.736 268.512 318.456 268.512 316.728C268.512 315 269.424 313.72 270.896 313.72C272.384 313.72 273.296 315 273.296 316.728C273.296 318.456 272.384 319.736 270.896 319.736ZM270.896 318.808C271.792 318.808 272.288 317.944 272.288 316.728C272.288 315.512 271.792 314.648 270.896 314.648C270.016 314.648 269.52 315.512 269.52 316.728C269.52 317.944 270.016 318.808 270.896 318.808ZM277.376 325.096C275.904 325.096 274.992 323.816 274.992 322.088C274.992 320.36 275.904 319.08 277.376 319.08C278.864 319.08 279.776 320.36 279.776 322.088C279.776 323.816 278.864 325.096 277.376 325.096ZM277.376 324.168C278.272 324.168 278.768 323.304 278.768 322.088C278.768 320.872 278.272 320.008 277.376 320.008C276.496 320.008 276 320.872 276 322.088C276 323.304 276.496 324.168 277.376 324.168Z" fill="#D14600"/>
<path d="M80.9568 357.8L75.7568 366.856H80.7648L80.4448 369H72.0128L77.2288 359.944H72.2688L72.6048 357.8H80.9568ZM86.9449 361.848L89.1369 361.576V369.016H87.0089V368.264C86.4809 368.856 85.7289 369.192 84.8329 369.192C83.1209 369.192 82.1449 368.024 82.1449 366.184V361.848L84.3209 361.576V365.912C84.3209 366.792 84.8329 367.304 85.5849 367.304C86.3849 367.304 86.9449 366.728 86.9449 365.832V361.848ZM93.0861 362.808C93.5181 361.992 94.2701 361.576 95.4221 361.576V363.528C93.9981 363.528 93.2141 364.184 93.2141 365.656V369H91.0381V361.848L93.0861 361.592V362.808ZM105.328 363.208C106.56 363.672 107.312 364.648 107.312 365.896C107.312 367.736 105.824 369 103.6 369H99.7603V357.8H103.52C105.6 357.8 106.992 359 106.992 360.728C106.992 361.832 106.368 362.712 105.328 363.208ZM103.184 359.608H102.016V362.456H103.184C104.112 362.456 104.768 361.864 104.768 361C104.768 360.168 104.112 359.608 103.184 359.608ZM103.328 367.192C104.304 367.192 104.992 366.584 104.992 365.72C104.992 364.84 104.304 364.248 103.328 364.248H102.016V367.192H103.328ZM112.496 367.56C113.328 367.56 114.224 367.224 115.152 366.392L115.776 367.992C114.896 368.728 113.712 369.208 112.48 369.208C110.16 369.208 108.448 367.528 108.448 365.368C108.448 363.208 110.128 361.512 112.368 361.512C114.272 361.512 115.824 362.76 116.016 364.968L110.704 366.68C111.072 367.224 111.696 367.56 112.496 367.56ZM112.384 363.144C111.28 363.144 110.464 363.976 110.352 365.128L113.888 363.976C113.584 363.448 113.04 363.144 112.384 363.144ZM119.444 369.208C118.596 369.208 117.748 368.952 117.028 368.552L117.284 366.936C117.972 367.32 118.612 367.56 119.236 367.56C119.78 367.56 120.1 367.304 120.1 366.888C120.1 366.568 119.924 366.328 119.22 366.12L118.932 366.008C117.828 365.624 117.172 364.856 117.172 363.752C117.172 362.472 118.18 361.512 119.748 361.512C120.452 361.512 121.22 361.704 121.908 362.008L121.636 363.64C120.996 363.304 120.308 363.112 119.844 363.112C119.364 363.112 119.124 363.368 119.124 363.688C119.124 363.976 119.284 364.2 119.876 364.408L120.196 364.52C121.492 364.968 122.148 365.704 122.148 366.84C122.148 368.248 121.076 369.208 119.444 369.208ZM128.351 361.848L130.543 361.576V369.016H128.415V368.264C127.887 368.856 127.135 369.192 126.239 369.192C124.527 369.192 123.551 368.024 123.551 366.184V361.848L125.727 361.576V365.912C125.727 366.792 126.239 367.304 126.991 367.304C127.791 367.304 128.351 366.728 128.351 365.832V361.848ZM135.964 369.208C133.692 369.208 131.948 367.528 131.948 365.352C131.948 363.176 133.708 361.512 135.948 361.512C136.62 361.512 137.26 361.656 137.868 361.912L137.564 363.784C137.052 363.512 136.556 363.368 136.076 363.368C134.876 363.368 134.06 364.248 134.06 365.352C134.06 366.44 134.876 367.336 136.092 367.336C136.62 367.336 137.132 367.176 137.66 366.888L137.932 368.76C137.324 369.048 136.668 369.208 135.964 369.208ZM143.64 361.528C145.352 361.528 146.36 362.696 146.36 364.536V369H144.168V364.808C144.168 363.912 143.64 363.4 142.872 363.4C142.056 363.4 141.48 363.992 141.48 364.888V369H139.304V357.688L141.48 357.416V362.456C141.992 361.864 142.744 361.528 143.64 361.528ZM151.7 367.56C152.532 367.56 153.428 367.224 154.356 366.392L154.98 367.992C154.1 368.728 152.916 369.208 151.684 369.208C149.364 369.208 147.652 367.528 147.652 365.368C147.652 363.208 149.332 361.512 151.572 361.512C153.476 361.512 155.028 362.76 155.22 364.968L149.908 366.68C150.276 367.224 150.9 367.56 151.7 367.56ZM151.588 363.144C150.484 363.144 149.668 363.976 149.556 365.128L153.092 363.976C152.788 363.448 152.244 363.144 151.588 363.144ZM158.696 362.808C159.128 361.992 159.88 361.576 161.032 361.576V363.528C159.608 363.528 158.824 364.184 158.824 365.656V369H156.648V361.848L158.696 361.592V362.808ZM164.241 369.208C163.393 369.208 162.545 368.952 161.825 368.552L162.081 366.936C162.769 367.32 163.409 367.56 164.033 367.56C164.577 367.56 164.897 367.304 164.897 366.888C164.897 366.568 164.721 366.328 164.017 366.12L163.729 366.008C162.625 365.624 161.969 364.856 161.969 363.752C161.969 362.472 162.977 361.512 164.545 361.512C165.249 361.512 166.017 361.704 166.705 362.008L166.433 363.64C165.793 363.304 165.105 363.112 164.641 363.112C164.161 363.112 163.921 363.368 163.921 363.688C163.921 363.976 164.081 364.2 164.673 364.408L164.993 364.52C166.289 364.968 166.945 365.704 166.945 366.84C166.945 368.248 165.873 369.208 164.241 369.208ZM172.861 363.48H170.973V366.216C170.973 366.856 171.309 367.224 171.933 367.224C172.237 367.224 172.605 367.128 172.861 367.032V368.856C172.493 369.016 171.981 369.128 171.405 369.128C169.677 369.128 168.797 368.104 168.797 366.488V363.48H167.661L167.933 361.72H168.797V360.36L170.973 359.256V361.72H172.861V363.48ZM180.305 369H178.401L178.337 368.52C177.857 368.952 177.217 369.208 176.481 369.208C174.961 369.208 173.761 368.088 173.761 366.616C173.761 365.16 174.929 364.04 176.545 364.04C177.153 364.04 177.713 364.248 178.209 364.568V364.312C178.209 363.512 177.809 363.096 176.625 363.096C176.033 363.096 175.457 363.208 174.881 363.4L175.137 361.816C175.809 361.64 176.433 361.56 177.041 361.56C179.105 361.56 180.241 362.424 180.241 364.184V367.688L180.305 369ZM177.041 367.704C177.745 367.704 178.273 367.208 178.273 366.568C178.273 365.928 177.745 365.432 177.041 365.432C176.353 365.432 175.841 365.928 175.841 366.568C175.841 367.208 176.353 367.704 177.041 367.704ZM186.455 363.48H184.567V366.216C184.567 366.856 184.903 367.224 185.527 367.224C185.831 367.224 186.199 367.128 186.455 367.032V368.856C186.087 369.016 185.575 369.128 184.999 369.128C183.271 369.128 182.391 368.104 182.391 366.488V363.48H181.255L181.527 361.72H182.391V360.36L184.567 359.256V361.72H186.455V363.48ZM188.987 360.456C188.251 360.456 187.659 359.88 187.659 359.176C187.659 358.456 188.251 357.88 188.987 357.88C189.739 357.88 190.331 358.456 190.331 359.176C190.331 359.88 189.739 360.456 188.987 360.456ZM187.883 369V361.848L190.075 361.576V369H187.883ZM194.023 369.208C193.174 369.208 192.327 368.952 191.607 368.552L191.863 366.936C192.551 367.32 193.191 367.56 193.815 367.56C194.359 367.56 194.679 367.304 194.679 366.888C194.679 366.568 194.503 366.328 193.799 366.12L193.511 366.008C192.407 365.624 191.751 364.856 191.751 363.752C191.751 362.472 192.759 361.512 194.327 361.512C195.031 361.512 195.799 361.704 196.487 362.008L196.215 363.64C195.575 363.304 194.887 363.112 194.423 363.112C193.943 363.112 193.703 363.368 193.703 363.688C193.703 363.976 193.863 364.2 194.455 364.408L194.775 364.52C196.071 364.968 196.727 365.704 196.727 366.84C196.727 368.248 195.655 369.208 194.023 369.208ZM202.642 363.48H200.754V366.216C200.754 366.856 201.09 367.224 201.714 367.224C202.018 367.224 202.386 367.128 202.642 367.032V368.856C202.274 369.016 201.762 369.128 201.186 369.128C199.458 369.128 198.578 368.104 198.578 366.488V363.48H197.442L197.714 361.72H198.578V360.36L200.754 359.256V361.72H202.642V363.48ZM205.174 360.456C204.438 360.456 203.846 359.88 203.846 359.176C203.846 358.456 204.438 357.88 205.174 357.88C205.926 357.88 206.518 358.456 206.518 359.176C206.518 359.88 205.926 360.456 205.174 360.456ZM204.07 369V361.848L206.262 361.576V369H204.07ZM215.266 369H212.69L210.386 365.624V369H208.21V357.688L210.386 357.416V364.84L212.61 361.72H215.122L212.482 365.208L215.266 369Z" fill="#D14600"/>
<path d="M225.703 367.76L229.768 363.577C229.924 363.417 230 363.208 230 363C230 362.792 229.922 362.582 229.768 362.423L225.703 358.239C225.394 357.92 224.892 357.92 224.582 358.239L224.232 358.599C223.923 358.917 223.923 359.434 224.232 359.754L226.825 362.423C226.981 362.583 227.057 362.792 227.057 363C227.057 363.208 226.979 363.418 226.825 363.577L224.232 366.248C223.923 366.566 223.923 367.083 224.232 367.403L224.582 367.763C224.892 368.08 225.394 368.08 225.703 367.76Z" fill="#D14600"/>
</g>
<defs>
<filter id="filter0_d_270_5183" x="0.8" y="0.8" width="308.4" height="404.4" filterUnits="userSpaceOnUse" color-interpolation-filters="sRGB">
<feFlood flood-opacity="0" result="BackgroundImageFix"/>
<feColorMatrix in="SourceAlpha" type="matrix" values="0 0 0 0 0 0 0 0 0 0 0 0 0 0 0 0 0 0 127 0" result="hardAlpha"/>
<feMorphology radius="1" operator="dilate" in="SourceAlpha" result="effect1_dropShadow_270_5183"/>
<feOffset/>
<feGaussianBlur stdDeviation="3.6"/>
<feComposite in2="hardAlpha" operator="out"/>
<feColorMatrix type="matrix" values="0 0 0 0 0 0 0 0 0 0 0 0 0 0 0 0 0 0 0.14 0"/>
<feBlend mode="normal" in2="BackgroundImageFix" result="effect1_dropShadow_270_5183"/>
<feBlend mode="normal" in="SourceGraphic" in2="effect1_dropShadow_270_5183" result="shape"/>
</filter>
</defs>
</svg>
