<svg width="310" height="283" viewBox="0 0 310 283" fill="none" xmlns="http://www.w3.org/2000/svg">
<g filter="url(#filter0_d_270_4885)">
<rect x="9" y="9" width="292" height="265" rx="20" fill="white" shape-rendering="crispEdges"/>
<path d="M119.448 64.396C116.478 64.396 114.102 63.076 112.584 61.789L113.145 59.05C114.729 60.667 117.006 62.02 119.448 62.02C122.121 62.02 123.936 60.271 123.936 57.862C123.936 56.113 122.913 54.529 120.438 53.737L118.92 53.242C114.564 51.823 113.277 49.282 113.277 46.576C113.277 43.144 116.016 40.504 119.778 40.504C121.692 40.504 123.837 41.164 125.619 42.352L125.124 44.959C123.309 43.606 121.56 42.88 119.778 42.88C117.402 42.88 115.818 44.431 115.818 46.576C115.818 48.358 116.742 49.777 119.811 50.767L121.329 51.262C124.893 52.417 126.51 54.892 126.51 57.829C126.51 61.624 123.606 64.396 119.448 64.396ZM137.413 62.218C139.459 62.218 141.307 61.327 142.891 59.512L143.782 61.624C141.967 63.406 139.756 64.33 137.38 64.33C132.892 64.33 129.658 60.997 129.658 56.773C129.658 52.483 133.024 49.15 137.314 49.15C140.878 49.15 143.617 51.493 144.145 55.156L132.364 58.984C133.156 60.898 135.004 62.218 137.413 62.218ZM137.281 51.262C134.278 51.262 131.935 53.704 131.935 56.773V56.905L141.439 53.836C140.812 52.252 139.195 51.262 137.281 51.262ZM149.245 45.52C148.321 45.52 147.595 44.794 147.595 43.87C147.595 42.946 148.321 42.22 149.245 42.22C150.169 42.22 150.895 42.946 150.895 43.87C150.895 44.794 150.169 45.52 149.245 45.52ZM148.09 64V49.711L150.4 49.249V64H148.09ZM162.56 51.592H158.336V59.842C158.336 61.327 159.161 62.119 160.448 62.119C161.174 62.119 162.065 61.888 162.56 61.657V63.802C162.065 64.033 161.174 64.264 160.217 64.264C157.676 64.264 156.026 62.68 156.026 60.007V51.592H153.881L154.277 49.48H156.026V46.279L158.336 44.893V49.48H162.56V51.592ZM172.637 62.218C174.683 62.218 176.531 61.327 178.115 59.512L179.006 61.624C177.191 63.406 174.98 64.33 172.604 64.33C168.116 64.33 164.882 60.997 164.882 56.773C164.882 52.483 168.248 49.15 172.538 49.15C176.102 49.15 178.841 51.493 179.369 55.156L167.588 58.984C168.38 60.898 170.228 62.218 172.637 62.218ZM172.505 51.262C169.502 51.262 167.159 53.704 167.159 56.773V56.905L176.663 53.836C176.036 52.252 174.419 51.262 172.505 51.262ZM190.013 49.15C193.313 49.15 195.755 51.361 195.755 55.255V64H193.445V55.453C193.445 52.714 191.894 51.295 189.683 51.295C187.274 51.295 185.525 53.011 185.525 55.783V64H183.215V49.678L185.393 49.249V51.229C186.482 49.909 188.099 49.15 190.013 49.15Z" fill="#003566"/>
<path d="M29.48 114.48L34.136 99.76H35.272L30.616 114.48H29.48ZM50.8314 100.8L46.8794 112.4L43.2954 103.568L39.7114 112.4L35.7594 100.8H37.0234L39.8234 109.136L43.2954 100.608L46.7674 109.136L49.5674 100.8H50.8314ZM54.3371 112.16C52.2411 112.16 50.5931 110.544 50.5931 108.48C50.5931 106.416 52.2411 104.8 54.3371 104.8C56.4331 104.8 58.0811 106.416 58.0811 108.48C58.0811 110.544 56.4331 112.16 54.3371 112.16ZM54.3371 111.12C55.8091 111.12 56.9291 109.984 56.9291 108.48C56.9291 106.976 55.8091 105.84 54.3371 105.84C52.8651 105.84 51.7451 106.976 51.7451 108.48C51.7451 109.984 52.8651 111.12 54.3371 111.12ZM63.2628 104.8C64.8308 104.8 66.0308 105.872 66.0308 107.76V112H64.9108V107.856C64.9108 106.544 64.1588 105.856 63.0868 105.856C61.9188 105.856 61.0707 106.688 61.0707 108.016V112H59.9508V100.592L61.0707 100.368V105.824C61.5828 105.168 62.3508 104.8 63.2628 104.8ZM71.6686 104.8C73.2686 104.8 74.4526 105.872 74.4526 107.76V112H73.3326V107.856C73.3326 106.528 72.5806 105.84 71.5086 105.84C70.3406 105.84 69.4926 106.672 69.4926 108.016V112H68.3726V105.056L69.4286 104.848V105.808C69.9566 105.168 70.7406 104.8 71.6686 104.8ZM81.5625 105.056L82.6825 104.848V112.016H81.6265V111.152C81.0985 111.792 80.3305 112.16 79.4185 112.16C77.8345 112.16 76.6665 111.088 76.6665 109.2V105.056L77.7865 104.848V109.104C77.7865 110.416 78.5225 111.104 79.5785 111.104C80.7305 111.104 81.5625 110.272 81.5625 108.944V105.056ZM88.4499 104.8C90.0499 104.8 91.2339 105.872 91.2339 107.76V112H90.1139V107.856C90.1139 106.528 89.3619 105.84 88.2899 105.84C87.1219 105.84 86.2739 106.672 86.2739 108.016V112H85.1539V105.056L86.2099 104.848V105.808C86.7379 105.168 87.5219 104.8 88.4499 104.8ZM99.9278 104.64L99.7198 105.744L98.4718 105.632C99.1598 106.16 99.5758 106.96 99.5758 107.904C99.5758 109.056 98.9198 110.032 97.9438 110.544C98.7758 111.04 99.3358 111.936 99.3358 112.976C99.3358 114.544 98.0878 115.84 96.2958 115.84C94.7118 115.84 93.5278 114.832 93.2718 113.36L94.3118 112.928C94.4398 114.064 95.1918 114.816 96.2958 114.816C97.4638 114.816 98.2478 113.984 98.2478 112.928C98.2478 111.84 97.3998 111.04 96.2798 111.04C95.4958 111.04 94.9198 111.44 94.5198 111.968L93.9278 111.136C94.1518 110.896 94.3918 110.704 94.6478 110.56C93.6718 110.048 93.0158 109.072 93.0158 107.888C93.0158 106.192 94.3598 104.864 96.3598 104.784L99.9278 104.64ZM96.2958 110.032C97.5438 110.032 98.4878 109.136 98.4878 107.936C98.4878 106.736 97.5438 105.808 96.2958 105.808C95.0478 105.808 94.1038 106.736 94.1038 107.936C94.1038 109.136 95.0478 110.032 96.2958 110.032ZM104.671 102.96L108.463 100.48V112H107.247V102.656L104.911 104.192L104.671 102.96ZM114.977 112.16C112.353 112.16 110.897 109.52 110.897 106.4C110.897 103.28 112.353 100.64 114.977 100.64C117.601 100.64 119.057 103.28 119.057 106.4C119.057 109.52 117.601 112.16 114.977 112.16ZM114.977 111.008C116.945 111.008 117.777 108.768 117.777 106.4C117.777 104.032 116.945 101.792 114.977 101.792C113.009 101.792 112.177 104.032 112.177 106.4C112.177 108.768 113.009 111.008 114.977 111.008ZM120.624 102.96L124.416 100.48V112H123.2V102.656L120.864 104.192L120.624 102.96Z" fill="#003566"/>
<path d="M160.64 102.96L164.432 100.48V112H163.216V102.656L160.88 104.192L160.64 102.96ZM170.802 104.88C172.786 104.88 174.338 106.464 174.338 108.48C174.338 110.544 172.69 112.16 170.578 112.16C168.434 112.16 166.818 110.464 166.818 108.224C166.818 105.152 169.586 102.048 172.146 100.496L172.93 101.392C171.474 102.352 169.746 103.712 168.77 105.552C169.314 105.136 170.002 104.88 170.802 104.88ZM170.594 111.008C171.986 111.008 173.074 109.888 173.074 108.48C173.074 107.088 171.986 106 170.594 106C169.186 106 168.082 107.088 168.082 108.48C168.082 109.888 169.186 111.008 170.594 111.008ZM184.641 106.24C185.873 106.672 186.657 107.664 186.657 108.944C186.657 110.752 185.233 112 183.185 112H180.065V100.8H183.025C185.009 100.8 186.401 102 186.401 103.712C186.401 104.88 185.713 105.792 184.641 106.24ZM183.025 101.952H181.281V105.76H183.025C184.273 105.76 185.153 104.96 185.153 103.792C185.153 102.704 184.273 101.952 183.025 101.952ZM183.185 110.848C184.497 110.848 185.409 110.048 185.409 108.88C185.409 107.712 184.497 106.912 183.185 106.912H181.281V110.848H183.185ZM191.994 111.136C192.986 111.136 193.882 110.704 194.65 109.824L195.082 110.848C194.202 111.712 193.13 112.16 191.978 112.16C189.802 112.16 188.234 110.544 188.234 108.496C188.234 106.416 189.866 104.8 191.946 104.8C193.674 104.8 195.002 105.936 195.258 107.712L189.546 109.568C189.93 110.496 190.826 111.136 191.994 111.136ZM191.93 105.824C190.474 105.824 189.338 107.008 189.338 108.496V108.56L193.946 107.072C193.642 106.304 192.858 105.824 191.93 105.824ZM198.835 112.16C198.051 112.16 197.235 111.872 196.595 111.424L196.787 110.4C197.491 110.896 198.131 111.168 198.835 111.168C199.555 111.168 200.035 110.752 200.035 110.064C200.035 109.584 199.795 109.232 198.739 108.896L198.451 108.8C197.347 108.432 196.771 107.696 196.771 106.736C196.771 105.632 197.651 104.8 198.899 104.8C199.523 104.8 200.211 105.008 200.819 105.344L200.611 106.368C199.971 105.968 199.331 105.792 198.899 105.792C198.211 105.792 197.827 106.192 197.827 106.72C197.827 107.168 198.067 107.488 198.995 107.808L199.283 107.904C200.467 108.288 201.123 109.024 201.123 110.064C201.123 111.296 200.195 112.16 198.835 112.16ZM207.891 105.056L209.011 104.848V112.016H207.955V111.152C207.427 111.792 206.659 112.16 205.747 112.16C204.163 112.16 202.995 111.088 202.995 109.2V105.056L204.115 104.848V109.104C204.115 110.416 204.851 111.104 205.907 111.104C207.059 111.104 207.891 110.272 207.891 108.944V105.056ZM214.618 112.16C212.57 112.16 210.89 110.512 210.89 108.48C210.89 106.448 212.554 104.8 214.618 104.8C215.226 104.8 215.85 104.944 216.474 105.248L216.266 106.32C215.754 106.016 215.21 105.84 214.618 105.84C213.114 105.84 212.042 107.008 212.042 108.48C212.042 109.952 213.13 111.12 214.618 111.12C215.274 111.12 215.85 110.896 216.346 110.592L216.538 111.696C215.946 111.984 215.29 112.16 214.618 112.16ZM221.685 104.8C223.253 104.8 224.453 105.872 224.453 107.76V112H223.333V107.856C223.333 106.544 222.581 105.856 221.509 105.856C220.341 105.856 219.493 106.688 219.493 108.016V112H218.373V100.592L219.493 100.368V105.824C220.005 105.168 220.773 104.8 221.685 104.8ZM229.963 111.136C230.955 111.136 231.851 110.704 232.619 109.824L233.051 110.848C232.171 111.712 231.099 112.16 229.947 112.16C227.771 112.16 226.203 110.544 226.203 108.496C226.203 106.416 227.835 104.8 229.915 104.8C231.643 104.8 232.971 105.936 233.227 107.712L227.515 109.568C227.899 110.496 228.795 111.136 229.963 111.136ZM229.899 105.824C228.443 105.824 227.307 107.008 227.307 108.496V108.56L231.915 107.072C231.611 106.304 230.827 105.824 229.899 105.824ZM236.147 106.016C236.643 105.264 237.459 104.848 238.611 104.848V105.984C237.027 105.984 236.211 106.752 236.211 108.336V112H235.091V105.056L236.147 104.848V106.016ZM243.658 114.48V99.76H244.746V114.48H243.658Z" fill="#003566"/>
<path d="M253.53 104.864C255.546 104.864 257.146 106.464 257.146 108.496C257.146 110.528 255.498 112.16 253.338 112.16C252.17 112.16 251.226 111.696 250.554 111.168L250.97 110C251.53 110.512 252.346 111.008 253.338 111.008C254.81 111.008 255.898 109.888 255.898 108.48C255.898 107.104 254.826 105.984 253.354 105.984C252.49 105.984 251.642 106.368 250.89 106.96L251.258 100.8H256.698L256.474 101.952H252.378L252.17 105.152C252.554 104.976 253.002 104.864 253.53 104.864ZM261.389 110.848H265.709L265.485 112H258.909L262.669 107.376C263.997 105.728 264.445 104.784 264.445 103.92C264.445 102.656 263.501 101.744 262.301 101.744C261.101 101.744 260.157 102.688 260.157 103.904C260.157 104.4 260.317 104.848 260.525 105.248L259.309 105.488C259.053 105.024 258.909 104.48 258.909 103.904C258.909 102.048 260.397 100.592 262.301 100.592C264.189 100.592 265.693 101.984 265.693 103.92C265.693 104.96 265.277 106.032 263.661 108.032L261.389 110.848ZM269.548 112.128L268.828 111.552L277.628 100.672L278.348 101.248L269.548 112.128ZM270.38 106.736C268.908 106.736 267.996 105.456 267.996 103.728C267.996 102 268.908 100.72 270.38 100.72C271.868 100.72 272.78 102 272.78 103.728C272.78 105.456 271.868 106.736 270.38 106.736ZM270.38 105.808C271.276 105.808 271.772 104.944 271.772 103.728C271.772 102.512 271.276 101.648 270.38 101.648C269.5 101.648 269.004 102.512 269.004 103.728C269.004 104.944 269.5 105.808 270.38 105.808ZM276.86 112.096C275.388 112.096 274.476 110.816 274.476 109.088C274.476 107.36 275.388 106.08 276.86 106.08C278.348 106.08 279.26 107.36 279.26 109.088C279.26 110.816 278.348 112.096 276.86 112.096ZM276.86 111.168C277.756 111.168 278.252 110.304 278.252 109.088C278.252 107.872 277.756 107.008 276.86 107.008C275.98 107.008 275.484 107.872 275.484 109.088C275.484 110.304 275.98 111.168 276.86 111.168Z" fill="#D14600"/>
<path d="M29.48 144.48L34.136 129.76H35.272L30.616 144.48H29.48Z" fill="#003566"/>
<path d="M172.864 134.88C174.848 134.88 176.4 136.464 176.4 138.48C176.4 140.544 174.752 142.16 172.64 142.16C170.496 142.16 168.88 140.464 168.88 138.224C168.88 135.152 171.648 132.048 174.208 130.496L174.992 131.392C173.536 132.352 171.808 133.712 170.832 135.552C171.376 135.136 172.064 134.88 172.864 134.88ZM172.656 141.008C174.048 141.008 175.136 139.888 175.136 138.48C175.136 137.088 174.048 136 172.656 136C171.248 136 170.144 137.088 170.144 138.48C170.144 139.888 171.248 141.008 172.656 141.008ZM186.703 136.24C187.935 136.672 188.719 137.664 188.719 138.944C188.719 140.752 187.295 142 185.247 142H182.127V130.8H185.087C187.071 130.8 188.463 132 188.463 133.712C188.463 134.88 187.775 135.792 186.703 136.24ZM185.087 131.952H183.343V135.76H185.087C186.335 135.76 187.215 134.96 187.215 133.792C187.215 132.704 186.335 131.952 185.087 131.952ZM185.247 140.848C186.559 140.848 187.471 140.048 187.471 138.88C187.471 137.712 186.559 136.912 185.247 136.912H183.343V140.848H185.247ZM194.056 141.136C195.048 141.136 195.944 140.704 196.712 139.824L197.144 140.848C196.264 141.712 195.192 142.16 194.04 142.16C191.864 142.16 190.296 140.544 190.296 138.496C190.296 136.416 191.928 134.8 194.008 134.8C195.736 134.8 197.064 135.936 197.32 137.712L191.608 139.568C191.992 140.496 192.888 141.136 194.056 141.136ZM193.992 135.824C192.536 135.824 191.4 137.008 191.4 138.496V138.56L196.008 137.072C195.704 136.304 194.92 135.824 193.992 135.824ZM200.897 142.16C200.113 142.16 199.297 141.872 198.657 141.424L198.849 140.4C199.553 140.896 200.193 141.168 200.897 141.168C201.617 141.168 202.097 140.752 202.097 140.064C202.097 139.584 201.857 139.232 200.801 138.896L200.513 138.8C199.409 138.432 198.833 137.696 198.833 136.736C198.833 135.632 199.713 134.8 200.961 134.8C201.585 134.8 202.273 135.008 202.881 135.344L202.673 136.368C202.033 135.968 201.393 135.792 200.961 135.792C200.273 135.792 199.889 136.192 199.889 136.72C199.889 137.168 200.129 137.488 201.057 137.808L201.345 137.904C202.529 138.288 203.185 139.024 203.185 140.064C203.185 141.296 202.257 142.16 200.897 142.16ZM209.953 135.056L211.073 134.848V142.016H210.017V141.152C209.489 141.792 208.721 142.16 207.809 142.16C206.225 142.16 205.057 141.088 205.057 139.2V135.056L206.177 134.848V139.104C206.177 140.416 206.913 141.104 207.969 141.104C209.121 141.104 209.953 140.272 209.953 138.944V135.056ZM216.681 142.16C214.633 142.16 212.953 140.512 212.953 138.48C212.953 136.448 214.617 134.8 216.681 134.8C217.289 134.8 217.913 134.944 218.537 135.248L218.329 136.32C217.817 136.016 217.273 135.84 216.681 135.84C215.177 135.84 214.105 137.008 214.105 138.48C214.105 139.952 215.193 141.12 216.681 141.12C217.337 141.12 217.913 140.896 218.409 140.592L218.601 141.696C218.009 141.984 217.353 142.16 216.681 142.16ZM223.747 134.8C225.315 134.8 226.515 135.872 226.515 137.76V142H225.395V137.856C225.395 136.544 224.643 135.856 223.571 135.856C222.403 135.856 221.555 136.688 221.555 138.016V142H220.435V130.592L221.555 130.368V135.824C222.067 135.168 222.835 134.8 223.747 134.8ZM232.025 141.136C233.017 141.136 233.913 140.704 234.681 139.824L235.113 140.848C234.233 141.712 233.161 142.16 232.009 142.16C229.833 142.16 228.265 140.544 228.265 138.496C228.265 136.416 229.897 134.8 231.977 134.8C233.705 134.8 235.033 135.936 235.289 137.712L229.577 139.568C229.961 140.496 230.857 141.136 232.025 141.136ZM231.961 135.824C230.505 135.824 229.369 137.008 229.369 138.496V138.56L233.977 137.072C233.673 136.304 232.889 135.824 231.961 135.824ZM238.21 136.016C238.706 135.264 239.522 134.848 240.674 134.848V135.984C239.09 135.984 238.274 136.752 238.274 138.336V142H237.154V135.056L238.21 134.848V136.016ZM245.721 144.48V129.76H246.809V144.48H245.721Z" fill="#003566"/>
<path d="M252.296 132.96L256.088 130.48V142H254.872V132.656L252.536 134.192L252.296 132.96ZM262.234 130.64C264.378 130.64 265.994 132.336 265.994 134.576C265.994 137.648 263.226 140.752 260.666 142.304L259.882 141.408C261.338 140.448 263.066 139.088 264.042 137.248C263.498 137.664 262.81 137.92 262.01 137.92C260.026 137.92 258.474 136.336 258.474 134.32C258.474 132.256 260.122 130.64 262.234 130.64ZM262.218 136.8C263.626 136.8 264.73 135.712 264.73 134.32C264.73 132.912 263.626 131.792 262.218 131.792C260.826 131.792 259.738 132.912 259.738 134.32C259.738 135.712 260.826 136.8 262.218 136.8ZM269.595 142.128L268.875 141.552L277.675 130.672L278.395 131.248L269.595 142.128ZM270.427 136.736C268.955 136.736 268.043 135.456 268.043 133.728C268.043 132 268.955 130.72 270.427 130.72C271.915 130.72 272.827 132 272.827 133.728C272.827 135.456 271.915 136.736 270.427 136.736ZM270.427 135.808C271.323 135.808 271.819 134.944 271.819 133.728C271.819 132.512 271.323 131.648 270.427 131.648C269.547 131.648 269.051 132.512 269.051 133.728C269.051 134.944 269.547 135.808 270.427 135.808ZM276.907 142.096C275.435 142.096 274.523 140.816 274.523 139.088C274.523 137.36 275.435 136.08 276.907 136.08C278.395 136.08 279.307 137.36 279.307 139.088C279.307 140.816 278.395 142.096 276.907 142.096ZM276.907 141.168C277.803 141.168 278.299 140.304 278.299 139.088C278.299 137.872 277.803 137.008 276.907 137.008C276.027 137.008 275.531 137.872 275.531 139.088C275.531 140.304 276.027 141.168 276.907 141.168Z" fill="#D14600"/>
<path d="M29.48 174.48L34.136 159.76H35.272L30.616 174.48H29.48ZM43.7305 172L42.0825 168.128H37.8265L36.1785 172H34.8825L39.9545 160.4L45.0265 172H43.7305ZM38.3065 167.008H41.6025L39.9545 163.168L38.3065 167.008ZM49.8718 164.8C51.4718 164.8 52.6558 165.872 52.6558 167.76V172H51.5358V167.856C51.5358 166.528 50.7838 165.84 49.7118 165.84C48.5438 165.84 47.6957 166.672 47.6957 168.016V172H46.5758V165.056L47.6318 164.848V165.808C48.1598 165.168 48.9438 164.8 49.8718 164.8ZM61.3496 164.64L61.1416 165.744L59.8936 165.632C60.5816 166.16 60.9976 166.96 60.9976 167.904C60.9976 169.056 60.3416 170.032 59.3656 170.544C60.1976 171.04 60.7576 171.936 60.7576 172.976C60.7576 174.544 59.5096 175.84 57.7176 175.84C56.1336 175.84 54.9496 174.832 54.6936 173.36L55.7336 172.928C55.8616 174.064 56.6136 174.816 57.7176 174.816C58.8856 174.816 59.6696 173.984 59.6696 172.928C59.6696 171.84 58.8216 171.04 57.7016 171.04C56.9176 171.04 56.3416 171.44 55.9416 171.968L55.3496 171.136C55.5736 170.896 55.8136 170.704 56.0696 170.56C55.0936 170.048 54.4376 169.072 54.4376 167.888C54.4376 166.192 55.7816 164.864 57.7816 164.784L61.3496 164.64ZM57.7176 170.032C58.9656 170.032 59.9096 169.136 59.9096 167.936C59.9096 166.736 58.9656 165.808 57.7176 165.808C56.4696 165.808 55.5256 166.736 55.5256 167.936C55.5256 169.136 56.4696 170.032 57.7176 170.032ZM66.275 171.136C67.267 171.136 68.163 170.704 68.931 169.824L69.363 170.848C68.483 171.712 67.411 172.16 66.259 172.16C64.083 172.16 62.515 170.544 62.515 168.496C62.515 166.416 64.147 164.8 66.227 164.8C67.955 164.8 69.283 165.936 69.539 167.712L63.827 169.568C64.211 170.496 65.107 171.136 66.275 171.136ZM66.211 165.824C64.755 165.824 63.619 167.008 63.619 168.496V168.56L68.227 167.072C67.923 166.304 67.139 165.824 66.211 165.824ZM74.9079 164.8C76.9559 164.8 78.5879 166.368 78.5879 168.464C78.5879 170.576 76.9239 172.16 74.7959 172.16C72.6839 172.16 71.0999 170.656 71.0999 168.416V160.592L72.2199 160.368V166.08C72.8279 165.28 73.7719 164.8 74.9079 164.8ZM74.8119 171.12C76.2999 171.12 77.4359 170 77.4359 168.48C77.4359 166.976 76.3319 165.84 74.8599 165.84C73.3719 165.84 72.2359 166.992 72.2359 168.512C72.2359 169.984 73.3239 171.12 74.8119 171.12ZM83.6184 172.16C81.5224 172.16 79.8744 170.544 79.8744 168.48C79.8744 166.416 81.5224 164.8 83.6184 164.8C85.7144 164.8 87.3624 166.416 87.3624 168.48C87.3624 170.544 85.7144 172.16 83.6184 172.16ZM83.6184 171.12C85.0904 171.12 86.2104 169.984 86.2104 168.48C86.2104 166.976 85.0904 165.84 83.6184 165.84C82.1464 165.84 81.0264 166.976 81.0264 168.48C81.0264 169.984 82.1464 171.12 83.6184 171.12ZM92.4518 165.984H90.4038V169.984C90.4038 170.704 90.8038 171.088 91.4278 171.088C91.7798 171.088 92.2118 170.976 92.4518 170.864V171.904C92.2118 172.016 91.7798 172.128 91.3158 172.128C90.0838 172.128 89.2838 171.36 89.2838 170.064V165.984H88.2438L88.4358 164.96H89.2838V163.408L90.4038 162.736V164.96H92.4518V165.984Z" fill="#003566"/>
<path d="M172.288 165.104C174.016 165.152 175.424 166.624 175.424 168.496C175.424 170.544 173.776 172.16 171.664 172.16C170.368 172.16 169.328 171.552 168.56 170.592L169.2 169.552C169.744 170.352 170.576 171.008 171.664 171.008C173.072 171.008 174.176 169.904 174.176 168.48C174.176 167.088 173.136 165.984 171.552 165.984C171.136 165.984 170.672 166.064 170.192 166.176L173.088 161.952H168.896L169.12 160.8H175.392L172.288 165.104ZM185.891 166.24C187.123 166.672 187.907 167.664 187.907 168.944C187.907 170.752 186.483 172 184.435 172H181.315V160.8H184.275C186.259 160.8 187.651 162 187.651 163.712C187.651 164.88 186.963 165.792 185.891 166.24ZM184.275 161.952H182.531V165.76H184.275C185.523 165.76 186.403 164.96 186.403 163.792C186.403 162.704 185.523 161.952 184.275 161.952ZM184.435 170.848C185.747 170.848 186.659 170.048 186.659 168.88C186.659 167.712 185.747 166.912 184.435 166.912H182.531V170.848H184.435ZM193.244 171.136C194.236 171.136 195.132 170.704 195.9 169.824L196.332 170.848C195.452 171.712 194.38 172.16 193.228 172.16C191.052 172.16 189.484 170.544 189.484 168.496C189.484 166.416 191.116 164.8 193.196 164.8C194.924 164.8 196.252 165.936 196.508 167.712L190.796 169.568C191.18 170.496 192.076 171.136 193.244 171.136ZM193.18 165.824C191.724 165.824 190.588 167.008 190.588 168.496V168.56L195.196 167.072C194.892 166.304 194.108 165.824 193.18 165.824ZM200.085 172.16C199.301 172.16 198.485 171.872 197.845 171.424L198.037 170.4C198.741 170.896 199.381 171.168 200.085 171.168C200.805 171.168 201.285 170.752 201.285 170.064C201.285 169.584 201.045 169.232 199.989 168.896L199.701 168.8C198.597 168.432 198.021 167.696 198.021 166.736C198.021 165.632 198.901 164.8 200.149 164.8C200.773 164.8 201.461 165.008 202.069 165.344L201.861 166.368C201.221 165.968 200.581 165.792 200.149 165.792C199.461 165.792 199.077 166.192 199.077 166.72C199.077 167.168 199.317 167.488 200.245 167.808L200.533 167.904C201.717 168.288 202.373 169.024 202.373 170.064C202.373 171.296 201.445 172.16 200.085 172.16ZM209.141 165.056L210.261 164.848V172.016H209.205V171.152C208.677 171.792 207.909 172.16 206.997 172.16C205.413 172.16 204.245 171.088 204.245 169.2V165.056L205.365 164.848V169.104C205.365 170.416 206.101 171.104 207.157 171.104C208.309 171.104 209.141 170.272 209.141 168.944V165.056ZM215.868 172.16C213.82 172.16 212.14 170.512 212.14 168.48C212.14 166.448 213.804 164.8 215.868 164.8C216.476 164.8 217.1 164.944 217.724 165.248L217.516 166.32C217.004 166.016 216.46 165.84 215.868 165.84C214.364 165.84 213.292 167.008 213.292 168.48C213.292 169.952 214.38 171.12 215.868 171.12C216.524 171.12 217.1 170.896 217.596 170.592L217.788 171.696C217.196 171.984 216.54 172.16 215.868 172.16ZM222.935 164.8C224.503 164.8 225.703 165.872 225.703 167.76V172H224.583V167.856C224.583 166.544 223.831 165.856 222.759 165.856C221.591 165.856 220.743 166.688 220.743 168.016V172H219.623V160.592L220.743 160.368V165.824C221.255 165.168 222.023 164.8 222.935 164.8ZM231.213 171.136C232.205 171.136 233.101 170.704 233.869 169.824L234.301 170.848C233.421 171.712 232.349 172.16 231.197 172.16C229.021 172.16 227.453 170.544 227.453 168.496C227.453 166.416 229.085 164.8 231.165 164.8C232.893 164.8 234.221 165.936 234.477 167.712L228.765 169.568C229.149 170.496 230.045 171.136 231.213 171.136ZM231.149 165.824C229.693 165.824 228.557 167.008 228.557 168.496V168.56L233.165 167.072C232.861 166.304 232.077 165.824 231.149 165.824ZM237.397 166.016C237.893 165.264 238.709 164.848 239.861 164.848V165.984C238.277 165.984 237.461 166.752 237.461 168.336V172H236.341V165.056L237.397 164.848V166.016ZM244.908 174.48V159.76H245.996V174.48H244.908Z" fill="#003566"/>
<path d="M251.484 162.96L255.276 160.48V172H254.06V162.656L251.724 164.192L251.484 162.96ZM261.789 172.16C259.165 172.16 257.709 169.52 257.709 166.4C257.709 163.28 259.165 160.64 261.789 160.64C264.413 160.64 265.869 163.28 265.869 166.4C265.869 169.52 264.413 172.16 261.789 172.16ZM261.789 171.008C263.757 171.008 264.589 168.768 264.589 166.4C264.589 164.032 263.757 161.792 261.789 161.792C259.821 161.792 258.989 164.032 258.989 166.4C258.989 168.768 259.821 171.008 261.789 171.008ZM269.517 172.128L268.797 171.552L277.597 160.672L278.317 161.248L269.517 172.128ZM270.349 166.736C268.877 166.736 267.965 165.456 267.965 163.728C267.965 162 268.877 160.72 270.349 160.72C271.837 160.72 272.749 162 272.749 163.728C272.749 165.456 271.837 166.736 270.349 166.736ZM270.349 165.808C271.245 165.808 271.741 164.944 271.741 163.728C271.741 162.512 271.245 161.648 270.349 161.648C269.469 161.648 268.973 162.512 268.973 163.728C268.973 164.944 269.469 165.808 270.349 165.808ZM276.829 172.096C275.357 172.096 274.445 170.816 274.445 169.088C274.445 167.36 275.357 166.08 276.829 166.08C278.317 166.08 279.229 167.36 279.229 169.088C279.229 170.816 278.317 172.096 276.829 172.096ZM276.829 171.168C277.725 171.168 278.221 170.304 278.221 169.088C278.221 167.872 277.725 167.008 276.829 167.008C275.949 167.008 275.453 167.872 275.453 169.088C275.453 170.304 275.949 171.168 276.829 171.168Z" fill="#D14600"/>
<path d="M29.48 204.48L34.136 189.76H35.272L30.616 204.48H29.48ZM37.9994 200.848H42.8954L42.6714 202H36.7834V190.912L37.9994 190.688V200.848ZM49.7218 202H48.6818L48.6338 201.52C48.1698 201.92 47.5618 202.16 46.8738 202.16C45.3858 202.16 44.2338 201.024 44.2338 199.584C44.2338 198.144 45.3858 197.008 46.8738 197.008C47.5778 197.008 48.1218 197.248 48.5538 197.616V197.184C48.5538 196.272 48.1698 195.808 47.0338 195.808C46.4258 195.808 45.8658 195.936 45.3218 196.128L45.5298 195.088C46.0578 194.912 46.5538 194.832 47.0818 194.832C48.7938 194.832 49.6738 195.664 49.6738 197.088V200.64L49.7218 202ZM46.9698 201.2C47.9138 201.2 48.6498 200.48 48.6498 199.584C48.6498 198.672 47.8978 197.968 46.9698 197.968C46.0418 197.968 45.3058 198.672 45.3058 199.584C45.3058 200.496 46.0418 201.2 46.9698 201.2ZM58.3496 194.64L58.1416 195.744L56.8936 195.632C57.5816 196.16 57.9976 196.96 57.9976 197.904C57.9976 199.056 57.3416 200.032 56.3656 200.544C57.1976 201.04 57.7576 201.936 57.7576 202.976C57.7576 204.544 56.5096 205.84 54.7176 205.84C53.1336 205.84 51.9496 204.832 51.6936 203.36L52.7336 202.928C52.8616 204.064 53.6136 204.816 54.7176 204.816C55.8856 204.816 56.6696 203.984 56.6696 202.928C56.6696 201.84 55.8216 201.04 54.7016 201.04C53.9176 201.04 53.3416 201.44 52.9416 201.968L52.3496 201.136C52.5736 200.896 52.8136 200.704 53.0696 200.56C52.0936 200.048 51.4376 199.072 51.4376 197.888C51.4376 196.192 52.7816 194.864 54.7816 194.784L58.3496 194.64ZM54.7176 200.032C55.9656 200.032 56.9096 199.136 56.9096 197.936C56.9096 196.736 55.9656 195.808 54.7176 195.808C53.4696 195.808 52.5256 196.736 52.5256 197.936C52.5256 199.136 53.4696 200.032 54.7176 200.032ZM63.275 201.136C64.267 201.136 65.163 200.704 65.931 199.824L66.363 200.848C65.483 201.712 64.411 202.16 63.259 202.16C61.083 202.16 59.515 200.544 59.515 198.496C59.515 196.416 61.147 194.8 63.227 194.8C64.955 194.8 66.283 195.936 66.539 197.712L60.827 199.568C61.211 200.496 62.107 201.136 63.275 201.136ZM63.211 195.824C61.755 195.824 60.619 197.008 60.619 198.496V198.56L65.227 197.072C64.923 196.304 64.139 195.824 63.211 195.824Z" fill="#003566"/>
<path d="M178.28 200.848H182.6L182.376 202H175.8L179.56 197.376C180.888 195.728 181.336 194.784 181.336 193.92C181.336 192.656 180.392 191.744 179.192 191.744C177.992 191.744 177.048 192.688 177.048 193.904C177.048 194.4 177.208 194.848 177.416 195.248L176.2 195.488C175.944 195.024 175.8 194.48 175.8 193.904C175.8 192.048 177.288 190.592 179.192 190.592C181.08 190.592 182.584 191.984 182.584 193.92C182.584 194.96 182.168 196.032 180.552 198.032L178.28 200.848ZM193.141 196.24C194.373 196.672 195.157 197.664 195.157 198.944C195.157 200.752 193.733 202 191.685 202H188.565V190.8H191.525C193.509 190.8 194.901 192 194.901 193.712C194.901 194.88 194.213 195.792 193.141 196.24ZM191.525 191.952H189.781V195.76H191.525C192.773 195.76 193.653 194.96 193.653 193.792C193.653 192.704 192.773 191.952 191.525 191.952ZM191.685 200.848C192.997 200.848 193.909 200.048 193.909 198.88C193.909 197.712 192.997 196.912 191.685 196.912H189.781V200.848H191.685ZM200.494 201.136C201.486 201.136 202.382 200.704 203.15 199.824L203.582 200.848C202.702 201.712 201.63 202.16 200.478 202.16C198.302 202.16 196.734 200.544 196.734 198.496C196.734 196.416 198.366 194.8 200.446 194.8C202.174 194.8 203.502 195.936 203.758 197.712L198.046 199.568C198.43 200.496 199.326 201.136 200.494 201.136ZM200.43 195.824C198.974 195.824 197.838 197.008 197.838 198.496V198.56L202.446 197.072C202.142 196.304 201.358 195.824 200.43 195.824ZM207.335 202.16C206.551 202.16 205.735 201.872 205.095 201.424L205.287 200.4C205.991 200.896 206.631 201.168 207.335 201.168C208.055 201.168 208.535 200.752 208.535 200.064C208.535 199.584 208.295 199.232 207.239 198.896L206.951 198.8C205.847 198.432 205.271 197.696 205.271 196.736C205.271 195.632 206.151 194.8 207.399 194.8C208.023 194.8 208.711 195.008 209.319 195.344L209.111 196.368C208.471 195.968 207.831 195.792 207.399 195.792C206.711 195.792 206.327 196.192 206.327 196.72C206.327 197.168 206.567 197.488 207.495 197.808L207.783 197.904C208.967 198.288 209.623 199.024 209.623 200.064C209.623 201.296 208.695 202.16 207.335 202.16ZM216.391 195.056L217.511 194.848V202.016H216.455V201.152C215.927 201.792 215.159 202.16 214.247 202.16C212.663 202.16 211.495 201.088 211.495 199.2V195.056L212.615 194.848V199.104C212.615 200.416 213.351 201.104 214.407 201.104C215.559 201.104 216.391 200.272 216.391 198.944V195.056ZM223.118 202.16C221.07 202.16 219.39 200.512 219.39 198.48C219.39 196.448 221.054 194.8 223.118 194.8C223.726 194.8 224.35 194.944 224.974 195.248L224.766 196.32C224.254 196.016 223.71 195.84 223.118 195.84C221.614 195.84 220.542 197.008 220.542 198.48C220.542 199.952 221.63 201.12 223.118 201.12C223.774 201.12 224.35 200.896 224.846 200.592L225.038 201.696C224.446 201.984 223.79 202.16 223.118 202.16ZM230.185 194.8C231.753 194.8 232.953 195.872 232.953 197.76V202H231.833V197.856C231.833 196.544 231.081 195.856 230.009 195.856C228.841 195.856 227.993 196.688 227.993 198.016V202H226.873V190.592L227.993 190.368V195.824C228.505 195.168 229.273 194.8 230.185 194.8ZM238.463 201.136C239.455 201.136 240.351 200.704 241.119 199.824L241.551 200.848C240.671 201.712 239.599 202.16 238.447 202.16C236.271 202.16 234.703 200.544 234.703 198.496C234.703 196.416 236.335 194.8 238.415 194.8C240.143 194.8 241.471 195.936 241.727 197.712L236.015 199.568C236.399 200.496 237.295 201.136 238.463 201.136ZM238.399 195.824C236.943 195.824 235.807 197.008 235.807 198.496V198.56L240.415 197.072C240.111 196.304 239.327 195.824 238.399 195.824ZM244.647 196.016C245.143 195.264 245.959 194.848 247.111 194.848V195.984C245.527 195.984 244.711 196.752 244.711 198.336V202H243.591V195.056L244.647 194.848V196.016ZM252.158 204.48V189.76H253.246V204.48H252.158Z" fill="#003566"/>
<path d="M262.958 194.88C264.942 194.88 266.494 196.464 266.494 198.48C266.494 200.544 264.846 202.16 262.734 202.16C260.59 202.16 258.974 200.464 258.974 198.224C258.974 195.152 261.742 192.048 264.302 190.496L265.086 191.392C263.63 192.352 261.902 193.712 260.926 195.552C261.47 195.136 262.158 194.88 262.958 194.88ZM262.75 201.008C264.142 201.008 265.23 199.888 265.23 198.48C265.23 197.088 264.142 196 262.75 196C261.342 196 260.238 197.088 260.238 198.48C260.238 199.888 261.342 201.008 262.75 201.008ZM270.095 202.128L269.375 201.552L278.175 190.672L278.895 191.248L270.095 202.128ZM270.927 196.736C269.455 196.736 268.543 195.456 268.543 193.728C268.543 192 269.455 190.72 270.927 190.72C272.415 190.72 273.327 192 273.327 193.728C273.327 195.456 272.415 196.736 270.927 196.736ZM270.927 195.808C271.823 195.808 272.319 194.944 272.319 193.728C272.319 192.512 271.823 191.648 270.927 191.648C270.047 191.648 269.551 192.512 269.551 193.728C269.551 194.944 270.047 195.808 270.927 195.808ZM277.407 202.096C275.935 202.096 275.023 200.816 275.023 199.088C275.023 197.36 275.935 196.08 277.407 196.08C278.895 196.08 279.807 197.36 279.807 199.088C279.807 200.816 278.895 202.096 277.407 202.096ZM277.407 201.168C278.303 201.168 278.799 200.304 278.799 199.088C278.799 197.872 278.303 197.008 277.407 197.008C276.527 197.008 276.031 197.872 276.031 199.088C276.031 200.304 276.527 201.168 277.407 201.168Z" fill="#D14600"/>
<path d="M86.8552 234.8L81.6552 243.856H86.6632L86.3432 246H77.9112L83.1272 236.944H78.1672L78.5032 234.8H86.8552ZM92.8433 238.848L95.0353 238.576V246.016H92.9073V245.264C92.3793 245.856 91.6273 246.192 90.7313 246.192C89.0193 246.192 88.0433 245.024 88.0433 243.184V238.848L90.2193 238.576V242.912C90.2193 243.792 90.7313 244.304 91.4833 244.304C92.2833 244.304 92.8433 243.728 92.8433 242.832V238.848ZM98.9846 239.808C99.4166 238.992 100.169 238.576 101.321 238.576V240.528C99.8966 240.528 99.1126 241.184 99.1126 242.656V246H96.9366V238.848L98.9846 238.592V239.808ZM119.997 234.8L115.885 246.48L112.301 239.248L108.701 246.48L104.605 234.8H106.989L109.117 241.088L112.301 234.608L115.485 241.104L117.597 234.8H119.997ZM123.52 244.56C124.352 244.56 125.248 244.224 126.176 243.392L126.8 244.992C125.92 245.728 124.736 246.208 123.504 246.208C121.184 246.208 119.472 244.528 119.472 242.368C119.472 240.208 121.152 238.512 123.392 238.512C125.296 238.512 126.848 239.76 127.04 241.968L121.728 243.68C122.096 244.224 122.72 244.56 123.52 244.56ZM123.408 240.144C122.304 240.144 121.488 240.976 121.376 242.128L124.912 240.976C124.608 240.448 124.064 240.144 123.408 240.144ZM132.548 238.528C134.596 238.528 136.228 240.176 136.228 242.336C136.228 244.56 134.516 246.208 132.18 246.208C129.876 246.208 128.18 244.608 128.18 242.288V234.688L130.372 234.416V239.36C130.932 238.832 131.668 238.528 132.548 238.528ZM132.196 244.336C133.316 244.336 134.164 243.488 134.164 242.352C134.164 241.232 133.332 240.384 132.228 240.384C131.108 240.384 130.26 241.232 130.26 242.368C130.26 243.488 131.092 244.336 132.196 244.336ZM139.655 246.208C138.807 246.208 137.959 245.952 137.239 245.552L137.495 243.936C138.183 244.32 138.823 244.56 139.447 244.56C139.991 244.56 140.311 244.304 140.311 243.888C140.311 243.568 140.135 243.328 139.431 243.12L139.143 243.008C138.039 242.624 137.383 241.856 137.383 240.752C137.383 239.472 138.391 238.512 139.959 238.512C140.663 238.512 141.431 238.704 142.119 239.008L141.847 240.64C141.207 240.304 140.519 240.112 140.055 240.112C139.575 240.112 139.335 240.368 139.335 240.688C139.335 240.976 139.495 241.2 140.087 241.408L140.407 241.52C141.703 241.968 142.359 242.704 142.359 243.84C142.359 245.248 141.287 246.208 139.655 246.208ZM145.01 237.456C144.274 237.456 143.682 236.88 143.682 236.176C143.682 235.456 144.274 234.88 145.01 234.88C145.762 234.88 146.354 235.456 146.354 236.176C146.354 236.88 145.762 237.456 145.01 237.456ZM143.906 246V238.848L146.098 238.576V246H143.906ZM152.494 240.48H150.606V243.216C150.606 243.856 150.942 244.224 151.566 244.224C151.87 244.224 152.238 244.128 152.494 244.032V245.856C152.126 246.016 151.614 246.128 151.038 246.128C149.31 246.128 148.43 245.104 148.43 243.488V240.48H147.294L147.566 238.72H148.43V237.36L150.606 236.256V238.72H152.494V240.48ZM157.395 244.56C158.227 244.56 159.123 244.224 160.051 243.392L160.675 244.992C159.795 245.728 158.611 246.208 157.379 246.208C155.059 246.208 153.347 244.528 153.347 242.368C153.347 240.208 155.027 238.512 157.267 238.512C159.171 238.512 160.723 239.76 160.915 241.968L155.603 243.68C155.971 244.224 156.595 244.56 157.395 244.56ZM157.283 240.144C156.179 240.144 155.363 240.976 155.251 242.128L158.787 240.976C158.483 240.448 157.939 240.144 157.283 240.144ZM164.343 246.208C163.495 246.208 162.647 245.952 161.927 245.552L162.183 243.936C162.871 244.32 163.511 244.56 164.135 244.56C164.679 244.56 164.999 244.304 164.999 243.888C164.999 243.568 164.823 243.328 164.119 243.12L163.831 243.008C162.727 242.624 162.071 241.856 162.071 240.752C162.071 239.472 163.079 238.512 164.647 238.512C165.351 238.512 166.119 238.704 166.807 239.008L166.535 240.64C165.895 240.304 165.207 240.112 164.743 240.112C164.263 240.112 164.023 240.368 164.023 240.688C164.023 240.976 164.183 241.2 164.775 241.408L165.095 241.52C166.391 241.968 167.047 242.704 167.047 243.84C167.047 245.248 165.975 246.208 164.343 246.208ZM172.963 240.48H171.075V243.216C171.075 243.856 171.411 244.224 172.035 244.224C172.339 244.224 172.707 244.128 172.963 244.032V245.856C172.595 246.016 172.083 246.128 171.507 246.128C169.779 246.128 168.899 245.104 168.899 243.488V240.48H167.763L168.035 238.72H168.899V237.36L171.075 236.256V238.72H172.963V240.48ZM180.406 246H178.502L178.438 245.52C177.958 245.952 177.318 246.208 176.582 246.208C175.062 246.208 173.862 245.088 173.862 243.616C173.862 242.16 175.03 241.04 176.646 241.04C177.254 241.04 177.814 241.248 178.31 241.568V241.312C178.31 240.512 177.91 240.096 176.726 240.096C176.134 240.096 175.558 240.208 174.982 240.4L175.238 238.816C175.91 238.64 176.534 238.56 177.142 238.56C179.206 238.56 180.342 239.424 180.342 241.184V244.688L180.406 246ZM177.142 244.704C177.846 244.704 178.374 244.208 178.374 243.568C178.374 242.928 177.846 242.432 177.142 242.432C176.454 242.432 175.942 242.928 175.942 243.568C175.942 244.208 176.454 244.704 177.142 244.704ZM186.556 240.48H184.668V243.216C184.668 243.856 185.004 244.224 185.628 244.224C185.932 244.224 186.3 244.128 186.556 244.032V245.856C186.188 246.016 185.676 246.128 185.1 246.128C183.372 246.128 182.492 245.104 182.492 243.488V240.48H181.356L181.628 238.72H182.492V237.36L184.668 236.256V238.72H186.556V240.48ZM189.088 237.456C188.352 237.456 187.76 236.88 187.76 236.176C187.76 235.456 188.352 234.88 189.088 234.88C189.84 234.88 190.432 235.456 190.432 236.176C190.432 236.88 189.84 237.456 189.088 237.456ZM187.984 246V238.848L190.176 238.576V246H187.984ZM194.124 246.208C193.276 246.208 192.428 245.952 191.708 245.552L191.964 243.936C192.652 244.32 193.292 244.56 193.916 244.56C194.46 244.56 194.78 244.304 194.78 243.888C194.78 243.568 194.604 243.328 193.9 243.12L193.612 243.008C192.508 242.624 191.852 241.856 191.852 240.752C191.852 239.472 192.86 238.512 194.428 238.512C195.132 238.512 195.9 238.704 196.588 239.008L196.316 240.64C195.676 240.304 194.988 240.112 194.524 240.112C194.044 240.112 193.804 240.368 193.804 240.688C193.804 240.976 193.964 241.2 194.556 241.408L194.876 241.52C196.172 241.968 196.828 242.704 196.828 243.84C196.828 245.248 195.756 246.208 194.124 246.208ZM202.744 240.48H200.856V243.216C200.856 243.856 201.192 244.224 201.816 244.224C202.12 244.224 202.488 244.128 202.744 244.032V245.856C202.376 246.016 201.864 246.128 201.288 246.128C199.56 246.128 198.68 245.104 198.68 243.488V240.48H197.544L197.816 238.72H198.68V237.36L200.856 236.256V238.72H202.744V240.48ZM205.276 237.456C204.54 237.456 203.948 236.88 203.948 236.176C203.948 235.456 204.54 234.88 205.276 234.88C206.028 234.88 206.62 235.456 206.62 236.176C206.62 236.88 206.028 237.456 205.276 237.456ZM204.172 246V238.848L206.364 238.576V246H204.172ZM215.368 246H212.792L210.488 242.624V246H208.312V234.688L210.488 234.416V241.84L212.712 238.72H215.224L212.584 242.208L215.368 246Z" fill="#D14600"/>
<path d="M225.703 244.76L229.768 240.577C229.924 240.417 230 240.208 230 240C230 239.792 229.922 239.582 229.768 239.423L225.703 235.239C225.394 234.92 224.892 234.92 224.582 235.239L224.232 235.599C223.923 235.917 223.923 236.434 224.232 236.754L226.825 239.423C226.981 239.583 227.057 239.792 227.057 240C227.057 240.208 226.979 240.418 226.825 240.577L224.232 243.248C223.923 243.566 223.923 244.083 224.232 244.403L224.582 244.763C224.892 245.08 225.394 245.08 225.703 244.76Z" fill="#D14600"/>
</g>
<defs>
<filter id="filter0_d_270_4885" x="0.8" y="0.8" width="308.4" height="281.4" filterUnits="userSpaceOnUse" color-interpolation-filters="sRGB">
<feFlood flood-opacity="0" result="BackgroundImageFix"/>
<feColorMatrix in="SourceAlpha" type="matrix" values="0 0 0 0 0 0 0 0 0 0 0 0 0 0 0 0 0 0 127 0" result="hardAlpha"/>
<feMorphology radius="1" operator="dilate" in="SourceAlpha" result="effect1_dropShadow_270_4885"/>
<feOffset/>
<feGaussianBlur stdDeviation="3.6"/>
<feComposite in2="hardAlpha" operator="out"/>
<feColorMatrix type="matrix" values="0 0 0 0 0 0 0 0 0 0 0 0 0 0 0 0 0 0 0.14 0"/>
<feBlend mode="normal" in2="BackgroundImageFix" result="effect1_dropShadow_270_4885"/>
<feBlend mode="normal" in="SourceGraphic" in2="effect1_dropShadow_270_4885" result="shape"/>
</filter>
</defs>
</svg>
