<?xml version="1.0" encoding="UTF-8"?>
<svg id="Ebene_1" xmlns="http://www.w3.org/2000/svg" viewBox="0 0 283.46 136.43">
  <defs>
    <style>
      .cls-1 {
        fill: #1e1e1e;
      }
    </style>
  </defs>
  <path class="cls-1" d="M54.74,36.98c-1.66-2.48-3.91-4.36-6.75-5.66-.72-.33-1.47-.62-2.24-.87,2.42-1.28,4.38-3.05,5.87-5.3,1.57-2.39,2.36-5.27,2.36-8.66,0-5.02-1.99-9.02-5.98-12.01C44,1.5,38.2,0,30.58,0H1.94C1.34,0,.85.49.85,1.09v61.28c0,.6.49,1.09,1.09,1.09h30.46c8.22,0,14.41-1.51,18.58-4.53,4.17-3.02,6.25-7.25,6.25-12.69,0-3.68-.83-6.77-2.49-9.25ZM29.31,9.25c4.11,0,7.27.72,9.47,2.18,2.21,1.45,3.31,3.66,3.31,6.62s-1.1,5.08-3.31,6.53c-2.21,1.45-5.36,2.18-9.47,2.18h-15.59c-.6,0-1.09-.49-1.09-1.09v-15.32c0-.6.49-1.09,1.09-1.09h15.59ZM41.82,52.03c-2.36,1.45-5.74,2.18-10.15,2.18H13.72c-.6,0-1.09-.49-1.09-1.09v-16.14c0-.6.49-1.09,1.09-1.09h17.95c4.41,0,7.8.74,10.15,2.22,2.36,1.48,3.54,3.79,3.54,6.93s-1.18,5.53-3.54,6.98Z"/>
  <path class="cls-1" d="M197.27.53l-23.53,45.46c-.42.71-1.44.71-1.87,0L147.96.53C147.76.2,147.41,0,147.03,0h-8c-.6,0-1.09.49-1.09,1.09v61.28c0,.6.49,1.09,1.09,1.09h9.07c.6,0,1.09-.49,1.09-1.09V29.74c0-1.1,1.44-1.5,2.01-.56l18.52,33.76c.2.32.55.52.93.52h4.03c.38,0,.73-.2.93-.53l18.53-34.26c.57-.94,2.01-.54,2.02.56l.07,33.14c0,.6.49,1.08,1.09,1.08h8.98c.6,0,1.09-.49,1.09-1.09l-.09-61.28C207.29.49,206.8,0,206.2,0h-8c-.38,0-.74.2-.94.53Z"/>
  <path class="cls-1" d="M13.65,101.2c0-2.29-1.69-3.3-4.78-3.3H2.64v6.62h6.22c3.1,0,4.78-1.01,4.78-3.32M2.64,89.97v6.4h5.62c2.82,0,4.46-1.08,4.46-3.2s-1.64-3.2-4.46-3.2H2.64ZM15.51,101.35c0,3-2.22,4.71-6.62,4.71H.78v-17.63h7.61c3.93,0,6.19,1.66,6.19,4.53,0,2.02-1.08,3.35-2.69,4,2.27.5,3.63,1.99,3.63,4.38"/>
  <path class="cls-1" d="M31.66,99.84l-4.23-9.47-4.23,9.47h8.46ZM32.34,101.35h-9.82l-2.12,4.71h-1.94l8.06-17.63h1.84l8.06,17.63h-1.96l-2.12-4.71Z"/>
  <path class="cls-1" d="M51.45,99.84l-4.23-9.47-4.23,9.47h8.46ZM52.13,101.35h-9.82l-2.12,4.71h-1.94l8.06-17.63h1.84l8.06,17.63h-1.96l-2.12-4.71Z"/>
  <path class="cls-1" d="M72.58,94.48c0-2.82-1.86-4.43-5.39-4.43h-4.68v8.84h4.68c3.53,0,5.39-1.64,5.39-4.41M72.68,106.06l-4.03-5.67c-.45.05-.91.08-1.41.08h-4.73v5.59h-1.86v-17.63h6.6c4.48,0,7.2,2.27,7.2,6.04,0,2.77-1.46,4.71-4.03,5.54l4.31,6.04h-2.04Z"/>
  <polygon class="cls-1" points="92.83 104.45 92.83 106.06 80.37 106.06 80.37 88.43 92.45 88.43 92.45 90.04 82.23 90.04 82.23 96.31 91.35 96.31 91.35 97.9 82.23 97.9 82.23 104.45 92.83 104.45"/>
  <path class="cls-1" d="M110.66,94.46c0-2.82-1.86-4.43-5.39-4.43h-4.68v8.84h4.68c3.53,0,5.39-1.64,5.39-4.41M110.76,106.05l-4.03-5.67c-.45.05-.91.08-1.41.08h-4.73v5.59h-1.86v-17.63h6.6c4.48,0,7.2,2.27,7.2,6.04,0,2.77-1.46,4.71-4.03,5.54l4.31,6.04h-2.04Z"/>
  <polygon class="cls-1" points="136.75 88.43 136.75 106.06 134.97 106.06 134.97 91.96 128.04 103.82 127.16 103.82 120.23 92.03 120.23 106.06 118.45 106.06 118.45 88.43 119.98 88.43 127.64 101.5 135.22 88.43 136.75 88.43"/>
  <path class="cls-1" d="M154.39,99.84l-4.23-9.47-4.23,9.47h8.46ZM155.07,101.35h-9.82l-2.12,4.71h-1.94l8.06-17.63h1.84l8.06,17.63h-1.96l-2.12-4.71Z"/>
  <polygon class="cls-1" points="166.12 90.04 159.93 90.04 159.93 88.43 174.18 88.43 174.18 90.04 167.99 90.04 167.99 106.06 166.12 106.06 166.12 90.04"/>
  <polygon class="cls-1" points="182.34 90.04 176.15 90.04 176.15 88.43 190.4 88.43 190.4 90.04 184.21 90.04 184.21 106.06 182.34 106.06 182.34 90.04"/>
  <polygon class="cls-1" points="207.35 104.45 207.35 106.06 194.89 106.06 194.89 88.43 206.97 88.43 206.97 90.04 196.75 90.04 196.75 96.31 205.86 96.31 205.86 97.9 196.75 97.9 196.75 104.45 207.35 104.45"/>
  <polygon class="cls-1" points=".18 118.65 .18 120.27 11.69 120.27 0 135 0 136.28 14.46 136.28 14.46 134.67 2.49 134.67 14.15 119.94 14.15 118.65 .18 118.65"/>
  <g>
    <path class="cls-1" d="M19.49,128.75v-10.1h1.86v10.02c0,4.18,1.96,6.09,5.39,6.09s5.41-1.91,5.41-6.09v-10.02h1.81v10.1c0,5.06-2.72,7.68-7.23,7.68s-7.25-2.62-7.25-7.68"/>
    <path class="cls-1" d="M53.52,127.47h1.79v6.72c-1.66,1.49-4.03,2.24-6.47,2.24-5.36,0-9.29-3.8-9.29-8.97s3.93-8.96,9.32-8.96c2.67,0,4.99.86,6.55,2.54l-1.16,1.18c-1.49-1.46-3.25-2.06-5.31-2.06-4.36,0-7.56,3.1-7.56,7.3s3.2,7.3,7.53,7.3c1.69,0,3.25-.38,4.61-1.36v-5.94Z"/>
  </g>
  <path class="cls-1" d="M118.05,63.45h9.93c.79,0,1.31-.81.99-1.53L101.3.64c-.18-.39-.56-.64-.99-.64h-10.2c-.43,0-.81.25-.99.64l-27.58,61.28c-.32.72.2,1.53.99,1.53h9.75c.43,0,.83-.26,1-.66l4.3-10.05c.17-.4.56-.66,1-.66h33.15c.43,0,.83.26,1,.66l4.32,10.05c.17.4.56.66,1,.66ZM82.48,41.32l11.66-27.24c.38-.88,1.62-.88,2,0l11.7,27.24c.31.72-.22,1.51-1,1.51h-23.36c-.78,0-1.3-.8-1-1.51Z"/>
  <path class="cls-1" d="M272.45,63.45h9.93c.79,0,1.31-.81.99-1.53L255.7.64c-.18-.39-.56-.64-.99-.64h-10.2c-.43,0-.81.25-.99.64l-27.58,61.28c-.32.72.2,1.53.99,1.53h9.75c.43,0,.83-.26,1-.66l4.3-10.05c.17-.4.56-.66,1-.66h33.15c.43,0,.83.26,1,.66l4.32,10.05c.17.4.56.66,1,.66ZM236.87,41.32l11.66-27.24c.38-.88,1.62-.88,2,0l11.7,27.24c.31.72-.22,1.51-1,1.51h-23.36c-.78,0-1.3-.8-1-1.51Z"/>
</svg>