<svg width="88" height="22" viewBox="0 0 88 22" fill="none" xmlns="http://www.w3.org/2000/svg">
<path d="M77.2688 17.6861H75.7634V5.03656H77.2688C78.5376 5.03656 79.6559 5.29472 80.6236 5.83254C81.6129 6.37036 82.3656 7.12331 82.9247 8.06988C83.4839 9.01645 83.7634 10.1136 83.7634 11.3398C83.7634 12.5446 83.4839 13.6202 82.9247 14.5883C82.3656 15.5564 81.6129 16.3093 80.6236 16.8471C79.6559 17.4065 78.5376 17.6861 77.2688 17.6861ZM71.6129 1.16424V21.5369H77.3978C79.3978 21.5369 81.2043 21.0852 82.8172 20.2031C84.4301 19.3211 85.6989 18.0949 86.6236 16.546C87.5484 14.997 88 13.2545 88 11.3398C88 9.42519 87.5484 7.68265 86.6236 6.13372C85.6989 4.58479 84.4301 3.35856 82.8172 2.47653C81.2043 1.5945 79.3978 1.14273 77.3978 1.14273H71.6129V1.16424ZM66.4086 9.85545C65.6344 9.2746 64.7527 8.90888 63.7634 8.75829L68.5591 1.16424H56.1505L55.5914 4.84295H62.086L58.129 11.8346C59.0968 11.6195 59.957 11.5119 60.7097 11.5119C61.5484 11.5119 62.2581 11.6625 62.8602 11.9422C63.4624 12.2434 63.914 12.6306 64.2366 13.1254C64.5591 13.6202 64.7097 14.2011 64.7097 14.8464C64.7097 15.4918 64.5591 16.0727 64.2366 16.589C63.914 17.1053 63.4839 17.514 62.9247 17.7937C62.3656 18.0949 61.7419 18.224 61.0538 18.224C60.2151 18.224 59.4194 18.0303 58.6452 17.6431C57.871 17.2559 57.2043 16.7611 56.6236 16.1372L55.0323 19.4287C56.9032 21.1067 58.9462 21.9242 61.1828 21.9242C62.6237 21.9242 63.914 21.623 65.0968 21.0206C66.2796 20.4183 67.1828 19.5793 67.871 18.5251C68.5376 17.471 68.8817 16.2878 68.8817 14.954C68.8817 13.8784 68.6667 12.9103 68.2365 12.0283C67.7849 11.1677 67.1828 10.4363 66.4086 9.85545ZM49.4409 11.5119H52.8817V8.30652H49.4409V3.83184L45.4839 5.83254V8.30652H43.914L43.4194 11.5119H45.4839V16.9762C45.4839 18.4606 45.8925 19.6438 46.6882 20.5043C47.4839 21.3648 48.6667 21.7951 50.2151 21.7951C51.2258 21.7951 52.1075 21.623 52.8602 21.3003V17.9873C52.6021 18.0949 52.3226 18.1594 52.0215 18.2455C51.7204 18.31 51.4194 18.353 51.1828 18.353C50.6237 18.353 50.1936 18.2025 49.8925 17.8798C49.5914 17.5571 49.4409 17.1053 49.4409 16.5244V11.5119ZM39.4194 8.62922C38.6667 8.17745 37.7849 7.96232 36.7527 7.96232C35.9355 7.96232 35.2043 8.11291 34.5161 8.39257C33.8495 8.69375 33.2688 9.1025 32.8172 9.64032V0.47583L28.8602 0.970627V21.5585H32.8172V14.072C32.8172 13.5342 32.9247 13.0609 33.1398 12.6521C33.3548 12.2434 33.6559 11.9207 34.043 11.7056C34.4301 11.4904 34.8602 11.3614 35.3548 11.3614C36.0645 11.3614 36.6452 11.598 37.0753 12.0498C37.5054 12.5015 37.7204 13.1254 37.7204 13.9214V21.5585H41.6989V13.4266C41.6989 12.3294 41.5054 11.3614 41.1183 10.5223C40.7312 9.68335 40.1505 9.08099 39.4194 8.62922ZM19.0753 20.9991C20.1935 21.623 21.4194 21.9242 22.7957 21.9242C24.043 21.9242 25.2258 21.6445 26.3656 21.1067L25.871 17.7077C24.8817 18.2455 23.9355 18.5251 23.0108 18.5251C22.3011 18.5251 21.6559 18.3746 21.0968 18.0519C20.5376 17.7292 20.1075 17.2989 19.7849 16.7396C19.4839 16.1802 19.3118 15.5779 19.3118 14.911C19.3118 14.2441 19.4624 13.6417 19.7849 13.0824C20.086 12.523 20.5376 12.0928 21.0753 11.7701C21.6344 11.4474 22.2581 11.2968 22.9892 11.2968C23.8495 11.2968 24.7527 11.555 25.6989 12.0498L26.2581 8.65072C25.1183 8.15593 23.957 7.91929 22.7742 7.91929C21.4409 7.91929 20.2151 8.22047 19.0968 8.84435C17.9785 9.44671 17.0968 10.2857 16.4731 11.3614C15.828 12.437 15.5054 13.6202 15.5054 14.911C15.5054 16.2017 15.828 17.4065 16.4731 18.4606C17.0753 19.5362 17.957 20.3753 19.0753 20.9991ZM5.39785 11.3614C5.93548 11.0602 6.53764 10.8881 7.1828 10.8881C7.78495 10.8881 8.32258 11.0171 8.7957 11.2753C9.26882 11.5335 9.63441 11.9207 9.91398 12.394L3.48387 14.4807C3.54839 13.7923 3.74194 13.1684 4.08602 12.6091C4.43011 12.0928 4.86022 11.6625 5.39785 11.3614ZM12.2151 16.8041C10.6452 18.224 9.03226 18.9339 7.37634 18.9339C6.66667 18.9339 6.02151 18.7833 5.46237 18.5036C4.90323 18.224 4.45161 17.8367 4.10753 17.3204L13.7634 14.2011C13.6559 12.9103 13.2903 11.7701 12.6667 10.8235C12.0645 9.87696 11.2688 9.14552 10.3011 8.65072C9.33333 8.15593 8.27957 7.89777 7.11828 7.89777C5.78494 7.89777 4.55914 8.19896 3.48387 8.82283C2.3871 9.4467 1.54839 10.2857 0.924732 11.3614C0.301076 12.437 0 13.6202 0 14.911C0 16.2017 0.322581 17.4065 0.967742 18.4606C1.6129 19.5147 2.49462 20.3753 3.5914 20.9776C4.70968 21.58 5.95699 21.9027 7.33333 21.9027C8.43011 21.9027 9.48387 21.7091 10.5376 21.3003C11.5914 20.9131 12.5161 20.3537 13.3333 19.6868L12.2151 16.8041Z" fill="#001D3D"/>
</svg>
